%TF.GenerationSoftware,KiCad,Pcbnew,(5.1.2-1)-1*%
%TF.CreationDate,2019-08-17T10:29:18+10:00*%
%TF.ProjectId,GreengrassEntryHardware,47726565-6e67-4726-9173-73456e747279,v1.0*%
%TF.SameCoordinates,Original*%
%TF.FileFunction,Soldermask,Top*%
%TF.FilePolarity,Negative*%
%FSLAX46Y46*%
G04 Gerber Fmt 4.6, Leading zero omitted, Abs format (unit mm)*
G04 Created by KiCad (PCBNEW (5.1.2-1)-1) date 2019-08-17 10:29:18*
%MOMM*%
%LPD*%
G04 APERTURE LIST*
%ADD10C,0.150000*%
G04 APERTURE END LIST*
D10*
G36*
X178825862Y-129098398D02*
G01*
X178838114Y-129099000D01*
X180051000Y-129099000D01*
X180051000Y-131101000D01*
X178838114Y-131101000D01*
X178825862Y-131101602D01*
X178800000Y-131104149D01*
X178774138Y-131101602D01*
X178761886Y-131101000D01*
X178688594Y-131101000D01*
X178671836Y-131092043D01*
X178660299Y-131087915D01*
X178575307Y-131062132D01*
X178549664Y-131054354D01*
X178436575Y-130993906D01*
X178337447Y-130912554D01*
X178256094Y-130813424D01*
X178195646Y-130700335D01*
X178185960Y-130668403D01*
X178158420Y-130577617D01*
X178149000Y-130481972D01*
X178149000Y-129718027D01*
X178158420Y-129622382D01*
X178195645Y-129499668D01*
X178256096Y-129386574D01*
X178337447Y-129287446D01*
X178436576Y-129206094D01*
X178549666Y-129145646D01*
X178549669Y-129145645D01*
X178660290Y-129112088D01*
X178682925Y-129102712D01*
X178688481Y-129099000D01*
X178761886Y-129099000D01*
X178774138Y-129098398D01*
X178800000Y-129095851D01*
X178825862Y-129098398D01*
X178825862Y-129098398D01*
G37*
G36*
X185825862Y-129098398D02*
G01*
X185838114Y-129099000D01*
X185911406Y-129099000D01*
X185928164Y-129107957D01*
X185939707Y-129112087D01*
X186050331Y-129145645D01*
X186050334Y-129145646D01*
X186163424Y-129206094D01*
X186262554Y-129287447D01*
X186343906Y-129386575D01*
X186404354Y-129499664D01*
X186414040Y-129531596D01*
X186441580Y-129622382D01*
X186451000Y-129718027D01*
X186451000Y-130481973D01*
X186441580Y-130577618D01*
X186414040Y-130668404D01*
X186404354Y-130700336D01*
X186343906Y-130813425D01*
X186262554Y-130912554D01*
X186163425Y-130993906D01*
X186050336Y-131054354D01*
X186024693Y-131062132D01*
X185939708Y-131087913D01*
X185917075Y-131097287D01*
X185911518Y-131101000D01*
X185838114Y-131101000D01*
X185825862Y-131101602D01*
X185800000Y-131104149D01*
X185774138Y-131101602D01*
X185761886Y-131101000D01*
X184549000Y-131101000D01*
X184549000Y-129099000D01*
X185761886Y-129099000D01*
X185774138Y-129098398D01*
X185800000Y-129095851D01*
X185825862Y-129098398D01*
X185825862Y-129098398D01*
G37*
G36*
X184101000Y-131101000D02*
G01*
X182499000Y-131101000D01*
X182499000Y-129099000D01*
X184101000Y-129099000D01*
X184101000Y-131101000D01*
X184101000Y-131101000D01*
G37*
G36*
X182101000Y-131101000D02*
G01*
X180499000Y-131101000D01*
X180499000Y-129099000D01*
X182101000Y-129099000D01*
X182101000Y-131101000D01*
X182101000Y-131101000D01*
G37*
G36*
X180026348Y-126653820D02*
G01*
X180026350Y-126653821D01*
X180026351Y-126653821D01*
X180167574Y-126712317D01*
X180167577Y-126712319D01*
X180294669Y-126797239D01*
X180402761Y-126905331D01*
X180459375Y-126990060D01*
X180487683Y-127032426D01*
X180508517Y-127082725D01*
X180520068Y-127104336D01*
X180535614Y-127123278D01*
X180554556Y-127138823D01*
X180576166Y-127150374D01*
X180599615Y-127157487D01*
X180624001Y-127159889D01*
X180648387Y-127157487D01*
X180671836Y-127150374D01*
X180693447Y-127138823D01*
X180712389Y-127123277D01*
X180727934Y-127104335D01*
X180739485Y-127082725D01*
X180746598Y-127059276D01*
X180749000Y-127034890D01*
X180749000Y-126674000D01*
X183851000Y-126674000D01*
X183851000Y-127034890D01*
X183853402Y-127059276D01*
X183860515Y-127082725D01*
X183872066Y-127104336D01*
X183887611Y-127123278D01*
X183906553Y-127138823D01*
X183928164Y-127150374D01*
X183951613Y-127157487D01*
X183975999Y-127159889D01*
X184000385Y-127157487D01*
X184023834Y-127150374D01*
X184045445Y-127138823D01*
X184064387Y-127123278D01*
X184079932Y-127104336D01*
X184091483Y-127082725D01*
X184112317Y-127032426D01*
X184140625Y-126990060D01*
X184197239Y-126905331D01*
X184305331Y-126797239D01*
X184432423Y-126712319D01*
X184432426Y-126712317D01*
X184573649Y-126653821D01*
X184573650Y-126653821D01*
X184573652Y-126653820D01*
X184723569Y-126624000D01*
X184876431Y-126624000D01*
X185026348Y-126653820D01*
X185026350Y-126653821D01*
X185026351Y-126653821D01*
X185167574Y-126712317D01*
X185167577Y-126712319D01*
X185294669Y-126797239D01*
X185402761Y-126905331D01*
X185487681Y-127032423D01*
X185487683Y-127032426D01*
X185546179Y-127173649D01*
X185576000Y-127323571D01*
X185576000Y-127476429D01*
X185546179Y-127626351D01*
X185487683Y-127767574D01*
X185487682Y-127767575D01*
X185487681Y-127767577D01*
X185402761Y-127894669D01*
X185294669Y-128002761D01*
X185167577Y-128087681D01*
X185167574Y-128087683D01*
X185026351Y-128146179D01*
X185026350Y-128146179D01*
X185026348Y-128146180D01*
X184876431Y-128176000D01*
X184723569Y-128176000D01*
X184573652Y-128146180D01*
X184573650Y-128146179D01*
X184573649Y-128146179D01*
X184432426Y-128087683D01*
X184432423Y-128087681D01*
X184305331Y-128002761D01*
X184197239Y-127894669D01*
X184112318Y-127767575D01*
X184112317Y-127767574D01*
X184091481Y-127717272D01*
X184079932Y-127695664D01*
X184064386Y-127676722D01*
X184045444Y-127661177D01*
X184023834Y-127649626D01*
X184000385Y-127642513D01*
X183975999Y-127640111D01*
X183951613Y-127642513D01*
X183928164Y-127649626D01*
X183906553Y-127661177D01*
X183887611Y-127676723D01*
X183872066Y-127695665D01*
X183860515Y-127717275D01*
X183853402Y-127740724D01*
X183851000Y-127765110D01*
X183851000Y-128126000D01*
X180749000Y-128126000D01*
X180749000Y-127765110D01*
X180746598Y-127740724D01*
X180739485Y-127717275D01*
X180727934Y-127695664D01*
X180712389Y-127676722D01*
X180693447Y-127661177D01*
X180671836Y-127649626D01*
X180648387Y-127642513D01*
X180624001Y-127640111D01*
X180599615Y-127642513D01*
X180576166Y-127649626D01*
X180554555Y-127661177D01*
X180535613Y-127676722D01*
X180520068Y-127695664D01*
X180508519Y-127717272D01*
X180487683Y-127767574D01*
X180487682Y-127767575D01*
X180402761Y-127894669D01*
X180294669Y-128002761D01*
X180167577Y-128087681D01*
X180167574Y-128087683D01*
X180026351Y-128146179D01*
X180026350Y-128146179D01*
X180026348Y-128146180D01*
X179876431Y-128176000D01*
X179723569Y-128176000D01*
X179573652Y-128146180D01*
X179573650Y-128146179D01*
X179573649Y-128146179D01*
X179432426Y-128087683D01*
X179432423Y-128087681D01*
X179305331Y-128002761D01*
X179197239Y-127894669D01*
X179112319Y-127767577D01*
X179112318Y-127767575D01*
X179112317Y-127767574D01*
X179053821Y-127626351D01*
X179024000Y-127476429D01*
X179024000Y-127323571D01*
X179053821Y-127173649D01*
X179112317Y-127032426D01*
X179112319Y-127032423D01*
X179197239Y-126905331D01*
X179305331Y-126797239D01*
X179432423Y-126712319D01*
X179432426Y-126712317D01*
X179573649Y-126653821D01*
X179573650Y-126653821D01*
X179573652Y-126653820D01*
X179723569Y-126624000D01*
X179876431Y-126624000D01*
X180026348Y-126653820D01*
X180026348Y-126653820D01*
G37*
G36*
X131006564Y-123489389D02*
G01*
X131197833Y-123568615D01*
X131197835Y-123568616D01*
X131222412Y-123585038D01*
X131369973Y-123683635D01*
X131516365Y-123830027D01*
X131631385Y-124002167D01*
X131710611Y-124193436D01*
X131751000Y-124396484D01*
X131751000Y-124603516D01*
X131710611Y-124806564D01*
X131631385Y-124997833D01*
X131631384Y-124997835D01*
X131516365Y-125169973D01*
X131369973Y-125316365D01*
X131197835Y-125431384D01*
X131197834Y-125431385D01*
X131197833Y-125431385D01*
X131006564Y-125510611D01*
X130803516Y-125551000D01*
X130596484Y-125551000D01*
X130393436Y-125510611D01*
X130202167Y-125431385D01*
X130202166Y-125431385D01*
X130202165Y-125431384D01*
X130030027Y-125316365D01*
X129883635Y-125169973D01*
X129768616Y-124997835D01*
X129768615Y-124997833D01*
X129689389Y-124806564D01*
X129649000Y-124603516D01*
X129649000Y-124396484D01*
X129689389Y-124193436D01*
X129768615Y-124002167D01*
X129883635Y-123830027D01*
X130030027Y-123683635D01*
X130177588Y-123585038D01*
X130202165Y-123568616D01*
X130202167Y-123568615D01*
X130393436Y-123489389D01*
X130596484Y-123449000D01*
X130803516Y-123449000D01*
X131006564Y-123489389D01*
X131006564Y-123489389D01*
G37*
G36*
X128506564Y-123489389D02*
G01*
X128697833Y-123568615D01*
X128697835Y-123568616D01*
X128722412Y-123585038D01*
X128869973Y-123683635D01*
X129016365Y-123830027D01*
X129131385Y-124002167D01*
X129210611Y-124193436D01*
X129251000Y-124396484D01*
X129251000Y-124603516D01*
X129210611Y-124806564D01*
X129131385Y-124997833D01*
X129131384Y-124997835D01*
X129016365Y-125169973D01*
X128869973Y-125316365D01*
X128697835Y-125431384D01*
X128697834Y-125431385D01*
X128697833Y-125431385D01*
X128506564Y-125510611D01*
X128303516Y-125551000D01*
X128096484Y-125551000D01*
X127893436Y-125510611D01*
X127702167Y-125431385D01*
X127702166Y-125431385D01*
X127702165Y-125431384D01*
X127530027Y-125316365D01*
X127383635Y-125169973D01*
X127268616Y-124997835D01*
X127268615Y-124997833D01*
X127189389Y-124806564D01*
X127149000Y-124603516D01*
X127149000Y-124396484D01*
X127189389Y-124193436D01*
X127268615Y-124002167D01*
X127383635Y-123830027D01*
X127530027Y-123683635D01*
X127677588Y-123585038D01*
X127702165Y-123568616D01*
X127702167Y-123568615D01*
X127893436Y-123489389D01*
X128096484Y-123449000D01*
X128303516Y-123449000D01*
X128506564Y-123489389D01*
X128506564Y-123489389D01*
G37*
G36*
X126006564Y-123489389D02*
G01*
X126197833Y-123568615D01*
X126197835Y-123568616D01*
X126222412Y-123585038D01*
X126369973Y-123683635D01*
X126516365Y-123830027D01*
X126631385Y-124002167D01*
X126710611Y-124193436D01*
X126751000Y-124396484D01*
X126751000Y-124603516D01*
X126710611Y-124806564D01*
X126631385Y-124997833D01*
X126631384Y-124997835D01*
X126516365Y-125169973D01*
X126369973Y-125316365D01*
X126197835Y-125431384D01*
X126197834Y-125431385D01*
X126197833Y-125431385D01*
X126006564Y-125510611D01*
X125803516Y-125551000D01*
X125596484Y-125551000D01*
X125393436Y-125510611D01*
X125202167Y-125431385D01*
X125202166Y-125431385D01*
X125202165Y-125431384D01*
X125030027Y-125316365D01*
X124883635Y-125169973D01*
X124768616Y-124997835D01*
X124768615Y-124997833D01*
X124689389Y-124806564D01*
X124649000Y-124603516D01*
X124649000Y-124396484D01*
X124689389Y-124193436D01*
X124768615Y-124002167D01*
X124883635Y-123830027D01*
X125030027Y-123683635D01*
X125177588Y-123585038D01*
X125202165Y-123568616D01*
X125202167Y-123568615D01*
X125393436Y-123489389D01*
X125596484Y-123449000D01*
X125803516Y-123449000D01*
X126006564Y-123489389D01*
X126006564Y-123489389D01*
G37*
G36*
X123506564Y-123489389D02*
G01*
X123697833Y-123568615D01*
X123697835Y-123568616D01*
X123722412Y-123585038D01*
X123869973Y-123683635D01*
X124016365Y-123830027D01*
X124131385Y-124002167D01*
X124210611Y-124193436D01*
X124251000Y-124396484D01*
X124251000Y-124603516D01*
X124210611Y-124806564D01*
X124131385Y-124997833D01*
X124131384Y-124997835D01*
X124016365Y-125169973D01*
X123869973Y-125316365D01*
X123697835Y-125431384D01*
X123697834Y-125431385D01*
X123697833Y-125431385D01*
X123506564Y-125510611D01*
X123303516Y-125551000D01*
X123096484Y-125551000D01*
X122893436Y-125510611D01*
X122702167Y-125431385D01*
X122702166Y-125431385D01*
X122702165Y-125431384D01*
X122530027Y-125316365D01*
X122383635Y-125169973D01*
X122268616Y-124997835D01*
X122268615Y-124997833D01*
X122189389Y-124806564D01*
X122149000Y-124603516D01*
X122149000Y-124396484D01*
X122189389Y-124193436D01*
X122268615Y-124002167D01*
X122383635Y-123830027D01*
X122530027Y-123683635D01*
X122677588Y-123585038D01*
X122702165Y-123568616D01*
X122702167Y-123568615D01*
X122893436Y-123489389D01*
X123096484Y-123449000D01*
X123303516Y-123449000D01*
X123506564Y-123489389D01*
X123506564Y-123489389D01*
G37*
G36*
X121006564Y-123489389D02*
G01*
X121197833Y-123568615D01*
X121197835Y-123568616D01*
X121222412Y-123585038D01*
X121369973Y-123683635D01*
X121516365Y-123830027D01*
X121631385Y-124002167D01*
X121710611Y-124193436D01*
X121751000Y-124396484D01*
X121751000Y-124603516D01*
X121710611Y-124806564D01*
X121631385Y-124997833D01*
X121631384Y-124997835D01*
X121516365Y-125169973D01*
X121369973Y-125316365D01*
X121197835Y-125431384D01*
X121197834Y-125431385D01*
X121197833Y-125431385D01*
X121006564Y-125510611D01*
X120803516Y-125551000D01*
X120596484Y-125551000D01*
X120393436Y-125510611D01*
X120202167Y-125431385D01*
X120202166Y-125431385D01*
X120202165Y-125431384D01*
X120030027Y-125316365D01*
X119883635Y-125169973D01*
X119768616Y-124997835D01*
X119768615Y-124997833D01*
X119689389Y-124806564D01*
X119649000Y-124603516D01*
X119649000Y-124396484D01*
X119689389Y-124193436D01*
X119768615Y-124002167D01*
X119883635Y-123830027D01*
X120030027Y-123683635D01*
X120177588Y-123585038D01*
X120202165Y-123568616D01*
X120202167Y-123568615D01*
X120393436Y-123489389D01*
X120596484Y-123449000D01*
X120803516Y-123449000D01*
X121006564Y-123489389D01*
X121006564Y-123489389D01*
G37*
G36*
X118506564Y-123489389D02*
G01*
X118697833Y-123568615D01*
X118697835Y-123568616D01*
X118722412Y-123585038D01*
X118869973Y-123683635D01*
X119016365Y-123830027D01*
X119131385Y-124002167D01*
X119210611Y-124193436D01*
X119251000Y-124396484D01*
X119251000Y-124603516D01*
X119210611Y-124806564D01*
X119131385Y-124997833D01*
X119131384Y-124997835D01*
X119016365Y-125169973D01*
X118869973Y-125316365D01*
X118697835Y-125431384D01*
X118697834Y-125431385D01*
X118697833Y-125431385D01*
X118506564Y-125510611D01*
X118303516Y-125551000D01*
X118096484Y-125551000D01*
X117893436Y-125510611D01*
X117702167Y-125431385D01*
X117702166Y-125431385D01*
X117702165Y-125431384D01*
X117530027Y-125316365D01*
X117383635Y-125169973D01*
X117268616Y-124997835D01*
X117268615Y-124997833D01*
X117189389Y-124806564D01*
X117149000Y-124603516D01*
X117149000Y-124396484D01*
X117189389Y-124193436D01*
X117268615Y-124002167D01*
X117383635Y-123830027D01*
X117530027Y-123683635D01*
X117677588Y-123585038D01*
X117702165Y-123568616D01*
X117702167Y-123568615D01*
X117893436Y-123489389D01*
X118096484Y-123449000D01*
X118303516Y-123449000D01*
X118506564Y-123489389D01*
X118506564Y-123489389D01*
G37*
G36*
X116006564Y-123489389D02*
G01*
X116197833Y-123568615D01*
X116197835Y-123568616D01*
X116222412Y-123585038D01*
X116369973Y-123683635D01*
X116516365Y-123830027D01*
X116631385Y-124002167D01*
X116710611Y-124193436D01*
X116751000Y-124396484D01*
X116751000Y-124603516D01*
X116710611Y-124806564D01*
X116631385Y-124997833D01*
X116631384Y-124997835D01*
X116516365Y-125169973D01*
X116369973Y-125316365D01*
X116197835Y-125431384D01*
X116197834Y-125431385D01*
X116197833Y-125431385D01*
X116006564Y-125510611D01*
X115803516Y-125551000D01*
X115596484Y-125551000D01*
X115393436Y-125510611D01*
X115202167Y-125431385D01*
X115202166Y-125431385D01*
X115202165Y-125431384D01*
X115030027Y-125316365D01*
X114883635Y-125169973D01*
X114768616Y-124997835D01*
X114768615Y-124997833D01*
X114689389Y-124806564D01*
X114649000Y-124603516D01*
X114649000Y-124396484D01*
X114689389Y-124193436D01*
X114768615Y-124002167D01*
X114883635Y-123830027D01*
X115030027Y-123683635D01*
X115177588Y-123585038D01*
X115202165Y-123568616D01*
X115202167Y-123568615D01*
X115393436Y-123489389D01*
X115596484Y-123449000D01*
X115803516Y-123449000D01*
X116006564Y-123489389D01*
X116006564Y-123489389D01*
G37*
G36*
X113878210Y-123458489D02*
G01*
X113964950Y-123484802D01*
X114044889Y-123527530D01*
X114114962Y-123585038D01*
X114172470Y-123655111D01*
X114215198Y-123735050D01*
X114241511Y-123821790D01*
X114251000Y-123918140D01*
X114251000Y-125081860D01*
X114241511Y-125178210D01*
X114215198Y-125264950D01*
X114172470Y-125344889D01*
X114114962Y-125414962D01*
X114044889Y-125472470D01*
X113964950Y-125515198D01*
X113878210Y-125541511D01*
X113781860Y-125551000D01*
X112618140Y-125551000D01*
X112521790Y-125541511D01*
X112435050Y-125515198D01*
X112355111Y-125472470D01*
X112285038Y-125414962D01*
X112227530Y-125344889D01*
X112184802Y-125264950D01*
X112158489Y-125178210D01*
X112149000Y-125081860D01*
X112149000Y-123918140D01*
X112158489Y-123821790D01*
X112184802Y-123735050D01*
X112227530Y-123655111D01*
X112285038Y-123585038D01*
X112355111Y-123527530D01*
X112435050Y-123484802D01*
X112521790Y-123458489D01*
X112618140Y-123449000D01*
X113781860Y-123449000D01*
X113878210Y-123458489D01*
X113878210Y-123458489D01*
G37*
G36*
X174906564Y-123489389D02*
G01*
X175097833Y-123568615D01*
X175097835Y-123568616D01*
X175122412Y-123585038D01*
X175269973Y-123683635D01*
X175416365Y-123830027D01*
X175531385Y-124002167D01*
X175610611Y-124193436D01*
X175651000Y-124396484D01*
X175651000Y-124603516D01*
X175610611Y-124806564D01*
X175531385Y-124997833D01*
X175531384Y-124997835D01*
X175416365Y-125169973D01*
X175269973Y-125316365D01*
X175097835Y-125431384D01*
X175097834Y-125431385D01*
X175097833Y-125431385D01*
X174906564Y-125510611D01*
X174703516Y-125551000D01*
X174496484Y-125551000D01*
X174293436Y-125510611D01*
X174102167Y-125431385D01*
X174102166Y-125431385D01*
X174102165Y-125431384D01*
X173930027Y-125316365D01*
X173783635Y-125169973D01*
X173668616Y-124997835D01*
X173668615Y-124997833D01*
X173589389Y-124806564D01*
X173549000Y-124603516D01*
X173549000Y-124396484D01*
X173589389Y-124193436D01*
X173668615Y-124002167D01*
X173783635Y-123830027D01*
X173930027Y-123683635D01*
X174077588Y-123585038D01*
X174102165Y-123568616D01*
X174102167Y-123568615D01*
X174293436Y-123489389D01*
X174496484Y-123449000D01*
X174703516Y-123449000D01*
X174906564Y-123489389D01*
X174906564Y-123489389D01*
G37*
G36*
X172406564Y-123489389D02*
G01*
X172597833Y-123568615D01*
X172597835Y-123568616D01*
X172622412Y-123585038D01*
X172769973Y-123683635D01*
X172916365Y-123830027D01*
X173031385Y-124002167D01*
X173110611Y-124193436D01*
X173151000Y-124396484D01*
X173151000Y-124603516D01*
X173110611Y-124806564D01*
X173031385Y-124997833D01*
X173031384Y-124997835D01*
X172916365Y-125169973D01*
X172769973Y-125316365D01*
X172597835Y-125431384D01*
X172597834Y-125431385D01*
X172597833Y-125431385D01*
X172406564Y-125510611D01*
X172203516Y-125551000D01*
X171996484Y-125551000D01*
X171793436Y-125510611D01*
X171602167Y-125431385D01*
X171602166Y-125431385D01*
X171602165Y-125431384D01*
X171430027Y-125316365D01*
X171283635Y-125169973D01*
X171168616Y-124997835D01*
X171168615Y-124997833D01*
X171089389Y-124806564D01*
X171049000Y-124603516D01*
X171049000Y-124396484D01*
X171089389Y-124193436D01*
X171168615Y-124002167D01*
X171283635Y-123830027D01*
X171430027Y-123683635D01*
X171577588Y-123585038D01*
X171602165Y-123568616D01*
X171602167Y-123568615D01*
X171793436Y-123489389D01*
X171996484Y-123449000D01*
X172203516Y-123449000D01*
X172406564Y-123489389D01*
X172406564Y-123489389D01*
G37*
G36*
X169906564Y-123489389D02*
G01*
X170097833Y-123568615D01*
X170097835Y-123568616D01*
X170122412Y-123585038D01*
X170269973Y-123683635D01*
X170416365Y-123830027D01*
X170531385Y-124002167D01*
X170610611Y-124193436D01*
X170651000Y-124396484D01*
X170651000Y-124603516D01*
X170610611Y-124806564D01*
X170531385Y-124997833D01*
X170531384Y-124997835D01*
X170416365Y-125169973D01*
X170269973Y-125316365D01*
X170097835Y-125431384D01*
X170097834Y-125431385D01*
X170097833Y-125431385D01*
X169906564Y-125510611D01*
X169703516Y-125551000D01*
X169496484Y-125551000D01*
X169293436Y-125510611D01*
X169102167Y-125431385D01*
X169102166Y-125431385D01*
X169102165Y-125431384D01*
X168930027Y-125316365D01*
X168783635Y-125169973D01*
X168668616Y-124997835D01*
X168668615Y-124997833D01*
X168589389Y-124806564D01*
X168549000Y-124603516D01*
X168549000Y-124396484D01*
X168589389Y-124193436D01*
X168668615Y-124002167D01*
X168783635Y-123830027D01*
X168930027Y-123683635D01*
X169077588Y-123585038D01*
X169102165Y-123568616D01*
X169102167Y-123568615D01*
X169293436Y-123489389D01*
X169496484Y-123449000D01*
X169703516Y-123449000D01*
X169906564Y-123489389D01*
X169906564Y-123489389D01*
G37*
G36*
X167406564Y-123489389D02*
G01*
X167597833Y-123568615D01*
X167597835Y-123568616D01*
X167622412Y-123585038D01*
X167769973Y-123683635D01*
X167916365Y-123830027D01*
X168031385Y-124002167D01*
X168110611Y-124193436D01*
X168151000Y-124396484D01*
X168151000Y-124603516D01*
X168110611Y-124806564D01*
X168031385Y-124997833D01*
X168031384Y-124997835D01*
X167916365Y-125169973D01*
X167769973Y-125316365D01*
X167597835Y-125431384D01*
X167597834Y-125431385D01*
X167597833Y-125431385D01*
X167406564Y-125510611D01*
X167203516Y-125551000D01*
X166996484Y-125551000D01*
X166793436Y-125510611D01*
X166602167Y-125431385D01*
X166602166Y-125431385D01*
X166602165Y-125431384D01*
X166430027Y-125316365D01*
X166283635Y-125169973D01*
X166168616Y-124997835D01*
X166168615Y-124997833D01*
X166089389Y-124806564D01*
X166049000Y-124603516D01*
X166049000Y-124396484D01*
X166089389Y-124193436D01*
X166168615Y-124002167D01*
X166283635Y-123830027D01*
X166430027Y-123683635D01*
X166577588Y-123585038D01*
X166602165Y-123568616D01*
X166602167Y-123568615D01*
X166793436Y-123489389D01*
X166996484Y-123449000D01*
X167203516Y-123449000D01*
X167406564Y-123489389D01*
X167406564Y-123489389D01*
G37*
G36*
X164906564Y-123489389D02*
G01*
X165097833Y-123568615D01*
X165097835Y-123568616D01*
X165122412Y-123585038D01*
X165269973Y-123683635D01*
X165416365Y-123830027D01*
X165531385Y-124002167D01*
X165610611Y-124193436D01*
X165651000Y-124396484D01*
X165651000Y-124603516D01*
X165610611Y-124806564D01*
X165531385Y-124997833D01*
X165531384Y-124997835D01*
X165416365Y-125169973D01*
X165269973Y-125316365D01*
X165097835Y-125431384D01*
X165097834Y-125431385D01*
X165097833Y-125431385D01*
X164906564Y-125510611D01*
X164703516Y-125551000D01*
X164496484Y-125551000D01*
X164293436Y-125510611D01*
X164102167Y-125431385D01*
X164102166Y-125431385D01*
X164102165Y-125431384D01*
X163930027Y-125316365D01*
X163783635Y-125169973D01*
X163668616Y-124997835D01*
X163668615Y-124997833D01*
X163589389Y-124806564D01*
X163549000Y-124603516D01*
X163549000Y-124396484D01*
X163589389Y-124193436D01*
X163668615Y-124002167D01*
X163783635Y-123830027D01*
X163930027Y-123683635D01*
X164077588Y-123585038D01*
X164102165Y-123568616D01*
X164102167Y-123568615D01*
X164293436Y-123489389D01*
X164496484Y-123449000D01*
X164703516Y-123449000D01*
X164906564Y-123489389D01*
X164906564Y-123489389D01*
G37*
G36*
X162406564Y-123489389D02*
G01*
X162597833Y-123568615D01*
X162597835Y-123568616D01*
X162622412Y-123585038D01*
X162769973Y-123683635D01*
X162916365Y-123830027D01*
X163031385Y-124002167D01*
X163110611Y-124193436D01*
X163151000Y-124396484D01*
X163151000Y-124603516D01*
X163110611Y-124806564D01*
X163031385Y-124997833D01*
X163031384Y-124997835D01*
X162916365Y-125169973D01*
X162769973Y-125316365D01*
X162597835Y-125431384D01*
X162597834Y-125431385D01*
X162597833Y-125431385D01*
X162406564Y-125510611D01*
X162203516Y-125551000D01*
X161996484Y-125551000D01*
X161793436Y-125510611D01*
X161602167Y-125431385D01*
X161602166Y-125431385D01*
X161602165Y-125431384D01*
X161430027Y-125316365D01*
X161283635Y-125169973D01*
X161168616Y-124997835D01*
X161168615Y-124997833D01*
X161089389Y-124806564D01*
X161049000Y-124603516D01*
X161049000Y-124396484D01*
X161089389Y-124193436D01*
X161168615Y-124002167D01*
X161283635Y-123830027D01*
X161430027Y-123683635D01*
X161577588Y-123585038D01*
X161602165Y-123568616D01*
X161602167Y-123568615D01*
X161793436Y-123489389D01*
X161996484Y-123449000D01*
X162203516Y-123449000D01*
X162406564Y-123489389D01*
X162406564Y-123489389D01*
G37*
G36*
X159906564Y-123489389D02*
G01*
X160097833Y-123568615D01*
X160097835Y-123568616D01*
X160122412Y-123585038D01*
X160269973Y-123683635D01*
X160416365Y-123830027D01*
X160531385Y-124002167D01*
X160610611Y-124193436D01*
X160651000Y-124396484D01*
X160651000Y-124603516D01*
X160610611Y-124806564D01*
X160531385Y-124997833D01*
X160531384Y-124997835D01*
X160416365Y-125169973D01*
X160269973Y-125316365D01*
X160097835Y-125431384D01*
X160097834Y-125431385D01*
X160097833Y-125431385D01*
X159906564Y-125510611D01*
X159703516Y-125551000D01*
X159496484Y-125551000D01*
X159293436Y-125510611D01*
X159102167Y-125431385D01*
X159102166Y-125431385D01*
X159102165Y-125431384D01*
X158930027Y-125316365D01*
X158783635Y-125169973D01*
X158668616Y-124997835D01*
X158668615Y-124997833D01*
X158589389Y-124806564D01*
X158549000Y-124603516D01*
X158549000Y-124396484D01*
X158589389Y-124193436D01*
X158668615Y-124002167D01*
X158783635Y-123830027D01*
X158930027Y-123683635D01*
X159077588Y-123585038D01*
X159102165Y-123568616D01*
X159102167Y-123568615D01*
X159293436Y-123489389D01*
X159496484Y-123449000D01*
X159703516Y-123449000D01*
X159906564Y-123489389D01*
X159906564Y-123489389D01*
G37*
G36*
X157778210Y-123458489D02*
G01*
X157864950Y-123484802D01*
X157944889Y-123527530D01*
X158014962Y-123585038D01*
X158072470Y-123655111D01*
X158115198Y-123735050D01*
X158141511Y-123821790D01*
X158151000Y-123918140D01*
X158151000Y-125081860D01*
X158141511Y-125178210D01*
X158115198Y-125264950D01*
X158072470Y-125344889D01*
X158014962Y-125414962D01*
X157944889Y-125472470D01*
X157864950Y-125515198D01*
X157778210Y-125541511D01*
X157681860Y-125551000D01*
X156518140Y-125551000D01*
X156421790Y-125541511D01*
X156335050Y-125515198D01*
X156255111Y-125472470D01*
X156185038Y-125414962D01*
X156127530Y-125344889D01*
X156084802Y-125264950D01*
X156058489Y-125178210D01*
X156049000Y-125081860D01*
X156049000Y-123918140D01*
X156058489Y-123821790D01*
X156084802Y-123735050D01*
X156127530Y-123655111D01*
X156185038Y-123585038D01*
X156255111Y-123527530D01*
X156335050Y-123484802D01*
X156421790Y-123458489D01*
X156518140Y-123449000D01*
X157681860Y-123449000D01*
X157778210Y-123458489D01*
X157778210Y-123458489D01*
G37*
G36*
X139806564Y-123489389D02*
G01*
X139997833Y-123568615D01*
X139997835Y-123568616D01*
X140022412Y-123585038D01*
X140169973Y-123683635D01*
X140316365Y-123830027D01*
X140431385Y-124002167D01*
X140510611Y-124193436D01*
X140551000Y-124396484D01*
X140551000Y-124603516D01*
X140510611Y-124806564D01*
X140431385Y-124997833D01*
X140431384Y-124997835D01*
X140316365Y-125169973D01*
X140169973Y-125316365D01*
X139997835Y-125431384D01*
X139997834Y-125431385D01*
X139997833Y-125431385D01*
X139806564Y-125510611D01*
X139603516Y-125551000D01*
X139396484Y-125551000D01*
X139193436Y-125510611D01*
X139002167Y-125431385D01*
X139002166Y-125431385D01*
X139002165Y-125431384D01*
X138830027Y-125316365D01*
X138683635Y-125169973D01*
X138568616Y-124997835D01*
X138568615Y-124997833D01*
X138489389Y-124806564D01*
X138449000Y-124603516D01*
X138449000Y-124396484D01*
X138489389Y-124193436D01*
X138568615Y-124002167D01*
X138683635Y-123830027D01*
X138830027Y-123683635D01*
X138977588Y-123585038D01*
X139002165Y-123568616D01*
X139002167Y-123568615D01*
X139193436Y-123489389D01*
X139396484Y-123449000D01*
X139603516Y-123449000D01*
X139806564Y-123489389D01*
X139806564Y-123489389D01*
G37*
G36*
X137678210Y-123458489D02*
G01*
X137764950Y-123484802D01*
X137844889Y-123527530D01*
X137914962Y-123585038D01*
X137972470Y-123655111D01*
X138015198Y-123735050D01*
X138041511Y-123821790D01*
X138051000Y-123918140D01*
X138051000Y-125081860D01*
X138041511Y-125178210D01*
X138015198Y-125264950D01*
X137972470Y-125344889D01*
X137914962Y-125414962D01*
X137844889Y-125472470D01*
X137764950Y-125515198D01*
X137678210Y-125541511D01*
X137581860Y-125551000D01*
X136418140Y-125551000D01*
X136321790Y-125541511D01*
X136235050Y-125515198D01*
X136155111Y-125472470D01*
X136085038Y-125414962D01*
X136027530Y-125344889D01*
X135984802Y-125264950D01*
X135958489Y-125178210D01*
X135949000Y-125081860D01*
X135949000Y-123918140D01*
X135958489Y-123821790D01*
X135984802Y-123735050D01*
X136027530Y-123655111D01*
X136085038Y-123585038D01*
X136155111Y-123527530D01*
X136235050Y-123484802D01*
X136321790Y-123458489D01*
X136418140Y-123449000D01*
X137581860Y-123449000D01*
X137678210Y-123458489D01*
X137678210Y-123458489D01*
G37*
G36*
X146478210Y-123458489D02*
G01*
X146564950Y-123484802D01*
X146644889Y-123527530D01*
X146714962Y-123585038D01*
X146772470Y-123655111D01*
X146815198Y-123735050D01*
X146841511Y-123821790D01*
X146851000Y-123918140D01*
X146851000Y-125081860D01*
X146841511Y-125178210D01*
X146815198Y-125264950D01*
X146772470Y-125344889D01*
X146714962Y-125414962D01*
X146644889Y-125472470D01*
X146564950Y-125515198D01*
X146478210Y-125541511D01*
X146381860Y-125551000D01*
X145218140Y-125551000D01*
X145121790Y-125541511D01*
X145035050Y-125515198D01*
X144955111Y-125472470D01*
X144885038Y-125414962D01*
X144827530Y-125344889D01*
X144784802Y-125264950D01*
X144758489Y-125178210D01*
X144749000Y-125081860D01*
X144749000Y-123918140D01*
X144758489Y-123821790D01*
X144784802Y-123735050D01*
X144827530Y-123655111D01*
X144885038Y-123585038D01*
X144955111Y-123527530D01*
X145035050Y-123484802D01*
X145121790Y-123458489D01*
X145218140Y-123449000D01*
X146381860Y-123449000D01*
X146478210Y-123458489D01*
X146478210Y-123458489D01*
G37*
G36*
X148606564Y-123489389D02*
G01*
X148797833Y-123568615D01*
X148797835Y-123568616D01*
X148822412Y-123585038D01*
X148969973Y-123683635D01*
X149116365Y-123830027D01*
X149231385Y-124002167D01*
X149310611Y-124193436D01*
X149351000Y-124396484D01*
X149351000Y-124603516D01*
X149310611Y-124806564D01*
X149231385Y-124997833D01*
X149231384Y-124997835D01*
X149116365Y-125169973D01*
X148969973Y-125316365D01*
X148797835Y-125431384D01*
X148797834Y-125431385D01*
X148797833Y-125431385D01*
X148606564Y-125510611D01*
X148403516Y-125551000D01*
X148196484Y-125551000D01*
X147993436Y-125510611D01*
X147802167Y-125431385D01*
X147802166Y-125431385D01*
X147802165Y-125431384D01*
X147630027Y-125316365D01*
X147483635Y-125169973D01*
X147368616Y-124997835D01*
X147368615Y-124997833D01*
X147289389Y-124806564D01*
X147249000Y-124603516D01*
X147249000Y-124396484D01*
X147289389Y-124193436D01*
X147368615Y-124002167D01*
X147483635Y-123830027D01*
X147630027Y-123683635D01*
X147777588Y-123585038D01*
X147802165Y-123568616D01*
X147802167Y-123568615D01*
X147993436Y-123489389D01*
X148196484Y-123449000D01*
X148403516Y-123449000D01*
X148606564Y-123489389D01*
X148606564Y-123489389D01*
G37*
G36*
X151106564Y-123489389D02*
G01*
X151297833Y-123568615D01*
X151297835Y-123568616D01*
X151322412Y-123585038D01*
X151469973Y-123683635D01*
X151616365Y-123830027D01*
X151731385Y-124002167D01*
X151810611Y-124193436D01*
X151851000Y-124396484D01*
X151851000Y-124603516D01*
X151810611Y-124806564D01*
X151731385Y-124997833D01*
X151731384Y-124997835D01*
X151616365Y-125169973D01*
X151469973Y-125316365D01*
X151297835Y-125431384D01*
X151297834Y-125431385D01*
X151297833Y-125431385D01*
X151106564Y-125510611D01*
X150903516Y-125551000D01*
X150696484Y-125551000D01*
X150493436Y-125510611D01*
X150302167Y-125431385D01*
X150302166Y-125431385D01*
X150302165Y-125431384D01*
X150130027Y-125316365D01*
X149983635Y-125169973D01*
X149868616Y-124997835D01*
X149868615Y-124997833D01*
X149789389Y-124806564D01*
X149749000Y-124603516D01*
X149749000Y-124396484D01*
X149789389Y-124193436D01*
X149868615Y-124002167D01*
X149983635Y-123830027D01*
X150130027Y-123683635D01*
X150277588Y-123585038D01*
X150302165Y-123568616D01*
X150302167Y-123568615D01*
X150493436Y-123489389D01*
X150696484Y-123449000D01*
X150903516Y-123449000D01*
X151106564Y-123489389D01*
X151106564Y-123489389D01*
G37*
G36*
X177888674Y-102978465D02*
G01*
X177926367Y-102989899D01*
X177961103Y-103008466D01*
X177991548Y-103033452D01*
X178016534Y-103063897D01*
X178035101Y-103098633D01*
X178046535Y-103136326D01*
X178051000Y-103181661D01*
X178051000Y-104018339D01*
X178046535Y-104063674D01*
X178035101Y-104101367D01*
X178016534Y-104136103D01*
X177991548Y-104166548D01*
X177961103Y-104191534D01*
X177926367Y-104210101D01*
X177888674Y-104221535D01*
X177843339Y-104226000D01*
X176756661Y-104226000D01*
X176711326Y-104221535D01*
X176673633Y-104210101D01*
X176638897Y-104191534D01*
X176608452Y-104166548D01*
X176583466Y-104136103D01*
X176564899Y-104101367D01*
X176553465Y-104063674D01*
X176549000Y-104018339D01*
X176549000Y-103181661D01*
X176553465Y-103136326D01*
X176564899Y-103098633D01*
X176583466Y-103063897D01*
X176608452Y-103033452D01*
X176638897Y-103008466D01*
X176673633Y-102989899D01*
X176711326Y-102978465D01*
X176756661Y-102974000D01*
X177843339Y-102974000D01*
X177888674Y-102978465D01*
X177888674Y-102978465D01*
G37*
G36*
X173588674Y-101128465D02*
G01*
X173626367Y-101139899D01*
X173661103Y-101158466D01*
X173691548Y-101183452D01*
X173716534Y-101213897D01*
X173735101Y-101248633D01*
X173746535Y-101286326D01*
X173751000Y-101331661D01*
X173751000Y-102168339D01*
X173746535Y-102213674D01*
X173735101Y-102251367D01*
X173716534Y-102286103D01*
X173691548Y-102316548D01*
X173661103Y-102341534D01*
X173626367Y-102360101D01*
X173588674Y-102371535D01*
X173543339Y-102376000D01*
X172456661Y-102376000D01*
X172411326Y-102371535D01*
X172373633Y-102360101D01*
X172338897Y-102341534D01*
X172308452Y-102316548D01*
X172283466Y-102286103D01*
X172264899Y-102251367D01*
X172253465Y-102213674D01*
X172249000Y-102168339D01*
X172249000Y-101331661D01*
X172253465Y-101286326D01*
X172264899Y-101248633D01*
X172283466Y-101213897D01*
X172308452Y-101183452D01*
X172338897Y-101158466D01*
X172373633Y-101139899D01*
X172411326Y-101128465D01*
X172456661Y-101124000D01*
X173543339Y-101124000D01*
X173588674Y-101128465D01*
X173588674Y-101128465D01*
G37*
G36*
X168988674Y-101078465D02*
G01*
X169026367Y-101089899D01*
X169061103Y-101108466D01*
X169091548Y-101133452D01*
X169116534Y-101163897D01*
X169135101Y-101198633D01*
X169146535Y-101236326D01*
X169151000Y-101281661D01*
X169151000Y-102118339D01*
X169146535Y-102163674D01*
X169135101Y-102201367D01*
X169116534Y-102236103D01*
X169091548Y-102266548D01*
X169061103Y-102291534D01*
X169026367Y-102310101D01*
X168988674Y-102321535D01*
X168943339Y-102326000D01*
X167856661Y-102326000D01*
X167811326Y-102321535D01*
X167773633Y-102310101D01*
X167738897Y-102291534D01*
X167708452Y-102266548D01*
X167683466Y-102236103D01*
X167664899Y-102201367D01*
X167653465Y-102163674D01*
X167649000Y-102118339D01*
X167649000Y-101281661D01*
X167653465Y-101236326D01*
X167664899Y-101198633D01*
X167683466Y-101163897D01*
X167708452Y-101133452D01*
X167738897Y-101108466D01*
X167773633Y-101089899D01*
X167811326Y-101078465D01*
X167856661Y-101074000D01*
X168943339Y-101074000D01*
X168988674Y-101078465D01*
X168988674Y-101078465D01*
G37*
G36*
X171288674Y-101078465D02*
G01*
X171326367Y-101089899D01*
X171361103Y-101108466D01*
X171391548Y-101133452D01*
X171416534Y-101163897D01*
X171435101Y-101198633D01*
X171446535Y-101236326D01*
X171451000Y-101281661D01*
X171451000Y-102118339D01*
X171446535Y-102163674D01*
X171435101Y-102201367D01*
X171416534Y-102236103D01*
X171391548Y-102266548D01*
X171361103Y-102291534D01*
X171326367Y-102310101D01*
X171288674Y-102321535D01*
X171243339Y-102326000D01*
X170156661Y-102326000D01*
X170111326Y-102321535D01*
X170073633Y-102310101D01*
X170038897Y-102291534D01*
X170008452Y-102266548D01*
X169983466Y-102236103D01*
X169964899Y-102201367D01*
X169953465Y-102163674D01*
X169949000Y-102118339D01*
X169949000Y-101281661D01*
X169953465Y-101236326D01*
X169964899Y-101198633D01*
X169983466Y-101163897D01*
X170008452Y-101133452D01*
X170038897Y-101108466D01*
X170073633Y-101089899D01*
X170111326Y-101078465D01*
X170156661Y-101074000D01*
X171243339Y-101074000D01*
X171288674Y-101078465D01*
X171288674Y-101078465D01*
G37*
G36*
X177888674Y-100928465D02*
G01*
X177926367Y-100939899D01*
X177961103Y-100958466D01*
X177991548Y-100983452D01*
X178016534Y-101013897D01*
X178035101Y-101048633D01*
X178046535Y-101086326D01*
X178051000Y-101131661D01*
X178051000Y-101968339D01*
X178046535Y-102013674D01*
X178035101Y-102051367D01*
X178016534Y-102086103D01*
X177991548Y-102116548D01*
X177961103Y-102141534D01*
X177926367Y-102160101D01*
X177888674Y-102171535D01*
X177843339Y-102176000D01*
X176756661Y-102176000D01*
X176711326Y-102171535D01*
X176673633Y-102160101D01*
X176638897Y-102141534D01*
X176608452Y-102116548D01*
X176583466Y-102086103D01*
X176564899Y-102051367D01*
X176553465Y-102013674D01*
X176549000Y-101968339D01*
X176549000Y-101131661D01*
X176553465Y-101086326D01*
X176564899Y-101048633D01*
X176583466Y-101013897D01*
X176608452Y-100983452D01*
X176638897Y-100958466D01*
X176673633Y-100939899D01*
X176711326Y-100928465D01*
X176756661Y-100924000D01*
X177843339Y-100924000D01*
X177888674Y-100928465D01*
X177888674Y-100928465D01*
G37*
G36*
X173588674Y-99078465D02*
G01*
X173626367Y-99089899D01*
X173661103Y-99108466D01*
X173691548Y-99133452D01*
X173716534Y-99163897D01*
X173735101Y-99198633D01*
X173746535Y-99236326D01*
X173751000Y-99281661D01*
X173751000Y-100118339D01*
X173746535Y-100163674D01*
X173735101Y-100201367D01*
X173716534Y-100236103D01*
X173691548Y-100266548D01*
X173661103Y-100291534D01*
X173626367Y-100310101D01*
X173588674Y-100321535D01*
X173543339Y-100326000D01*
X172456661Y-100326000D01*
X172411326Y-100321535D01*
X172373633Y-100310101D01*
X172338897Y-100291534D01*
X172308452Y-100266548D01*
X172283466Y-100236103D01*
X172264899Y-100201367D01*
X172253465Y-100163674D01*
X172249000Y-100118339D01*
X172249000Y-99281661D01*
X172253465Y-99236326D01*
X172264899Y-99198633D01*
X172283466Y-99163897D01*
X172308452Y-99133452D01*
X172338897Y-99108466D01*
X172373633Y-99089899D01*
X172411326Y-99078465D01*
X172456661Y-99074000D01*
X173543339Y-99074000D01*
X173588674Y-99078465D01*
X173588674Y-99078465D01*
G37*
G36*
X168988674Y-99028465D02*
G01*
X169026367Y-99039899D01*
X169061103Y-99058466D01*
X169091548Y-99083452D01*
X169116534Y-99113897D01*
X169135101Y-99148633D01*
X169146535Y-99186326D01*
X169151000Y-99231661D01*
X169151000Y-100068339D01*
X169146535Y-100113674D01*
X169135101Y-100151367D01*
X169116534Y-100186103D01*
X169091548Y-100216548D01*
X169061103Y-100241534D01*
X169026367Y-100260101D01*
X168988674Y-100271535D01*
X168943339Y-100276000D01*
X167856661Y-100276000D01*
X167811326Y-100271535D01*
X167773633Y-100260101D01*
X167738897Y-100241534D01*
X167708452Y-100216548D01*
X167683466Y-100186103D01*
X167664899Y-100151367D01*
X167653465Y-100113674D01*
X167649000Y-100068339D01*
X167649000Y-99231661D01*
X167653465Y-99186326D01*
X167664899Y-99148633D01*
X167683466Y-99113897D01*
X167708452Y-99083452D01*
X167738897Y-99058466D01*
X167773633Y-99039899D01*
X167811326Y-99028465D01*
X167856661Y-99024000D01*
X168943339Y-99024000D01*
X168988674Y-99028465D01*
X168988674Y-99028465D01*
G37*
G36*
X171288674Y-99028465D02*
G01*
X171326367Y-99039899D01*
X171361103Y-99058466D01*
X171391548Y-99083452D01*
X171416534Y-99113897D01*
X171435101Y-99148633D01*
X171446535Y-99186326D01*
X171451000Y-99231661D01*
X171451000Y-100068339D01*
X171446535Y-100113674D01*
X171435101Y-100151367D01*
X171416534Y-100186103D01*
X171391548Y-100216548D01*
X171361103Y-100241534D01*
X171326367Y-100260101D01*
X171288674Y-100271535D01*
X171243339Y-100276000D01*
X170156661Y-100276000D01*
X170111326Y-100271535D01*
X170073633Y-100260101D01*
X170038897Y-100241534D01*
X170008452Y-100216548D01*
X169983466Y-100186103D01*
X169964899Y-100151367D01*
X169953465Y-100113674D01*
X169949000Y-100068339D01*
X169949000Y-99231661D01*
X169953465Y-99186326D01*
X169964899Y-99148633D01*
X169983466Y-99113897D01*
X170008452Y-99083452D01*
X170038897Y-99058466D01*
X170073633Y-99039899D01*
X170111326Y-99028465D01*
X170156661Y-99024000D01*
X171243339Y-99024000D01*
X171288674Y-99028465D01*
X171288674Y-99028465D01*
G37*
G36*
X178351000Y-99588500D02*
G01*
X176249000Y-99588500D01*
X176249000Y-91611500D01*
X178351000Y-91611500D01*
X178351000Y-99588500D01*
X178351000Y-99588500D01*
G37*
G36*
X172829928Y-89826764D02*
G01*
X172851009Y-89833160D01*
X172870445Y-89843548D01*
X172887476Y-89857524D01*
X172901452Y-89874555D01*
X172911840Y-89893991D01*
X172918236Y-89915072D01*
X172921000Y-89943140D01*
X172921000Y-91756860D01*
X172918236Y-91784928D01*
X172911840Y-91806009D01*
X172901452Y-91825445D01*
X172887476Y-91842476D01*
X172870445Y-91856452D01*
X172851009Y-91866840D01*
X172829928Y-91873236D01*
X172801860Y-91876000D01*
X172338140Y-91876000D01*
X172310072Y-91873236D01*
X172288991Y-91866840D01*
X172269555Y-91856452D01*
X172252524Y-91842476D01*
X172238548Y-91825445D01*
X172228160Y-91806009D01*
X172221764Y-91784928D01*
X172219000Y-91756860D01*
X172219000Y-89943140D01*
X172221764Y-89915072D01*
X172228160Y-89893991D01*
X172238548Y-89874555D01*
X172252524Y-89857524D01*
X172269555Y-89843548D01*
X172288991Y-89833160D01*
X172310072Y-89826764D01*
X172338140Y-89824000D01*
X172801860Y-89824000D01*
X172829928Y-89826764D01*
X172829928Y-89826764D01*
G37*
G36*
X171559928Y-89826764D02*
G01*
X171581009Y-89833160D01*
X171600445Y-89843548D01*
X171617476Y-89857524D01*
X171631452Y-89874555D01*
X171641840Y-89893991D01*
X171648236Y-89915072D01*
X171651000Y-89943140D01*
X171651000Y-91756860D01*
X171648236Y-91784928D01*
X171641840Y-91806009D01*
X171631452Y-91825445D01*
X171617476Y-91842476D01*
X171600445Y-91856452D01*
X171581009Y-91866840D01*
X171559928Y-91873236D01*
X171531860Y-91876000D01*
X171068140Y-91876000D01*
X171040072Y-91873236D01*
X171018991Y-91866840D01*
X170999555Y-91856452D01*
X170982524Y-91842476D01*
X170968548Y-91825445D01*
X170958160Y-91806009D01*
X170951764Y-91784928D01*
X170949000Y-91756860D01*
X170949000Y-89943140D01*
X170951764Y-89915072D01*
X170958160Y-89893991D01*
X170968548Y-89874555D01*
X170982524Y-89857524D01*
X170999555Y-89843548D01*
X171018991Y-89833160D01*
X171040072Y-89826764D01*
X171068140Y-89824000D01*
X171531860Y-89824000D01*
X171559928Y-89826764D01*
X171559928Y-89826764D01*
G37*
G36*
X170289928Y-89826764D02*
G01*
X170311009Y-89833160D01*
X170330445Y-89843548D01*
X170347476Y-89857524D01*
X170361452Y-89874555D01*
X170371840Y-89893991D01*
X170378236Y-89915072D01*
X170381000Y-89943140D01*
X170381000Y-91756860D01*
X170378236Y-91784928D01*
X170371840Y-91806009D01*
X170361452Y-91825445D01*
X170347476Y-91842476D01*
X170330445Y-91856452D01*
X170311009Y-91866840D01*
X170289928Y-91873236D01*
X170261860Y-91876000D01*
X169798140Y-91876000D01*
X169770072Y-91873236D01*
X169748991Y-91866840D01*
X169729555Y-91856452D01*
X169712524Y-91842476D01*
X169698548Y-91825445D01*
X169688160Y-91806009D01*
X169681764Y-91784928D01*
X169679000Y-91756860D01*
X169679000Y-89943140D01*
X169681764Y-89915072D01*
X169688160Y-89893991D01*
X169698548Y-89874555D01*
X169712524Y-89857524D01*
X169729555Y-89843548D01*
X169748991Y-89833160D01*
X169770072Y-89826764D01*
X169798140Y-89824000D01*
X170261860Y-89824000D01*
X170289928Y-89826764D01*
X170289928Y-89826764D01*
G37*
G36*
X169019928Y-89826764D02*
G01*
X169041009Y-89833160D01*
X169060445Y-89843548D01*
X169077476Y-89857524D01*
X169091452Y-89874555D01*
X169101840Y-89893991D01*
X169108236Y-89915072D01*
X169111000Y-89943140D01*
X169111000Y-91756860D01*
X169108236Y-91784928D01*
X169101840Y-91806009D01*
X169091452Y-91825445D01*
X169077476Y-91842476D01*
X169060445Y-91856452D01*
X169041009Y-91866840D01*
X169019928Y-91873236D01*
X168991860Y-91876000D01*
X168528140Y-91876000D01*
X168500072Y-91873236D01*
X168478991Y-91866840D01*
X168459555Y-91856452D01*
X168442524Y-91842476D01*
X168428548Y-91825445D01*
X168418160Y-91806009D01*
X168411764Y-91784928D01*
X168409000Y-91756860D01*
X168409000Y-89943140D01*
X168411764Y-89915072D01*
X168418160Y-89893991D01*
X168428548Y-89874555D01*
X168442524Y-89857524D01*
X168459555Y-89843548D01*
X168478991Y-89833160D01*
X168500072Y-89826764D01*
X168528140Y-89824000D01*
X168991860Y-89824000D01*
X169019928Y-89826764D01*
X169019928Y-89826764D01*
G37*
G36*
X167749928Y-89826764D02*
G01*
X167771009Y-89833160D01*
X167790445Y-89843548D01*
X167807476Y-89857524D01*
X167821452Y-89874555D01*
X167831840Y-89893991D01*
X167838236Y-89915072D01*
X167841000Y-89943140D01*
X167841000Y-91756860D01*
X167838236Y-91784928D01*
X167831840Y-91806009D01*
X167821452Y-91825445D01*
X167807476Y-91842476D01*
X167790445Y-91856452D01*
X167771009Y-91866840D01*
X167749928Y-91873236D01*
X167721860Y-91876000D01*
X167258140Y-91876000D01*
X167230072Y-91873236D01*
X167208991Y-91866840D01*
X167189555Y-91856452D01*
X167172524Y-91842476D01*
X167158548Y-91825445D01*
X167148160Y-91806009D01*
X167141764Y-91784928D01*
X167139000Y-91756860D01*
X167139000Y-89943140D01*
X167141764Y-89915072D01*
X167148160Y-89893991D01*
X167158548Y-89874555D01*
X167172524Y-89857524D01*
X167189555Y-89843548D01*
X167208991Y-89833160D01*
X167230072Y-89826764D01*
X167258140Y-89824000D01*
X167721860Y-89824000D01*
X167749928Y-89826764D01*
X167749928Y-89826764D01*
G37*
G36*
X166479928Y-89826764D02*
G01*
X166501009Y-89833160D01*
X166520445Y-89843548D01*
X166537476Y-89857524D01*
X166551452Y-89874555D01*
X166561840Y-89893991D01*
X166568236Y-89915072D01*
X166571000Y-89943140D01*
X166571000Y-91756860D01*
X166568236Y-91784928D01*
X166561840Y-91806009D01*
X166551452Y-91825445D01*
X166537476Y-91842476D01*
X166520445Y-91856452D01*
X166501009Y-91866840D01*
X166479928Y-91873236D01*
X166451860Y-91876000D01*
X165988140Y-91876000D01*
X165960072Y-91873236D01*
X165938991Y-91866840D01*
X165919555Y-91856452D01*
X165902524Y-91842476D01*
X165888548Y-91825445D01*
X165878160Y-91806009D01*
X165871764Y-91784928D01*
X165869000Y-91756860D01*
X165869000Y-89943140D01*
X165871764Y-89915072D01*
X165878160Y-89893991D01*
X165888548Y-89874555D01*
X165902524Y-89857524D01*
X165919555Y-89843548D01*
X165938991Y-89833160D01*
X165960072Y-89826764D01*
X165988140Y-89824000D01*
X166451860Y-89824000D01*
X166479928Y-89826764D01*
X166479928Y-89826764D01*
G37*
G36*
X165209928Y-89826764D02*
G01*
X165231009Y-89833160D01*
X165250445Y-89843548D01*
X165267476Y-89857524D01*
X165281452Y-89874555D01*
X165291840Y-89893991D01*
X165298236Y-89915072D01*
X165301000Y-89943140D01*
X165301000Y-91756860D01*
X165298236Y-91784928D01*
X165291840Y-91806009D01*
X165281452Y-91825445D01*
X165267476Y-91842476D01*
X165250445Y-91856452D01*
X165231009Y-91866840D01*
X165209928Y-91873236D01*
X165181860Y-91876000D01*
X164718140Y-91876000D01*
X164690072Y-91873236D01*
X164668991Y-91866840D01*
X164649555Y-91856452D01*
X164632524Y-91842476D01*
X164618548Y-91825445D01*
X164608160Y-91806009D01*
X164601764Y-91784928D01*
X164599000Y-91756860D01*
X164599000Y-89943140D01*
X164601764Y-89915072D01*
X164608160Y-89893991D01*
X164618548Y-89874555D01*
X164632524Y-89857524D01*
X164649555Y-89843548D01*
X164668991Y-89833160D01*
X164690072Y-89826764D01*
X164718140Y-89824000D01*
X165181860Y-89824000D01*
X165209928Y-89826764D01*
X165209928Y-89826764D01*
G37*
G36*
X163939928Y-89826764D02*
G01*
X163961009Y-89833160D01*
X163980445Y-89843548D01*
X163997476Y-89857524D01*
X164011452Y-89874555D01*
X164021840Y-89893991D01*
X164028236Y-89915072D01*
X164031000Y-89943140D01*
X164031000Y-91756860D01*
X164028236Y-91784928D01*
X164021840Y-91806009D01*
X164011452Y-91825445D01*
X163997476Y-91842476D01*
X163980445Y-91856452D01*
X163961009Y-91866840D01*
X163939928Y-91873236D01*
X163911860Y-91876000D01*
X163448140Y-91876000D01*
X163420072Y-91873236D01*
X163398991Y-91866840D01*
X163379555Y-91856452D01*
X163362524Y-91842476D01*
X163348548Y-91825445D01*
X163338160Y-91806009D01*
X163331764Y-91784928D01*
X163329000Y-91756860D01*
X163329000Y-89943140D01*
X163331764Y-89915072D01*
X163338160Y-89893991D01*
X163348548Y-89874555D01*
X163362524Y-89857524D01*
X163379555Y-89843548D01*
X163398991Y-89833160D01*
X163420072Y-89826764D01*
X163448140Y-89824000D01*
X163911860Y-89824000D01*
X163939928Y-89826764D01*
X163939928Y-89826764D01*
G37*
G36*
X178351000Y-87713500D02*
G01*
X176249000Y-87713500D01*
X176249000Y-79736500D01*
X178351000Y-79736500D01*
X178351000Y-87713500D01*
X178351000Y-87713500D01*
G37*
G36*
X169019928Y-84876764D02*
G01*
X169041009Y-84883160D01*
X169060445Y-84893548D01*
X169077476Y-84907524D01*
X169091452Y-84924555D01*
X169101840Y-84943991D01*
X169108236Y-84965072D01*
X169111000Y-84993140D01*
X169111000Y-86806860D01*
X169108236Y-86834928D01*
X169101840Y-86856009D01*
X169091452Y-86875445D01*
X169077476Y-86892476D01*
X169060445Y-86906452D01*
X169041009Y-86916840D01*
X169019928Y-86923236D01*
X168991860Y-86926000D01*
X168528140Y-86926000D01*
X168500072Y-86923236D01*
X168478991Y-86916840D01*
X168459555Y-86906452D01*
X168442524Y-86892476D01*
X168428548Y-86875445D01*
X168418160Y-86856009D01*
X168411764Y-86834928D01*
X168409000Y-86806860D01*
X168409000Y-84993140D01*
X168411764Y-84965072D01*
X168418160Y-84943991D01*
X168428548Y-84924555D01*
X168442524Y-84907524D01*
X168459555Y-84893548D01*
X168478991Y-84883160D01*
X168500072Y-84876764D01*
X168528140Y-84874000D01*
X168991860Y-84874000D01*
X169019928Y-84876764D01*
X169019928Y-84876764D01*
G37*
G36*
X166479928Y-84876764D02*
G01*
X166501009Y-84883160D01*
X166520445Y-84893548D01*
X166537476Y-84907524D01*
X166551452Y-84924555D01*
X166561840Y-84943991D01*
X166568236Y-84965072D01*
X166571000Y-84993140D01*
X166571000Y-86806860D01*
X166568236Y-86834928D01*
X166561840Y-86856009D01*
X166551452Y-86875445D01*
X166537476Y-86892476D01*
X166520445Y-86906452D01*
X166501009Y-86916840D01*
X166479928Y-86923236D01*
X166451860Y-86926000D01*
X165988140Y-86926000D01*
X165960072Y-86923236D01*
X165938991Y-86916840D01*
X165919555Y-86906452D01*
X165902524Y-86892476D01*
X165888548Y-86875445D01*
X165878160Y-86856009D01*
X165871764Y-86834928D01*
X165869000Y-86806860D01*
X165869000Y-84993140D01*
X165871764Y-84965072D01*
X165878160Y-84943991D01*
X165888548Y-84924555D01*
X165902524Y-84907524D01*
X165919555Y-84893548D01*
X165938991Y-84883160D01*
X165960072Y-84876764D01*
X165988140Y-84874000D01*
X166451860Y-84874000D01*
X166479928Y-84876764D01*
X166479928Y-84876764D01*
G37*
G36*
X172829928Y-84876764D02*
G01*
X172851009Y-84883160D01*
X172870445Y-84893548D01*
X172887476Y-84907524D01*
X172901452Y-84924555D01*
X172911840Y-84943991D01*
X172918236Y-84965072D01*
X172921000Y-84993140D01*
X172921000Y-86806860D01*
X172918236Y-86834928D01*
X172911840Y-86856009D01*
X172901452Y-86875445D01*
X172887476Y-86892476D01*
X172870445Y-86906452D01*
X172851009Y-86916840D01*
X172829928Y-86923236D01*
X172801860Y-86926000D01*
X172338140Y-86926000D01*
X172310072Y-86923236D01*
X172288991Y-86916840D01*
X172269555Y-86906452D01*
X172252524Y-86892476D01*
X172238548Y-86875445D01*
X172228160Y-86856009D01*
X172221764Y-86834928D01*
X172219000Y-86806860D01*
X172219000Y-84993140D01*
X172221764Y-84965072D01*
X172228160Y-84943991D01*
X172238548Y-84924555D01*
X172252524Y-84907524D01*
X172269555Y-84893548D01*
X172288991Y-84883160D01*
X172310072Y-84876764D01*
X172338140Y-84874000D01*
X172801860Y-84874000D01*
X172829928Y-84876764D01*
X172829928Y-84876764D01*
G37*
G36*
X171559928Y-84876764D02*
G01*
X171581009Y-84883160D01*
X171600445Y-84893548D01*
X171617476Y-84907524D01*
X171631452Y-84924555D01*
X171641840Y-84943991D01*
X171648236Y-84965072D01*
X171651000Y-84993140D01*
X171651000Y-86806860D01*
X171648236Y-86834928D01*
X171641840Y-86856009D01*
X171631452Y-86875445D01*
X171617476Y-86892476D01*
X171600445Y-86906452D01*
X171581009Y-86916840D01*
X171559928Y-86923236D01*
X171531860Y-86926000D01*
X171068140Y-86926000D01*
X171040072Y-86923236D01*
X171018991Y-86916840D01*
X170999555Y-86906452D01*
X170982524Y-86892476D01*
X170968548Y-86875445D01*
X170958160Y-86856009D01*
X170951764Y-86834928D01*
X170949000Y-86806860D01*
X170949000Y-84993140D01*
X170951764Y-84965072D01*
X170958160Y-84943991D01*
X170968548Y-84924555D01*
X170982524Y-84907524D01*
X170999555Y-84893548D01*
X171018991Y-84883160D01*
X171040072Y-84876764D01*
X171068140Y-84874000D01*
X171531860Y-84874000D01*
X171559928Y-84876764D01*
X171559928Y-84876764D01*
G37*
G36*
X170289928Y-84876764D02*
G01*
X170311009Y-84883160D01*
X170330445Y-84893548D01*
X170347476Y-84907524D01*
X170361452Y-84924555D01*
X170371840Y-84943991D01*
X170378236Y-84965072D01*
X170381000Y-84993140D01*
X170381000Y-86806860D01*
X170378236Y-86834928D01*
X170371840Y-86856009D01*
X170361452Y-86875445D01*
X170347476Y-86892476D01*
X170330445Y-86906452D01*
X170311009Y-86916840D01*
X170289928Y-86923236D01*
X170261860Y-86926000D01*
X169798140Y-86926000D01*
X169770072Y-86923236D01*
X169748991Y-86916840D01*
X169729555Y-86906452D01*
X169712524Y-86892476D01*
X169698548Y-86875445D01*
X169688160Y-86856009D01*
X169681764Y-86834928D01*
X169679000Y-86806860D01*
X169679000Y-84993140D01*
X169681764Y-84965072D01*
X169688160Y-84943991D01*
X169698548Y-84924555D01*
X169712524Y-84907524D01*
X169729555Y-84893548D01*
X169748991Y-84883160D01*
X169770072Y-84876764D01*
X169798140Y-84874000D01*
X170261860Y-84874000D01*
X170289928Y-84876764D01*
X170289928Y-84876764D01*
G37*
G36*
X163939928Y-84876764D02*
G01*
X163961009Y-84883160D01*
X163980445Y-84893548D01*
X163997476Y-84907524D01*
X164011452Y-84924555D01*
X164021840Y-84943991D01*
X164028236Y-84965072D01*
X164031000Y-84993140D01*
X164031000Y-86806860D01*
X164028236Y-86834928D01*
X164021840Y-86856009D01*
X164011452Y-86875445D01*
X163997476Y-86892476D01*
X163980445Y-86906452D01*
X163961009Y-86916840D01*
X163939928Y-86923236D01*
X163911860Y-86926000D01*
X163448140Y-86926000D01*
X163420072Y-86923236D01*
X163398991Y-86916840D01*
X163379555Y-86906452D01*
X163362524Y-86892476D01*
X163348548Y-86875445D01*
X163338160Y-86856009D01*
X163331764Y-86834928D01*
X163329000Y-86806860D01*
X163329000Y-84993140D01*
X163331764Y-84965072D01*
X163338160Y-84943991D01*
X163348548Y-84924555D01*
X163362524Y-84907524D01*
X163379555Y-84893548D01*
X163398991Y-84883160D01*
X163420072Y-84876764D01*
X163448140Y-84874000D01*
X163911860Y-84874000D01*
X163939928Y-84876764D01*
X163939928Y-84876764D01*
G37*
G36*
X165209928Y-84876764D02*
G01*
X165231009Y-84883160D01*
X165250445Y-84893548D01*
X165267476Y-84907524D01*
X165281452Y-84924555D01*
X165291840Y-84943991D01*
X165298236Y-84965072D01*
X165301000Y-84993140D01*
X165301000Y-86806860D01*
X165298236Y-86834928D01*
X165291840Y-86856009D01*
X165281452Y-86875445D01*
X165267476Y-86892476D01*
X165250445Y-86906452D01*
X165231009Y-86916840D01*
X165209928Y-86923236D01*
X165181860Y-86926000D01*
X164718140Y-86926000D01*
X164690072Y-86923236D01*
X164668991Y-86916840D01*
X164649555Y-86906452D01*
X164632524Y-86892476D01*
X164618548Y-86875445D01*
X164608160Y-86856009D01*
X164601764Y-86834928D01*
X164599000Y-86806860D01*
X164599000Y-84993140D01*
X164601764Y-84965072D01*
X164608160Y-84943991D01*
X164618548Y-84924555D01*
X164632524Y-84907524D01*
X164649555Y-84893548D01*
X164668991Y-84883160D01*
X164690072Y-84876764D01*
X164718140Y-84874000D01*
X165181860Y-84874000D01*
X165209928Y-84876764D01*
X165209928Y-84876764D01*
G37*
G36*
X167749928Y-84876764D02*
G01*
X167771009Y-84883160D01*
X167790445Y-84893548D01*
X167807476Y-84907524D01*
X167821452Y-84924555D01*
X167831840Y-84943991D01*
X167838236Y-84965072D01*
X167841000Y-84993140D01*
X167841000Y-86806860D01*
X167838236Y-86834928D01*
X167831840Y-86856009D01*
X167821452Y-86875445D01*
X167807476Y-86892476D01*
X167790445Y-86906452D01*
X167771009Y-86916840D01*
X167749928Y-86923236D01*
X167721860Y-86926000D01*
X167258140Y-86926000D01*
X167230072Y-86923236D01*
X167208991Y-86916840D01*
X167189555Y-86906452D01*
X167172524Y-86892476D01*
X167158548Y-86875445D01*
X167148160Y-86856009D01*
X167141764Y-86834928D01*
X167139000Y-86806860D01*
X167139000Y-84993140D01*
X167141764Y-84965072D01*
X167148160Y-84943991D01*
X167158548Y-84924555D01*
X167172524Y-84907524D01*
X167189555Y-84893548D01*
X167208991Y-84883160D01*
X167230072Y-84876764D01*
X167258140Y-84874000D01*
X167721860Y-84874000D01*
X167749928Y-84876764D01*
X167749928Y-84876764D01*
G37*
G36*
X163038674Y-81503465D02*
G01*
X163076367Y-81514899D01*
X163111103Y-81533466D01*
X163141548Y-81558452D01*
X163166534Y-81588897D01*
X163185101Y-81623633D01*
X163196535Y-81661326D01*
X163201000Y-81706661D01*
X163201000Y-82543339D01*
X163196535Y-82588674D01*
X163185101Y-82626367D01*
X163166534Y-82661103D01*
X163141548Y-82691548D01*
X163111103Y-82716534D01*
X163076367Y-82735101D01*
X163038674Y-82746535D01*
X162993339Y-82751000D01*
X161906661Y-82751000D01*
X161861326Y-82746535D01*
X161823633Y-82735101D01*
X161788897Y-82716534D01*
X161758452Y-82691548D01*
X161733466Y-82661103D01*
X161714899Y-82626367D01*
X161703465Y-82588674D01*
X161699000Y-82543339D01*
X161699000Y-81706661D01*
X161703465Y-81661326D01*
X161714899Y-81623633D01*
X161733466Y-81588897D01*
X161758452Y-81558452D01*
X161788897Y-81533466D01*
X161823633Y-81514899D01*
X161861326Y-81503465D01*
X161906661Y-81499000D01*
X162993339Y-81499000D01*
X163038674Y-81503465D01*
X163038674Y-81503465D01*
G37*
G36*
X163038674Y-79453465D02*
G01*
X163076367Y-79464899D01*
X163111103Y-79483466D01*
X163141548Y-79508452D01*
X163166534Y-79538897D01*
X163185101Y-79573633D01*
X163196535Y-79611326D01*
X163201000Y-79656661D01*
X163201000Y-80493339D01*
X163196535Y-80538674D01*
X163185101Y-80576367D01*
X163166534Y-80611103D01*
X163141548Y-80641548D01*
X163111103Y-80666534D01*
X163076367Y-80685101D01*
X163038674Y-80696535D01*
X162993339Y-80701000D01*
X161906661Y-80701000D01*
X161861326Y-80696535D01*
X161823633Y-80685101D01*
X161788897Y-80666534D01*
X161758452Y-80641548D01*
X161733466Y-80611103D01*
X161714899Y-80576367D01*
X161703465Y-80538674D01*
X161699000Y-80493339D01*
X161699000Y-79656661D01*
X161703465Y-79611326D01*
X161714899Y-79573633D01*
X161733466Y-79538897D01*
X161758452Y-79508452D01*
X161788897Y-79483466D01*
X161823633Y-79464899D01*
X161861326Y-79453465D01*
X161906661Y-79449000D01*
X162993339Y-79449000D01*
X163038674Y-79453465D01*
X163038674Y-79453465D01*
G37*
G36*
X177888674Y-77003465D02*
G01*
X177926367Y-77014899D01*
X177961103Y-77033466D01*
X177991548Y-77058452D01*
X178016534Y-77088897D01*
X178035101Y-77123633D01*
X178046535Y-77161326D01*
X178051000Y-77206661D01*
X178051000Y-78043339D01*
X178046535Y-78088674D01*
X178035101Y-78126367D01*
X178016534Y-78161103D01*
X177991548Y-78191548D01*
X177961103Y-78216534D01*
X177926367Y-78235101D01*
X177888674Y-78246535D01*
X177843339Y-78251000D01*
X176756661Y-78251000D01*
X176711326Y-78246535D01*
X176673633Y-78235101D01*
X176638897Y-78216534D01*
X176608452Y-78191548D01*
X176583466Y-78161103D01*
X176564899Y-78126367D01*
X176553465Y-78088674D01*
X176549000Y-78043339D01*
X176549000Y-77206661D01*
X176553465Y-77161326D01*
X176564899Y-77123633D01*
X176583466Y-77088897D01*
X176608452Y-77058452D01*
X176638897Y-77033466D01*
X176673633Y-77014899D01*
X176711326Y-77003465D01*
X176756661Y-76999000D01*
X177843339Y-76999000D01*
X177888674Y-77003465D01*
X177888674Y-77003465D01*
G37*
G36*
X177888674Y-74953465D02*
G01*
X177926367Y-74964899D01*
X177961103Y-74983466D01*
X177991548Y-75008452D01*
X178016534Y-75038897D01*
X178035101Y-75073633D01*
X178046535Y-75111326D01*
X178051000Y-75156661D01*
X178051000Y-75993339D01*
X178046535Y-76038674D01*
X178035101Y-76076367D01*
X178016534Y-76111103D01*
X177991548Y-76141548D01*
X177961103Y-76166534D01*
X177926367Y-76185101D01*
X177888674Y-76196535D01*
X177843339Y-76201000D01*
X176756661Y-76201000D01*
X176711326Y-76196535D01*
X176673633Y-76185101D01*
X176638897Y-76166534D01*
X176608452Y-76141548D01*
X176583466Y-76111103D01*
X176564899Y-76076367D01*
X176553465Y-76038674D01*
X176549000Y-75993339D01*
X176549000Y-75156661D01*
X176553465Y-75111326D01*
X176564899Y-75073633D01*
X176583466Y-75038897D01*
X176608452Y-75008452D01*
X176638897Y-74983466D01*
X176673633Y-74964899D01*
X176711326Y-74953465D01*
X176756661Y-74949000D01*
X177843339Y-74949000D01*
X177888674Y-74953465D01*
X177888674Y-74953465D01*
G37*
G36*
X148175443Y-71430519D02*
G01*
X148241627Y-71437037D01*
X148411466Y-71488557D01*
X148567991Y-71572222D01*
X148603729Y-71601552D01*
X148705186Y-71684814D01*
X148788448Y-71786271D01*
X148817778Y-71822009D01*
X148901443Y-71978534D01*
X148952963Y-72148373D01*
X148970359Y-72325000D01*
X148952963Y-72501627D01*
X148901443Y-72671466D01*
X148817778Y-72827991D01*
X148788448Y-72863729D01*
X148705186Y-72965186D01*
X148603729Y-73048448D01*
X148567991Y-73077778D01*
X148411466Y-73161443D01*
X148241627Y-73212963D01*
X148175442Y-73219482D01*
X148109260Y-73226000D01*
X148020740Y-73226000D01*
X147954558Y-73219482D01*
X147888373Y-73212963D01*
X147718534Y-73161443D01*
X147562009Y-73077778D01*
X147526271Y-73048448D01*
X147424814Y-72965186D01*
X147341552Y-72863729D01*
X147312222Y-72827991D01*
X147228557Y-72671466D01*
X147177037Y-72501627D01*
X147159641Y-72325000D01*
X147177037Y-72148373D01*
X147228557Y-71978534D01*
X147312222Y-71822009D01*
X147341552Y-71786271D01*
X147424814Y-71684814D01*
X147526271Y-71601552D01*
X147562009Y-71572222D01*
X147718534Y-71488557D01*
X147888373Y-71437037D01*
X147954557Y-71430519D01*
X148020740Y-71424000D01*
X148109260Y-71424000D01*
X148175443Y-71430519D01*
X148175443Y-71430519D01*
G37*
G36*
X150715443Y-71430519D02*
G01*
X150781627Y-71437037D01*
X150951466Y-71488557D01*
X151107991Y-71572222D01*
X151143729Y-71601552D01*
X151245186Y-71684814D01*
X151328448Y-71786271D01*
X151357778Y-71822009D01*
X151441443Y-71978534D01*
X151492963Y-72148373D01*
X151510359Y-72325000D01*
X151492963Y-72501627D01*
X151441443Y-72671466D01*
X151357778Y-72827991D01*
X151328448Y-72863729D01*
X151245186Y-72965186D01*
X151143729Y-73048448D01*
X151107991Y-73077778D01*
X150951466Y-73161443D01*
X150781627Y-73212963D01*
X150715442Y-73219482D01*
X150649260Y-73226000D01*
X150560740Y-73226000D01*
X150494558Y-73219482D01*
X150428373Y-73212963D01*
X150258534Y-73161443D01*
X150102009Y-73077778D01*
X150066271Y-73048448D01*
X149964814Y-72965186D01*
X149881552Y-72863729D01*
X149852222Y-72827991D01*
X149768557Y-72671466D01*
X149717037Y-72501627D01*
X149699641Y-72325000D01*
X149717037Y-72148373D01*
X149768557Y-71978534D01*
X149852222Y-71822009D01*
X149881552Y-71786271D01*
X149964814Y-71684814D01*
X150066271Y-71601552D01*
X150102009Y-71572222D01*
X150258534Y-71488557D01*
X150428373Y-71437037D01*
X150494557Y-71430519D01*
X150560740Y-71424000D01*
X150649260Y-71424000D01*
X150715443Y-71430519D01*
X150715443Y-71430519D01*
G37*
G36*
X153255443Y-71430519D02*
G01*
X153321627Y-71437037D01*
X153491466Y-71488557D01*
X153647991Y-71572222D01*
X153683729Y-71601552D01*
X153785186Y-71684814D01*
X153868448Y-71786271D01*
X153897778Y-71822009D01*
X153981443Y-71978534D01*
X154032963Y-72148373D01*
X154050359Y-72325000D01*
X154032963Y-72501627D01*
X153981443Y-72671466D01*
X153897778Y-72827991D01*
X153868448Y-72863729D01*
X153785186Y-72965186D01*
X153683729Y-73048448D01*
X153647991Y-73077778D01*
X153491466Y-73161443D01*
X153321627Y-73212963D01*
X153255442Y-73219482D01*
X153189260Y-73226000D01*
X153100740Y-73226000D01*
X153034558Y-73219482D01*
X152968373Y-73212963D01*
X152798534Y-73161443D01*
X152642009Y-73077778D01*
X152606271Y-73048448D01*
X152504814Y-72965186D01*
X152421552Y-72863729D01*
X152392222Y-72827991D01*
X152308557Y-72671466D01*
X152257037Y-72501627D01*
X152239641Y-72325000D01*
X152257037Y-72148373D01*
X152308557Y-71978534D01*
X152392222Y-71822009D01*
X152421552Y-71786271D01*
X152504814Y-71684814D01*
X152606271Y-71601552D01*
X152642009Y-71572222D01*
X152798534Y-71488557D01*
X152968373Y-71437037D01*
X153034557Y-71430519D01*
X153100740Y-71424000D01*
X153189260Y-71424000D01*
X153255443Y-71430519D01*
X153255443Y-71430519D01*
G37*
G36*
X155795443Y-71430519D02*
G01*
X155861627Y-71437037D01*
X156031466Y-71488557D01*
X156187991Y-71572222D01*
X156223729Y-71601552D01*
X156325186Y-71684814D01*
X156408448Y-71786271D01*
X156437778Y-71822009D01*
X156521443Y-71978534D01*
X156572963Y-72148373D01*
X156590359Y-72325000D01*
X156572963Y-72501627D01*
X156521443Y-72671466D01*
X156437778Y-72827991D01*
X156408448Y-72863729D01*
X156325186Y-72965186D01*
X156223729Y-73048448D01*
X156187991Y-73077778D01*
X156031466Y-73161443D01*
X155861627Y-73212963D01*
X155795442Y-73219482D01*
X155729260Y-73226000D01*
X155640740Y-73226000D01*
X155574558Y-73219482D01*
X155508373Y-73212963D01*
X155338534Y-73161443D01*
X155182009Y-73077778D01*
X155146271Y-73048448D01*
X155044814Y-72965186D01*
X154961552Y-72863729D01*
X154932222Y-72827991D01*
X154848557Y-72671466D01*
X154797037Y-72501627D01*
X154779641Y-72325000D01*
X154797037Y-72148373D01*
X154848557Y-71978534D01*
X154932222Y-71822009D01*
X154961552Y-71786271D01*
X155044814Y-71684814D01*
X155146271Y-71601552D01*
X155182009Y-71572222D01*
X155338534Y-71488557D01*
X155508373Y-71437037D01*
X155574557Y-71430519D01*
X155640740Y-71424000D01*
X155729260Y-71424000D01*
X155795443Y-71430519D01*
X155795443Y-71430519D01*
G37*
G36*
X159126000Y-73226000D02*
G01*
X157324000Y-73226000D01*
X157324000Y-71424000D01*
X159126000Y-71424000D01*
X159126000Y-73226000D01*
X159126000Y-73226000D01*
G37*
G36*
X142490443Y-59245519D02*
G01*
X142556627Y-59252037D01*
X142726466Y-59303557D01*
X142882991Y-59387222D01*
X142918729Y-59416552D01*
X143020186Y-59499814D01*
X143103448Y-59601271D01*
X143132778Y-59637009D01*
X143216443Y-59793534D01*
X143267963Y-59963373D01*
X143285359Y-60140000D01*
X143267963Y-60316627D01*
X143216443Y-60486466D01*
X143132778Y-60642991D01*
X143103448Y-60678729D01*
X143020186Y-60780186D01*
X142918729Y-60863448D01*
X142882991Y-60892778D01*
X142726466Y-60976443D01*
X142556627Y-61027963D01*
X142490443Y-61034481D01*
X142424260Y-61041000D01*
X142335740Y-61041000D01*
X142269557Y-61034481D01*
X142203373Y-61027963D01*
X142033534Y-60976443D01*
X141877009Y-60892778D01*
X141841271Y-60863448D01*
X141739814Y-60780186D01*
X141656552Y-60678729D01*
X141627222Y-60642991D01*
X141543557Y-60486466D01*
X141492037Y-60316627D01*
X141474641Y-60140000D01*
X141492037Y-59963373D01*
X141543557Y-59793534D01*
X141627222Y-59637009D01*
X141656552Y-59601271D01*
X141739814Y-59499814D01*
X141841271Y-59416552D01*
X141877009Y-59387222D01*
X142033534Y-59303557D01*
X142203373Y-59252037D01*
X142269557Y-59245519D01*
X142335740Y-59239000D01*
X142424260Y-59239000D01*
X142490443Y-59245519D01*
X142490443Y-59245519D01*
G37*
G36*
X145030443Y-59245519D02*
G01*
X145096627Y-59252037D01*
X145266466Y-59303557D01*
X145422991Y-59387222D01*
X145458729Y-59416552D01*
X145560186Y-59499814D01*
X145643448Y-59601271D01*
X145672778Y-59637009D01*
X145756443Y-59793534D01*
X145807963Y-59963373D01*
X145825359Y-60140000D01*
X145807963Y-60316627D01*
X145756443Y-60486466D01*
X145672778Y-60642991D01*
X145643448Y-60678729D01*
X145560186Y-60780186D01*
X145458729Y-60863448D01*
X145422991Y-60892778D01*
X145266466Y-60976443D01*
X145096627Y-61027963D01*
X145030443Y-61034481D01*
X144964260Y-61041000D01*
X144875740Y-61041000D01*
X144809557Y-61034481D01*
X144743373Y-61027963D01*
X144573534Y-60976443D01*
X144417009Y-60892778D01*
X144381271Y-60863448D01*
X144279814Y-60780186D01*
X144196552Y-60678729D01*
X144167222Y-60642991D01*
X144083557Y-60486466D01*
X144032037Y-60316627D01*
X144014641Y-60140000D01*
X144032037Y-59963373D01*
X144083557Y-59793534D01*
X144167222Y-59637009D01*
X144196552Y-59601271D01*
X144279814Y-59499814D01*
X144381271Y-59416552D01*
X144417009Y-59387222D01*
X144573534Y-59303557D01*
X144743373Y-59252037D01*
X144809557Y-59245519D01*
X144875740Y-59239000D01*
X144964260Y-59239000D01*
X145030443Y-59245519D01*
X145030443Y-59245519D01*
G37*
G36*
X147570443Y-59245519D02*
G01*
X147636627Y-59252037D01*
X147806466Y-59303557D01*
X147962991Y-59387222D01*
X147998729Y-59416552D01*
X148100186Y-59499814D01*
X148183448Y-59601271D01*
X148212778Y-59637009D01*
X148296443Y-59793534D01*
X148347963Y-59963373D01*
X148365359Y-60140000D01*
X148347963Y-60316627D01*
X148296443Y-60486466D01*
X148212778Y-60642991D01*
X148183448Y-60678729D01*
X148100186Y-60780186D01*
X147998729Y-60863448D01*
X147962991Y-60892778D01*
X147806466Y-60976443D01*
X147636627Y-61027963D01*
X147570443Y-61034481D01*
X147504260Y-61041000D01*
X147415740Y-61041000D01*
X147349557Y-61034481D01*
X147283373Y-61027963D01*
X147113534Y-60976443D01*
X146957009Y-60892778D01*
X146921271Y-60863448D01*
X146819814Y-60780186D01*
X146736552Y-60678729D01*
X146707222Y-60642991D01*
X146623557Y-60486466D01*
X146572037Y-60316627D01*
X146554641Y-60140000D01*
X146572037Y-59963373D01*
X146623557Y-59793534D01*
X146707222Y-59637009D01*
X146736552Y-59601271D01*
X146819814Y-59499814D01*
X146921271Y-59416552D01*
X146957009Y-59387222D01*
X147113534Y-59303557D01*
X147283373Y-59252037D01*
X147349557Y-59245519D01*
X147415740Y-59239000D01*
X147504260Y-59239000D01*
X147570443Y-59245519D01*
X147570443Y-59245519D01*
G37*
G36*
X150110443Y-59245519D02*
G01*
X150176627Y-59252037D01*
X150346466Y-59303557D01*
X150502991Y-59387222D01*
X150538729Y-59416552D01*
X150640186Y-59499814D01*
X150723448Y-59601271D01*
X150752778Y-59637009D01*
X150836443Y-59793534D01*
X150887963Y-59963373D01*
X150905359Y-60140000D01*
X150887963Y-60316627D01*
X150836443Y-60486466D01*
X150752778Y-60642991D01*
X150723448Y-60678729D01*
X150640186Y-60780186D01*
X150538729Y-60863448D01*
X150502991Y-60892778D01*
X150346466Y-60976443D01*
X150176627Y-61027963D01*
X150110443Y-61034481D01*
X150044260Y-61041000D01*
X149955740Y-61041000D01*
X149889557Y-61034481D01*
X149823373Y-61027963D01*
X149653534Y-60976443D01*
X149497009Y-60892778D01*
X149461271Y-60863448D01*
X149359814Y-60780186D01*
X149276552Y-60678729D01*
X149247222Y-60642991D01*
X149163557Y-60486466D01*
X149112037Y-60316627D01*
X149094641Y-60140000D01*
X149112037Y-59963373D01*
X149163557Y-59793534D01*
X149247222Y-59637009D01*
X149276552Y-59601271D01*
X149359814Y-59499814D01*
X149461271Y-59416552D01*
X149497009Y-59387222D01*
X149653534Y-59303557D01*
X149823373Y-59252037D01*
X149889557Y-59245519D01*
X149955740Y-59239000D01*
X150044260Y-59239000D01*
X150110443Y-59245519D01*
X150110443Y-59245519D01*
G37*
G36*
X152650443Y-59245519D02*
G01*
X152716627Y-59252037D01*
X152886466Y-59303557D01*
X153042991Y-59387222D01*
X153078729Y-59416552D01*
X153180186Y-59499814D01*
X153263448Y-59601271D01*
X153292778Y-59637009D01*
X153376443Y-59793534D01*
X153427963Y-59963373D01*
X153445359Y-60140000D01*
X153427963Y-60316627D01*
X153376443Y-60486466D01*
X153292778Y-60642991D01*
X153263448Y-60678729D01*
X153180186Y-60780186D01*
X153078729Y-60863448D01*
X153042991Y-60892778D01*
X152886466Y-60976443D01*
X152716627Y-61027963D01*
X152650443Y-61034481D01*
X152584260Y-61041000D01*
X152495740Y-61041000D01*
X152429557Y-61034481D01*
X152363373Y-61027963D01*
X152193534Y-60976443D01*
X152037009Y-60892778D01*
X152001271Y-60863448D01*
X151899814Y-60780186D01*
X151816552Y-60678729D01*
X151787222Y-60642991D01*
X151703557Y-60486466D01*
X151652037Y-60316627D01*
X151634641Y-60140000D01*
X151652037Y-59963373D01*
X151703557Y-59793534D01*
X151787222Y-59637009D01*
X151816552Y-59601271D01*
X151899814Y-59499814D01*
X152001271Y-59416552D01*
X152037009Y-59387222D01*
X152193534Y-59303557D01*
X152363373Y-59252037D01*
X152429557Y-59245519D01*
X152495740Y-59239000D01*
X152584260Y-59239000D01*
X152650443Y-59245519D01*
X152650443Y-59245519D01*
G37*
G36*
X155190443Y-59245519D02*
G01*
X155256627Y-59252037D01*
X155426466Y-59303557D01*
X155582991Y-59387222D01*
X155618729Y-59416552D01*
X155720186Y-59499814D01*
X155803448Y-59601271D01*
X155832778Y-59637009D01*
X155916443Y-59793534D01*
X155967963Y-59963373D01*
X155985359Y-60140000D01*
X155967963Y-60316627D01*
X155916443Y-60486466D01*
X155832778Y-60642991D01*
X155803448Y-60678729D01*
X155720186Y-60780186D01*
X155618729Y-60863448D01*
X155582991Y-60892778D01*
X155426466Y-60976443D01*
X155256627Y-61027963D01*
X155190443Y-61034481D01*
X155124260Y-61041000D01*
X155035740Y-61041000D01*
X154969557Y-61034481D01*
X154903373Y-61027963D01*
X154733534Y-60976443D01*
X154577009Y-60892778D01*
X154541271Y-60863448D01*
X154439814Y-60780186D01*
X154356552Y-60678729D01*
X154327222Y-60642991D01*
X154243557Y-60486466D01*
X154192037Y-60316627D01*
X154174641Y-60140000D01*
X154192037Y-59963373D01*
X154243557Y-59793534D01*
X154327222Y-59637009D01*
X154356552Y-59601271D01*
X154439814Y-59499814D01*
X154541271Y-59416552D01*
X154577009Y-59387222D01*
X154733534Y-59303557D01*
X154903373Y-59252037D01*
X154969557Y-59245519D01*
X155035740Y-59239000D01*
X155124260Y-59239000D01*
X155190443Y-59245519D01*
X155190443Y-59245519D01*
G37*
G36*
X157730443Y-59245519D02*
G01*
X157796627Y-59252037D01*
X157966466Y-59303557D01*
X158122991Y-59387222D01*
X158158729Y-59416552D01*
X158260186Y-59499814D01*
X158343448Y-59601271D01*
X158372778Y-59637009D01*
X158456443Y-59793534D01*
X158507963Y-59963373D01*
X158525359Y-60140000D01*
X158507963Y-60316627D01*
X158456443Y-60486466D01*
X158372778Y-60642991D01*
X158343448Y-60678729D01*
X158260186Y-60780186D01*
X158158729Y-60863448D01*
X158122991Y-60892778D01*
X157966466Y-60976443D01*
X157796627Y-61027963D01*
X157730443Y-61034481D01*
X157664260Y-61041000D01*
X157575740Y-61041000D01*
X157509557Y-61034481D01*
X157443373Y-61027963D01*
X157273534Y-60976443D01*
X157117009Y-60892778D01*
X157081271Y-60863448D01*
X156979814Y-60780186D01*
X156896552Y-60678729D01*
X156867222Y-60642991D01*
X156783557Y-60486466D01*
X156732037Y-60316627D01*
X156714641Y-60140000D01*
X156732037Y-59963373D01*
X156783557Y-59793534D01*
X156867222Y-59637009D01*
X156896552Y-59601271D01*
X156979814Y-59499814D01*
X157081271Y-59416552D01*
X157117009Y-59387222D01*
X157273534Y-59303557D01*
X157443373Y-59252037D01*
X157509557Y-59245519D01*
X157575740Y-59239000D01*
X157664260Y-59239000D01*
X157730443Y-59245519D01*
X157730443Y-59245519D01*
G37*
G36*
X160270443Y-59245519D02*
G01*
X160336627Y-59252037D01*
X160506466Y-59303557D01*
X160662991Y-59387222D01*
X160698729Y-59416552D01*
X160800186Y-59499814D01*
X160883448Y-59601271D01*
X160912778Y-59637009D01*
X160996443Y-59793534D01*
X161047963Y-59963373D01*
X161065359Y-60140000D01*
X161047963Y-60316627D01*
X160996443Y-60486466D01*
X160912778Y-60642991D01*
X160883448Y-60678729D01*
X160800186Y-60780186D01*
X160698729Y-60863448D01*
X160662991Y-60892778D01*
X160506466Y-60976443D01*
X160336627Y-61027963D01*
X160270443Y-61034481D01*
X160204260Y-61041000D01*
X160115740Y-61041000D01*
X160049557Y-61034481D01*
X159983373Y-61027963D01*
X159813534Y-60976443D01*
X159657009Y-60892778D01*
X159621271Y-60863448D01*
X159519814Y-60780186D01*
X159436552Y-60678729D01*
X159407222Y-60642991D01*
X159323557Y-60486466D01*
X159272037Y-60316627D01*
X159254641Y-60140000D01*
X159272037Y-59963373D01*
X159323557Y-59793534D01*
X159407222Y-59637009D01*
X159436552Y-59601271D01*
X159519814Y-59499814D01*
X159621271Y-59416552D01*
X159657009Y-59387222D01*
X159813534Y-59303557D01*
X159983373Y-59252037D01*
X160049557Y-59245519D01*
X160115740Y-59239000D01*
X160204260Y-59239000D01*
X160270443Y-59245519D01*
X160270443Y-59245519D01*
G37*
G36*
X162810443Y-59245519D02*
G01*
X162876627Y-59252037D01*
X163046466Y-59303557D01*
X163202991Y-59387222D01*
X163238729Y-59416552D01*
X163340186Y-59499814D01*
X163423448Y-59601271D01*
X163452778Y-59637009D01*
X163536443Y-59793534D01*
X163587963Y-59963373D01*
X163605359Y-60140000D01*
X163587963Y-60316627D01*
X163536443Y-60486466D01*
X163452778Y-60642991D01*
X163423448Y-60678729D01*
X163340186Y-60780186D01*
X163238729Y-60863448D01*
X163202991Y-60892778D01*
X163046466Y-60976443D01*
X162876627Y-61027963D01*
X162810443Y-61034481D01*
X162744260Y-61041000D01*
X162655740Y-61041000D01*
X162589557Y-61034481D01*
X162523373Y-61027963D01*
X162353534Y-60976443D01*
X162197009Y-60892778D01*
X162161271Y-60863448D01*
X162059814Y-60780186D01*
X161976552Y-60678729D01*
X161947222Y-60642991D01*
X161863557Y-60486466D01*
X161812037Y-60316627D01*
X161794641Y-60140000D01*
X161812037Y-59963373D01*
X161863557Y-59793534D01*
X161947222Y-59637009D01*
X161976552Y-59601271D01*
X162059814Y-59499814D01*
X162161271Y-59416552D01*
X162197009Y-59387222D01*
X162353534Y-59303557D01*
X162523373Y-59252037D01*
X162589557Y-59245519D01*
X162655740Y-59239000D01*
X162744260Y-59239000D01*
X162810443Y-59245519D01*
X162810443Y-59245519D01*
G37*
G36*
X165350443Y-59245519D02*
G01*
X165416627Y-59252037D01*
X165586466Y-59303557D01*
X165742991Y-59387222D01*
X165778729Y-59416552D01*
X165880186Y-59499814D01*
X165963448Y-59601271D01*
X165992778Y-59637009D01*
X166076443Y-59793534D01*
X166127963Y-59963373D01*
X166145359Y-60140000D01*
X166127963Y-60316627D01*
X166076443Y-60486466D01*
X165992778Y-60642991D01*
X165963448Y-60678729D01*
X165880186Y-60780186D01*
X165778729Y-60863448D01*
X165742991Y-60892778D01*
X165586466Y-60976443D01*
X165416627Y-61027963D01*
X165350443Y-61034481D01*
X165284260Y-61041000D01*
X165195740Y-61041000D01*
X165129557Y-61034481D01*
X165063373Y-61027963D01*
X164893534Y-60976443D01*
X164737009Y-60892778D01*
X164701271Y-60863448D01*
X164599814Y-60780186D01*
X164516552Y-60678729D01*
X164487222Y-60642991D01*
X164403557Y-60486466D01*
X164352037Y-60316627D01*
X164334641Y-60140000D01*
X164352037Y-59963373D01*
X164403557Y-59793534D01*
X164487222Y-59637009D01*
X164516552Y-59601271D01*
X164599814Y-59499814D01*
X164701271Y-59416552D01*
X164737009Y-59387222D01*
X164893534Y-59303557D01*
X165063373Y-59252037D01*
X165129557Y-59245519D01*
X165195740Y-59239000D01*
X165284260Y-59239000D01*
X165350443Y-59245519D01*
X165350443Y-59245519D01*
G37*
G36*
X167890443Y-59245519D02*
G01*
X167956627Y-59252037D01*
X168126466Y-59303557D01*
X168282991Y-59387222D01*
X168318729Y-59416552D01*
X168420186Y-59499814D01*
X168503448Y-59601271D01*
X168532778Y-59637009D01*
X168616443Y-59793534D01*
X168667963Y-59963373D01*
X168685359Y-60140000D01*
X168667963Y-60316627D01*
X168616443Y-60486466D01*
X168532778Y-60642991D01*
X168503448Y-60678729D01*
X168420186Y-60780186D01*
X168318729Y-60863448D01*
X168282991Y-60892778D01*
X168126466Y-60976443D01*
X167956627Y-61027963D01*
X167890443Y-61034481D01*
X167824260Y-61041000D01*
X167735740Y-61041000D01*
X167669557Y-61034481D01*
X167603373Y-61027963D01*
X167433534Y-60976443D01*
X167277009Y-60892778D01*
X167241271Y-60863448D01*
X167139814Y-60780186D01*
X167056552Y-60678729D01*
X167027222Y-60642991D01*
X166943557Y-60486466D01*
X166892037Y-60316627D01*
X166874641Y-60140000D01*
X166892037Y-59963373D01*
X166943557Y-59793534D01*
X167027222Y-59637009D01*
X167056552Y-59601271D01*
X167139814Y-59499814D01*
X167241271Y-59416552D01*
X167277009Y-59387222D01*
X167433534Y-59303557D01*
X167603373Y-59252037D01*
X167669557Y-59245519D01*
X167735740Y-59239000D01*
X167824260Y-59239000D01*
X167890443Y-59245519D01*
X167890443Y-59245519D01*
G37*
G36*
X170430443Y-59245519D02*
G01*
X170496627Y-59252037D01*
X170666466Y-59303557D01*
X170822991Y-59387222D01*
X170858729Y-59416552D01*
X170960186Y-59499814D01*
X171043448Y-59601271D01*
X171072778Y-59637009D01*
X171156443Y-59793534D01*
X171207963Y-59963373D01*
X171225359Y-60140000D01*
X171207963Y-60316627D01*
X171156443Y-60486466D01*
X171072778Y-60642991D01*
X171043448Y-60678729D01*
X170960186Y-60780186D01*
X170858729Y-60863448D01*
X170822991Y-60892778D01*
X170666466Y-60976443D01*
X170496627Y-61027963D01*
X170430443Y-61034481D01*
X170364260Y-61041000D01*
X170275740Y-61041000D01*
X170209557Y-61034481D01*
X170143373Y-61027963D01*
X169973534Y-60976443D01*
X169817009Y-60892778D01*
X169781271Y-60863448D01*
X169679814Y-60780186D01*
X169596552Y-60678729D01*
X169567222Y-60642991D01*
X169483557Y-60486466D01*
X169432037Y-60316627D01*
X169414641Y-60140000D01*
X169432037Y-59963373D01*
X169483557Y-59793534D01*
X169567222Y-59637009D01*
X169596552Y-59601271D01*
X169679814Y-59499814D01*
X169781271Y-59416552D01*
X169817009Y-59387222D01*
X169973534Y-59303557D01*
X170143373Y-59252037D01*
X170209557Y-59245519D01*
X170275740Y-59239000D01*
X170364260Y-59239000D01*
X170430443Y-59245519D01*
X170430443Y-59245519D01*
G37*
G36*
X173761000Y-61041000D02*
G01*
X171959000Y-61041000D01*
X171959000Y-59239000D01*
X173761000Y-59239000D01*
X173761000Y-61041000D01*
X173761000Y-61041000D01*
G37*
G36*
X139950443Y-59245519D02*
G01*
X140016627Y-59252037D01*
X140186466Y-59303557D01*
X140342991Y-59387222D01*
X140378729Y-59416552D01*
X140480186Y-59499814D01*
X140563448Y-59601271D01*
X140592778Y-59637009D01*
X140676443Y-59793534D01*
X140727963Y-59963373D01*
X140745359Y-60140000D01*
X140727963Y-60316627D01*
X140676443Y-60486466D01*
X140592778Y-60642991D01*
X140563448Y-60678729D01*
X140480186Y-60780186D01*
X140378729Y-60863448D01*
X140342991Y-60892778D01*
X140186466Y-60976443D01*
X140016627Y-61027963D01*
X139950443Y-61034481D01*
X139884260Y-61041000D01*
X139795740Y-61041000D01*
X139729557Y-61034481D01*
X139663373Y-61027963D01*
X139493534Y-60976443D01*
X139337009Y-60892778D01*
X139301271Y-60863448D01*
X139199814Y-60780186D01*
X139116552Y-60678729D01*
X139087222Y-60642991D01*
X139003557Y-60486466D01*
X138952037Y-60316627D01*
X138934641Y-60140000D01*
X138952037Y-59963373D01*
X139003557Y-59793534D01*
X139087222Y-59637009D01*
X139116552Y-59601271D01*
X139199814Y-59499814D01*
X139301271Y-59416552D01*
X139337009Y-59387222D01*
X139493534Y-59303557D01*
X139663373Y-59252037D01*
X139729557Y-59245519D01*
X139795740Y-59239000D01*
X139884260Y-59239000D01*
X139950443Y-59245519D01*
X139950443Y-59245519D01*
G37*
G36*
X124710443Y-59245519D02*
G01*
X124776627Y-59252037D01*
X124946466Y-59303557D01*
X125102991Y-59387222D01*
X125138729Y-59416552D01*
X125240186Y-59499814D01*
X125323448Y-59601271D01*
X125352778Y-59637009D01*
X125436443Y-59793534D01*
X125487963Y-59963373D01*
X125505359Y-60140000D01*
X125487963Y-60316627D01*
X125436443Y-60486466D01*
X125352778Y-60642991D01*
X125323448Y-60678729D01*
X125240186Y-60780186D01*
X125138729Y-60863448D01*
X125102991Y-60892778D01*
X124946466Y-60976443D01*
X124776627Y-61027963D01*
X124710443Y-61034481D01*
X124644260Y-61041000D01*
X124555740Y-61041000D01*
X124489557Y-61034481D01*
X124423373Y-61027963D01*
X124253534Y-60976443D01*
X124097009Y-60892778D01*
X124061271Y-60863448D01*
X123959814Y-60780186D01*
X123876552Y-60678729D01*
X123847222Y-60642991D01*
X123763557Y-60486466D01*
X123712037Y-60316627D01*
X123694641Y-60140000D01*
X123712037Y-59963373D01*
X123763557Y-59793534D01*
X123847222Y-59637009D01*
X123876552Y-59601271D01*
X123959814Y-59499814D01*
X124061271Y-59416552D01*
X124097009Y-59387222D01*
X124253534Y-59303557D01*
X124423373Y-59252037D01*
X124489557Y-59245519D01*
X124555740Y-59239000D01*
X124644260Y-59239000D01*
X124710443Y-59245519D01*
X124710443Y-59245519D01*
G37*
G36*
X127250443Y-59245519D02*
G01*
X127316627Y-59252037D01*
X127486466Y-59303557D01*
X127642991Y-59387222D01*
X127678729Y-59416552D01*
X127780186Y-59499814D01*
X127863448Y-59601271D01*
X127892778Y-59637009D01*
X127976443Y-59793534D01*
X128027963Y-59963373D01*
X128045359Y-60140000D01*
X128027963Y-60316627D01*
X127976443Y-60486466D01*
X127892778Y-60642991D01*
X127863448Y-60678729D01*
X127780186Y-60780186D01*
X127678729Y-60863448D01*
X127642991Y-60892778D01*
X127486466Y-60976443D01*
X127316627Y-61027963D01*
X127250443Y-61034481D01*
X127184260Y-61041000D01*
X127095740Y-61041000D01*
X127029557Y-61034481D01*
X126963373Y-61027963D01*
X126793534Y-60976443D01*
X126637009Y-60892778D01*
X126601271Y-60863448D01*
X126499814Y-60780186D01*
X126416552Y-60678729D01*
X126387222Y-60642991D01*
X126303557Y-60486466D01*
X126252037Y-60316627D01*
X126234641Y-60140000D01*
X126252037Y-59963373D01*
X126303557Y-59793534D01*
X126387222Y-59637009D01*
X126416552Y-59601271D01*
X126499814Y-59499814D01*
X126601271Y-59416552D01*
X126637009Y-59387222D01*
X126793534Y-59303557D01*
X126963373Y-59252037D01*
X127029557Y-59245519D01*
X127095740Y-59239000D01*
X127184260Y-59239000D01*
X127250443Y-59245519D01*
X127250443Y-59245519D01*
G37*
G36*
X129790443Y-59245519D02*
G01*
X129856627Y-59252037D01*
X130026466Y-59303557D01*
X130182991Y-59387222D01*
X130218729Y-59416552D01*
X130320186Y-59499814D01*
X130403448Y-59601271D01*
X130432778Y-59637009D01*
X130516443Y-59793534D01*
X130567963Y-59963373D01*
X130585359Y-60140000D01*
X130567963Y-60316627D01*
X130516443Y-60486466D01*
X130432778Y-60642991D01*
X130403448Y-60678729D01*
X130320186Y-60780186D01*
X130218729Y-60863448D01*
X130182991Y-60892778D01*
X130026466Y-60976443D01*
X129856627Y-61027963D01*
X129790443Y-61034481D01*
X129724260Y-61041000D01*
X129635740Y-61041000D01*
X129569557Y-61034481D01*
X129503373Y-61027963D01*
X129333534Y-60976443D01*
X129177009Y-60892778D01*
X129141271Y-60863448D01*
X129039814Y-60780186D01*
X128956552Y-60678729D01*
X128927222Y-60642991D01*
X128843557Y-60486466D01*
X128792037Y-60316627D01*
X128774641Y-60140000D01*
X128792037Y-59963373D01*
X128843557Y-59793534D01*
X128927222Y-59637009D01*
X128956552Y-59601271D01*
X129039814Y-59499814D01*
X129141271Y-59416552D01*
X129177009Y-59387222D01*
X129333534Y-59303557D01*
X129503373Y-59252037D01*
X129569557Y-59245519D01*
X129635740Y-59239000D01*
X129724260Y-59239000D01*
X129790443Y-59245519D01*
X129790443Y-59245519D01*
G37*
G36*
X132330443Y-59245519D02*
G01*
X132396627Y-59252037D01*
X132566466Y-59303557D01*
X132722991Y-59387222D01*
X132758729Y-59416552D01*
X132860186Y-59499814D01*
X132943448Y-59601271D01*
X132972778Y-59637009D01*
X133056443Y-59793534D01*
X133107963Y-59963373D01*
X133125359Y-60140000D01*
X133107963Y-60316627D01*
X133056443Y-60486466D01*
X132972778Y-60642991D01*
X132943448Y-60678729D01*
X132860186Y-60780186D01*
X132758729Y-60863448D01*
X132722991Y-60892778D01*
X132566466Y-60976443D01*
X132396627Y-61027963D01*
X132330443Y-61034481D01*
X132264260Y-61041000D01*
X132175740Y-61041000D01*
X132109557Y-61034481D01*
X132043373Y-61027963D01*
X131873534Y-60976443D01*
X131717009Y-60892778D01*
X131681271Y-60863448D01*
X131579814Y-60780186D01*
X131496552Y-60678729D01*
X131467222Y-60642991D01*
X131383557Y-60486466D01*
X131332037Y-60316627D01*
X131314641Y-60140000D01*
X131332037Y-59963373D01*
X131383557Y-59793534D01*
X131467222Y-59637009D01*
X131496552Y-59601271D01*
X131579814Y-59499814D01*
X131681271Y-59416552D01*
X131717009Y-59387222D01*
X131873534Y-59303557D01*
X132043373Y-59252037D01*
X132109557Y-59245519D01*
X132175740Y-59239000D01*
X132264260Y-59239000D01*
X132330443Y-59245519D01*
X132330443Y-59245519D01*
G37*
G36*
X134870443Y-59245519D02*
G01*
X134936627Y-59252037D01*
X135106466Y-59303557D01*
X135262991Y-59387222D01*
X135298729Y-59416552D01*
X135400186Y-59499814D01*
X135483448Y-59601271D01*
X135512778Y-59637009D01*
X135596443Y-59793534D01*
X135647963Y-59963373D01*
X135665359Y-60140000D01*
X135647963Y-60316627D01*
X135596443Y-60486466D01*
X135512778Y-60642991D01*
X135483448Y-60678729D01*
X135400186Y-60780186D01*
X135298729Y-60863448D01*
X135262991Y-60892778D01*
X135106466Y-60976443D01*
X134936627Y-61027963D01*
X134870443Y-61034481D01*
X134804260Y-61041000D01*
X134715740Y-61041000D01*
X134649557Y-61034481D01*
X134583373Y-61027963D01*
X134413534Y-60976443D01*
X134257009Y-60892778D01*
X134221271Y-60863448D01*
X134119814Y-60780186D01*
X134036552Y-60678729D01*
X134007222Y-60642991D01*
X133923557Y-60486466D01*
X133872037Y-60316627D01*
X133854641Y-60140000D01*
X133872037Y-59963373D01*
X133923557Y-59793534D01*
X134007222Y-59637009D01*
X134036552Y-59601271D01*
X134119814Y-59499814D01*
X134221271Y-59416552D01*
X134257009Y-59387222D01*
X134413534Y-59303557D01*
X134583373Y-59252037D01*
X134649557Y-59245519D01*
X134715740Y-59239000D01*
X134804260Y-59239000D01*
X134870443Y-59245519D01*
X134870443Y-59245519D01*
G37*
G36*
X137410443Y-59245519D02*
G01*
X137476627Y-59252037D01*
X137646466Y-59303557D01*
X137802991Y-59387222D01*
X137838729Y-59416552D01*
X137940186Y-59499814D01*
X138023448Y-59601271D01*
X138052778Y-59637009D01*
X138136443Y-59793534D01*
X138187963Y-59963373D01*
X138205359Y-60140000D01*
X138187963Y-60316627D01*
X138136443Y-60486466D01*
X138052778Y-60642991D01*
X138023448Y-60678729D01*
X137940186Y-60780186D01*
X137838729Y-60863448D01*
X137802991Y-60892778D01*
X137646466Y-60976443D01*
X137476627Y-61027963D01*
X137410443Y-61034481D01*
X137344260Y-61041000D01*
X137255740Y-61041000D01*
X137189557Y-61034481D01*
X137123373Y-61027963D01*
X136953534Y-60976443D01*
X136797009Y-60892778D01*
X136761271Y-60863448D01*
X136659814Y-60780186D01*
X136576552Y-60678729D01*
X136547222Y-60642991D01*
X136463557Y-60486466D01*
X136412037Y-60316627D01*
X136394641Y-60140000D01*
X136412037Y-59963373D01*
X136463557Y-59793534D01*
X136547222Y-59637009D01*
X136576552Y-59601271D01*
X136659814Y-59499814D01*
X136761271Y-59416552D01*
X136797009Y-59387222D01*
X136953534Y-59303557D01*
X137123373Y-59252037D01*
X137189557Y-59245519D01*
X137255740Y-59239000D01*
X137344260Y-59239000D01*
X137410443Y-59245519D01*
X137410443Y-59245519D01*
G37*
G36*
X157730442Y-56705518D02*
G01*
X157796627Y-56712037D01*
X157966466Y-56763557D01*
X158122991Y-56847222D01*
X158158729Y-56876552D01*
X158260186Y-56959814D01*
X158343448Y-57061271D01*
X158372778Y-57097009D01*
X158456443Y-57253534D01*
X158507963Y-57423373D01*
X158525359Y-57600000D01*
X158507963Y-57776627D01*
X158456443Y-57946466D01*
X158372778Y-58102991D01*
X158343448Y-58138729D01*
X158260186Y-58240186D01*
X158158729Y-58323448D01*
X158122991Y-58352778D01*
X157966466Y-58436443D01*
X157796627Y-58487963D01*
X157730443Y-58494481D01*
X157664260Y-58501000D01*
X157575740Y-58501000D01*
X157509557Y-58494481D01*
X157443373Y-58487963D01*
X157273534Y-58436443D01*
X157117009Y-58352778D01*
X157081271Y-58323448D01*
X156979814Y-58240186D01*
X156896552Y-58138729D01*
X156867222Y-58102991D01*
X156783557Y-57946466D01*
X156732037Y-57776627D01*
X156714641Y-57600000D01*
X156732037Y-57423373D01*
X156783557Y-57253534D01*
X156867222Y-57097009D01*
X156896552Y-57061271D01*
X156979814Y-56959814D01*
X157081271Y-56876552D01*
X157117009Y-56847222D01*
X157273534Y-56763557D01*
X157443373Y-56712037D01*
X157509558Y-56705518D01*
X157575740Y-56699000D01*
X157664260Y-56699000D01*
X157730442Y-56705518D01*
X157730442Y-56705518D01*
G37*
G36*
X155190442Y-56705518D02*
G01*
X155256627Y-56712037D01*
X155426466Y-56763557D01*
X155582991Y-56847222D01*
X155618729Y-56876552D01*
X155720186Y-56959814D01*
X155803448Y-57061271D01*
X155832778Y-57097009D01*
X155916443Y-57253534D01*
X155967963Y-57423373D01*
X155985359Y-57600000D01*
X155967963Y-57776627D01*
X155916443Y-57946466D01*
X155832778Y-58102991D01*
X155803448Y-58138729D01*
X155720186Y-58240186D01*
X155618729Y-58323448D01*
X155582991Y-58352778D01*
X155426466Y-58436443D01*
X155256627Y-58487963D01*
X155190443Y-58494481D01*
X155124260Y-58501000D01*
X155035740Y-58501000D01*
X154969557Y-58494481D01*
X154903373Y-58487963D01*
X154733534Y-58436443D01*
X154577009Y-58352778D01*
X154541271Y-58323448D01*
X154439814Y-58240186D01*
X154356552Y-58138729D01*
X154327222Y-58102991D01*
X154243557Y-57946466D01*
X154192037Y-57776627D01*
X154174641Y-57600000D01*
X154192037Y-57423373D01*
X154243557Y-57253534D01*
X154327222Y-57097009D01*
X154356552Y-57061271D01*
X154439814Y-56959814D01*
X154541271Y-56876552D01*
X154577009Y-56847222D01*
X154733534Y-56763557D01*
X154903373Y-56712037D01*
X154969558Y-56705518D01*
X155035740Y-56699000D01*
X155124260Y-56699000D01*
X155190442Y-56705518D01*
X155190442Y-56705518D01*
G37*
G36*
X160270442Y-56705518D02*
G01*
X160336627Y-56712037D01*
X160506466Y-56763557D01*
X160662991Y-56847222D01*
X160698729Y-56876552D01*
X160800186Y-56959814D01*
X160883448Y-57061271D01*
X160912778Y-57097009D01*
X160996443Y-57253534D01*
X161047963Y-57423373D01*
X161065359Y-57600000D01*
X161047963Y-57776627D01*
X160996443Y-57946466D01*
X160912778Y-58102991D01*
X160883448Y-58138729D01*
X160800186Y-58240186D01*
X160698729Y-58323448D01*
X160662991Y-58352778D01*
X160506466Y-58436443D01*
X160336627Y-58487963D01*
X160270443Y-58494481D01*
X160204260Y-58501000D01*
X160115740Y-58501000D01*
X160049557Y-58494481D01*
X159983373Y-58487963D01*
X159813534Y-58436443D01*
X159657009Y-58352778D01*
X159621271Y-58323448D01*
X159519814Y-58240186D01*
X159436552Y-58138729D01*
X159407222Y-58102991D01*
X159323557Y-57946466D01*
X159272037Y-57776627D01*
X159254641Y-57600000D01*
X159272037Y-57423373D01*
X159323557Y-57253534D01*
X159407222Y-57097009D01*
X159436552Y-57061271D01*
X159519814Y-56959814D01*
X159621271Y-56876552D01*
X159657009Y-56847222D01*
X159813534Y-56763557D01*
X159983373Y-56712037D01*
X160049558Y-56705518D01*
X160115740Y-56699000D01*
X160204260Y-56699000D01*
X160270442Y-56705518D01*
X160270442Y-56705518D01*
G37*
G36*
X152650442Y-56705518D02*
G01*
X152716627Y-56712037D01*
X152886466Y-56763557D01*
X153042991Y-56847222D01*
X153078729Y-56876552D01*
X153180186Y-56959814D01*
X153263448Y-57061271D01*
X153292778Y-57097009D01*
X153376443Y-57253534D01*
X153427963Y-57423373D01*
X153445359Y-57600000D01*
X153427963Y-57776627D01*
X153376443Y-57946466D01*
X153292778Y-58102991D01*
X153263448Y-58138729D01*
X153180186Y-58240186D01*
X153078729Y-58323448D01*
X153042991Y-58352778D01*
X152886466Y-58436443D01*
X152716627Y-58487963D01*
X152650443Y-58494481D01*
X152584260Y-58501000D01*
X152495740Y-58501000D01*
X152429557Y-58494481D01*
X152363373Y-58487963D01*
X152193534Y-58436443D01*
X152037009Y-58352778D01*
X152001271Y-58323448D01*
X151899814Y-58240186D01*
X151816552Y-58138729D01*
X151787222Y-58102991D01*
X151703557Y-57946466D01*
X151652037Y-57776627D01*
X151634641Y-57600000D01*
X151652037Y-57423373D01*
X151703557Y-57253534D01*
X151787222Y-57097009D01*
X151816552Y-57061271D01*
X151899814Y-56959814D01*
X152001271Y-56876552D01*
X152037009Y-56847222D01*
X152193534Y-56763557D01*
X152363373Y-56712037D01*
X152429558Y-56705518D01*
X152495740Y-56699000D01*
X152584260Y-56699000D01*
X152650442Y-56705518D01*
X152650442Y-56705518D01*
G37*
G36*
X162810442Y-56705518D02*
G01*
X162876627Y-56712037D01*
X163046466Y-56763557D01*
X163202991Y-56847222D01*
X163238729Y-56876552D01*
X163340186Y-56959814D01*
X163423448Y-57061271D01*
X163452778Y-57097009D01*
X163536443Y-57253534D01*
X163587963Y-57423373D01*
X163605359Y-57600000D01*
X163587963Y-57776627D01*
X163536443Y-57946466D01*
X163452778Y-58102991D01*
X163423448Y-58138729D01*
X163340186Y-58240186D01*
X163238729Y-58323448D01*
X163202991Y-58352778D01*
X163046466Y-58436443D01*
X162876627Y-58487963D01*
X162810443Y-58494481D01*
X162744260Y-58501000D01*
X162655740Y-58501000D01*
X162589557Y-58494481D01*
X162523373Y-58487963D01*
X162353534Y-58436443D01*
X162197009Y-58352778D01*
X162161271Y-58323448D01*
X162059814Y-58240186D01*
X161976552Y-58138729D01*
X161947222Y-58102991D01*
X161863557Y-57946466D01*
X161812037Y-57776627D01*
X161794641Y-57600000D01*
X161812037Y-57423373D01*
X161863557Y-57253534D01*
X161947222Y-57097009D01*
X161976552Y-57061271D01*
X162059814Y-56959814D01*
X162161271Y-56876552D01*
X162197009Y-56847222D01*
X162353534Y-56763557D01*
X162523373Y-56712037D01*
X162589558Y-56705518D01*
X162655740Y-56699000D01*
X162744260Y-56699000D01*
X162810442Y-56705518D01*
X162810442Y-56705518D01*
G37*
G36*
X150110442Y-56705518D02*
G01*
X150176627Y-56712037D01*
X150346466Y-56763557D01*
X150502991Y-56847222D01*
X150538729Y-56876552D01*
X150640186Y-56959814D01*
X150723448Y-57061271D01*
X150752778Y-57097009D01*
X150836443Y-57253534D01*
X150887963Y-57423373D01*
X150905359Y-57600000D01*
X150887963Y-57776627D01*
X150836443Y-57946466D01*
X150752778Y-58102991D01*
X150723448Y-58138729D01*
X150640186Y-58240186D01*
X150538729Y-58323448D01*
X150502991Y-58352778D01*
X150346466Y-58436443D01*
X150176627Y-58487963D01*
X150110443Y-58494481D01*
X150044260Y-58501000D01*
X149955740Y-58501000D01*
X149889557Y-58494481D01*
X149823373Y-58487963D01*
X149653534Y-58436443D01*
X149497009Y-58352778D01*
X149461271Y-58323448D01*
X149359814Y-58240186D01*
X149276552Y-58138729D01*
X149247222Y-58102991D01*
X149163557Y-57946466D01*
X149112037Y-57776627D01*
X149094641Y-57600000D01*
X149112037Y-57423373D01*
X149163557Y-57253534D01*
X149247222Y-57097009D01*
X149276552Y-57061271D01*
X149359814Y-56959814D01*
X149461271Y-56876552D01*
X149497009Y-56847222D01*
X149653534Y-56763557D01*
X149823373Y-56712037D01*
X149889558Y-56705518D01*
X149955740Y-56699000D01*
X150044260Y-56699000D01*
X150110442Y-56705518D01*
X150110442Y-56705518D01*
G37*
G36*
X165350442Y-56705518D02*
G01*
X165416627Y-56712037D01*
X165586466Y-56763557D01*
X165742991Y-56847222D01*
X165778729Y-56876552D01*
X165880186Y-56959814D01*
X165963448Y-57061271D01*
X165992778Y-57097009D01*
X166076443Y-57253534D01*
X166127963Y-57423373D01*
X166145359Y-57600000D01*
X166127963Y-57776627D01*
X166076443Y-57946466D01*
X165992778Y-58102991D01*
X165963448Y-58138729D01*
X165880186Y-58240186D01*
X165778729Y-58323448D01*
X165742991Y-58352778D01*
X165586466Y-58436443D01*
X165416627Y-58487963D01*
X165350443Y-58494481D01*
X165284260Y-58501000D01*
X165195740Y-58501000D01*
X165129557Y-58494481D01*
X165063373Y-58487963D01*
X164893534Y-58436443D01*
X164737009Y-58352778D01*
X164701271Y-58323448D01*
X164599814Y-58240186D01*
X164516552Y-58138729D01*
X164487222Y-58102991D01*
X164403557Y-57946466D01*
X164352037Y-57776627D01*
X164334641Y-57600000D01*
X164352037Y-57423373D01*
X164403557Y-57253534D01*
X164487222Y-57097009D01*
X164516552Y-57061271D01*
X164599814Y-56959814D01*
X164701271Y-56876552D01*
X164737009Y-56847222D01*
X164893534Y-56763557D01*
X165063373Y-56712037D01*
X165129558Y-56705518D01*
X165195740Y-56699000D01*
X165284260Y-56699000D01*
X165350442Y-56705518D01*
X165350442Y-56705518D01*
G37*
G36*
X147570442Y-56705518D02*
G01*
X147636627Y-56712037D01*
X147806466Y-56763557D01*
X147962991Y-56847222D01*
X147998729Y-56876552D01*
X148100186Y-56959814D01*
X148183448Y-57061271D01*
X148212778Y-57097009D01*
X148296443Y-57253534D01*
X148347963Y-57423373D01*
X148365359Y-57600000D01*
X148347963Y-57776627D01*
X148296443Y-57946466D01*
X148212778Y-58102991D01*
X148183448Y-58138729D01*
X148100186Y-58240186D01*
X147998729Y-58323448D01*
X147962991Y-58352778D01*
X147806466Y-58436443D01*
X147636627Y-58487963D01*
X147570443Y-58494481D01*
X147504260Y-58501000D01*
X147415740Y-58501000D01*
X147349557Y-58494481D01*
X147283373Y-58487963D01*
X147113534Y-58436443D01*
X146957009Y-58352778D01*
X146921271Y-58323448D01*
X146819814Y-58240186D01*
X146736552Y-58138729D01*
X146707222Y-58102991D01*
X146623557Y-57946466D01*
X146572037Y-57776627D01*
X146554641Y-57600000D01*
X146572037Y-57423373D01*
X146623557Y-57253534D01*
X146707222Y-57097009D01*
X146736552Y-57061271D01*
X146819814Y-56959814D01*
X146921271Y-56876552D01*
X146957009Y-56847222D01*
X147113534Y-56763557D01*
X147283373Y-56712037D01*
X147349558Y-56705518D01*
X147415740Y-56699000D01*
X147504260Y-56699000D01*
X147570442Y-56705518D01*
X147570442Y-56705518D01*
G37*
G36*
X167890442Y-56705518D02*
G01*
X167956627Y-56712037D01*
X168126466Y-56763557D01*
X168282991Y-56847222D01*
X168318729Y-56876552D01*
X168420186Y-56959814D01*
X168503448Y-57061271D01*
X168532778Y-57097009D01*
X168616443Y-57253534D01*
X168667963Y-57423373D01*
X168685359Y-57600000D01*
X168667963Y-57776627D01*
X168616443Y-57946466D01*
X168532778Y-58102991D01*
X168503448Y-58138729D01*
X168420186Y-58240186D01*
X168318729Y-58323448D01*
X168282991Y-58352778D01*
X168126466Y-58436443D01*
X167956627Y-58487963D01*
X167890443Y-58494481D01*
X167824260Y-58501000D01*
X167735740Y-58501000D01*
X167669557Y-58494481D01*
X167603373Y-58487963D01*
X167433534Y-58436443D01*
X167277009Y-58352778D01*
X167241271Y-58323448D01*
X167139814Y-58240186D01*
X167056552Y-58138729D01*
X167027222Y-58102991D01*
X166943557Y-57946466D01*
X166892037Y-57776627D01*
X166874641Y-57600000D01*
X166892037Y-57423373D01*
X166943557Y-57253534D01*
X167027222Y-57097009D01*
X167056552Y-57061271D01*
X167139814Y-56959814D01*
X167241271Y-56876552D01*
X167277009Y-56847222D01*
X167433534Y-56763557D01*
X167603373Y-56712037D01*
X167669558Y-56705518D01*
X167735740Y-56699000D01*
X167824260Y-56699000D01*
X167890442Y-56705518D01*
X167890442Y-56705518D01*
G37*
G36*
X145030442Y-56705518D02*
G01*
X145096627Y-56712037D01*
X145266466Y-56763557D01*
X145422991Y-56847222D01*
X145458729Y-56876552D01*
X145560186Y-56959814D01*
X145643448Y-57061271D01*
X145672778Y-57097009D01*
X145756443Y-57253534D01*
X145807963Y-57423373D01*
X145825359Y-57600000D01*
X145807963Y-57776627D01*
X145756443Y-57946466D01*
X145672778Y-58102991D01*
X145643448Y-58138729D01*
X145560186Y-58240186D01*
X145458729Y-58323448D01*
X145422991Y-58352778D01*
X145266466Y-58436443D01*
X145096627Y-58487963D01*
X145030443Y-58494481D01*
X144964260Y-58501000D01*
X144875740Y-58501000D01*
X144809557Y-58494481D01*
X144743373Y-58487963D01*
X144573534Y-58436443D01*
X144417009Y-58352778D01*
X144381271Y-58323448D01*
X144279814Y-58240186D01*
X144196552Y-58138729D01*
X144167222Y-58102991D01*
X144083557Y-57946466D01*
X144032037Y-57776627D01*
X144014641Y-57600000D01*
X144032037Y-57423373D01*
X144083557Y-57253534D01*
X144167222Y-57097009D01*
X144196552Y-57061271D01*
X144279814Y-56959814D01*
X144381271Y-56876552D01*
X144417009Y-56847222D01*
X144573534Y-56763557D01*
X144743373Y-56712037D01*
X144809558Y-56705518D01*
X144875740Y-56699000D01*
X144964260Y-56699000D01*
X145030442Y-56705518D01*
X145030442Y-56705518D01*
G37*
G36*
X170430442Y-56705518D02*
G01*
X170496627Y-56712037D01*
X170666466Y-56763557D01*
X170822991Y-56847222D01*
X170858729Y-56876552D01*
X170960186Y-56959814D01*
X171043448Y-57061271D01*
X171072778Y-57097009D01*
X171156443Y-57253534D01*
X171207963Y-57423373D01*
X171225359Y-57600000D01*
X171207963Y-57776627D01*
X171156443Y-57946466D01*
X171072778Y-58102991D01*
X171043448Y-58138729D01*
X170960186Y-58240186D01*
X170858729Y-58323448D01*
X170822991Y-58352778D01*
X170666466Y-58436443D01*
X170496627Y-58487963D01*
X170430443Y-58494481D01*
X170364260Y-58501000D01*
X170275740Y-58501000D01*
X170209557Y-58494481D01*
X170143373Y-58487963D01*
X169973534Y-58436443D01*
X169817009Y-58352778D01*
X169781271Y-58323448D01*
X169679814Y-58240186D01*
X169596552Y-58138729D01*
X169567222Y-58102991D01*
X169483557Y-57946466D01*
X169432037Y-57776627D01*
X169414641Y-57600000D01*
X169432037Y-57423373D01*
X169483557Y-57253534D01*
X169567222Y-57097009D01*
X169596552Y-57061271D01*
X169679814Y-56959814D01*
X169781271Y-56876552D01*
X169817009Y-56847222D01*
X169973534Y-56763557D01*
X170143373Y-56712037D01*
X170209558Y-56705518D01*
X170275740Y-56699000D01*
X170364260Y-56699000D01*
X170430442Y-56705518D01*
X170430442Y-56705518D01*
G37*
G36*
X142490442Y-56705518D02*
G01*
X142556627Y-56712037D01*
X142726466Y-56763557D01*
X142882991Y-56847222D01*
X142918729Y-56876552D01*
X143020186Y-56959814D01*
X143103448Y-57061271D01*
X143132778Y-57097009D01*
X143216443Y-57253534D01*
X143267963Y-57423373D01*
X143285359Y-57600000D01*
X143267963Y-57776627D01*
X143216443Y-57946466D01*
X143132778Y-58102991D01*
X143103448Y-58138729D01*
X143020186Y-58240186D01*
X142918729Y-58323448D01*
X142882991Y-58352778D01*
X142726466Y-58436443D01*
X142556627Y-58487963D01*
X142490443Y-58494481D01*
X142424260Y-58501000D01*
X142335740Y-58501000D01*
X142269557Y-58494481D01*
X142203373Y-58487963D01*
X142033534Y-58436443D01*
X141877009Y-58352778D01*
X141841271Y-58323448D01*
X141739814Y-58240186D01*
X141656552Y-58138729D01*
X141627222Y-58102991D01*
X141543557Y-57946466D01*
X141492037Y-57776627D01*
X141474641Y-57600000D01*
X141492037Y-57423373D01*
X141543557Y-57253534D01*
X141627222Y-57097009D01*
X141656552Y-57061271D01*
X141739814Y-56959814D01*
X141841271Y-56876552D01*
X141877009Y-56847222D01*
X142033534Y-56763557D01*
X142203373Y-56712037D01*
X142269558Y-56705518D01*
X142335740Y-56699000D01*
X142424260Y-56699000D01*
X142490442Y-56705518D01*
X142490442Y-56705518D01*
G37*
G36*
X172970442Y-56705518D02*
G01*
X173036627Y-56712037D01*
X173206466Y-56763557D01*
X173362991Y-56847222D01*
X173398729Y-56876552D01*
X173500186Y-56959814D01*
X173583448Y-57061271D01*
X173612778Y-57097009D01*
X173696443Y-57253534D01*
X173747963Y-57423373D01*
X173765359Y-57600000D01*
X173747963Y-57776627D01*
X173696443Y-57946466D01*
X173612778Y-58102991D01*
X173583448Y-58138729D01*
X173500186Y-58240186D01*
X173398729Y-58323448D01*
X173362991Y-58352778D01*
X173206466Y-58436443D01*
X173036627Y-58487963D01*
X172970443Y-58494481D01*
X172904260Y-58501000D01*
X172815740Y-58501000D01*
X172749557Y-58494481D01*
X172683373Y-58487963D01*
X172513534Y-58436443D01*
X172357009Y-58352778D01*
X172321271Y-58323448D01*
X172219814Y-58240186D01*
X172136552Y-58138729D01*
X172107222Y-58102991D01*
X172023557Y-57946466D01*
X171972037Y-57776627D01*
X171954641Y-57600000D01*
X171972037Y-57423373D01*
X172023557Y-57253534D01*
X172107222Y-57097009D01*
X172136552Y-57061271D01*
X172219814Y-56959814D01*
X172321271Y-56876552D01*
X172357009Y-56847222D01*
X172513534Y-56763557D01*
X172683373Y-56712037D01*
X172749558Y-56705518D01*
X172815740Y-56699000D01*
X172904260Y-56699000D01*
X172970442Y-56705518D01*
X172970442Y-56705518D01*
G37*
G36*
X139950442Y-56705518D02*
G01*
X140016627Y-56712037D01*
X140186466Y-56763557D01*
X140342991Y-56847222D01*
X140378729Y-56876552D01*
X140480186Y-56959814D01*
X140563448Y-57061271D01*
X140592778Y-57097009D01*
X140676443Y-57253534D01*
X140727963Y-57423373D01*
X140745359Y-57600000D01*
X140727963Y-57776627D01*
X140676443Y-57946466D01*
X140592778Y-58102991D01*
X140563448Y-58138729D01*
X140480186Y-58240186D01*
X140378729Y-58323448D01*
X140342991Y-58352778D01*
X140186466Y-58436443D01*
X140016627Y-58487963D01*
X139950443Y-58494481D01*
X139884260Y-58501000D01*
X139795740Y-58501000D01*
X139729557Y-58494481D01*
X139663373Y-58487963D01*
X139493534Y-58436443D01*
X139337009Y-58352778D01*
X139301271Y-58323448D01*
X139199814Y-58240186D01*
X139116552Y-58138729D01*
X139087222Y-58102991D01*
X139003557Y-57946466D01*
X138952037Y-57776627D01*
X138934641Y-57600000D01*
X138952037Y-57423373D01*
X139003557Y-57253534D01*
X139087222Y-57097009D01*
X139116552Y-57061271D01*
X139199814Y-56959814D01*
X139301271Y-56876552D01*
X139337009Y-56847222D01*
X139493534Y-56763557D01*
X139663373Y-56712037D01*
X139729558Y-56705518D01*
X139795740Y-56699000D01*
X139884260Y-56699000D01*
X139950442Y-56705518D01*
X139950442Y-56705518D01*
G37*
G36*
X137410442Y-56705518D02*
G01*
X137476627Y-56712037D01*
X137646466Y-56763557D01*
X137802991Y-56847222D01*
X137838729Y-56876552D01*
X137940186Y-56959814D01*
X138023448Y-57061271D01*
X138052778Y-57097009D01*
X138136443Y-57253534D01*
X138187963Y-57423373D01*
X138205359Y-57600000D01*
X138187963Y-57776627D01*
X138136443Y-57946466D01*
X138052778Y-58102991D01*
X138023448Y-58138729D01*
X137940186Y-58240186D01*
X137838729Y-58323448D01*
X137802991Y-58352778D01*
X137646466Y-58436443D01*
X137476627Y-58487963D01*
X137410443Y-58494481D01*
X137344260Y-58501000D01*
X137255740Y-58501000D01*
X137189557Y-58494481D01*
X137123373Y-58487963D01*
X136953534Y-58436443D01*
X136797009Y-58352778D01*
X136761271Y-58323448D01*
X136659814Y-58240186D01*
X136576552Y-58138729D01*
X136547222Y-58102991D01*
X136463557Y-57946466D01*
X136412037Y-57776627D01*
X136394641Y-57600000D01*
X136412037Y-57423373D01*
X136463557Y-57253534D01*
X136547222Y-57097009D01*
X136576552Y-57061271D01*
X136659814Y-56959814D01*
X136761271Y-56876552D01*
X136797009Y-56847222D01*
X136953534Y-56763557D01*
X137123373Y-56712037D01*
X137189558Y-56705518D01*
X137255740Y-56699000D01*
X137344260Y-56699000D01*
X137410442Y-56705518D01*
X137410442Y-56705518D01*
G37*
G36*
X134870442Y-56705518D02*
G01*
X134936627Y-56712037D01*
X135106466Y-56763557D01*
X135262991Y-56847222D01*
X135298729Y-56876552D01*
X135400186Y-56959814D01*
X135483448Y-57061271D01*
X135512778Y-57097009D01*
X135596443Y-57253534D01*
X135647963Y-57423373D01*
X135665359Y-57600000D01*
X135647963Y-57776627D01*
X135596443Y-57946466D01*
X135512778Y-58102991D01*
X135483448Y-58138729D01*
X135400186Y-58240186D01*
X135298729Y-58323448D01*
X135262991Y-58352778D01*
X135106466Y-58436443D01*
X134936627Y-58487963D01*
X134870443Y-58494481D01*
X134804260Y-58501000D01*
X134715740Y-58501000D01*
X134649557Y-58494481D01*
X134583373Y-58487963D01*
X134413534Y-58436443D01*
X134257009Y-58352778D01*
X134221271Y-58323448D01*
X134119814Y-58240186D01*
X134036552Y-58138729D01*
X134007222Y-58102991D01*
X133923557Y-57946466D01*
X133872037Y-57776627D01*
X133854641Y-57600000D01*
X133872037Y-57423373D01*
X133923557Y-57253534D01*
X134007222Y-57097009D01*
X134036552Y-57061271D01*
X134119814Y-56959814D01*
X134221271Y-56876552D01*
X134257009Y-56847222D01*
X134413534Y-56763557D01*
X134583373Y-56712037D01*
X134649558Y-56705518D01*
X134715740Y-56699000D01*
X134804260Y-56699000D01*
X134870442Y-56705518D01*
X134870442Y-56705518D01*
G37*
G36*
X132330442Y-56705518D02*
G01*
X132396627Y-56712037D01*
X132566466Y-56763557D01*
X132722991Y-56847222D01*
X132758729Y-56876552D01*
X132860186Y-56959814D01*
X132943448Y-57061271D01*
X132972778Y-57097009D01*
X133056443Y-57253534D01*
X133107963Y-57423373D01*
X133125359Y-57600000D01*
X133107963Y-57776627D01*
X133056443Y-57946466D01*
X132972778Y-58102991D01*
X132943448Y-58138729D01*
X132860186Y-58240186D01*
X132758729Y-58323448D01*
X132722991Y-58352778D01*
X132566466Y-58436443D01*
X132396627Y-58487963D01*
X132330443Y-58494481D01*
X132264260Y-58501000D01*
X132175740Y-58501000D01*
X132109557Y-58494481D01*
X132043373Y-58487963D01*
X131873534Y-58436443D01*
X131717009Y-58352778D01*
X131681271Y-58323448D01*
X131579814Y-58240186D01*
X131496552Y-58138729D01*
X131467222Y-58102991D01*
X131383557Y-57946466D01*
X131332037Y-57776627D01*
X131314641Y-57600000D01*
X131332037Y-57423373D01*
X131383557Y-57253534D01*
X131467222Y-57097009D01*
X131496552Y-57061271D01*
X131579814Y-56959814D01*
X131681271Y-56876552D01*
X131717009Y-56847222D01*
X131873534Y-56763557D01*
X132043373Y-56712037D01*
X132109558Y-56705518D01*
X132175740Y-56699000D01*
X132264260Y-56699000D01*
X132330442Y-56705518D01*
X132330442Y-56705518D01*
G37*
G36*
X129790442Y-56705518D02*
G01*
X129856627Y-56712037D01*
X130026466Y-56763557D01*
X130182991Y-56847222D01*
X130218729Y-56876552D01*
X130320186Y-56959814D01*
X130403448Y-57061271D01*
X130432778Y-57097009D01*
X130516443Y-57253534D01*
X130567963Y-57423373D01*
X130585359Y-57600000D01*
X130567963Y-57776627D01*
X130516443Y-57946466D01*
X130432778Y-58102991D01*
X130403448Y-58138729D01*
X130320186Y-58240186D01*
X130218729Y-58323448D01*
X130182991Y-58352778D01*
X130026466Y-58436443D01*
X129856627Y-58487963D01*
X129790443Y-58494481D01*
X129724260Y-58501000D01*
X129635740Y-58501000D01*
X129569557Y-58494481D01*
X129503373Y-58487963D01*
X129333534Y-58436443D01*
X129177009Y-58352778D01*
X129141271Y-58323448D01*
X129039814Y-58240186D01*
X128956552Y-58138729D01*
X128927222Y-58102991D01*
X128843557Y-57946466D01*
X128792037Y-57776627D01*
X128774641Y-57600000D01*
X128792037Y-57423373D01*
X128843557Y-57253534D01*
X128927222Y-57097009D01*
X128956552Y-57061271D01*
X129039814Y-56959814D01*
X129141271Y-56876552D01*
X129177009Y-56847222D01*
X129333534Y-56763557D01*
X129503373Y-56712037D01*
X129569558Y-56705518D01*
X129635740Y-56699000D01*
X129724260Y-56699000D01*
X129790442Y-56705518D01*
X129790442Y-56705518D01*
G37*
G36*
X127250442Y-56705518D02*
G01*
X127316627Y-56712037D01*
X127486466Y-56763557D01*
X127642991Y-56847222D01*
X127678729Y-56876552D01*
X127780186Y-56959814D01*
X127863448Y-57061271D01*
X127892778Y-57097009D01*
X127976443Y-57253534D01*
X128027963Y-57423373D01*
X128045359Y-57600000D01*
X128027963Y-57776627D01*
X127976443Y-57946466D01*
X127892778Y-58102991D01*
X127863448Y-58138729D01*
X127780186Y-58240186D01*
X127678729Y-58323448D01*
X127642991Y-58352778D01*
X127486466Y-58436443D01*
X127316627Y-58487963D01*
X127250443Y-58494481D01*
X127184260Y-58501000D01*
X127095740Y-58501000D01*
X127029557Y-58494481D01*
X126963373Y-58487963D01*
X126793534Y-58436443D01*
X126637009Y-58352778D01*
X126601271Y-58323448D01*
X126499814Y-58240186D01*
X126416552Y-58138729D01*
X126387222Y-58102991D01*
X126303557Y-57946466D01*
X126252037Y-57776627D01*
X126234641Y-57600000D01*
X126252037Y-57423373D01*
X126303557Y-57253534D01*
X126387222Y-57097009D01*
X126416552Y-57061271D01*
X126499814Y-56959814D01*
X126601271Y-56876552D01*
X126637009Y-56847222D01*
X126793534Y-56763557D01*
X126963373Y-56712037D01*
X127029558Y-56705518D01*
X127095740Y-56699000D01*
X127184260Y-56699000D01*
X127250442Y-56705518D01*
X127250442Y-56705518D01*
G37*
G36*
X124710442Y-56705518D02*
G01*
X124776627Y-56712037D01*
X124946466Y-56763557D01*
X125102991Y-56847222D01*
X125138729Y-56876552D01*
X125240186Y-56959814D01*
X125323448Y-57061271D01*
X125352778Y-57097009D01*
X125436443Y-57253534D01*
X125487963Y-57423373D01*
X125505359Y-57600000D01*
X125487963Y-57776627D01*
X125436443Y-57946466D01*
X125352778Y-58102991D01*
X125323448Y-58138729D01*
X125240186Y-58240186D01*
X125138729Y-58323448D01*
X125102991Y-58352778D01*
X124946466Y-58436443D01*
X124776627Y-58487963D01*
X124710443Y-58494481D01*
X124644260Y-58501000D01*
X124555740Y-58501000D01*
X124489557Y-58494481D01*
X124423373Y-58487963D01*
X124253534Y-58436443D01*
X124097009Y-58352778D01*
X124061271Y-58323448D01*
X123959814Y-58240186D01*
X123876552Y-58138729D01*
X123847222Y-58102991D01*
X123763557Y-57946466D01*
X123712037Y-57776627D01*
X123694641Y-57600000D01*
X123712037Y-57423373D01*
X123763557Y-57253534D01*
X123847222Y-57097009D01*
X123876552Y-57061271D01*
X123959814Y-56959814D01*
X124061271Y-56876552D01*
X124097009Y-56847222D01*
X124253534Y-56763557D01*
X124423373Y-56712037D01*
X124489558Y-56705518D01*
X124555740Y-56699000D01*
X124644260Y-56699000D01*
X124710442Y-56705518D01*
X124710442Y-56705518D01*
G37*
M02*
