M48
; DRILL file {KiCad (5.1.2-1)-1} date Saturday, 17 August 2019 at 10:30:51 am
; FORMAT={-:-/ absolute / inch / decimal}
; #@! TF.CreationDate,2019-08-17T10:30:51+10:00
; #@! TF.GenerationSoftware,Kicad,Pcbnew,(5.1.2-1)-1
; #@! TF.FileFunction,Plated,1,2,PTH
FMAT,2
INCH
T1C0.0236
T2C0.0335
T3C0.0354
T4C0.0394
%
G90
G05
T2
X7.0787Y-5.0157
X7.2756Y-5.0157
T3
X4.752Y-2.8898
X4.9459Y-2.6959
X5.248Y-4.7559
X5.6929Y-3.9459
X5.7431Y-4.0837
X5.75Y-2.6496
X5.7508Y-2.454
X5.8041Y-2.5335
X5.8051Y-2.4449
X5.9518Y-2.4459
X6.0187Y-2.4921
X6.4705Y-3.4911
X6.5433Y-3.4951
X6.5945Y-3.1673
X6.6063Y-2.5315
X6.6299Y-3.8583
X6.6416Y-3.7951
X6.6417Y-3.6614
X6.6929Y-3.7047
T4
X5.3937Y-4.9016
X5.4921Y-4.9016
X5.8293Y-2.8474
X5.9293Y-2.8474
X6.0293Y-2.8474
X6.1293Y-2.8474
X6.2293Y-2.8474
X4.9055Y-2.2677
X4.9055Y-2.3677
X5.0055Y-2.2677
X5.0055Y-2.3677
X5.1055Y-2.2677
X5.1055Y-2.3677
X5.2055Y-2.2677
X5.2055Y-2.3677
X5.3055Y-2.2677
X5.3055Y-2.3677
X5.4055Y-2.2677
X5.4055Y-2.3677
X5.5055Y-2.2677
X5.5055Y-2.3677
X5.6055Y-2.2677
X5.6055Y-2.3677
X5.7055Y-2.2677
X5.7055Y-2.3677
X5.8055Y-2.2677
X5.8055Y-2.3677
X5.9055Y-2.2677
X5.9055Y-2.3677
X6.0055Y-2.2677
X6.0055Y-2.3677
X6.1055Y-2.2677
X6.1055Y-2.3677
X6.2055Y-2.2677
X6.2055Y-2.3677
X6.3055Y-2.2677
X6.3055Y-2.3677
X6.4055Y-2.2677
X6.4055Y-2.3677
X6.5055Y-2.2677
X6.5055Y-2.3677
X6.6055Y-2.2677
X6.6055Y-2.3677
X6.7055Y-2.2677
X6.7055Y-2.3677
X6.8055Y-2.2677
X6.8055Y-2.3677
X4.4567Y-4.9016
X4.5551Y-4.9016
X4.6535Y-4.9016
X4.752Y-4.9016
X4.8504Y-4.9016
X4.9488Y-4.9016
X5.0472Y-4.9016
X5.1457Y-4.9016
X6.185Y-4.9016
X6.2835Y-4.9016
X6.3819Y-4.9016
X6.4803Y-4.9016
X6.5787Y-4.9016
X6.6772Y-4.9016
X6.7756Y-4.9016
X6.874Y-4.9016
X5.7402Y-4.9016
X5.8386Y-4.9016
X5.937Y-4.9016
T1
G00X7.0394Y-5.1358
M15
G01X7.0394Y-5.1083
M16
G05
G00X7.315Y-5.1083
M15
G01X7.315Y-5.1358
M16
G05
T0
M30
