%TF.GenerationSoftware,KiCad,Pcbnew,(5.1.2-1)-1*%
%TF.CreationDate,2019-08-17T10:29:18+10:00*%
%TF.ProjectId,GreengrassEntryHardware,47726565-6e67-4726-9173-73456e747279,v1.0*%
%TF.SameCoordinates,Original*%
%TF.FileFunction,Legend,Bot*%
%TF.FilePolarity,Positive*%
%FSLAX46Y46*%
G04 Gerber Fmt 4.6, Leading zero omitted, Abs format (unit mm)*
G04 Created by KiCad (PCBNEW (5.1.2-1)-1) date 2019-08-17 10:29:18*
%MOMM*%
%LPD*%
G04 APERTURE LIST*
%ADD10C,0.150000*%
%ADD11C,0.120000*%
G04 APERTURE END LIST*
D10*
X144347619Y-141250952D02*
X144252380Y-141203333D01*
X144204761Y-141155714D01*
X144157142Y-141060476D01*
X144157142Y-141012857D01*
X144204761Y-140917619D01*
X144252380Y-140870000D01*
X144347619Y-140822380D01*
X144538095Y-140822380D01*
X144633333Y-140870000D01*
X144680952Y-140917619D01*
X144728571Y-141012857D01*
X144728571Y-141060476D01*
X144680952Y-141155714D01*
X144633333Y-141203333D01*
X144538095Y-141250952D01*
X144347619Y-141250952D01*
X144252380Y-141298571D01*
X144204761Y-141346190D01*
X144157142Y-141441428D01*
X144157142Y-141631904D01*
X144204761Y-141727142D01*
X144252380Y-141774761D01*
X144347619Y-141822380D01*
X144538095Y-141822380D01*
X144633333Y-141774761D01*
X144680952Y-141727142D01*
X144728571Y-141631904D01*
X144728571Y-141441428D01*
X144680952Y-141346190D01*
X144633333Y-141298571D01*
X144538095Y-141250952D01*
X145347619Y-140822380D02*
X145442857Y-140822380D01*
X145538095Y-140870000D01*
X145585714Y-140917619D01*
X145633333Y-141012857D01*
X145680952Y-141203333D01*
X145680952Y-141441428D01*
X145633333Y-141631904D01*
X145585714Y-141727142D01*
X145538095Y-141774761D01*
X145442857Y-141822380D01*
X145347619Y-141822380D01*
X145252380Y-141774761D01*
X145204761Y-141727142D01*
X145157142Y-141631904D01*
X145109523Y-141441428D01*
X145109523Y-141203333D01*
X145157142Y-141012857D01*
X145204761Y-140917619D01*
X145252380Y-140870000D01*
X145347619Y-140822380D01*
X146109523Y-141727142D02*
X146157142Y-141774761D01*
X146109523Y-141822380D01*
X146061904Y-141774761D01*
X146109523Y-141727142D01*
X146109523Y-141822380D01*
X146776190Y-140822380D02*
X146871428Y-140822380D01*
X146966666Y-140870000D01*
X147014285Y-140917619D01*
X147061904Y-141012857D01*
X147109523Y-141203333D01*
X147109523Y-141441428D01*
X147061904Y-141631904D01*
X147014285Y-141727142D01*
X146966666Y-141774761D01*
X146871428Y-141822380D01*
X146776190Y-141822380D01*
X146680952Y-141774761D01*
X146633333Y-141727142D01*
X146585714Y-141631904D01*
X146538095Y-141441428D01*
X146538095Y-141203333D01*
X146585714Y-141012857D01*
X146633333Y-140917619D01*
X146680952Y-140870000D01*
X146776190Y-140822380D01*
X147728571Y-140822380D02*
X147823809Y-140822380D01*
X147919047Y-140870000D01*
X147966666Y-140917619D01*
X148014285Y-141012857D01*
X148061904Y-141203333D01*
X148061904Y-141441428D01*
X148014285Y-141631904D01*
X147966666Y-141727142D01*
X147919047Y-141774761D01*
X147823809Y-141822380D01*
X147728571Y-141822380D01*
X147633333Y-141774761D01*
X147585714Y-141727142D01*
X147538095Y-141631904D01*
X147490476Y-141441428D01*
X147490476Y-141203333D01*
X147538095Y-141012857D01*
X147585714Y-140917619D01*
X147633333Y-140870000D01*
X147728571Y-140822380D01*
X148680952Y-140822380D02*
X148776190Y-140822380D01*
X148871428Y-140870000D01*
X148919047Y-140917619D01*
X148966666Y-141012857D01*
X149014285Y-141203333D01*
X149014285Y-141441428D01*
X148966666Y-141631904D01*
X148919047Y-141727142D01*
X148871428Y-141774761D01*
X148776190Y-141822380D01*
X148680952Y-141822380D01*
X148585714Y-141774761D01*
X148538095Y-141727142D01*
X148490476Y-141631904D01*
X148442857Y-141441428D01*
X148442857Y-141203333D01*
X148490476Y-141012857D01*
X148538095Y-140917619D01*
X148585714Y-140870000D01*
X148680952Y-140822380D01*
X150204761Y-141822380D02*
X150204761Y-141155714D01*
X150204761Y-141250952D02*
X150252380Y-141203333D01*
X150347619Y-141155714D01*
X150490476Y-141155714D01*
X150585714Y-141203333D01*
X150633333Y-141298571D01*
X150633333Y-141822380D01*
X150633333Y-141298571D02*
X150680952Y-141203333D01*
X150776190Y-141155714D01*
X150919047Y-141155714D01*
X151014285Y-141203333D01*
X151061904Y-141298571D01*
X151061904Y-141822380D01*
X151538095Y-141822380D02*
X151538095Y-141155714D01*
X151538095Y-141250952D02*
X151585714Y-141203333D01*
X151680952Y-141155714D01*
X151823809Y-141155714D01*
X151919047Y-141203333D01*
X151966666Y-141298571D01*
X151966666Y-141822380D01*
X151966666Y-141298571D02*
X152014285Y-141203333D01*
X152109523Y-141155714D01*
X152252380Y-141155714D01*
X152347619Y-141203333D01*
X152395238Y-141298571D01*
X152395238Y-141822380D01*
D11*
X188300000Y-140100000D02*
X108300000Y-140100000D01*
X188300000Y-125700000D02*
X188300000Y-140686421D01*
X108300000Y-125700000D02*
X108300000Y-140686421D01*
X108300000Y-140100000D02*
X109426504Y-139513579D01*
X108300000Y-140100000D02*
X109426504Y-140686421D01*
X188300000Y-140100000D02*
X187173496Y-139513579D01*
X188300000Y-140100000D02*
X187173496Y-140686421D01*
D10*
X202617619Y-88909523D02*
X202617619Y-89576190D01*
X201617619Y-89147619D01*
X202617619Y-89861904D02*
X202617619Y-90528571D01*
X201617619Y-90100000D01*
X201712857Y-90909523D02*
X201665238Y-90957142D01*
X201617619Y-90909523D01*
X201665238Y-90861904D01*
X201712857Y-90909523D01*
X201617619Y-90909523D01*
X202617619Y-91576190D02*
X202617619Y-91671428D01*
X202570000Y-91766666D01*
X202522380Y-91814285D01*
X202427142Y-91861904D01*
X202236666Y-91909523D01*
X201998571Y-91909523D01*
X201808095Y-91861904D01*
X201712857Y-91814285D01*
X201665238Y-91766666D01*
X201617619Y-91671428D01*
X201617619Y-91576190D01*
X201665238Y-91480952D01*
X201712857Y-91433333D01*
X201808095Y-91385714D01*
X201998571Y-91338095D01*
X202236666Y-91338095D01*
X202427142Y-91385714D01*
X202522380Y-91433333D01*
X202570000Y-91480952D01*
X202617619Y-91576190D01*
X202617619Y-92528571D02*
X202617619Y-92623809D01*
X202570000Y-92719047D01*
X202522380Y-92766666D01*
X202427142Y-92814285D01*
X202236666Y-92861904D01*
X201998571Y-92861904D01*
X201808095Y-92814285D01*
X201712857Y-92766666D01*
X201665238Y-92719047D01*
X201617619Y-92623809D01*
X201617619Y-92528571D01*
X201665238Y-92433333D01*
X201712857Y-92385714D01*
X201808095Y-92338095D01*
X201998571Y-92290476D01*
X202236666Y-92290476D01*
X202427142Y-92338095D01*
X202522380Y-92385714D01*
X202570000Y-92433333D01*
X202617619Y-92528571D01*
X202617619Y-93480952D02*
X202617619Y-93576190D01*
X202570000Y-93671428D01*
X202522380Y-93719047D01*
X202427142Y-93766666D01*
X202236666Y-93814285D01*
X201998571Y-93814285D01*
X201808095Y-93766666D01*
X201712857Y-93719047D01*
X201665238Y-93671428D01*
X201617619Y-93576190D01*
X201617619Y-93480952D01*
X201665238Y-93385714D01*
X201712857Y-93338095D01*
X201808095Y-93290476D01*
X201998571Y-93242857D01*
X202236666Y-93242857D01*
X202427142Y-93290476D01*
X202522380Y-93338095D01*
X202570000Y-93385714D01*
X202617619Y-93480952D01*
X201617619Y-95004761D02*
X202284285Y-95004761D01*
X202189047Y-95004761D02*
X202236666Y-95052380D01*
X202284285Y-95147619D01*
X202284285Y-95290476D01*
X202236666Y-95385714D01*
X202141428Y-95433333D01*
X201617619Y-95433333D01*
X202141428Y-95433333D02*
X202236666Y-95480952D01*
X202284285Y-95576190D01*
X202284285Y-95719047D01*
X202236666Y-95814285D01*
X202141428Y-95861904D01*
X201617619Y-95861904D01*
X201617619Y-96338095D02*
X202284285Y-96338095D01*
X202189047Y-96338095D02*
X202236666Y-96385714D01*
X202284285Y-96480952D01*
X202284285Y-96623809D01*
X202236666Y-96719047D01*
X202141428Y-96766666D01*
X201617619Y-96766666D01*
X202141428Y-96766666D02*
X202236666Y-96814285D01*
X202284285Y-96909523D01*
X202284285Y-97052380D01*
X202236666Y-97147619D01*
X202141428Y-97195238D01*
X201617619Y-97195238D01*
D11*
X200800000Y-54600000D02*
X200800000Y-131600000D01*
X176600000Y-54600000D02*
X201386421Y-54600000D01*
X176600000Y-131600000D02*
X201386421Y-131600000D01*
X200800000Y-131600000D02*
X200213579Y-130473496D01*
X200800000Y-131600000D02*
X201386421Y-130473496D01*
X200800000Y-54600000D02*
X200213579Y-55726504D01*
X200800000Y-54600000D02*
X201386421Y-55726504D01*
X166415000Y-118561252D02*
X166415000Y-118038748D01*
X167835000Y-118561252D02*
X167835000Y-118038748D01*
X131390000Y-91311252D02*
X131390000Y-90788748D01*
X132810000Y-91311252D02*
X132810000Y-90788748D01*
X127490000Y-97761252D02*
X127490000Y-97238748D01*
X128910000Y-97761252D02*
X128910000Y-97238748D01*
X128740000Y-93361252D02*
X128740000Y-92838748D01*
X130160000Y-93361252D02*
X130160000Y-92838748D01*
X151410000Y-116236252D02*
X151410000Y-115713748D01*
X149990000Y-116236252D02*
X149990000Y-115713748D01*
X148910000Y-116336252D02*
X148910000Y-115813748D01*
X147490000Y-116336252D02*
X147490000Y-115813748D01*
X157835000Y-118511252D02*
X157835000Y-117988748D01*
X156415000Y-118511252D02*
X156415000Y-117988748D01*
X162835000Y-118536252D02*
X162835000Y-118013748D01*
X161415000Y-118536252D02*
X161415000Y-118013748D01*
X170285000Y-118536252D02*
X170285000Y-118013748D01*
X168865000Y-118536252D02*
X168865000Y-118013748D01*
X163890000Y-118536252D02*
X163890000Y-118013748D01*
X165310000Y-118536252D02*
X165310000Y-118013748D01*
X158890000Y-118536252D02*
X158890000Y-118013748D01*
X160310000Y-118536252D02*
X160310000Y-118013748D01*
X119990000Y-97761252D02*
X119990000Y-97238748D01*
X121410000Y-97761252D02*
X121410000Y-97238748D01*
X124990000Y-97761252D02*
X124990000Y-97238748D01*
X126410000Y-97761252D02*
X126410000Y-97238748D01*
X158310000Y-64163748D02*
X158310000Y-64686252D01*
X156890000Y-64163748D02*
X156890000Y-64686252D01*
X161890000Y-64163748D02*
X161890000Y-64686252D01*
X163310000Y-64163748D02*
X163310000Y-64686252D01*
X154340000Y-64163748D02*
X154340000Y-64686252D01*
X155760000Y-64163748D02*
X155760000Y-64686252D01*
X160810000Y-64163748D02*
X160810000Y-64686252D01*
X159390000Y-64163748D02*
X159390000Y-64686252D01*
X121240000Y-93386252D02*
X121240000Y-92863748D01*
X122660000Y-93386252D02*
X122660000Y-92863748D01*
X125160000Y-93386252D02*
X125160000Y-92863748D01*
X123740000Y-93386252D02*
X123740000Y-92863748D01*
X126240000Y-93411252D02*
X126240000Y-92888748D01*
X127660000Y-93411252D02*
X127660000Y-92888748D01*
X123910000Y-97761252D02*
X123910000Y-97238748D01*
X122490000Y-97761252D02*
X122490000Y-97238748D01*
X110987500Y-119065000D02*
X115047500Y-119065000D01*
X115047500Y-119065000D02*
X115047500Y-121335000D01*
X115047500Y-121335000D02*
X110987500Y-121335000D01*
D10*
X167652380Y-114357142D02*
X167176190Y-114023809D01*
X167652380Y-113785714D02*
X166652380Y-113785714D01*
X166652380Y-114166666D01*
X166700000Y-114261904D01*
X166747619Y-114309523D01*
X166842857Y-114357142D01*
X166985714Y-114357142D01*
X167080952Y-114309523D01*
X167128571Y-114261904D01*
X167176190Y-114166666D01*
X167176190Y-113785714D01*
X166747619Y-114738095D02*
X166700000Y-114785714D01*
X166652380Y-114880952D01*
X166652380Y-115119047D01*
X166700000Y-115214285D01*
X166747619Y-115261904D01*
X166842857Y-115309523D01*
X166938095Y-115309523D01*
X167080952Y-115261904D01*
X167652380Y-114690476D01*
X167652380Y-115309523D01*
X166652380Y-115642857D02*
X166652380Y-116261904D01*
X167033333Y-115928571D01*
X167033333Y-116071428D01*
X167080952Y-116166666D01*
X167128571Y-116214285D01*
X167223809Y-116261904D01*
X167461904Y-116261904D01*
X167557142Y-116214285D01*
X167604761Y-116166666D01*
X167652380Y-116071428D01*
X167652380Y-115785714D01*
X167604761Y-115690476D01*
X167557142Y-115642857D01*
X132552380Y-86957142D02*
X132076190Y-86623809D01*
X132552380Y-86385714D02*
X131552380Y-86385714D01*
X131552380Y-86766666D01*
X131600000Y-86861904D01*
X131647619Y-86909523D01*
X131742857Y-86957142D01*
X131885714Y-86957142D01*
X131980952Y-86909523D01*
X132028571Y-86861904D01*
X132076190Y-86766666D01*
X132076190Y-86385714D01*
X131647619Y-87338095D02*
X131600000Y-87385714D01*
X131552380Y-87480952D01*
X131552380Y-87719047D01*
X131600000Y-87814285D01*
X131647619Y-87861904D01*
X131742857Y-87909523D01*
X131838095Y-87909523D01*
X131980952Y-87861904D01*
X132552380Y-87290476D01*
X132552380Y-87909523D01*
X131647619Y-88290476D02*
X131600000Y-88338095D01*
X131552380Y-88433333D01*
X131552380Y-88671428D01*
X131600000Y-88766666D01*
X131647619Y-88814285D01*
X131742857Y-88861904D01*
X131838095Y-88861904D01*
X131980952Y-88814285D01*
X132552380Y-88242857D01*
X132552380Y-88861904D01*
X128652380Y-100357142D02*
X128176190Y-100023809D01*
X128652380Y-99785714D02*
X127652380Y-99785714D01*
X127652380Y-100166666D01*
X127700000Y-100261904D01*
X127747619Y-100309523D01*
X127842857Y-100357142D01*
X127985714Y-100357142D01*
X128080952Y-100309523D01*
X128128571Y-100261904D01*
X128176190Y-100166666D01*
X128176190Y-99785714D01*
X127747619Y-100738095D02*
X127700000Y-100785714D01*
X127652380Y-100880952D01*
X127652380Y-101119047D01*
X127700000Y-101214285D01*
X127747619Y-101261904D01*
X127842857Y-101309523D01*
X127938095Y-101309523D01*
X128080952Y-101261904D01*
X128652380Y-100690476D01*
X128652380Y-101309523D01*
X128652380Y-102261904D02*
X128652380Y-101690476D01*
X128652380Y-101976190D02*
X127652380Y-101976190D01*
X127795238Y-101880952D01*
X127890476Y-101785714D01*
X127938095Y-101690476D01*
X129952380Y-89157142D02*
X129476190Y-88823809D01*
X129952380Y-88585714D02*
X128952380Y-88585714D01*
X128952380Y-88966666D01*
X129000000Y-89061904D01*
X129047619Y-89109523D01*
X129142857Y-89157142D01*
X129285714Y-89157142D01*
X129380952Y-89109523D01*
X129428571Y-89061904D01*
X129476190Y-88966666D01*
X129476190Y-88585714D01*
X129047619Y-89538095D02*
X129000000Y-89585714D01*
X128952380Y-89680952D01*
X128952380Y-89919047D01*
X129000000Y-90014285D01*
X129047619Y-90061904D01*
X129142857Y-90109523D01*
X129238095Y-90109523D01*
X129380952Y-90061904D01*
X129952380Y-89490476D01*
X129952380Y-90109523D01*
X128952380Y-90728571D02*
X128952380Y-90823809D01*
X129000000Y-90919047D01*
X129047619Y-90966666D01*
X129142857Y-91014285D01*
X129333333Y-91061904D01*
X129571428Y-91061904D01*
X129761904Y-91014285D01*
X129857142Y-90966666D01*
X129904761Y-90919047D01*
X129952380Y-90823809D01*
X129952380Y-90728571D01*
X129904761Y-90633333D01*
X129857142Y-90585714D01*
X129761904Y-90538095D01*
X129571428Y-90490476D01*
X129333333Y-90490476D01*
X129142857Y-90538095D01*
X129047619Y-90585714D01*
X129000000Y-90633333D01*
X128952380Y-90728571D01*
X151052380Y-112007142D02*
X150576190Y-111673809D01*
X151052380Y-111435714D02*
X150052380Y-111435714D01*
X150052380Y-111816666D01*
X150100000Y-111911904D01*
X150147619Y-111959523D01*
X150242857Y-112007142D01*
X150385714Y-112007142D01*
X150480952Y-111959523D01*
X150528571Y-111911904D01*
X150576190Y-111816666D01*
X150576190Y-111435714D01*
X151052380Y-112959523D02*
X151052380Y-112388095D01*
X151052380Y-112673809D02*
X150052380Y-112673809D01*
X150195238Y-112578571D01*
X150290476Y-112483333D01*
X150338095Y-112388095D01*
X150480952Y-113530952D02*
X150433333Y-113435714D01*
X150385714Y-113388095D01*
X150290476Y-113340476D01*
X150242857Y-113340476D01*
X150147619Y-113388095D01*
X150100000Y-113435714D01*
X150052380Y-113530952D01*
X150052380Y-113721428D01*
X150100000Y-113816666D01*
X150147619Y-113864285D01*
X150242857Y-113911904D01*
X150290476Y-113911904D01*
X150385714Y-113864285D01*
X150433333Y-113816666D01*
X150480952Y-113721428D01*
X150480952Y-113530952D01*
X150528571Y-113435714D01*
X150576190Y-113388095D01*
X150671428Y-113340476D01*
X150861904Y-113340476D01*
X150957142Y-113388095D01*
X151004761Y-113435714D01*
X151052380Y-113530952D01*
X151052380Y-113721428D01*
X151004761Y-113816666D01*
X150957142Y-113864285D01*
X150861904Y-113911904D01*
X150671428Y-113911904D01*
X150576190Y-113864285D01*
X150528571Y-113816666D01*
X150480952Y-113721428D01*
X148602380Y-112207142D02*
X148126190Y-111873809D01*
X148602380Y-111635714D02*
X147602380Y-111635714D01*
X147602380Y-112016666D01*
X147650000Y-112111904D01*
X147697619Y-112159523D01*
X147792857Y-112207142D01*
X147935714Y-112207142D01*
X148030952Y-112159523D01*
X148078571Y-112111904D01*
X148126190Y-112016666D01*
X148126190Y-111635714D01*
X148602380Y-113159523D02*
X148602380Y-112588095D01*
X148602380Y-112873809D02*
X147602380Y-112873809D01*
X147745238Y-112778571D01*
X147840476Y-112683333D01*
X147888095Y-112588095D01*
X147602380Y-113492857D02*
X147602380Y-114111904D01*
X147983333Y-113778571D01*
X147983333Y-113921428D01*
X148030952Y-114016666D01*
X148078571Y-114064285D01*
X148173809Y-114111904D01*
X148411904Y-114111904D01*
X148507142Y-114064285D01*
X148554761Y-114016666D01*
X148602380Y-113921428D01*
X148602380Y-113635714D01*
X148554761Y-113540476D01*
X148507142Y-113492857D01*
X157427380Y-114232142D02*
X156951190Y-113898809D01*
X157427380Y-113660714D02*
X156427380Y-113660714D01*
X156427380Y-114041666D01*
X156475000Y-114136904D01*
X156522619Y-114184523D01*
X156617857Y-114232142D01*
X156760714Y-114232142D01*
X156855952Y-114184523D01*
X156903571Y-114136904D01*
X156951190Y-114041666D01*
X156951190Y-113660714D01*
X157427380Y-115184523D02*
X157427380Y-114613095D01*
X157427380Y-114898809D02*
X156427380Y-114898809D01*
X156570238Y-114803571D01*
X156665476Y-114708333D01*
X156713095Y-114613095D01*
X156427380Y-115803571D02*
X156427380Y-115898809D01*
X156475000Y-115994047D01*
X156522619Y-116041666D01*
X156617857Y-116089285D01*
X156808333Y-116136904D01*
X157046428Y-116136904D01*
X157236904Y-116089285D01*
X157332142Y-116041666D01*
X157379761Y-115994047D01*
X157427380Y-115898809D01*
X157427380Y-115803571D01*
X157379761Y-115708333D01*
X157332142Y-115660714D01*
X157236904Y-115613095D01*
X157046428Y-115565476D01*
X156808333Y-115565476D01*
X156617857Y-115613095D01*
X156522619Y-115660714D01*
X156475000Y-115708333D01*
X156427380Y-115803571D01*
X162627380Y-114257142D02*
X162151190Y-113923809D01*
X162627380Y-113685714D02*
X161627380Y-113685714D01*
X161627380Y-114066666D01*
X161675000Y-114161904D01*
X161722619Y-114209523D01*
X161817857Y-114257142D01*
X161960714Y-114257142D01*
X162055952Y-114209523D01*
X162103571Y-114161904D01*
X162151190Y-114066666D01*
X162151190Y-113685714D01*
X162627380Y-115209523D02*
X162627380Y-114638095D01*
X162627380Y-114923809D02*
X161627380Y-114923809D01*
X161770238Y-114828571D01*
X161865476Y-114733333D01*
X161913095Y-114638095D01*
X162627380Y-116161904D02*
X162627380Y-115590476D01*
X162627380Y-115876190D02*
X161627380Y-115876190D01*
X161770238Y-115780952D01*
X161865476Y-115685714D01*
X161913095Y-115590476D01*
X169977380Y-114357142D02*
X169501190Y-114023809D01*
X169977380Y-113785714D02*
X168977380Y-113785714D01*
X168977380Y-114166666D01*
X169025000Y-114261904D01*
X169072619Y-114309523D01*
X169167857Y-114357142D01*
X169310714Y-114357142D01*
X169405952Y-114309523D01*
X169453571Y-114261904D01*
X169501190Y-114166666D01*
X169501190Y-113785714D01*
X169977380Y-115309523D02*
X169977380Y-114738095D01*
X169977380Y-115023809D02*
X168977380Y-115023809D01*
X169120238Y-114928571D01*
X169215476Y-114833333D01*
X169263095Y-114738095D01*
X169072619Y-115690476D02*
X169025000Y-115738095D01*
X168977380Y-115833333D01*
X168977380Y-116071428D01*
X169025000Y-116166666D01*
X169072619Y-116214285D01*
X169167857Y-116261904D01*
X169263095Y-116261904D01*
X169405952Y-116214285D01*
X169977380Y-115642857D01*
X169977380Y-116261904D01*
X165002380Y-114357142D02*
X164526190Y-114023809D01*
X165002380Y-113785714D02*
X164002380Y-113785714D01*
X164002380Y-114166666D01*
X164050000Y-114261904D01*
X164097619Y-114309523D01*
X164192857Y-114357142D01*
X164335714Y-114357142D01*
X164430952Y-114309523D01*
X164478571Y-114261904D01*
X164526190Y-114166666D01*
X164526190Y-113785714D01*
X165002380Y-115309523D02*
X165002380Y-114738095D01*
X165002380Y-115023809D02*
X164002380Y-115023809D01*
X164145238Y-114928571D01*
X164240476Y-114833333D01*
X164288095Y-114738095D01*
X164002380Y-116166666D02*
X164002380Y-115976190D01*
X164050000Y-115880952D01*
X164097619Y-115833333D01*
X164240476Y-115738095D01*
X164430952Y-115690476D01*
X164811904Y-115690476D01*
X164907142Y-115738095D01*
X164954761Y-115785714D01*
X165002380Y-115880952D01*
X165002380Y-116071428D01*
X164954761Y-116166666D01*
X164907142Y-116214285D01*
X164811904Y-116261904D01*
X164573809Y-116261904D01*
X164478571Y-116214285D01*
X164430952Y-116166666D01*
X164383333Y-116071428D01*
X164383333Y-115880952D01*
X164430952Y-115785714D01*
X164478571Y-115738095D01*
X164573809Y-115690476D01*
X160202380Y-114182142D02*
X159726190Y-113848809D01*
X160202380Y-113610714D02*
X159202380Y-113610714D01*
X159202380Y-113991666D01*
X159250000Y-114086904D01*
X159297619Y-114134523D01*
X159392857Y-114182142D01*
X159535714Y-114182142D01*
X159630952Y-114134523D01*
X159678571Y-114086904D01*
X159726190Y-113991666D01*
X159726190Y-113610714D01*
X160202380Y-115134523D02*
X160202380Y-114563095D01*
X160202380Y-114848809D02*
X159202380Y-114848809D01*
X159345238Y-114753571D01*
X159440476Y-114658333D01*
X159488095Y-114563095D01*
X159202380Y-115467857D02*
X159202380Y-116134523D01*
X160202380Y-115705952D01*
X121152380Y-100257142D02*
X120676190Y-99923809D01*
X121152380Y-99685714D02*
X120152380Y-99685714D01*
X120152380Y-100066666D01*
X120200000Y-100161904D01*
X120247619Y-100209523D01*
X120342857Y-100257142D01*
X120485714Y-100257142D01*
X120580952Y-100209523D01*
X120628571Y-100161904D01*
X120676190Y-100066666D01*
X120676190Y-99685714D01*
X121152380Y-101209523D02*
X121152380Y-100638095D01*
X121152380Y-100923809D02*
X120152380Y-100923809D01*
X120295238Y-100828571D01*
X120390476Y-100733333D01*
X120438095Y-100638095D01*
X121152380Y-101685714D02*
X121152380Y-101876190D01*
X121104761Y-101971428D01*
X121057142Y-102019047D01*
X120914285Y-102114285D01*
X120723809Y-102161904D01*
X120342857Y-102161904D01*
X120247619Y-102114285D01*
X120200000Y-102066666D01*
X120152380Y-101971428D01*
X120152380Y-101780952D01*
X120200000Y-101685714D01*
X120247619Y-101638095D01*
X120342857Y-101590476D01*
X120580952Y-101590476D01*
X120676190Y-101638095D01*
X120723809Y-101685714D01*
X120771428Y-101780952D01*
X120771428Y-101971428D01*
X120723809Y-102066666D01*
X120676190Y-102114285D01*
X120580952Y-102161904D01*
X126152380Y-100257142D02*
X125676190Y-99923809D01*
X126152380Y-99685714D02*
X125152380Y-99685714D01*
X125152380Y-100066666D01*
X125200000Y-100161904D01*
X125247619Y-100209523D01*
X125342857Y-100257142D01*
X125485714Y-100257142D01*
X125580952Y-100209523D01*
X125628571Y-100161904D01*
X125676190Y-100066666D01*
X125676190Y-99685714D01*
X126152380Y-101209523D02*
X126152380Y-100638095D01*
X126152380Y-100923809D02*
X125152380Y-100923809D01*
X125295238Y-100828571D01*
X125390476Y-100733333D01*
X125438095Y-100638095D01*
X125152380Y-102114285D02*
X125152380Y-101638095D01*
X125628571Y-101590476D01*
X125580952Y-101638095D01*
X125533333Y-101733333D01*
X125533333Y-101971428D01*
X125580952Y-102066666D01*
X125628571Y-102114285D01*
X125723809Y-102161904D01*
X125961904Y-102161904D01*
X126057142Y-102114285D01*
X126104761Y-102066666D01*
X126152380Y-101971428D01*
X126152380Y-101733333D01*
X126104761Y-101638095D01*
X126057142Y-101590476D01*
X158152380Y-67233333D02*
X157676190Y-66900000D01*
X158152380Y-66661904D02*
X157152380Y-66661904D01*
X157152380Y-67042857D01*
X157200000Y-67138095D01*
X157247619Y-67185714D01*
X157342857Y-67233333D01*
X157485714Y-67233333D01*
X157580952Y-67185714D01*
X157628571Y-67138095D01*
X157676190Y-67042857D01*
X157676190Y-66661904D01*
X157152380Y-68138095D02*
X157152380Y-67661904D01*
X157628571Y-67614285D01*
X157580952Y-67661904D01*
X157533333Y-67757142D01*
X157533333Y-67995238D01*
X157580952Y-68090476D01*
X157628571Y-68138095D01*
X157723809Y-68185714D01*
X157961904Y-68185714D01*
X158057142Y-68138095D01*
X158104761Y-68090476D01*
X158152380Y-67995238D01*
X158152380Y-67757142D01*
X158104761Y-67661904D01*
X158057142Y-67614285D01*
X163052380Y-67133333D02*
X162576190Y-66800000D01*
X163052380Y-66561904D02*
X162052380Y-66561904D01*
X162052380Y-66942857D01*
X162100000Y-67038095D01*
X162147619Y-67085714D01*
X162242857Y-67133333D01*
X162385714Y-67133333D01*
X162480952Y-67085714D01*
X162528571Y-67038095D01*
X162576190Y-66942857D01*
X162576190Y-66561904D01*
X162052380Y-67466666D02*
X162052380Y-68085714D01*
X162433333Y-67752380D01*
X162433333Y-67895238D01*
X162480952Y-67990476D01*
X162528571Y-68038095D01*
X162623809Y-68085714D01*
X162861904Y-68085714D01*
X162957142Y-68038095D01*
X163004761Y-67990476D01*
X163052380Y-67895238D01*
X163052380Y-67609523D01*
X163004761Y-67514285D01*
X162957142Y-67466666D01*
X155552380Y-67233333D02*
X155076190Y-66900000D01*
X155552380Y-66661904D02*
X154552380Y-66661904D01*
X154552380Y-67042857D01*
X154600000Y-67138095D01*
X154647619Y-67185714D01*
X154742857Y-67233333D01*
X154885714Y-67233333D01*
X154980952Y-67185714D01*
X155028571Y-67138095D01*
X155076190Y-67042857D01*
X155076190Y-66661904D01*
X154552380Y-68090476D02*
X154552380Y-67900000D01*
X154600000Y-67804761D01*
X154647619Y-67757142D01*
X154790476Y-67661904D01*
X154980952Y-67614285D01*
X155361904Y-67614285D01*
X155457142Y-67661904D01*
X155504761Y-67709523D01*
X155552380Y-67804761D01*
X155552380Y-67995238D01*
X155504761Y-68090476D01*
X155457142Y-68138095D01*
X155361904Y-68185714D01*
X155123809Y-68185714D01*
X155028571Y-68138095D01*
X154980952Y-68090476D01*
X154933333Y-67995238D01*
X154933333Y-67804761D01*
X154980952Y-67709523D01*
X155028571Y-67661904D01*
X155123809Y-67614285D01*
X160602380Y-67133333D02*
X160126190Y-66800000D01*
X160602380Y-66561904D02*
X159602380Y-66561904D01*
X159602380Y-66942857D01*
X159650000Y-67038095D01*
X159697619Y-67085714D01*
X159792857Y-67133333D01*
X159935714Y-67133333D01*
X160030952Y-67085714D01*
X160078571Y-67038095D01*
X160126190Y-66942857D01*
X160126190Y-66561904D01*
X159935714Y-67990476D02*
X160602380Y-67990476D01*
X159554761Y-67752380D02*
X160269047Y-67514285D01*
X160269047Y-68133333D01*
X122402380Y-89783333D02*
X121926190Y-89450000D01*
X122402380Y-89211904D02*
X121402380Y-89211904D01*
X121402380Y-89592857D01*
X121450000Y-89688095D01*
X121497619Y-89735714D01*
X121592857Y-89783333D01*
X121735714Y-89783333D01*
X121830952Y-89735714D01*
X121878571Y-89688095D01*
X121926190Y-89592857D01*
X121926190Y-89211904D01*
X121402380Y-90116666D02*
X121402380Y-90783333D01*
X122402380Y-90354761D01*
X124902380Y-89883333D02*
X124426190Y-89550000D01*
X124902380Y-89311904D02*
X123902380Y-89311904D01*
X123902380Y-89692857D01*
X123950000Y-89788095D01*
X123997619Y-89835714D01*
X124092857Y-89883333D01*
X124235714Y-89883333D01*
X124330952Y-89835714D01*
X124378571Y-89788095D01*
X124426190Y-89692857D01*
X124426190Y-89311904D01*
X124330952Y-90454761D02*
X124283333Y-90359523D01*
X124235714Y-90311904D01*
X124140476Y-90264285D01*
X124092857Y-90264285D01*
X123997619Y-90311904D01*
X123950000Y-90359523D01*
X123902380Y-90454761D01*
X123902380Y-90645238D01*
X123950000Y-90740476D01*
X123997619Y-90788095D01*
X124092857Y-90835714D01*
X124140476Y-90835714D01*
X124235714Y-90788095D01*
X124283333Y-90740476D01*
X124330952Y-90645238D01*
X124330952Y-90454761D01*
X124378571Y-90359523D01*
X124426190Y-90311904D01*
X124521428Y-90264285D01*
X124711904Y-90264285D01*
X124807142Y-90311904D01*
X124854761Y-90359523D01*
X124902380Y-90454761D01*
X124902380Y-90645238D01*
X124854761Y-90740476D01*
X124807142Y-90788095D01*
X124711904Y-90835714D01*
X124521428Y-90835714D01*
X124426190Y-90788095D01*
X124378571Y-90740476D01*
X124330952Y-90645238D01*
X127502380Y-89908333D02*
X127026190Y-89575000D01*
X127502380Y-89336904D02*
X126502380Y-89336904D01*
X126502380Y-89717857D01*
X126550000Y-89813095D01*
X126597619Y-89860714D01*
X126692857Y-89908333D01*
X126835714Y-89908333D01*
X126930952Y-89860714D01*
X126978571Y-89813095D01*
X127026190Y-89717857D01*
X127026190Y-89336904D01*
X127502380Y-90384523D02*
X127502380Y-90575000D01*
X127454761Y-90670238D01*
X127407142Y-90717857D01*
X127264285Y-90813095D01*
X127073809Y-90860714D01*
X126692857Y-90860714D01*
X126597619Y-90813095D01*
X126550000Y-90765476D01*
X126502380Y-90670238D01*
X126502380Y-90479761D01*
X126550000Y-90384523D01*
X126597619Y-90336904D01*
X126692857Y-90289285D01*
X126930952Y-90289285D01*
X127026190Y-90336904D01*
X127073809Y-90384523D01*
X127121428Y-90479761D01*
X127121428Y-90670238D01*
X127073809Y-90765476D01*
X127026190Y-90813095D01*
X126930952Y-90860714D01*
X123652380Y-100257142D02*
X123176190Y-99923809D01*
X123652380Y-99685714D02*
X122652380Y-99685714D01*
X122652380Y-100066666D01*
X122700000Y-100161904D01*
X122747619Y-100209523D01*
X122842857Y-100257142D01*
X122985714Y-100257142D01*
X123080952Y-100209523D01*
X123128571Y-100161904D01*
X123176190Y-100066666D01*
X123176190Y-99685714D01*
X123652380Y-101209523D02*
X123652380Y-100638095D01*
X123652380Y-100923809D02*
X122652380Y-100923809D01*
X122795238Y-100828571D01*
X122890476Y-100733333D01*
X122938095Y-100638095D01*
X122985714Y-102066666D02*
X123652380Y-102066666D01*
X122604761Y-101828571D02*
X123319047Y-101590476D01*
X123319047Y-102209523D01*
X113325595Y-118832380D02*
X113325595Y-117832380D01*
X113087500Y-117832380D01*
X112944642Y-117880000D01*
X112849404Y-117975238D01*
X112801785Y-118070476D01*
X112754166Y-118260952D01*
X112754166Y-118403809D01*
X112801785Y-118594285D01*
X112849404Y-118689523D01*
X112944642Y-118784761D01*
X113087500Y-118832380D01*
X113325595Y-118832380D01*
X111801785Y-118832380D02*
X112373214Y-118832380D01*
X112087500Y-118832380D02*
X112087500Y-117832380D01*
X112182738Y-117975238D01*
X112277976Y-118070476D01*
X112373214Y-118118095D01*
M02*
