%TF.GenerationSoftware,KiCad,Pcbnew,(5.1.2-1)-1*%
%TF.CreationDate,2019-08-17T10:29:18+10:00*%
%TF.ProjectId,GreengrassEntryHardware,47726565-6e67-4726-9173-73456e747279,v1.0*%
%TF.SameCoordinates,Original*%
%TF.FileFunction,Paste,Bot*%
%TF.FilePolarity,Positive*%
%FSLAX46Y46*%
G04 Gerber Fmt 4.6, Leading zero omitted, Abs format (unit mm)*
G04 Created by KiCad (PCBNEW (5.1.2-1)-1) date 2019-08-17 10:29:18*
%MOMM*%
%LPD*%
G04 APERTURE LIST*
%ADD10C,0.150000*%
%ADD11C,1.150000*%
%ADD12C,1.425000*%
G04 APERTURE END LIST*
D10*
G36*
X167599505Y-116701204D02*
G01*
X167623773Y-116704804D01*
X167647572Y-116710765D01*
X167670671Y-116719030D01*
X167692850Y-116729520D01*
X167713893Y-116742132D01*
X167733599Y-116756747D01*
X167751777Y-116773223D01*
X167768253Y-116791401D01*
X167782868Y-116811107D01*
X167795480Y-116832150D01*
X167805970Y-116854329D01*
X167814235Y-116877428D01*
X167820196Y-116901227D01*
X167823796Y-116925495D01*
X167825000Y-116949999D01*
X167825000Y-117600001D01*
X167823796Y-117624505D01*
X167820196Y-117648773D01*
X167814235Y-117672572D01*
X167805970Y-117695671D01*
X167795480Y-117717850D01*
X167782868Y-117738893D01*
X167768253Y-117758599D01*
X167751777Y-117776777D01*
X167733599Y-117793253D01*
X167713893Y-117807868D01*
X167692850Y-117820480D01*
X167670671Y-117830970D01*
X167647572Y-117839235D01*
X167623773Y-117845196D01*
X167599505Y-117848796D01*
X167575001Y-117850000D01*
X166674999Y-117850000D01*
X166650495Y-117848796D01*
X166626227Y-117845196D01*
X166602428Y-117839235D01*
X166579329Y-117830970D01*
X166557150Y-117820480D01*
X166536107Y-117807868D01*
X166516401Y-117793253D01*
X166498223Y-117776777D01*
X166481747Y-117758599D01*
X166467132Y-117738893D01*
X166454520Y-117717850D01*
X166444030Y-117695671D01*
X166435765Y-117672572D01*
X166429804Y-117648773D01*
X166426204Y-117624505D01*
X166425000Y-117600001D01*
X166425000Y-116949999D01*
X166426204Y-116925495D01*
X166429804Y-116901227D01*
X166435765Y-116877428D01*
X166444030Y-116854329D01*
X166454520Y-116832150D01*
X166467132Y-116811107D01*
X166481747Y-116791401D01*
X166498223Y-116773223D01*
X166516401Y-116756747D01*
X166536107Y-116742132D01*
X166557150Y-116729520D01*
X166579329Y-116719030D01*
X166602428Y-116710765D01*
X166626227Y-116704804D01*
X166650495Y-116701204D01*
X166674999Y-116700000D01*
X167575001Y-116700000D01*
X167599505Y-116701204D01*
X167599505Y-116701204D01*
G37*
D11*
X167125000Y-117275000D03*
D10*
G36*
X167599505Y-118751204D02*
G01*
X167623773Y-118754804D01*
X167647572Y-118760765D01*
X167670671Y-118769030D01*
X167692850Y-118779520D01*
X167713893Y-118792132D01*
X167733599Y-118806747D01*
X167751777Y-118823223D01*
X167768253Y-118841401D01*
X167782868Y-118861107D01*
X167795480Y-118882150D01*
X167805970Y-118904329D01*
X167814235Y-118927428D01*
X167820196Y-118951227D01*
X167823796Y-118975495D01*
X167825000Y-118999999D01*
X167825000Y-119650001D01*
X167823796Y-119674505D01*
X167820196Y-119698773D01*
X167814235Y-119722572D01*
X167805970Y-119745671D01*
X167795480Y-119767850D01*
X167782868Y-119788893D01*
X167768253Y-119808599D01*
X167751777Y-119826777D01*
X167733599Y-119843253D01*
X167713893Y-119857868D01*
X167692850Y-119870480D01*
X167670671Y-119880970D01*
X167647572Y-119889235D01*
X167623773Y-119895196D01*
X167599505Y-119898796D01*
X167575001Y-119900000D01*
X166674999Y-119900000D01*
X166650495Y-119898796D01*
X166626227Y-119895196D01*
X166602428Y-119889235D01*
X166579329Y-119880970D01*
X166557150Y-119870480D01*
X166536107Y-119857868D01*
X166516401Y-119843253D01*
X166498223Y-119826777D01*
X166481747Y-119808599D01*
X166467132Y-119788893D01*
X166454520Y-119767850D01*
X166444030Y-119745671D01*
X166435765Y-119722572D01*
X166429804Y-119698773D01*
X166426204Y-119674505D01*
X166425000Y-119650001D01*
X166425000Y-118999999D01*
X166426204Y-118975495D01*
X166429804Y-118951227D01*
X166435765Y-118927428D01*
X166444030Y-118904329D01*
X166454520Y-118882150D01*
X166467132Y-118861107D01*
X166481747Y-118841401D01*
X166498223Y-118823223D01*
X166516401Y-118806747D01*
X166536107Y-118792132D01*
X166557150Y-118779520D01*
X166579329Y-118769030D01*
X166602428Y-118760765D01*
X166626227Y-118754804D01*
X166650495Y-118751204D01*
X166674999Y-118750000D01*
X167575001Y-118750000D01*
X167599505Y-118751204D01*
X167599505Y-118751204D01*
G37*
D11*
X167125000Y-119325000D03*
D10*
G36*
X132574505Y-89451204D02*
G01*
X132598773Y-89454804D01*
X132622572Y-89460765D01*
X132645671Y-89469030D01*
X132667850Y-89479520D01*
X132688893Y-89492132D01*
X132708599Y-89506747D01*
X132726777Y-89523223D01*
X132743253Y-89541401D01*
X132757868Y-89561107D01*
X132770480Y-89582150D01*
X132780970Y-89604329D01*
X132789235Y-89627428D01*
X132795196Y-89651227D01*
X132798796Y-89675495D01*
X132800000Y-89699999D01*
X132800000Y-90350001D01*
X132798796Y-90374505D01*
X132795196Y-90398773D01*
X132789235Y-90422572D01*
X132780970Y-90445671D01*
X132770480Y-90467850D01*
X132757868Y-90488893D01*
X132743253Y-90508599D01*
X132726777Y-90526777D01*
X132708599Y-90543253D01*
X132688893Y-90557868D01*
X132667850Y-90570480D01*
X132645671Y-90580970D01*
X132622572Y-90589235D01*
X132598773Y-90595196D01*
X132574505Y-90598796D01*
X132550001Y-90600000D01*
X131649999Y-90600000D01*
X131625495Y-90598796D01*
X131601227Y-90595196D01*
X131577428Y-90589235D01*
X131554329Y-90580970D01*
X131532150Y-90570480D01*
X131511107Y-90557868D01*
X131491401Y-90543253D01*
X131473223Y-90526777D01*
X131456747Y-90508599D01*
X131442132Y-90488893D01*
X131429520Y-90467850D01*
X131419030Y-90445671D01*
X131410765Y-90422572D01*
X131404804Y-90398773D01*
X131401204Y-90374505D01*
X131400000Y-90350001D01*
X131400000Y-89699999D01*
X131401204Y-89675495D01*
X131404804Y-89651227D01*
X131410765Y-89627428D01*
X131419030Y-89604329D01*
X131429520Y-89582150D01*
X131442132Y-89561107D01*
X131456747Y-89541401D01*
X131473223Y-89523223D01*
X131491401Y-89506747D01*
X131511107Y-89492132D01*
X131532150Y-89479520D01*
X131554329Y-89469030D01*
X131577428Y-89460765D01*
X131601227Y-89454804D01*
X131625495Y-89451204D01*
X131649999Y-89450000D01*
X132550001Y-89450000D01*
X132574505Y-89451204D01*
X132574505Y-89451204D01*
G37*
D11*
X132100000Y-90025000D03*
D10*
G36*
X132574505Y-91501204D02*
G01*
X132598773Y-91504804D01*
X132622572Y-91510765D01*
X132645671Y-91519030D01*
X132667850Y-91529520D01*
X132688893Y-91542132D01*
X132708599Y-91556747D01*
X132726777Y-91573223D01*
X132743253Y-91591401D01*
X132757868Y-91611107D01*
X132770480Y-91632150D01*
X132780970Y-91654329D01*
X132789235Y-91677428D01*
X132795196Y-91701227D01*
X132798796Y-91725495D01*
X132800000Y-91749999D01*
X132800000Y-92400001D01*
X132798796Y-92424505D01*
X132795196Y-92448773D01*
X132789235Y-92472572D01*
X132780970Y-92495671D01*
X132770480Y-92517850D01*
X132757868Y-92538893D01*
X132743253Y-92558599D01*
X132726777Y-92576777D01*
X132708599Y-92593253D01*
X132688893Y-92607868D01*
X132667850Y-92620480D01*
X132645671Y-92630970D01*
X132622572Y-92639235D01*
X132598773Y-92645196D01*
X132574505Y-92648796D01*
X132550001Y-92650000D01*
X131649999Y-92650000D01*
X131625495Y-92648796D01*
X131601227Y-92645196D01*
X131577428Y-92639235D01*
X131554329Y-92630970D01*
X131532150Y-92620480D01*
X131511107Y-92607868D01*
X131491401Y-92593253D01*
X131473223Y-92576777D01*
X131456747Y-92558599D01*
X131442132Y-92538893D01*
X131429520Y-92517850D01*
X131419030Y-92495671D01*
X131410765Y-92472572D01*
X131404804Y-92448773D01*
X131401204Y-92424505D01*
X131400000Y-92400001D01*
X131400000Y-91749999D01*
X131401204Y-91725495D01*
X131404804Y-91701227D01*
X131410765Y-91677428D01*
X131419030Y-91654329D01*
X131429520Y-91632150D01*
X131442132Y-91611107D01*
X131456747Y-91591401D01*
X131473223Y-91573223D01*
X131491401Y-91556747D01*
X131511107Y-91542132D01*
X131532150Y-91529520D01*
X131554329Y-91519030D01*
X131577428Y-91510765D01*
X131601227Y-91504804D01*
X131625495Y-91501204D01*
X131649999Y-91500000D01*
X132550001Y-91500000D01*
X132574505Y-91501204D01*
X132574505Y-91501204D01*
G37*
D11*
X132100000Y-92075000D03*
D10*
G36*
X128674505Y-95901204D02*
G01*
X128698773Y-95904804D01*
X128722572Y-95910765D01*
X128745671Y-95919030D01*
X128767850Y-95929520D01*
X128788893Y-95942132D01*
X128808599Y-95956747D01*
X128826777Y-95973223D01*
X128843253Y-95991401D01*
X128857868Y-96011107D01*
X128870480Y-96032150D01*
X128880970Y-96054329D01*
X128889235Y-96077428D01*
X128895196Y-96101227D01*
X128898796Y-96125495D01*
X128900000Y-96149999D01*
X128900000Y-96800001D01*
X128898796Y-96824505D01*
X128895196Y-96848773D01*
X128889235Y-96872572D01*
X128880970Y-96895671D01*
X128870480Y-96917850D01*
X128857868Y-96938893D01*
X128843253Y-96958599D01*
X128826777Y-96976777D01*
X128808599Y-96993253D01*
X128788893Y-97007868D01*
X128767850Y-97020480D01*
X128745671Y-97030970D01*
X128722572Y-97039235D01*
X128698773Y-97045196D01*
X128674505Y-97048796D01*
X128650001Y-97050000D01*
X127749999Y-97050000D01*
X127725495Y-97048796D01*
X127701227Y-97045196D01*
X127677428Y-97039235D01*
X127654329Y-97030970D01*
X127632150Y-97020480D01*
X127611107Y-97007868D01*
X127591401Y-96993253D01*
X127573223Y-96976777D01*
X127556747Y-96958599D01*
X127542132Y-96938893D01*
X127529520Y-96917850D01*
X127519030Y-96895671D01*
X127510765Y-96872572D01*
X127504804Y-96848773D01*
X127501204Y-96824505D01*
X127500000Y-96800001D01*
X127500000Y-96149999D01*
X127501204Y-96125495D01*
X127504804Y-96101227D01*
X127510765Y-96077428D01*
X127519030Y-96054329D01*
X127529520Y-96032150D01*
X127542132Y-96011107D01*
X127556747Y-95991401D01*
X127573223Y-95973223D01*
X127591401Y-95956747D01*
X127611107Y-95942132D01*
X127632150Y-95929520D01*
X127654329Y-95919030D01*
X127677428Y-95910765D01*
X127701227Y-95904804D01*
X127725495Y-95901204D01*
X127749999Y-95900000D01*
X128650001Y-95900000D01*
X128674505Y-95901204D01*
X128674505Y-95901204D01*
G37*
D11*
X128200000Y-96475000D03*
D10*
G36*
X128674505Y-97951204D02*
G01*
X128698773Y-97954804D01*
X128722572Y-97960765D01*
X128745671Y-97969030D01*
X128767850Y-97979520D01*
X128788893Y-97992132D01*
X128808599Y-98006747D01*
X128826777Y-98023223D01*
X128843253Y-98041401D01*
X128857868Y-98061107D01*
X128870480Y-98082150D01*
X128880970Y-98104329D01*
X128889235Y-98127428D01*
X128895196Y-98151227D01*
X128898796Y-98175495D01*
X128900000Y-98199999D01*
X128900000Y-98850001D01*
X128898796Y-98874505D01*
X128895196Y-98898773D01*
X128889235Y-98922572D01*
X128880970Y-98945671D01*
X128870480Y-98967850D01*
X128857868Y-98988893D01*
X128843253Y-99008599D01*
X128826777Y-99026777D01*
X128808599Y-99043253D01*
X128788893Y-99057868D01*
X128767850Y-99070480D01*
X128745671Y-99080970D01*
X128722572Y-99089235D01*
X128698773Y-99095196D01*
X128674505Y-99098796D01*
X128650001Y-99100000D01*
X127749999Y-99100000D01*
X127725495Y-99098796D01*
X127701227Y-99095196D01*
X127677428Y-99089235D01*
X127654329Y-99080970D01*
X127632150Y-99070480D01*
X127611107Y-99057868D01*
X127591401Y-99043253D01*
X127573223Y-99026777D01*
X127556747Y-99008599D01*
X127542132Y-98988893D01*
X127529520Y-98967850D01*
X127519030Y-98945671D01*
X127510765Y-98922572D01*
X127504804Y-98898773D01*
X127501204Y-98874505D01*
X127500000Y-98850001D01*
X127500000Y-98199999D01*
X127501204Y-98175495D01*
X127504804Y-98151227D01*
X127510765Y-98127428D01*
X127519030Y-98104329D01*
X127529520Y-98082150D01*
X127542132Y-98061107D01*
X127556747Y-98041401D01*
X127573223Y-98023223D01*
X127591401Y-98006747D01*
X127611107Y-97992132D01*
X127632150Y-97979520D01*
X127654329Y-97969030D01*
X127677428Y-97960765D01*
X127701227Y-97954804D01*
X127725495Y-97951204D01*
X127749999Y-97950000D01*
X128650001Y-97950000D01*
X128674505Y-97951204D01*
X128674505Y-97951204D01*
G37*
D11*
X128200000Y-98525000D03*
D10*
G36*
X129924505Y-91501204D02*
G01*
X129948773Y-91504804D01*
X129972572Y-91510765D01*
X129995671Y-91519030D01*
X130017850Y-91529520D01*
X130038893Y-91542132D01*
X130058599Y-91556747D01*
X130076777Y-91573223D01*
X130093253Y-91591401D01*
X130107868Y-91611107D01*
X130120480Y-91632150D01*
X130130970Y-91654329D01*
X130139235Y-91677428D01*
X130145196Y-91701227D01*
X130148796Y-91725495D01*
X130150000Y-91749999D01*
X130150000Y-92400001D01*
X130148796Y-92424505D01*
X130145196Y-92448773D01*
X130139235Y-92472572D01*
X130130970Y-92495671D01*
X130120480Y-92517850D01*
X130107868Y-92538893D01*
X130093253Y-92558599D01*
X130076777Y-92576777D01*
X130058599Y-92593253D01*
X130038893Y-92607868D01*
X130017850Y-92620480D01*
X129995671Y-92630970D01*
X129972572Y-92639235D01*
X129948773Y-92645196D01*
X129924505Y-92648796D01*
X129900001Y-92650000D01*
X128999999Y-92650000D01*
X128975495Y-92648796D01*
X128951227Y-92645196D01*
X128927428Y-92639235D01*
X128904329Y-92630970D01*
X128882150Y-92620480D01*
X128861107Y-92607868D01*
X128841401Y-92593253D01*
X128823223Y-92576777D01*
X128806747Y-92558599D01*
X128792132Y-92538893D01*
X128779520Y-92517850D01*
X128769030Y-92495671D01*
X128760765Y-92472572D01*
X128754804Y-92448773D01*
X128751204Y-92424505D01*
X128750000Y-92400001D01*
X128750000Y-91749999D01*
X128751204Y-91725495D01*
X128754804Y-91701227D01*
X128760765Y-91677428D01*
X128769030Y-91654329D01*
X128779520Y-91632150D01*
X128792132Y-91611107D01*
X128806747Y-91591401D01*
X128823223Y-91573223D01*
X128841401Y-91556747D01*
X128861107Y-91542132D01*
X128882150Y-91529520D01*
X128904329Y-91519030D01*
X128927428Y-91510765D01*
X128951227Y-91504804D01*
X128975495Y-91501204D01*
X128999999Y-91500000D01*
X129900001Y-91500000D01*
X129924505Y-91501204D01*
X129924505Y-91501204D01*
G37*
D11*
X129450000Y-92075000D03*
D10*
G36*
X129924505Y-93551204D02*
G01*
X129948773Y-93554804D01*
X129972572Y-93560765D01*
X129995671Y-93569030D01*
X130017850Y-93579520D01*
X130038893Y-93592132D01*
X130058599Y-93606747D01*
X130076777Y-93623223D01*
X130093253Y-93641401D01*
X130107868Y-93661107D01*
X130120480Y-93682150D01*
X130130970Y-93704329D01*
X130139235Y-93727428D01*
X130145196Y-93751227D01*
X130148796Y-93775495D01*
X130150000Y-93799999D01*
X130150000Y-94450001D01*
X130148796Y-94474505D01*
X130145196Y-94498773D01*
X130139235Y-94522572D01*
X130130970Y-94545671D01*
X130120480Y-94567850D01*
X130107868Y-94588893D01*
X130093253Y-94608599D01*
X130076777Y-94626777D01*
X130058599Y-94643253D01*
X130038893Y-94657868D01*
X130017850Y-94670480D01*
X129995671Y-94680970D01*
X129972572Y-94689235D01*
X129948773Y-94695196D01*
X129924505Y-94698796D01*
X129900001Y-94700000D01*
X128999999Y-94700000D01*
X128975495Y-94698796D01*
X128951227Y-94695196D01*
X128927428Y-94689235D01*
X128904329Y-94680970D01*
X128882150Y-94670480D01*
X128861107Y-94657868D01*
X128841401Y-94643253D01*
X128823223Y-94626777D01*
X128806747Y-94608599D01*
X128792132Y-94588893D01*
X128779520Y-94567850D01*
X128769030Y-94545671D01*
X128760765Y-94522572D01*
X128754804Y-94498773D01*
X128751204Y-94474505D01*
X128750000Y-94450001D01*
X128750000Y-93799999D01*
X128751204Y-93775495D01*
X128754804Y-93751227D01*
X128760765Y-93727428D01*
X128769030Y-93704329D01*
X128779520Y-93682150D01*
X128792132Y-93661107D01*
X128806747Y-93641401D01*
X128823223Y-93623223D01*
X128841401Y-93606747D01*
X128861107Y-93592132D01*
X128882150Y-93579520D01*
X128904329Y-93569030D01*
X128927428Y-93560765D01*
X128951227Y-93554804D01*
X128975495Y-93551204D01*
X128999999Y-93550000D01*
X129900001Y-93550000D01*
X129924505Y-93551204D01*
X129924505Y-93551204D01*
G37*
D11*
X129450000Y-94125000D03*
D10*
G36*
X151174505Y-116426204D02*
G01*
X151198773Y-116429804D01*
X151222572Y-116435765D01*
X151245671Y-116444030D01*
X151267850Y-116454520D01*
X151288893Y-116467132D01*
X151308599Y-116481747D01*
X151326777Y-116498223D01*
X151343253Y-116516401D01*
X151357868Y-116536107D01*
X151370480Y-116557150D01*
X151380970Y-116579329D01*
X151389235Y-116602428D01*
X151395196Y-116626227D01*
X151398796Y-116650495D01*
X151400000Y-116674999D01*
X151400000Y-117325001D01*
X151398796Y-117349505D01*
X151395196Y-117373773D01*
X151389235Y-117397572D01*
X151380970Y-117420671D01*
X151370480Y-117442850D01*
X151357868Y-117463893D01*
X151343253Y-117483599D01*
X151326777Y-117501777D01*
X151308599Y-117518253D01*
X151288893Y-117532868D01*
X151267850Y-117545480D01*
X151245671Y-117555970D01*
X151222572Y-117564235D01*
X151198773Y-117570196D01*
X151174505Y-117573796D01*
X151150001Y-117575000D01*
X150249999Y-117575000D01*
X150225495Y-117573796D01*
X150201227Y-117570196D01*
X150177428Y-117564235D01*
X150154329Y-117555970D01*
X150132150Y-117545480D01*
X150111107Y-117532868D01*
X150091401Y-117518253D01*
X150073223Y-117501777D01*
X150056747Y-117483599D01*
X150042132Y-117463893D01*
X150029520Y-117442850D01*
X150019030Y-117420671D01*
X150010765Y-117397572D01*
X150004804Y-117373773D01*
X150001204Y-117349505D01*
X150000000Y-117325001D01*
X150000000Y-116674999D01*
X150001204Y-116650495D01*
X150004804Y-116626227D01*
X150010765Y-116602428D01*
X150019030Y-116579329D01*
X150029520Y-116557150D01*
X150042132Y-116536107D01*
X150056747Y-116516401D01*
X150073223Y-116498223D01*
X150091401Y-116481747D01*
X150111107Y-116467132D01*
X150132150Y-116454520D01*
X150154329Y-116444030D01*
X150177428Y-116435765D01*
X150201227Y-116429804D01*
X150225495Y-116426204D01*
X150249999Y-116425000D01*
X151150001Y-116425000D01*
X151174505Y-116426204D01*
X151174505Y-116426204D01*
G37*
D11*
X150700000Y-117000000D03*
D10*
G36*
X151174505Y-114376204D02*
G01*
X151198773Y-114379804D01*
X151222572Y-114385765D01*
X151245671Y-114394030D01*
X151267850Y-114404520D01*
X151288893Y-114417132D01*
X151308599Y-114431747D01*
X151326777Y-114448223D01*
X151343253Y-114466401D01*
X151357868Y-114486107D01*
X151370480Y-114507150D01*
X151380970Y-114529329D01*
X151389235Y-114552428D01*
X151395196Y-114576227D01*
X151398796Y-114600495D01*
X151400000Y-114624999D01*
X151400000Y-115275001D01*
X151398796Y-115299505D01*
X151395196Y-115323773D01*
X151389235Y-115347572D01*
X151380970Y-115370671D01*
X151370480Y-115392850D01*
X151357868Y-115413893D01*
X151343253Y-115433599D01*
X151326777Y-115451777D01*
X151308599Y-115468253D01*
X151288893Y-115482868D01*
X151267850Y-115495480D01*
X151245671Y-115505970D01*
X151222572Y-115514235D01*
X151198773Y-115520196D01*
X151174505Y-115523796D01*
X151150001Y-115525000D01*
X150249999Y-115525000D01*
X150225495Y-115523796D01*
X150201227Y-115520196D01*
X150177428Y-115514235D01*
X150154329Y-115505970D01*
X150132150Y-115495480D01*
X150111107Y-115482868D01*
X150091401Y-115468253D01*
X150073223Y-115451777D01*
X150056747Y-115433599D01*
X150042132Y-115413893D01*
X150029520Y-115392850D01*
X150019030Y-115370671D01*
X150010765Y-115347572D01*
X150004804Y-115323773D01*
X150001204Y-115299505D01*
X150000000Y-115275001D01*
X150000000Y-114624999D01*
X150001204Y-114600495D01*
X150004804Y-114576227D01*
X150010765Y-114552428D01*
X150019030Y-114529329D01*
X150029520Y-114507150D01*
X150042132Y-114486107D01*
X150056747Y-114466401D01*
X150073223Y-114448223D01*
X150091401Y-114431747D01*
X150111107Y-114417132D01*
X150132150Y-114404520D01*
X150154329Y-114394030D01*
X150177428Y-114385765D01*
X150201227Y-114379804D01*
X150225495Y-114376204D01*
X150249999Y-114375000D01*
X151150001Y-114375000D01*
X151174505Y-114376204D01*
X151174505Y-114376204D01*
G37*
D11*
X150700000Y-114950000D03*
D10*
G36*
X148674505Y-116526204D02*
G01*
X148698773Y-116529804D01*
X148722572Y-116535765D01*
X148745671Y-116544030D01*
X148767850Y-116554520D01*
X148788893Y-116567132D01*
X148808599Y-116581747D01*
X148826777Y-116598223D01*
X148843253Y-116616401D01*
X148857868Y-116636107D01*
X148870480Y-116657150D01*
X148880970Y-116679329D01*
X148889235Y-116702428D01*
X148895196Y-116726227D01*
X148898796Y-116750495D01*
X148900000Y-116774999D01*
X148900000Y-117425001D01*
X148898796Y-117449505D01*
X148895196Y-117473773D01*
X148889235Y-117497572D01*
X148880970Y-117520671D01*
X148870480Y-117542850D01*
X148857868Y-117563893D01*
X148843253Y-117583599D01*
X148826777Y-117601777D01*
X148808599Y-117618253D01*
X148788893Y-117632868D01*
X148767850Y-117645480D01*
X148745671Y-117655970D01*
X148722572Y-117664235D01*
X148698773Y-117670196D01*
X148674505Y-117673796D01*
X148650001Y-117675000D01*
X147749999Y-117675000D01*
X147725495Y-117673796D01*
X147701227Y-117670196D01*
X147677428Y-117664235D01*
X147654329Y-117655970D01*
X147632150Y-117645480D01*
X147611107Y-117632868D01*
X147591401Y-117618253D01*
X147573223Y-117601777D01*
X147556747Y-117583599D01*
X147542132Y-117563893D01*
X147529520Y-117542850D01*
X147519030Y-117520671D01*
X147510765Y-117497572D01*
X147504804Y-117473773D01*
X147501204Y-117449505D01*
X147500000Y-117425001D01*
X147500000Y-116774999D01*
X147501204Y-116750495D01*
X147504804Y-116726227D01*
X147510765Y-116702428D01*
X147519030Y-116679329D01*
X147529520Y-116657150D01*
X147542132Y-116636107D01*
X147556747Y-116616401D01*
X147573223Y-116598223D01*
X147591401Y-116581747D01*
X147611107Y-116567132D01*
X147632150Y-116554520D01*
X147654329Y-116544030D01*
X147677428Y-116535765D01*
X147701227Y-116529804D01*
X147725495Y-116526204D01*
X147749999Y-116525000D01*
X148650001Y-116525000D01*
X148674505Y-116526204D01*
X148674505Y-116526204D01*
G37*
D11*
X148200000Y-117100000D03*
D10*
G36*
X148674505Y-114476204D02*
G01*
X148698773Y-114479804D01*
X148722572Y-114485765D01*
X148745671Y-114494030D01*
X148767850Y-114504520D01*
X148788893Y-114517132D01*
X148808599Y-114531747D01*
X148826777Y-114548223D01*
X148843253Y-114566401D01*
X148857868Y-114586107D01*
X148870480Y-114607150D01*
X148880970Y-114629329D01*
X148889235Y-114652428D01*
X148895196Y-114676227D01*
X148898796Y-114700495D01*
X148900000Y-114724999D01*
X148900000Y-115375001D01*
X148898796Y-115399505D01*
X148895196Y-115423773D01*
X148889235Y-115447572D01*
X148880970Y-115470671D01*
X148870480Y-115492850D01*
X148857868Y-115513893D01*
X148843253Y-115533599D01*
X148826777Y-115551777D01*
X148808599Y-115568253D01*
X148788893Y-115582868D01*
X148767850Y-115595480D01*
X148745671Y-115605970D01*
X148722572Y-115614235D01*
X148698773Y-115620196D01*
X148674505Y-115623796D01*
X148650001Y-115625000D01*
X147749999Y-115625000D01*
X147725495Y-115623796D01*
X147701227Y-115620196D01*
X147677428Y-115614235D01*
X147654329Y-115605970D01*
X147632150Y-115595480D01*
X147611107Y-115582868D01*
X147591401Y-115568253D01*
X147573223Y-115551777D01*
X147556747Y-115533599D01*
X147542132Y-115513893D01*
X147529520Y-115492850D01*
X147519030Y-115470671D01*
X147510765Y-115447572D01*
X147504804Y-115423773D01*
X147501204Y-115399505D01*
X147500000Y-115375001D01*
X147500000Y-114724999D01*
X147501204Y-114700495D01*
X147504804Y-114676227D01*
X147510765Y-114652428D01*
X147519030Y-114629329D01*
X147529520Y-114607150D01*
X147542132Y-114586107D01*
X147556747Y-114566401D01*
X147573223Y-114548223D01*
X147591401Y-114531747D01*
X147611107Y-114517132D01*
X147632150Y-114504520D01*
X147654329Y-114494030D01*
X147677428Y-114485765D01*
X147701227Y-114479804D01*
X147725495Y-114476204D01*
X147749999Y-114475000D01*
X148650001Y-114475000D01*
X148674505Y-114476204D01*
X148674505Y-114476204D01*
G37*
D11*
X148200000Y-115050000D03*
D10*
G36*
X157599505Y-118701204D02*
G01*
X157623773Y-118704804D01*
X157647572Y-118710765D01*
X157670671Y-118719030D01*
X157692850Y-118729520D01*
X157713893Y-118742132D01*
X157733599Y-118756747D01*
X157751777Y-118773223D01*
X157768253Y-118791401D01*
X157782868Y-118811107D01*
X157795480Y-118832150D01*
X157805970Y-118854329D01*
X157814235Y-118877428D01*
X157820196Y-118901227D01*
X157823796Y-118925495D01*
X157825000Y-118949999D01*
X157825000Y-119600001D01*
X157823796Y-119624505D01*
X157820196Y-119648773D01*
X157814235Y-119672572D01*
X157805970Y-119695671D01*
X157795480Y-119717850D01*
X157782868Y-119738893D01*
X157768253Y-119758599D01*
X157751777Y-119776777D01*
X157733599Y-119793253D01*
X157713893Y-119807868D01*
X157692850Y-119820480D01*
X157670671Y-119830970D01*
X157647572Y-119839235D01*
X157623773Y-119845196D01*
X157599505Y-119848796D01*
X157575001Y-119850000D01*
X156674999Y-119850000D01*
X156650495Y-119848796D01*
X156626227Y-119845196D01*
X156602428Y-119839235D01*
X156579329Y-119830970D01*
X156557150Y-119820480D01*
X156536107Y-119807868D01*
X156516401Y-119793253D01*
X156498223Y-119776777D01*
X156481747Y-119758599D01*
X156467132Y-119738893D01*
X156454520Y-119717850D01*
X156444030Y-119695671D01*
X156435765Y-119672572D01*
X156429804Y-119648773D01*
X156426204Y-119624505D01*
X156425000Y-119600001D01*
X156425000Y-118949999D01*
X156426204Y-118925495D01*
X156429804Y-118901227D01*
X156435765Y-118877428D01*
X156444030Y-118854329D01*
X156454520Y-118832150D01*
X156467132Y-118811107D01*
X156481747Y-118791401D01*
X156498223Y-118773223D01*
X156516401Y-118756747D01*
X156536107Y-118742132D01*
X156557150Y-118729520D01*
X156579329Y-118719030D01*
X156602428Y-118710765D01*
X156626227Y-118704804D01*
X156650495Y-118701204D01*
X156674999Y-118700000D01*
X157575001Y-118700000D01*
X157599505Y-118701204D01*
X157599505Y-118701204D01*
G37*
D11*
X157125000Y-119275000D03*
D10*
G36*
X157599505Y-116651204D02*
G01*
X157623773Y-116654804D01*
X157647572Y-116660765D01*
X157670671Y-116669030D01*
X157692850Y-116679520D01*
X157713893Y-116692132D01*
X157733599Y-116706747D01*
X157751777Y-116723223D01*
X157768253Y-116741401D01*
X157782868Y-116761107D01*
X157795480Y-116782150D01*
X157805970Y-116804329D01*
X157814235Y-116827428D01*
X157820196Y-116851227D01*
X157823796Y-116875495D01*
X157825000Y-116899999D01*
X157825000Y-117550001D01*
X157823796Y-117574505D01*
X157820196Y-117598773D01*
X157814235Y-117622572D01*
X157805970Y-117645671D01*
X157795480Y-117667850D01*
X157782868Y-117688893D01*
X157768253Y-117708599D01*
X157751777Y-117726777D01*
X157733599Y-117743253D01*
X157713893Y-117757868D01*
X157692850Y-117770480D01*
X157670671Y-117780970D01*
X157647572Y-117789235D01*
X157623773Y-117795196D01*
X157599505Y-117798796D01*
X157575001Y-117800000D01*
X156674999Y-117800000D01*
X156650495Y-117798796D01*
X156626227Y-117795196D01*
X156602428Y-117789235D01*
X156579329Y-117780970D01*
X156557150Y-117770480D01*
X156536107Y-117757868D01*
X156516401Y-117743253D01*
X156498223Y-117726777D01*
X156481747Y-117708599D01*
X156467132Y-117688893D01*
X156454520Y-117667850D01*
X156444030Y-117645671D01*
X156435765Y-117622572D01*
X156429804Y-117598773D01*
X156426204Y-117574505D01*
X156425000Y-117550001D01*
X156425000Y-116899999D01*
X156426204Y-116875495D01*
X156429804Y-116851227D01*
X156435765Y-116827428D01*
X156444030Y-116804329D01*
X156454520Y-116782150D01*
X156467132Y-116761107D01*
X156481747Y-116741401D01*
X156498223Y-116723223D01*
X156516401Y-116706747D01*
X156536107Y-116692132D01*
X156557150Y-116679520D01*
X156579329Y-116669030D01*
X156602428Y-116660765D01*
X156626227Y-116654804D01*
X156650495Y-116651204D01*
X156674999Y-116650000D01*
X157575001Y-116650000D01*
X157599505Y-116651204D01*
X157599505Y-116651204D01*
G37*
D11*
X157125000Y-117225000D03*
D10*
G36*
X162599505Y-118726204D02*
G01*
X162623773Y-118729804D01*
X162647572Y-118735765D01*
X162670671Y-118744030D01*
X162692850Y-118754520D01*
X162713893Y-118767132D01*
X162733599Y-118781747D01*
X162751777Y-118798223D01*
X162768253Y-118816401D01*
X162782868Y-118836107D01*
X162795480Y-118857150D01*
X162805970Y-118879329D01*
X162814235Y-118902428D01*
X162820196Y-118926227D01*
X162823796Y-118950495D01*
X162825000Y-118974999D01*
X162825000Y-119625001D01*
X162823796Y-119649505D01*
X162820196Y-119673773D01*
X162814235Y-119697572D01*
X162805970Y-119720671D01*
X162795480Y-119742850D01*
X162782868Y-119763893D01*
X162768253Y-119783599D01*
X162751777Y-119801777D01*
X162733599Y-119818253D01*
X162713893Y-119832868D01*
X162692850Y-119845480D01*
X162670671Y-119855970D01*
X162647572Y-119864235D01*
X162623773Y-119870196D01*
X162599505Y-119873796D01*
X162575001Y-119875000D01*
X161674999Y-119875000D01*
X161650495Y-119873796D01*
X161626227Y-119870196D01*
X161602428Y-119864235D01*
X161579329Y-119855970D01*
X161557150Y-119845480D01*
X161536107Y-119832868D01*
X161516401Y-119818253D01*
X161498223Y-119801777D01*
X161481747Y-119783599D01*
X161467132Y-119763893D01*
X161454520Y-119742850D01*
X161444030Y-119720671D01*
X161435765Y-119697572D01*
X161429804Y-119673773D01*
X161426204Y-119649505D01*
X161425000Y-119625001D01*
X161425000Y-118974999D01*
X161426204Y-118950495D01*
X161429804Y-118926227D01*
X161435765Y-118902428D01*
X161444030Y-118879329D01*
X161454520Y-118857150D01*
X161467132Y-118836107D01*
X161481747Y-118816401D01*
X161498223Y-118798223D01*
X161516401Y-118781747D01*
X161536107Y-118767132D01*
X161557150Y-118754520D01*
X161579329Y-118744030D01*
X161602428Y-118735765D01*
X161626227Y-118729804D01*
X161650495Y-118726204D01*
X161674999Y-118725000D01*
X162575001Y-118725000D01*
X162599505Y-118726204D01*
X162599505Y-118726204D01*
G37*
D11*
X162125000Y-119300000D03*
D10*
G36*
X162599505Y-116676204D02*
G01*
X162623773Y-116679804D01*
X162647572Y-116685765D01*
X162670671Y-116694030D01*
X162692850Y-116704520D01*
X162713893Y-116717132D01*
X162733599Y-116731747D01*
X162751777Y-116748223D01*
X162768253Y-116766401D01*
X162782868Y-116786107D01*
X162795480Y-116807150D01*
X162805970Y-116829329D01*
X162814235Y-116852428D01*
X162820196Y-116876227D01*
X162823796Y-116900495D01*
X162825000Y-116924999D01*
X162825000Y-117575001D01*
X162823796Y-117599505D01*
X162820196Y-117623773D01*
X162814235Y-117647572D01*
X162805970Y-117670671D01*
X162795480Y-117692850D01*
X162782868Y-117713893D01*
X162768253Y-117733599D01*
X162751777Y-117751777D01*
X162733599Y-117768253D01*
X162713893Y-117782868D01*
X162692850Y-117795480D01*
X162670671Y-117805970D01*
X162647572Y-117814235D01*
X162623773Y-117820196D01*
X162599505Y-117823796D01*
X162575001Y-117825000D01*
X161674999Y-117825000D01*
X161650495Y-117823796D01*
X161626227Y-117820196D01*
X161602428Y-117814235D01*
X161579329Y-117805970D01*
X161557150Y-117795480D01*
X161536107Y-117782868D01*
X161516401Y-117768253D01*
X161498223Y-117751777D01*
X161481747Y-117733599D01*
X161467132Y-117713893D01*
X161454520Y-117692850D01*
X161444030Y-117670671D01*
X161435765Y-117647572D01*
X161429804Y-117623773D01*
X161426204Y-117599505D01*
X161425000Y-117575001D01*
X161425000Y-116924999D01*
X161426204Y-116900495D01*
X161429804Y-116876227D01*
X161435765Y-116852428D01*
X161444030Y-116829329D01*
X161454520Y-116807150D01*
X161467132Y-116786107D01*
X161481747Y-116766401D01*
X161498223Y-116748223D01*
X161516401Y-116731747D01*
X161536107Y-116717132D01*
X161557150Y-116704520D01*
X161579329Y-116694030D01*
X161602428Y-116685765D01*
X161626227Y-116679804D01*
X161650495Y-116676204D01*
X161674999Y-116675000D01*
X162575001Y-116675000D01*
X162599505Y-116676204D01*
X162599505Y-116676204D01*
G37*
D11*
X162125000Y-117250000D03*
D10*
G36*
X170049505Y-118726204D02*
G01*
X170073773Y-118729804D01*
X170097572Y-118735765D01*
X170120671Y-118744030D01*
X170142850Y-118754520D01*
X170163893Y-118767132D01*
X170183599Y-118781747D01*
X170201777Y-118798223D01*
X170218253Y-118816401D01*
X170232868Y-118836107D01*
X170245480Y-118857150D01*
X170255970Y-118879329D01*
X170264235Y-118902428D01*
X170270196Y-118926227D01*
X170273796Y-118950495D01*
X170275000Y-118974999D01*
X170275000Y-119625001D01*
X170273796Y-119649505D01*
X170270196Y-119673773D01*
X170264235Y-119697572D01*
X170255970Y-119720671D01*
X170245480Y-119742850D01*
X170232868Y-119763893D01*
X170218253Y-119783599D01*
X170201777Y-119801777D01*
X170183599Y-119818253D01*
X170163893Y-119832868D01*
X170142850Y-119845480D01*
X170120671Y-119855970D01*
X170097572Y-119864235D01*
X170073773Y-119870196D01*
X170049505Y-119873796D01*
X170025001Y-119875000D01*
X169124999Y-119875000D01*
X169100495Y-119873796D01*
X169076227Y-119870196D01*
X169052428Y-119864235D01*
X169029329Y-119855970D01*
X169007150Y-119845480D01*
X168986107Y-119832868D01*
X168966401Y-119818253D01*
X168948223Y-119801777D01*
X168931747Y-119783599D01*
X168917132Y-119763893D01*
X168904520Y-119742850D01*
X168894030Y-119720671D01*
X168885765Y-119697572D01*
X168879804Y-119673773D01*
X168876204Y-119649505D01*
X168875000Y-119625001D01*
X168875000Y-118974999D01*
X168876204Y-118950495D01*
X168879804Y-118926227D01*
X168885765Y-118902428D01*
X168894030Y-118879329D01*
X168904520Y-118857150D01*
X168917132Y-118836107D01*
X168931747Y-118816401D01*
X168948223Y-118798223D01*
X168966401Y-118781747D01*
X168986107Y-118767132D01*
X169007150Y-118754520D01*
X169029329Y-118744030D01*
X169052428Y-118735765D01*
X169076227Y-118729804D01*
X169100495Y-118726204D01*
X169124999Y-118725000D01*
X170025001Y-118725000D01*
X170049505Y-118726204D01*
X170049505Y-118726204D01*
G37*
D11*
X169575000Y-119300000D03*
D10*
G36*
X170049505Y-116676204D02*
G01*
X170073773Y-116679804D01*
X170097572Y-116685765D01*
X170120671Y-116694030D01*
X170142850Y-116704520D01*
X170163893Y-116717132D01*
X170183599Y-116731747D01*
X170201777Y-116748223D01*
X170218253Y-116766401D01*
X170232868Y-116786107D01*
X170245480Y-116807150D01*
X170255970Y-116829329D01*
X170264235Y-116852428D01*
X170270196Y-116876227D01*
X170273796Y-116900495D01*
X170275000Y-116924999D01*
X170275000Y-117575001D01*
X170273796Y-117599505D01*
X170270196Y-117623773D01*
X170264235Y-117647572D01*
X170255970Y-117670671D01*
X170245480Y-117692850D01*
X170232868Y-117713893D01*
X170218253Y-117733599D01*
X170201777Y-117751777D01*
X170183599Y-117768253D01*
X170163893Y-117782868D01*
X170142850Y-117795480D01*
X170120671Y-117805970D01*
X170097572Y-117814235D01*
X170073773Y-117820196D01*
X170049505Y-117823796D01*
X170025001Y-117825000D01*
X169124999Y-117825000D01*
X169100495Y-117823796D01*
X169076227Y-117820196D01*
X169052428Y-117814235D01*
X169029329Y-117805970D01*
X169007150Y-117795480D01*
X168986107Y-117782868D01*
X168966401Y-117768253D01*
X168948223Y-117751777D01*
X168931747Y-117733599D01*
X168917132Y-117713893D01*
X168904520Y-117692850D01*
X168894030Y-117670671D01*
X168885765Y-117647572D01*
X168879804Y-117623773D01*
X168876204Y-117599505D01*
X168875000Y-117575001D01*
X168875000Y-116924999D01*
X168876204Y-116900495D01*
X168879804Y-116876227D01*
X168885765Y-116852428D01*
X168894030Y-116829329D01*
X168904520Y-116807150D01*
X168917132Y-116786107D01*
X168931747Y-116766401D01*
X168948223Y-116748223D01*
X168966401Y-116731747D01*
X168986107Y-116717132D01*
X169007150Y-116704520D01*
X169029329Y-116694030D01*
X169052428Y-116685765D01*
X169076227Y-116679804D01*
X169100495Y-116676204D01*
X169124999Y-116675000D01*
X170025001Y-116675000D01*
X170049505Y-116676204D01*
X170049505Y-116676204D01*
G37*
D11*
X169575000Y-117250000D03*
D10*
G36*
X165074505Y-116676204D02*
G01*
X165098773Y-116679804D01*
X165122572Y-116685765D01*
X165145671Y-116694030D01*
X165167850Y-116704520D01*
X165188893Y-116717132D01*
X165208599Y-116731747D01*
X165226777Y-116748223D01*
X165243253Y-116766401D01*
X165257868Y-116786107D01*
X165270480Y-116807150D01*
X165280970Y-116829329D01*
X165289235Y-116852428D01*
X165295196Y-116876227D01*
X165298796Y-116900495D01*
X165300000Y-116924999D01*
X165300000Y-117575001D01*
X165298796Y-117599505D01*
X165295196Y-117623773D01*
X165289235Y-117647572D01*
X165280970Y-117670671D01*
X165270480Y-117692850D01*
X165257868Y-117713893D01*
X165243253Y-117733599D01*
X165226777Y-117751777D01*
X165208599Y-117768253D01*
X165188893Y-117782868D01*
X165167850Y-117795480D01*
X165145671Y-117805970D01*
X165122572Y-117814235D01*
X165098773Y-117820196D01*
X165074505Y-117823796D01*
X165050001Y-117825000D01*
X164149999Y-117825000D01*
X164125495Y-117823796D01*
X164101227Y-117820196D01*
X164077428Y-117814235D01*
X164054329Y-117805970D01*
X164032150Y-117795480D01*
X164011107Y-117782868D01*
X163991401Y-117768253D01*
X163973223Y-117751777D01*
X163956747Y-117733599D01*
X163942132Y-117713893D01*
X163929520Y-117692850D01*
X163919030Y-117670671D01*
X163910765Y-117647572D01*
X163904804Y-117623773D01*
X163901204Y-117599505D01*
X163900000Y-117575001D01*
X163900000Y-116924999D01*
X163901204Y-116900495D01*
X163904804Y-116876227D01*
X163910765Y-116852428D01*
X163919030Y-116829329D01*
X163929520Y-116807150D01*
X163942132Y-116786107D01*
X163956747Y-116766401D01*
X163973223Y-116748223D01*
X163991401Y-116731747D01*
X164011107Y-116717132D01*
X164032150Y-116704520D01*
X164054329Y-116694030D01*
X164077428Y-116685765D01*
X164101227Y-116679804D01*
X164125495Y-116676204D01*
X164149999Y-116675000D01*
X165050001Y-116675000D01*
X165074505Y-116676204D01*
X165074505Y-116676204D01*
G37*
D11*
X164600000Y-117250000D03*
D10*
G36*
X165074505Y-118726204D02*
G01*
X165098773Y-118729804D01*
X165122572Y-118735765D01*
X165145671Y-118744030D01*
X165167850Y-118754520D01*
X165188893Y-118767132D01*
X165208599Y-118781747D01*
X165226777Y-118798223D01*
X165243253Y-118816401D01*
X165257868Y-118836107D01*
X165270480Y-118857150D01*
X165280970Y-118879329D01*
X165289235Y-118902428D01*
X165295196Y-118926227D01*
X165298796Y-118950495D01*
X165300000Y-118974999D01*
X165300000Y-119625001D01*
X165298796Y-119649505D01*
X165295196Y-119673773D01*
X165289235Y-119697572D01*
X165280970Y-119720671D01*
X165270480Y-119742850D01*
X165257868Y-119763893D01*
X165243253Y-119783599D01*
X165226777Y-119801777D01*
X165208599Y-119818253D01*
X165188893Y-119832868D01*
X165167850Y-119845480D01*
X165145671Y-119855970D01*
X165122572Y-119864235D01*
X165098773Y-119870196D01*
X165074505Y-119873796D01*
X165050001Y-119875000D01*
X164149999Y-119875000D01*
X164125495Y-119873796D01*
X164101227Y-119870196D01*
X164077428Y-119864235D01*
X164054329Y-119855970D01*
X164032150Y-119845480D01*
X164011107Y-119832868D01*
X163991401Y-119818253D01*
X163973223Y-119801777D01*
X163956747Y-119783599D01*
X163942132Y-119763893D01*
X163929520Y-119742850D01*
X163919030Y-119720671D01*
X163910765Y-119697572D01*
X163904804Y-119673773D01*
X163901204Y-119649505D01*
X163900000Y-119625001D01*
X163900000Y-118974999D01*
X163901204Y-118950495D01*
X163904804Y-118926227D01*
X163910765Y-118902428D01*
X163919030Y-118879329D01*
X163929520Y-118857150D01*
X163942132Y-118836107D01*
X163956747Y-118816401D01*
X163973223Y-118798223D01*
X163991401Y-118781747D01*
X164011107Y-118767132D01*
X164032150Y-118754520D01*
X164054329Y-118744030D01*
X164077428Y-118735765D01*
X164101227Y-118729804D01*
X164125495Y-118726204D01*
X164149999Y-118725000D01*
X165050001Y-118725000D01*
X165074505Y-118726204D01*
X165074505Y-118726204D01*
G37*
D11*
X164600000Y-119300000D03*
D10*
G36*
X160074505Y-116676204D02*
G01*
X160098773Y-116679804D01*
X160122572Y-116685765D01*
X160145671Y-116694030D01*
X160167850Y-116704520D01*
X160188893Y-116717132D01*
X160208599Y-116731747D01*
X160226777Y-116748223D01*
X160243253Y-116766401D01*
X160257868Y-116786107D01*
X160270480Y-116807150D01*
X160280970Y-116829329D01*
X160289235Y-116852428D01*
X160295196Y-116876227D01*
X160298796Y-116900495D01*
X160300000Y-116924999D01*
X160300000Y-117575001D01*
X160298796Y-117599505D01*
X160295196Y-117623773D01*
X160289235Y-117647572D01*
X160280970Y-117670671D01*
X160270480Y-117692850D01*
X160257868Y-117713893D01*
X160243253Y-117733599D01*
X160226777Y-117751777D01*
X160208599Y-117768253D01*
X160188893Y-117782868D01*
X160167850Y-117795480D01*
X160145671Y-117805970D01*
X160122572Y-117814235D01*
X160098773Y-117820196D01*
X160074505Y-117823796D01*
X160050001Y-117825000D01*
X159149999Y-117825000D01*
X159125495Y-117823796D01*
X159101227Y-117820196D01*
X159077428Y-117814235D01*
X159054329Y-117805970D01*
X159032150Y-117795480D01*
X159011107Y-117782868D01*
X158991401Y-117768253D01*
X158973223Y-117751777D01*
X158956747Y-117733599D01*
X158942132Y-117713893D01*
X158929520Y-117692850D01*
X158919030Y-117670671D01*
X158910765Y-117647572D01*
X158904804Y-117623773D01*
X158901204Y-117599505D01*
X158900000Y-117575001D01*
X158900000Y-116924999D01*
X158901204Y-116900495D01*
X158904804Y-116876227D01*
X158910765Y-116852428D01*
X158919030Y-116829329D01*
X158929520Y-116807150D01*
X158942132Y-116786107D01*
X158956747Y-116766401D01*
X158973223Y-116748223D01*
X158991401Y-116731747D01*
X159011107Y-116717132D01*
X159032150Y-116704520D01*
X159054329Y-116694030D01*
X159077428Y-116685765D01*
X159101227Y-116679804D01*
X159125495Y-116676204D01*
X159149999Y-116675000D01*
X160050001Y-116675000D01*
X160074505Y-116676204D01*
X160074505Y-116676204D01*
G37*
D11*
X159600000Y-117250000D03*
D10*
G36*
X160074505Y-118726204D02*
G01*
X160098773Y-118729804D01*
X160122572Y-118735765D01*
X160145671Y-118744030D01*
X160167850Y-118754520D01*
X160188893Y-118767132D01*
X160208599Y-118781747D01*
X160226777Y-118798223D01*
X160243253Y-118816401D01*
X160257868Y-118836107D01*
X160270480Y-118857150D01*
X160280970Y-118879329D01*
X160289235Y-118902428D01*
X160295196Y-118926227D01*
X160298796Y-118950495D01*
X160300000Y-118974999D01*
X160300000Y-119625001D01*
X160298796Y-119649505D01*
X160295196Y-119673773D01*
X160289235Y-119697572D01*
X160280970Y-119720671D01*
X160270480Y-119742850D01*
X160257868Y-119763893D01*
X160243253Y-119783599D01*
X160226777Y-119801777D01*
X160208599Y-119818253D01*
X160188893Y-119832868D01*
X160167850Y-119845480D01*
X160145671Y-119855970D01*
X160122572Y-119864235D01*
X160098773Y-119870196D01*
X160074505Y-119873796D01*
X160050001Y-119875000D01*
X159149999Y-119875000D01*
X159125495Y-119873796D01*
X159101227Y-119870196D01*
X159077428Y-119864235D01*
X159054329Y-119855970D01*
X159032150Y-119845480D01*
X159011107Y-119832868D01*
X158991401Y-119818253D01*
X158973223Y-119801777D01*
X158956747Y-119783599D01*
X158942132Y-119763893D01*
X158929520Y-119742850D01*
X158919030Y-119720671D01*
X158910765Y-119697572D01*
X158904804Y-119673773D01*
X158901204Y-119649505D01*
X158900000Y-119625001D01*
X158900000Y-118974999D01*
X158901204Y-118950495D01*
X158904804Y-118926227D01*
X158910765Y-118902428D01*
X158919030Y-118879329D01*
X158929520Y-118857150D01*
X158942132Y-118836107D01*
X158956747Y-118816401D01*
X158973223Y-118798223D01*
X158991401Y-118781747D01*
X159011107Y-118767132D01*
X159032150Y-118754520D01*
X159054329Y-118744030D01*
X159077428Y-118735765D01*
X159101227Y-118729804D01*
X159125495Y-118726204D01*
X159149999Y-118725000D01*
X160050001Y-118725000D01*
X160074505Y-118726204D01*
X160074505Y-118726204D01*
G37*
D11*
X159600000Y-119300000D03*
D10*
G36*
X121174505Y-95901204D02*
G01*
X121198773Y-95904804D01*
X121222572Y-95910765D01*
X121245671Y-95919030D01*
X121267850Y-95929520D01*
X121288893Y-95942132D01*
X121308599Y-95956747D01*
X121326777Y-95973223D01*
X121343253Y-95991401D01*
X121357868Y-96011107D01*
X121370480Y-96032150D01*
X121380970Y-96054329D01*
X121389235Y-96077428D01*
X121395196Y-96101227D01*
X121398796Y-96125495D01*
X121400000Y-96149999D01*
X121400000Y-96800001D01*
X121398796Y-96824505D01*
X121395196Y-96848773D01*
X121389235Y-96872572D01*
X121380970Y-96895671D01*
X121370480Y-96917850D01*
X121357868Y-96938893D01*
X121343253Y-96958599D01*
X121326777Y-96976777D01*
X121308599Y-96993253D01*
X121288893Y-97007868D01*
X121267850Y-97020480D01*
X121245671Y-97030970D01*
X121222572Y-97039235D01*
X121198773Y-97045196D01*
X121174505Y-97048796D01*
X121150001Y-97050000D01*
X120249999Y-97050000D01*
X120225495Y-97048796D01*
X120201227Y-97045196D01*
X120177428Y-97039235D01*
X120154329Y-97030970D01*
X120132150Y-97020480D01*
X120111107Y-97007868D01*
X120091401Y-96993253D01*
X120073223Y-96976777D01*
X120056747Y-96958599D01*
X120042132Y-96938893D01*
X120029520Y-96917850D01*
X120019030Y-96895671D01*
X120010765Y-96872572D01*
X120004804Y-96848773D01*
X120001204Y-96824505D01*
X120000000Y-96800001D01*
X120000000Y-96149999D01*
X120001204Y-96125495D01*
X120004804Y-96101227D01*
X120010765Y-96077428D01*
X120019030Y-96054329D01*
X120029520Y-96032150D01*
X120042132Y-96011107D01*
X120056747Y-95991401D01*
X120073223Y-95973223D01*
X120091401Y-95956747D01*
X120111107Y-95942132D01*
X120132150Y-95929520D01*
X120154329Y-95919030D01*
X120177428Y-95910765D01*
X120201227Y-95904804D01*
X120225495Y-95901204D01*
X120249999Y-95900000D01*
X121150001Y-95900000D01*
X121174505Y-95901204D01*
X121174505Y-95901204D01*
G37*
D11*
X120700000Y-96475000D03*
D10*
G36*
X121174505Y-97951204D02*
G01*
X121198773Y-97954804D01*
X121222572Y-97960765D01*
X121245671Y-97969030D01*
X121267850Y-97979520D01*
X121288893Y-97992132D01*
X121308599Y-98006747D01*
X121326777Y-98023223D01*
X121343253Y-98041401D01*
X121357868Y-98061107D01*
X121370480Y-98082150D01*
X121380970Y-98104329D01*
X121389235Y-98127428D01*
X121395196Y-98151227D01*
X121398796Y-98175495D01*
X121400000Y-98199999D01*
X121400000Y-98850001D01*
X121398796Y-98874505D01*
X121395196Y-98898773D01*
X121389235Y-98922572D01*
X121380970Y-98945671D01*
X121370480Y-98967850D01*
X121357868Y-98988893D01*
X121343253Y-99008599D01*
X121326777Y-99026777D01*
X121308599Y-99043253D01*
X121288893Y-99057868D01*
X121267850Y-99070480D01*
X121245671Y-99080970D01*
X121222572Y-99089235D01*
X121198773Y-99095196D01*
X121174505Y-99098796D01*
X121150001Y-99100000D01*
X120249999Y-99100000D01*
X120225495Y-99098796D01*
X120201227Y-99095196D01*
X120177428Y-99089235D01*
X120154329Y-99080970D01*
X120132150Y-99070480D01*
X120111107Y-99057868D01*
X120091401Y-99043253D01*
X120073223Y-99026777D01*
X120056747Y-99008599D01*
X120042132Y-98988893D01*
X120029520Y-98967850D01*
X120019030Y-98945671D01*
X120010765Y-98922572D01*
X120004804Y-98898773D01*
X120001204Y-98874505D01*
X120000000Y-98850001D01*
X120000000Y-98199999D01*
X120001204Y-98175495D01*
X120004804Y-98151227D01*
X120010765Y-98127428D01*
X120019030Y-98104329D01*
X120029520Y-98082150D01*
X120042132Y-98061107D01*
X120056747Y-98041401D01*
X120073223Y-98023223D01*
X120091401Y-98006747D01*
X120111107Y-97992132D01*
X120132150Y-97979520D01*
X120154329Y-97969030D01*
X120177428Y-97960765D01*
X120201227Y-97954804D01*
X120225495Y-97951204D01*
X120249999Y-97950000D01*
X121150001Y-97950000D01*
X121174505Y-97951204D01*
X121174505Y-97951204D01*
G37*
D11*
X120700000Y-98525000D03*
D10*
G36*
X126174505Y-95901204D02*
G01*
X126198773Y-95904804D01*
X126222572Y-95910765D01*
X126245671Y-95919030D01*
X126267850Y-95929520D01*
X126288893Y-95942132D01*
X126308599Y-95956747D01*
X126326777Y-95973223D01*
X126343253Y-95991401D01*
X126357868Y-96011107D01*
X126370480Y-96032150D01*
X126380970Y-96054329D01*
X126389235Y-96077428D01*
X126395196Y-96101227D01*
X126398796Y-96125495D01*
X126400000Y-96149999D01*
X126400000Y-96800001D01*
X126398796Y-96824505D01*
X126395196Y-96848773D01*
X126389235Y-96872572D01*
X126380970Y-96895671D01*
X126370480Y-96917850D01*
X126357868Y-96938893D01*
X126343253Y-96958599D01*
X126326777Y-96976777D01*
X126308599Y-96993253D01*
X126288893Y-97007868D01*
X126267850Y-97020480D01*
X126245671Y-97030970D01*
X126222572Y-97039235D01*
X126198773Y-97045196D01*
X126174505Y-97048796D01*
X126150001Y-97050000D01*
X125249999Y-97050000D01*
X125225495Y-97048796D01*
X125201227Y-97045196D01*
X125177428Y-97039235D01*
X125154329Y-97030970D01*
X125132150Y-97020480D01*
X125111107Y-97007868D01*
X125091401Y-96993253D01*
X125073223Y-96976777D01*
X125056747Y-96958599D01*
X125042132Y-96938893D01*
X125029520Y-96917850D01*
X125019030Y-96895671D01*
X125010765Y-96872572D01*
X125004804Y-96848773D01*
X125001204Y-96824505D01*
X125000000Y-96800001D01*
X125000000Y-96149999D01*
X125001204Y-96125495D01*
X125004804Y-96101227D01*
X125010765Y-96077428D01*
X125019030Y-96054329D01*
X125029520Y-96032150D01*
X125042132Y-96011107D01*
X125056747Y-95991401D01*
X125073223Y-95973223D01*
X125091401Y-95956747D01*
X125111107Y-95942132D01*
X125132150Y-95929520D01*
X125154329Y-95919030D01*
X125177428Y-95910765D01*
X125201227Y-95904804D01*
X125225495Y-95901204D01*
X125249999Y-95900000D01*
X126150001Y-95900000D01*
X126174505Y-95901204D01*
X126174505Y-95901204D01*
G37*
D11*
X125700000Y-96475000D03*
D10*
G36*
X126174505Y-97951204D02*
G01*
X126198773Y-97954804D01*
X126222572Y-97960765D01*
X126245671Y-97969030D01*
X126267850Y-97979520D01*
X126288893Y-97992132D01*
X126308599Y-98006747D01*
X126326777Y-98023223D01*
X126343253Y-98041401D01*
X126357868Y-98061107D01*
X126370480Y-98082150D01*
X126380970Y-98104329D01*
X126389235Y-98127428D01*
X126395196Y-98151227D01*
X126398796Y-98175495D01*
X126400000Y-98199999D01*
X126400000Y-98850001D01*
X126398796Y-98874505D01*
X126395196Y-98898773D01*
X126389235Y-98922572D01*
X126380970Y-98945671D01*
X126370480Y-98967850D01*
X126357868Y-98988893D01*
X126343253Y-99008599D01*
X126326777Y-99026777D01*
X126308599Y-99043253D01*
X126288893Y-99057868D01*
X126267850Y-99070480D01*
X126245671Y-99080970D01*
X126222572Y-99089235D01*
X126198773Y-99095196D01*
X126174505Y-99098796D01*
X126150001Y-99100000D01*
X125249999Y-99100000D01*
X125225495Y-99098796D01*
X125201227Y-99095196D01*
X125177428Y-99089235D01*
X125154329Y-99080970D01*
X125132150Y-99070480D01*
X125111107Y-99057868D01*
X125091401Y-99043253D01*
X125073223Y-99026777D01*
X125056747Y-99008599D01*
X125042132Y-98988893D01*
X125029520Y-98967850D01*
X125019030Y-98945671D01*
X125010765Y-98922572D01*
X125004804Y-98898773D01*
X125001204Y-98874505D01*
X125000000Y-98850001D01*
X125000000Y-98199999D01*
X125001204Y-98175495D01*
X125004804Y-98151227D01*
X125010765Y-98127428D01*
X125019030Y-98104329D01*
X125029520Y-98082150D01*
X125042132Y-98061107D01*
X125056747Y-98041401D01*
X125073223Y-98023223D01*
X125091401Y-98006747D01*
X125111107Y-97992132D01*
X125132150Y-97979520D01*
X125154329Y-97969030D01*
X125177428Y-97960765D01*
X125201227Y-97954804D01*
X125225495Y-97951204D01*
X125249999Y-97950000D01*
X126150001Y-97950000D01*
X126174505Y-97951204D01*
X126174505Y-97951204D01*
G37*
D11*
X125700000Y-98525000D03*
D10*
G36*
X158074505Y-64876204D02*
G01*
X158098773Y-64879804D01*
X158122572Y-64885765D01*
X158145671Y-64894030D01*
X158167850Y-64904520D01*
X158188893Y-64917132D01*
X158208599Y-64931747D01*
X158226777Y-64948223D01*
X158243253Y-64966401D01*
X158257868Y-64986107D01*
X158270480Y-65007150D01*
X158280970Y-65029329D01*
X158289235Y-65052428D01*
X158295196Y-65076227D01*
X158298796Y-65100495D01*
X158300000Y-65124999D01*
X158300000Y-65775001D01*
X158298796Y-65799505D01*
X158295196Y-65823773D01*
X158289235Y-65847572D01*
X158280970Y-65870671D01*
X158270480Y-65892850D01*
X158257868Y-65913893D01*
X158243253Y-65933599D01*
X158226777Y-65951777D01*
X158208599Y-65968253D01*
X158188893Y-65982868D01*
X158167850Y-65995480D01*
X158145671Y-66005970D01*
X158122572Y-66014235D01*
X158098773Y-66020196D01*
X158074505Y-66023796D01*
X158050001Y-66025000D01*
X157149999Y-66025000D01*
X157125495Y-66023796D01*
X157101227Y-66020196D01*
X157077428Y-66014235D01*
X157054329Y-66005970D01*
X157032150Y-65995480D01*
X157011107Y-65982868D01*
X156991401Y-65968253D01*
X156973223Y-65951777D01*
X156956747Y-65933599D01*
X156942132Y-65913893D01*
X156929520Y-65892850D01*
X156919030Y-65870671D01*
X156910765Y-65847572D01*
X156904804Y-65823773D01*
X156901204Y-65799505D01*
X156900000Y-65775001D01*
X156900000Y-65124999D01*
X156901204Y-65100495D01*
X156904804Y-65076227D01*
X156910765Y-65052428D01*
X156919030Y-65029329D01*
X156929520Y-65007150D01*
X156942132Y-64986107D01*
X156956747Y-64966401D01*
X156973223Y-64948223D01*
X156991401Y-64931747D01*
X157011107Y-64917132D01*
X157032150Y-64904520D01*
X157054329Y-64894030D01*
X157077428Y-64885765D01*
X157101227Y-64879804D01*
X157125495Y-64876204D01*
X157149999Y-64875000D01*
X158050001Y-64875000D01*
X158074505Y-64876204D01*
X158074505Y-64876204D01*
G37*
D11*
X157600000Y-65450000D03*
D10*
G36*
X158074505Y-62826204D02*
G01*
X158098773Y-62829804D01*
X158122572Y-62835765D01*
X158145671Y-62844030D01*
X158167850Y-62854520D01*
X158188893Y-62867132D01*
X158208599Y-62881747D01*
X158226777Y-62898223D01*
X158243253Y-62916401D01*
X158257868Y-62936107D01*
X158270480Y-62957150D01*
X158280970Y-62979329D01*
X158289235Y-63002428D01*
X158295196Y-63026227D01*
X158298796Y-63050495D01*
X158300000Y-63074999D01*
X158300000Y-63725001D01*
X158298796Y-63749505D01*
X158295196Y-63773773D01*
X158289235Y-63797572D01*
X158280970Y-63820671D01*
X158270480Y-63842850D01*
X158257868Y-63863893D01*
X158243253Y-63883599D01*
X158226777Y-63901777D01*
X158208599Y-63918253D01*
X158188893Y-63932868D01*
X158167850Y-63945480D01*
X158145671Y-63955970D01*
X158122572Y-63964235D01*
X158098773Y-63970196D01*
X158074505Y-63973796D01*
X158050001Y-63975000D01*
X157149999Y-63975000D01*
X157125495Y-63973796D01*
X157101227Y-63970196D01*
X157077428Y-63964235D01*
X157054329Y-63955970D01*
X157032150Y-63945480D01*
X157011107Y-63932868D01*
X156991401Y-63918253D01*
X156973223Y-63901777D01*
X156956747Y-63883599D01*
X156942132Y-63863893D01*
X156929520Y-63842850D01*
X156919030Y-63820671D01*
X156910765Y-63797572D01*
X156904804Y-63773773D01*
X156901204Y-63749505D01*
X156900000Y-63725001D01*
X156900000Y-63074999D01*
X156901204Y-63050495D01*
X156904804Y-63026227D01*
X156910765Y-63002428D01*
X156919030Y-62979329D01*
X156929520Y-62957150D01*
X156942132Y-62936107D01*
X156956747Y-62916401D01*
X156973223Y-62898223D01*
X156991401Y-62881747D01*
X157011107Y-62867132D01*
X157032150Y-62854520D01*
X157054329Y-62844030D01*
X157077428Y-62835765D01*
X157101227Y-62829804D01*
X157125495Y-62826204D01*
X157149999Y-62825000D01*
X158050001Y-62825000D01*
X158074505Y-62826204D01*
X158074505Y-62826204D01*
G37*
D11*
X157600000Y-63400000D03*
D10*
G36*
X163074505Y-62826204D02*
G01*
X163098773Y-62829804D01*
X163122572Y-62835765D01*
X163145671Y-62844030D01*
X163167850Y-62854520D01*
X163188893Y-62867132D01*
X163208599Y-62881747D01*
X163226777Y-62898223D01*
X163243253Y-62916401D01*
X163257868Y-62936107D01*
X163270480Y-62957150D01*
X163280970Y-62979329D01*
X163289235Y-63002428D01*
X163295196Y-63026227D01*
X163298796Y-63050495D01*
X163300000Y-63074999D01*
X163300000Y-63725001D01*
X163298796Y-63749505D01*
X163295196Y-63773773D01*
X163289235Y-63797572D01*
X163280970Y-63820671D01*
X163270480Y-63842850D01*
X163257868Y-63863893D01*
X163243253Y-63883599D01*
X163226777Y-63901777D01*
X163208599Y-63918253D01*
X163188893Y-63932868D01*
X163167850Y-63945480D01*
X163145671Y-63955970D01*
X163122572Y-63964235D01*
X163098773Y-63970196D01*
X163074505Y-63973796D01*
X163050001Y-63975000D01*
X162149999Y-63975000D01*
X162125495Y-63973796D01*
X162101227Y-63970196D01*
X162077428Y-63964235D01*
X162054329Y-63955970D01*
X162032150Y-63945480D01*
X162011107Y-63932868D01*
X161991401Y-63918253D01*
X161973223Y-63901777D01*
X161956747Y-63883599D01*
X161942132Y-63863893D01*
X161929520Y-63842850D01*
X161919030Y-63820671D01*
X161910765Y-63797572D01*
X161904804Y-63773773D01*
X161901204Y-63749505D01*
X161900000Y-63725001D01*
X161900000Y-63074999D01*
X161901204Y-63050495D01*
X161904804Y-63026227D01*
X161910765Y-63002428D01*
X161919030Y-62979329D01*
X161929520Y-62957150D01*
X161942132Y-62936107D01*
X161956747Y-62916401D01*
X161973223Y-62898223D01*
X161991401Y-62881747D01*
X162011107Y-62867132D01*
X162032150Y-62854520D01*
X162054329Y-62844030D01*
X162077428Y-62835765D01*
X162101227Y-62829804D01*
X162125495Y-62826204D01*
X162149999Y-62825000D01*
X163050001Y-62825000D01*
X163074505Y-62826204D01*
X163074505Y-62826204D01*
G37*
D11*
X162600000Y-63400000D03*
D10*
G36*
X163074505Y-64876204D02*
G01*
X163098773Y-64879804D01*
X163122572Y-64885765D01*
X163145671Y-64894030D01*
X163167850Y-64904520D01*
X163188893Y-64917132D01*
X163208599Y-64931747D01*
X163226777Y-64948223D01*
X163243253Y-64966401D01*
X163257868Y-64986107D01*
X163270480Y-65007150D01*
X163280970Y-65029329D01*
X163289235Y-65052428D01*
X163295196Y-65076227D01*
X163298796Y-65100495D01*
X163300000Y-65124999D01*
X163300000Y-65775001D01*
X163298796Y-65799505D01*
X163295196Y-65823773D01*
X163289235Y-65847572D01*
X163280970Y-65870671D01*
X163270480Y-65892850D01*
X163257868Y-65913893D01*
X163243253Y-65933599D01*
X163226777Y-65951777D01*
X163208599Y-65968253D01*
X163188893Y-65982868D01*
X163167850Y-65995480D01*
X163145671Y-66005970D01*
X163122572Y-66014235D01*
X163098773Y-66020196D01*
X163074505Y-66023796D01*
X163050001Y-66025000D01*
X162149999Y-66025000D01*
X162125495Y-66023796D01*
X162101227Y-66020196D01*
X162077428Y-66014235D01*
X162054329Y-66005970D01*
X162032150Y-65995480D01*
X162011107Y-65982868D01*
X161991401Y-65968253D01*
X161973223Y-65951777D01*
X161956747Y-65933599D01*
X161942132Y-65913893D01*
X161929520Y-65892850D01*
X161919030Y-65870671D01*
X161910765Y-65847572D01*
X161904804Y-65823773D01*
X161901204Y-65799505D01*
X161900000Y-65775001D01*
X161900000Y-65124999D01*
X161901204Y-65100495D01*
X161904804Y-65076227D01*
X161910765Y-65052428D01*
X161919030Y-65029329D01*
X161929520Y-65007150D01*
X161942132Y-64986107D01*
X161956747Y-64966401D01*
X161973223Y-64948223D01*
X161991401Y-64931747D01*
X162011107Y-64917132D01*
X162032150Y-64904520D01*
X162054329Y-64894030D01*
X162077428Y-64885765D01*
X162101227Y-64879804D01*
X162125495Y-64876204D01*
X162149999Y-64875000D01*
X163050001Y-64875000D01*
X163074505Y-64876204D01*
X163074505Y-64876204D01*
G37*
D11*
X162600000Y-65450000D03*
D10*
G36*
X155524505Y-62826204D02*
G01*
X155548773Y-62829804D01*
X155572572Y-62835765D01*
X155595671Y-62844030D01*
X155617850Y-62854520D01*
X155638893Y-62867132D01*
X155658599Y-62881747D01*
X155676777Y-62898223D01*
X155693253Y-62916401D01*
X155707868Y-62936107D01*
X155720480Y-62957150D01*
X155730970Y-62979329D01*
X155739235Y-63002428D01*
X155745196Y-63026227D01*
X155748796Y-63050495D01*
X155750000Y-63074999D01*
X155750000Y-63725001D01*
X155748796Y-63749505D01*
X155745196Y-63773773D01*
X155739235Y-63797572D01*
X155730970Y-63820671D01*
X155720480Y-63842850D01*
X155707868Y-63863893D01*
X155693253Y-63883599D01*
X155676777Y-63901777D01*
X155658599Y-63918253D01*
X155638893Y-63932868D01*
X155617850Y-63945480D01*
X155595671Y-63955970D01*
X155572572Y-63964235D01*
X155548773Y-63970196D01*
X155524505Y-63973796D01*
X155500001Y-63975000D01*
X154599999Y-63975000D01*
X154575495Y-63973796D01*
X154551227Y-63970196D01*
X154527428Y-63964235D01*
X154504329Y-63955970D01*
X154482150Y-63945480D01*
X154461107Y-63932868D01*
X154441401Y-63918253D01*
X154423223Y-63901777D01*
X154406747Y-63883599D01*
X154392132Y-63863893D01*
X154379520Y-63842850D01*
X154369030Y-63820671D01*
X154360765Y-63797572D01*
X154354804Y-63773773D01*
X154351204Y-63749505D01*
X154350000Y-63725001D01*
X154350000Y-63074999D01*
X154351204Y-63050495D01*
X154354804Y-63026227D01*
X154360765Y-63002428D01*
X154369030Y-62979329D01*
X154379520Y-62957150D01*
X154392132Y-62936107D01*
X154406747Y-62916401D01*
X154423223Y-62898223D01*
X154441401Y-62881747D01*
X154461107Y-62867132D01*
X154482150Y-62854520D01*
X154504329Y-62844030D01*
X154527428Y-62835765D01*
X154551227Y-62829804D01*
X154575495Y-62826204D01*
X154599999Y-62825000D01*
X155500001Y-62825000D01*
X155524505Y-62826204D01*
X155524505Y-62826204D01*
G37*
D11*
X155050000Y-63400000D03*
D10*
G36*
X155524505Y-64876204D02*
G01*
X155548773Y-64879804D01*
X155572572Y-64885765D01*
X155595671Y-64894030D01*
X155617850Y-64904520D01*
X155638893Y-64917132D01*
X155658599Y-64931747D01*
X155676777Y-64948223D01*
X155693253Y-64966401D01*
X155707868Y-64986107D01*
X155720480Y-65007150D01*
X155730970Y-65029329D01*
X155739235Y-65052428D01*
X155745196Y-65076227D01*
X155748796Y-65100495D01*
X155750000Y-65124999D01*
X155750000Y-65775001D01*
X155748796Y-65799505D01*
X155745196Y-65823773D01*
X155739235Y-65847572D01*
X155730970Y-65870671D01*
X155720480Y-65892850D01*
X155707868Y-65913893D01*
X155693253Y-65933599D01*
X155676777Y-65951777D01*
X155658599Y-65968253D01*
X155638893Y-65982868D01*
X155617850Y-65995480D01*
X155595671Y-66005970D01*
X155572572Y-66014235D01*
X155548773Y-66020196D01*
X155524505Y-66023796D01*
X155500001Y-66025000D01*
X154599999Y-66025000D01*
X154575495Y-66023796D01*
X154551227Y-66020196D01*
X154527428Y-66014235D01*
X154504329Y-66005970D01*
X154482150Y-65995480D01*
X154461107Y-65982868D01*
X154441401Y-65968253D01*
X154423223Y-65951777D01*
X154406747Y-65933599D01*
X154392132Y-65913893D01*
X154379520Y-65892850D01*
X154369030Y-65870671D01*
X154360765Y-65847572D01*
X154354804Y-65823773D01*
X154351204Y-65799505D01*
X154350000Y-65775001D01*
X154350000Y-65124999D01*
X154351204Y-65100495D01*
X154354804Y-65076227D01*
X154360765Y-65052428D01*
X154369030Y-65029329D01*
X154379520Y-65007150D01*
X154392132Y-64986107D01*
X154406747Y-64966401D01*
X154423223Y-64948223D01*
X154441401Y-64931747D01*
X154461107Y-64917132D01*
X154482150Y-64904520D01*
X154504329Y-64894030D01*
X154527428Y-64885765D01*
X154551227Y-64879804D01*
X154575495Y-64876204D01*
X154599999Y-64875000D01*
X155500001Y-64875000D01*
X155524505Y-64876204D01*
X155524505Y-64876204D01*
G37*
D11*
X155050000Y-65450000D03*
D10*
G36*
X160574505Y-64876204D02*
G01*
X160598773Y-64879804D01*
X160622572Y-64885765D01*
X160645671Y-64894030D01*
X160667850Y-64904520D01*
X160688893Y-64917132D01*
X160708599Y-64931747D01*
X160726777Y-64948223D01*
X160743253Y-64966401D01*
X160757868Y-64986107D01*
X160770480Y-65007150D01*
X160780970Y-65029329D01*
X160789235Y-65052428D01*
X160795196Y-65076227D01*
X160798796Y-65100495D01*
X160800000Y-65124999D01*
X160800000Y-65775001D01*
X160798796Y-65799505D01*
X160795196Y-65823773D01*
X160789235Y-65847572D01*
X160780970Y-65870671D01*
X160770480Y-65892850D01*
X160757868Y-65913893D01*
X160743253Y-65933599D01*
X160726777Y-65951777D01*
X160708599Y-65968253D01*
X160688893Y-65982868D01*
X160667850Y-65995480D01*
X160645671Y-66005970D01*
X160622572Y-66014235D01*
X160598773Y-66020196D01*
X160574505Y-66023796D01*
X160550001Y-66025000D01*
X159649999Y-66025000D01*
X159625495Y-66023796D01*
X159601227Y-66020196D01*
X159577428Y-66014235D01*
X159554329Y-66005970D01*
X159532150Y-65995480D01*
X159511107Y-65982868D01*
X159491401Y-65968253D01*
X159473223Y-65951777D01*
X159456747Y-65933599D01*
X159442132Y-65913893D01*
X159429520Y-65892850D01*
X159419030Y-65870671D01*
X159410765Y-65847572D01*
X159404804Y-65823773D01*
X159401204Y-65799505D01*
X159400000Y-65775001D01*
X159400000Y-65124999D01*
X159401204Y-65100495D01*
X159404804Y-65076227D01*
X159410765Y-65052428D01*
X159419030Y-65029329D01*
X159429520Y-65007150D01*
X159442132Y-64986107D01*
X159456747Y-64966401D01*
X159473223Y-64948223D01*
X159491401Y-64931747D01*
X159511107Y-64917132D01*
X159532150Y-64904520D01*
X159554329Y-64894030D01*
X159577428Y-64885765D01*
X159601227Y-64879804D01*
X159625495Y-64876204D01*
X159649999Y-64875000D01*
X160550001Y-64875000D01*
X160574505Y-64876204D01*
X160574505Y-64876204D01*
G37*
D11*
X160100000Y-65450000D03*
D10*
G36*
X160574505Y-62826204D02*
G01*
X160598773Y-62829804D01*
X160622572Y-62835765D01*
X160645671Y-62844030D01*
X160667850Y-62854520D01*
X160688893Y-62867132D01*
X160708599Y-62881747D01*
X160726777Y-62898223D01*
X160743253Y-62916401D01*
X160757868Y-62936107D01*
X160770480Y-62957150D01*
X160780970Y-62979329D01*
X160789235Y-63002428D01*
X160795196Y-63026227D01*
X160798796Y-63050495D01*
X160800000Y-63074999D01*
X160800000Y-63725001D01*
X160798796Y-63749505D01*
X160795196Y-63773773D01*
X160789235Y-63797572D01*
X160780970Y-63820671D01*
X160770480Y-63842850D01*
X160757868Y-63863893D01*
X160743253Y-63883599D01*
X160726777Y-63901777D01*
X160708599Y-63918253D01*
X160688893Y-63932868D01*
X160667850Y-63945480D01*
X160645671Y-63955970D01*
X160622572Y-63964235D01*
X160598773Y-63970196D01*
X160574505Y-63973796D01*
X160550001Y-63975000D01*
X159649999Y-63975000D01*
X159625495Y-63973796D01*
X159601227Y-63970196D01*
X159577428Y-63964235D01*
X159554329Y-63955970D01*
X159532150Y-63945480D01*
X159511107Y-63932868D01*
X159491401Y-63918253D01*
X159473223Y-63901777D01*
X159456747Y-63883599D01*
X159442132Y-63863893D01*
X159429520Y-63842850D01*
X159419030Y-63820671D01*
X159410765Y-63797572D01*
X159404804Y-63773773D01*
X159401204Y-63749505D01*
X159400000Y-63725001D01*
X159400000Y-63074999D01*
X159401204Y-63050495D01*
X159404804Y-63026227D01*
X159410765Y-63002428D01*
X159419030Y-62979329D01*
X159429520Y-62957150D01*
X159442132Y-62936107D01*
X159456747Y-62916401D01*
X159473223Y-62898223D01*
X159491401Y-62881747D01*
X159511107Y-62867132D01*
X159532150Y-62854520D01*
X159554329Y-62844030D01*
X159577428Y-62835765D01*
X159601227Y-62829804D01*
X159625495Y-62826204D01*
X159649999Y-62825000D01*
X160550001Y-62825000D01*
X160574505Y-62826204D01*
X160574505Y-62826204D01*
G37*
D11*
X160100000Y-63400000D03*
D10*
G36*
X122424505Y-91526204D02*
G01*
X122448773Y-91529804D01*
X122472572Y-91535765D01*
X122495671Y-91544030D01*
X122517850Y-91554520D01*
X122538893Y-91567132D01*
X122558599Y-91581747D01*
X122576777Y-91598223D01*
X122593253Y-91616401D01*
X122607868Y-91636107D01*
X122620480Y-91657150D01*
X122630970Y-91679329D01*
X122639235Y-91702428D01*
X122645196Y-91726227D01*
X122648796Y-91750495D01*
X122650000Y-91774999D01*
X122650000Y-92425001D01*
X122648796Y-92449505D01*
X122645196Y-92473773D01*
X122639235Y-92497572D01*
X122630970Y-92520671D01*
X122620480Y-92542850D01*
X122607868Y-92563893D01*
X122593253Y-92583599D01*
X122576777Y-92601777D01*
X122558599Y-92618253D01*
X122538893Y-92632868D01*
X122517850Y-92645480D01*
X122495671Y-92655970D01*
X122472572Y-92664235D01*
X122448773Y-92670196D01*
X122424505Y-92673796D01*
X122400001Y-92675000D01*
X121499999Y-92675000D01*
X121475495Y-92673796D01*
X121451227Y-92670196D01*
X121427428Y-92664235D01*
X121404329Y-92655970D01*
X121382150Y-92645480D01*
X121361107Y-92632868D01*
X121341401Y-92618253D01*
X121323223Y-92601777D01*
X121306747Y-92583599D01*
X121292132Y-92563893D01*
X121279520Y-92542850D01*
X121269030Y-92520671D01*
X121260765Y-92497572D01*
X121254804Y-92473773D01*
X121251204Y-92449505D01*
X121250000Y-92425001D01*
X121250000Y-91774999D01*
X121251204Y-91750495D01*
X121254804Y-91726227D01*
X121260765Y-91702428D01*
X121269030Y-91679329D01*
X121279520Y-91657150D01*
X121292132Y-91636107D01*
X121306747Y-91616401D01*
X121323223Y-91598223D01*
X121341401Y-91581747D01*
X121361107Y-91567132D01*
X121382150Y-91554520D01*
X121404329Y-91544030D01*
X121427428Y-91535765D01*
X121451227Y-91529804D01*
X121475495Y-91526204D01*
X121499999Y-91525000D01*
X122400001Y-91525000D01*
X122424505Y-91526204D01*
X122424505Y-91526204D01*
G37*
D11*
X121950000Y-92100000D03*
D10*
G36*
X122424505Y-93576204D02*
G01*
X122448773Y-93579804D01*
X122472572Y-93585765D01*
X122495671Y-93594030D01*
X122517850Y-93604520D01*
X122538893Y-93617132D01*
X122558599Y-93631747D01*
X122576777Y-93648223D01*
X122593253Y-93666401D01*
X122607868Y-93686107D01*
X122620480Y-93707150D01*
X122630970Y-93729329D01*
X122639235Y-93752428D01*
X122645196Y-93776227D01*
X122648796Y-93800495D01*
X122650000Y-93824999D01*
X122650000Y-94475001D01*
X122648796Y-94499505D01*
X122645196Y-94523773D01*
X122639235Y-94547572D01*
X122630970Y-94570671D01*
X122620480Y-94592850D01*
X122607868Y-94613893D01*
X122593253Y-94633599D01*
X122576777Y-94651777D01*
X122558599Y-94668253D01*
X122538893Y-94682868D01*
X122517850Y-94695480D01*
X122495671Y-94705970D01*
X122472572Y-94714235D01*
X122448773Y-94720196D01*
X122424505Y-94723796D01*
X122400001Y-94725000D01*
X121499999Y-94725000D01*
X121475495Y-94723796D01*
X121451227Y-94720196D01*
X121427428Y-94714235D01*
X121404329Y-94705970D01*
X121382150Y-94695480D01*
X121361107Y-94682868D01*
X121341401Y-94668253D01*
X121323223Y-94651777D01*
X121306747Y-94633599D01*
X121292132Y-94613893D01*
X121279520Y-94592850D01*
X121269030Y-94570671D01*
X121260765Y-94547572D01*
X121254804Y-94523773D01*
X121251204Y-94499505D01*
X121250000Y-94475001D01*
X121250000Y-93824999D01*
X121251204Y-93800495D01*
X121254804Y-93776227D01*
X121260765Y-93752428D01*
X121269030Y-93729329D01*
X121279520Y-93707150D01*
X121292132Y-93686107D01*
X121306747Y-93666401D01*
X121323223Y-93648223D01*
X121341401Y-93631747D01*
X121361107Y-93617132D01*
X121382150Y-93604520D01*
X121404329Y-93594030D01*
X121427428Y-93585765D01*
X121451227Y-93579804D01*
X121475495Y-93576204D01*
X121499999Y-93575000D01*
X122400001Y-93575000D01*
X122424505Y-93576204D01*
X122424505Y-93576204D01*
G37*
D11*
X121950000Y-94150000D03*
D10*
G36*
X124924505Y-93576204D02*
G01*
X124948773Y-93579804D01*
X124972572Y-93585765D01*
X124995671Y-93594030D01*
X125017850Y-93604520D01*
X125038893Y-93617132D01*
X125058599Y-93631747D01*
X125076777Y-93648223D01*
X125093253Y-93666401D01*
X125107868Y-93686107D01*
X125120480Y-93707150D01*
X125130970Y-93729329D01*
X125139235Y-93752428D01*
X125145196Y-93776227D01*
X125148796Y-93800495D01*
X125150000Y-93824999D01*
X125150000Y-94475001D01*
X125148796Y-94499505D01*
X125145196Y-94523773D01*
X125139235Y-94547572D01*
X125130970Y-94570671D01*
X125120480Y-94592850D01*
X125107868Y-94613893D01*
X125093253Y-94633599D01*
X125076777Y-94651777D01*
X125058599Y-94668253D01*
X125038893Y-94682868D01*
X125017850Y-94695480D01*
X124995671Y-94705970D01*
X124972572Y-94714235D01*
X124948773Y-94720196D01*
X124924505Y-94723796D01*
X124900001Y-94725000D01*
X123999999Y-94725000D01*
X123975495Y-94723796D01*
X123951227Y-94720196D01*
X123927428Y-94714235D01*
X123904329Y-94705970D01*
X123882150Y-94695480D01*
X123861107Y-94682868D01*
X123841401Y-94668253D01*
X123823223Y-94651777D01*
X123806747Y-94633599D01*
X123792132Y-94613893D01*
X123779520Y-94592850D01*
X123769030Y-94570671D01*
X123760765Y-94547572D01*
X123754804Y-94523773D01*
X123751204Y-94499505D01*
X123750000Y-94475001D01*
X123750000Y-93824999D01*
X123751204Y-93800495D01*
X123754804Y-93776227D01*
X123760765Y-93752428D01*
X123769030Y-93729329D01*
X123779520Y-93707150D01*
X123792132Y-93686107D01*
X123806747Y-93666401D01*
X123823223Y-93648223D01*
X123841401Y-93631747D01*
X123861107Y-93617132D01*
X123882150Y-93604520D01*
X123904329Y-93594030D01*
X123927428Y-93585765D01*
X123951227Y-93579804D01*
X123975495Y-93576204D01*
X123999999Y-93575000D01*
X124900001Y-93575000D01*
X124924505Y-93576204D01*
X124924505Y-93576204D01*
G37*
D11*
X124450000Y-94150000D03*
D10*
G36*
X124924505Y-91526204D02*
G01*
X124948773Y-91529804D01*
X124972572Y-91535765D01*
X124995671Y-91544030D01*
X125017850Y-91554520D01*
X125038893Y-91567132D01*
X125058599Y-91581747D01*
X125076777Y-91598223D01*
X125093253Y-91616401D01*
X125107868Y-91636107D01*
X125120480Y-91657150D01*
X125130970Y-91679329D01*
X125139235Y-91702428D01*
X125145196Y-91726227D01*
X125148796Y-91750495D01*
X125150000Y-91774999D01*
X125150000Y-92425001D01*
X125148796Y-92449505D01*
X125145196Y-92473773D01*
X125139235Y-92497572D01*
X125130970Y-92520671D01*
X125120480Y-92542850D01*
X125107868Y-92563893D01*
X125093253Y-92583599D01*
X125076777Y-92601777D01*
X125058599Y-92618253D01*
X125038893Y-92632868D01*
X125017850Y-92645480D01*
X124995671Y-92655970D01*
X124972572Y-92664235D01*
X124948773Y-92670196D01*
X124924505Y-92673796D01*
X124900001Y-92675000D01*
X123999999Y-92675000D01*
X123975495Y-92673796D01*
X123951227Y-92670196D01*
X123927428Y-92664235D01*
X123904329Y-92655970D01*
X123882150Y-92645480D01*
X123861107Y-92632868D01*
X123841401Y-92618253D01*
X123823223Y-92601777D01*
X123806747Y-92583599D01*
X123792132Y-92563893D01*
X123779520Y-92542850D01*
X123769030Y-92520671D01*
X123760765Y-92497572D01*
X123754804Y-92473773D01*
X123751204Y-92449505D01*
X123750000Y-92425001D01*
X123750000Y-91774999D01*
X123751204Y-91750495D01*
X123754804Y-91726227D01*
X123760765Y-91702428D01*
X123769030Y-91679329D01*
X123779520Y-91657150D01*
X123792132Y-91636107D01*
X123806747Y-91616401D01*
X123823223Y-91598223D01*
X123841401Y-91581747D01*
X123861107Y-91567132D01*
X123882150Y-91554520D01*
X123904329Y-91544030D01*
X123927428Y-91535765D01*
X123951227Y-91529804D01*
X123975495Y-91526204D01*
X123999999Y-91525000D01*
X124900001Y-91525000D01*
X124924505Y-91526204D01*
X124924505Y-91526204D01*
G37*
D11*
X124450000Y-92100000D03*
D10*
G36*
X127424505Y-91551204D02*
G01*
X127448773Y-91554804D01*
X127472572Y-91560765D01*
X127495671Y-91569030D01*
X127517850Y-91579520D01*
X127538893Y-91592132D01*
X127558599Y-91606747D01*
X127576777Y-91623223D01*
X127593253Y-91641401D01*
X127607868Y-91661107D01*
X127620480Y-91682150D01*
X127630970Y-91704329D01*
X127639235Y-91727428D01*
X127645196Y-91751227D01*
X127648796Y-91775495D01*
X127650000Y-91799999D01*
X127650000Y-92450001D01*
X127648796Y-92474505D01*
X127645196Y-92498773D01*
X127639235Y-92522572D01*
X127630970Y-92545671D01*
X127620480Y-92567850D01*
X127607868Y-92588893D01*
X127593253Y-92608599D01*
X127576777Y-92626777D01*
X127558599Y-92643253D01*
X127538893Y-92657868D01*
X127517850Y-92670480D01*
X127495671Y-92680970D01*
X127472572Y-92689235D01*
X127448773Y-92695196D01*
X127424505Y-92698796D01*
X127400001Y-92700000D01*
X126499999Y-92700000D01*
X126475495Y-92698796D01*
X126451227Y-92695196D01*
X126427428Y-92689235D01*
X126404329Y-92680970D01*
X126382150Y-92670480D01*
X126361107Y-92657868D01*
X126341401Y-92643253D01*
X126323223Y-92626777D01*
X126306747Y-92608599D01*
X126292132Y-92588893D01*
X126279520Y-92567850D01*
X126269030Y-92545671D01*
X126260765Y-92522572D01*
X126254804Y-92498773D01*
X126251204Y-92474505D01*
X126250000Y-92450001D01*
X126250000Y-91799999D01*
X126251204Y-91775495D01*
X126254804Y-91751227D01*
X126260765Y-91727428D01*
X126269030Y-91704329D01*
X126279520Y-91682150D01*
X126292132Y-91661107D01*
X126306747Y-91641401D01*
X126323223Y-91623223D01*
X126341401Y-91606747D01*
X126361107Y-91592132D01*
X126382150Y-91579520D01*
X126404329Y-91569030D01*
X126427428Y-91560765D01*
X126451227Y-91554804D01*
X126475495Y-91551204D01*
X126499999Y-91550000D01*
X127400001Y-91550000D01*
X127424505Y-91551204D01*
X127424505Y-91551204D01*
G37*
D11*
X126950000Y-92125000D03*
D10*
G36*
X127424505Y-93601204D02*
G01*
X127448773Y-93604804D01*
X127472572Y-93610765D01*
X127495671Y-93619030D01*
X127517850Y-93629520D01*
X127538893Y-93642132D01*
X127558599Y-93656747D01*
X127576777Y-93673223D01*
X127593253Y-93691401D01*
X127607868Y-93711107D01*
X127620480Y-93732150D01*
X127630970Y-93754329D01*
X127639235Y-93777428D01*
X127645196Y-93801227D01*
X127648796Y-93825495D01*
X127650000Y-93849999D01*
X127650000Y-94500001D01*
X127648796Y-94524505D01*
X127645196Y-94548773D01*
X127639235Y-94572572D01*
X127630970Y-94595671D01*
X127620480Y-94617850D01*
X127607868Y-94638893D01*
X127593253Y-94658599D01*
X127576777Y-94676777D01*
X127558599Y-94693253D01*
X127538893Y-94707868D01*
X127517850Y-94720480D01*
X127495671Y-94730970D01*
X127472572Y-94739235D01*
X127448773Y-94745196D01*
X127424505Y-94748796D01*
X127400001Y-94750000D01*
X126499999Y-94750000D01*
X126475495Y-94748796D01*
X126451227Y-94745196D01*
X126427428Y-94739235D01*
X126404329Y-94730970D01*
X126382150Y-94720480D01*
X126361107Y-94707868D01*
X126341401Y-94693253D01*
X126323223Y-94676777D01*
X126306747Y-94658599D01*
X126292132Y-94638893D01*
X126279520Y-94617850D01*
X126269030Y-94595671D01*
X126260765Y-94572572D01*
X126254804Y-94548773D01*
X126251204Y-94524505D01*
X126250000Y-94500001D01*
X126250000Y-93849999D01*
X126251204Y-93825495D01*
X126254804Y-93801227D01*
X126260765Y-93777428D01*
X126269030Y-93754329D01*
X126279520Y-93732150D01*
X126292132Y-93711107D01*
X126306747Y-93691401D01*
X126323223Y-93673223D01*
X126341401Y-93656747D01*
X126361107Y-93642132D01*
X126382150Y-93629520D01*
X126404329Y-93619030D01*
X126427428Y-93610765D01*
X126451227Y-93604804D01*
X126475495Y-93601204D01*
X126499999Y-93600000D01*
X127400001Y-93600000D01*
X127424505Y-93601204D01*
X127424505Y-93601204D01*
G37*
D11*
X126950000Y-94175000D03*
D10*
G36*
X123674505Y-97951204D02*
G01*
X123698773Y-97954804D01*
X123722572Y-97960765D01*
X123745671Y-97969030D01*
X123767850Y-97979520D01*
X123788893Y-97992132D01*
X123808599Y-98006747D01*
X123826777Y-98023223D01*
X123843253Y-98041401D01*
X123857868Y-98061107D01*
X123870480Y-98082150D01*
X123880970Y-98104329D01*
X123889235Y-98127428D01*
X123895196Y-98151227D01*
X123898796Y-98175495D01*
X123900000Y-98199999D01*
X123900000Y-98850001D01*
X123898796Y-98874505D01*
X123895196Y-98898773D01*
X123889235Y-98922572D01*
X123880970Y-98945671D01*
X123870480Y-98967850D01*
X123857868Y-98988893D01*
X123843253Y-99008599D01*
X123826777Y-99026777D01*
X123808599Y-99043253D01*
X123788893Y-99057868D01*
X123767850Y-99070480D01*
X123745671Y-99080970D01*
X123722572Y-99089235D01*
X123698773Y-99095196D01*
X123674505Y-99098796D01*
X123650001Y-99100000D01*
X122749999Y-99100000D01*
X122725495Y-99098796D01*
X122701227Y-99095196D01*
X122677428Y-99089235D01*
X122654329Y-99080970D01*
X122632150Y-99070480D01*
X122611107Y-99057868D01*
X122591401Y-99043253D01*
X122573223Y-99026777D01*
X122556747Y-99008599D01*
X122542132Y-98988893D01*
X122529520Y-98967850D01*
X122519030Y-98945671D01*
X122510765Y-98922572D01*
X122504804Y-98898773D01*
X122501204Y-98874505D01*
X122500000Y-98850001D01*
X122500000Y-98199999D01*
X122501204Y-98175495D01*
X122504804Y-98151227D01*
X122510765Y-98127428D01*
X122519030Y-98104329D01*
X122529520Y-98082150D01*
X122542132Y-98061107D01*
X122556747Y-98041401D01*
X122573223Y-98023223D01*
X122591401Y-98006747D01*
X122611107Y-97992132D01*
X122632150Y-97979520D01*
X122654329Y-97969030D01*
X122677428Y-97960765D01*
X122701227Y-97954804D01*
X122725495Y-97951204D01*
X122749999Y-97950000D01*
X123650001Y-97950000D01*
X123674505Y-97951204D01*
X123674505Y-97951204D01*
G37*
D11*
X123200000Y-98525000D03*
D10*
G36*
X123674505Y-95901204D02*
G01*
X123698773Y-95904804D01*
X123722572Y-95910765D01*
X123745671Y-95919030D01*
X123767850Y-95929520D01*
X123788893Y-95942132D01*
X123808599Y-95956747D01*
X123826777Y-95973223D01*
X123843253Y-95991401D01*
X123857868Y-96011107D01*
X123870480Y-96032150D01*
X123880970Y-96054329D01*
X123889235Y-96077428D01*
X123895196Y-96101227D01*
X123898796Y-96125495D01*
X123900000Y-96149999D01*
X123900000Y-96800001D01*
X123898796Y-96824505D01*
X123895196Y-96848773D01*
X123889235Y-96872572D01*
X123880970Y-96895671D01*
X123870480Y-96917850D01*
X123857868Y-96938893D01*
X123843253Y-96958599D01*
X123826777Y-96976777D01*
X123808599Y-96993253D01*
X123788893Y-97007868D01*
X123767850Y-97020480D01*
X123745671Y-97030970D01*
X123722572Y-97039235D01*
X123698773Y-97045196D01*
X123674505Y-97048796D01*
X123650001Y-97050000D01*
X122749999Y-97050000D01*
X122725495Y-97048796D01*
X122701227Y-97045196D01*
X122677428Y-97039235D01*
X122654329Y-97030970D01*
X122632150Y-97020480D01*
X122611107Y-97007868D01*
X122591401Y-96993253D01*
X122573223Y-96976777D01*
X122556747Y-96958599D01*
X122542132Y-96938893D01*
X122529520Y-96917850D01*
X122519030Y-96895671D01*
X122510765Y-96872572D01*
X122504804Y-96848773D01*
X122501204Y-96824505D01*
X122500000Y-96800001D01*
X122500000Y-96149999D01*
X122501204Y-96125495D01*
X122504804Y-96101227D01*
X122510765Y-96077428D01*
X122519030Y-96054329D01*
X122529520Y-96032150D01*
X122542132Y-96011107D01*
X122556747Y-95991401D01*
X122573223Y-95973223D01*
X122591401Y-95956747D01*
X122611107Y-95942132D01*
X122632150Y-95929520D01*
X122654329Y-95919030D01*
X122677428Y-95910765D01*
X122701227Y-95904804D01*
X122725495Y-95901204D01*
X122749999Y-95900000D01*
X123650001Y-95900000D01*
X123674505Y-95901204D01*
X123674505Y-95901204D01*
G37*
D11*
X123200000Y-96475000D03*
D10*
G36*
X114562004Y-119326204D02*
G01*
X114586273Y-119329804D01*
X114610071Y-119335765D01*
X114633171Y-119344030D01*
X114655349Y-119354520D01*
X114676393Y-119367133D01*
X114696098Y-119381747D01*
X114714277Y-119398223D01*
X114730753Y-119416402D01*
X114745367Y-119436107D01*
X114757980Y-119457151D01*
X114768470Y-119479329D01*
X114776735Y-119502429D01*
X114782696Y-119526227D01*
X114786296Y-119550496D01*
X114787500Y-119575000D01*
X114787500Y-120825000D01*
X114786296Y-120849504D01*
X114782696Y-120873773D01*
X114776735Y-120897571D01*
X114768470Y-120920671D01*
X114757980Y-120942849D01*
X114745367Y-120963893D01*
X114730753Y-120983598D01*
X114714277Y-121001777D01*
X114696098Y-121018253D01*
X114676393Y-121032867D01*
X114655349Y-121045480D01*
X114633171Y-121055970D01*
X114610071Y-121064235D01*
X114586273Y-121070196D01*
X114562004Y-121073796D01*
X114537500Y-121075000D01*
X113612500Y-121075000D01*
X113587996Y-121073796D01*
X113563727Y-121070196D01*
X113539929Y-121064235D01*
X113516829Y-121055970D01*
X113494651Y-121045480D01*
X113473607Y-121032867D01*
X113453902Y-121018253D01*
X113435723Y-121001777D01*
X113419247Y-120983598D01*
X113404633Y-120963893D01*
X113392020Y-120942849D01*
X113381530Y-120920671D01*
X113373265Y-120897571D01*
X113367304Y-120873773D01*
X113363704Y-120849504D01*
X113362500Y-120825000D01*
X113362500Y-119575000D01*
X113363704Y-119550496D01*
X113367304Y-119526227D01*
X113373265Y-119502429D01*
X113381530Y-119479329D01*
X113392020Y-119457151D01*
X113404633Y-119436107D01*
X113419247Y-119416402D01*
X113435723Y-119398223D01*
X113453902Y-119381747D01*
X113473607Y-119367133D01*
X113494651Y-119354520D01*
X113516829Y-119344030D01*
X113539929Y-119335765D01*
X113563727Y-119329804D01*
X113587996Y-119326204D01*
X113612500Y-119325000D01*
X114537500Y-119325000D01*
X114562004Y-119326204D01*
X114562004Y-119326204D01*
G37*
D12*
X114075000Y-120200000D03*
D10*
G36*
X111587004Y-119326204D02*
G01*
X111611273Y-119329804D01*
X111635071Y-119335765D01*
X111658171Y-119344030D01*
X111680349Y-119354520D01*
X111701393Y-119367133D01*
X111721098Y-119381747D01*
X111739277Y-119398223D01*
X111755753Y-119416402D01*
X111770367Y-119436107D01*
X111782980Y-119457151D01*
X111793470Y-119479329D01*
X111801735Y-119502429D01*
X111807696Y-119526227D01*
X111811296Y-119550496D01*
X111812500Y-119575000D01*
X111812500Y-120825000D01*
X111811296Y-120849504D01*
X111807696Y-120873773D01*
X111801735Y-120897571D01*
X111793470Y-120920671D01*
X111782980Y-120942849D01*
X111770367Y-120963893D01*
X111755753Y-120983598D01*
X111739277Y-121001777D01*
X111721098Y-121018253D01*
X111701393Y-121032867D01*
X111680349Y-121045480D01*
X111658171Y-121055970D01*
X111635071Y-121064235D01*
X111611273Y-121070196D01*
X111587004Y-121073796D01*
X111562500Y-121075000D01*
X110637500Y-121075000D01*
X110612996Y-121073796D01*
X110588727Y-121070196D01*
X110564929Y-121064235D01*
X110541829Y-121055970D01*
X110519651Y-121045480D01*
X110498607Y-121032867D01*
X110478902Y-121018253D01*
X110460723Y-121001777D01*
X110444247Y-120983598D01*
X110429633Y-120963893D01*
X110417020Y-120942849D01*
X110406530Y-120920671D01*
X110398265Y-120897571D01*
X110392304Y-120873773D01*
X110388704Y-120849504D01*
X110387500Y-120825000D01*
X110387500Y-119575000D01*
X110388704Y-119550496D01*
X110392304Y-119526227D01*
X110398265Y-119502429D01*
X110406530Y-119479329D01*
X110417020Y-119457151D01*
X110429633Y-119436107D01*
X110444247Y-119416402D01*
X110460723Y-119398223D01*
X110478902Y-119381747D01*
X110498607Y-119367133D01*
X110519651Y-119354520D01*
X110541829Y-119344030D01*
X110564929Y-119335765D01*
X110588727Y-119329804D01*
X110612996Y-119326204D01*
X110637500Y-119325000D01*
X111562500Y-119325000D01*
X111587004Y-119326204D01*
X111587004Y-119326204D01*
G37*
D12*
X111100000Y-120200000D03*
M02*
