%TF.GenerationSoftware,KiCad,Pcbnew,(5.1.2-1)-1*%
%TF.CreationDate,2019-08-17T10:29:18+10:00*%
%TF.ProjectId,GreengrassEntryHardware,47726565-6e67-4726-9173-73456e747279,v1.0*%
%TF.SameCoordinates,Original*%
%TF.FileFunction,Soldermask,Bot*%
%TF.FilePolarity,Negative*%
%FSLAX46Y46*%
G04 Gerber Fmt 4.6, Leading zero omitted, Abs format (unit mm)*
G04 Created by KiCad (PCBNEW (5.1.2-1)-1) date 2019-08-17 10:29:18*
%MOMM*%
%LPD*%
G04 APERTURE LIST*
%ADD10C,0.150000*%
G04 APERTURE END LIST*
D10*
G36*
X178927618Y-129108420D02*
G01*
X179018404Y-129135960D01*
X179050336Y-129145646D01*
X179163425Y-129206094D01*
X179262554Y-129287446D01*
X179343906Y-129386575D01*
X179404354Y-129499664D01*
X179414040Y-129531596D01*
X179441580Y-129622382D01*
X179451000Y-129718027D01*
X179451000Y-130481973D01*
X179441580Y-130577618D01*
X179414040Y-130668404D01*
X179404354Y-130700336D01*
X179343906Y-130813425D01*
X179262554Y-130912553D01*
X179163424Y-130993906D01*
X179050335Y-131054354D01*
X179018403Y-131064040D01*
X178927617Y-131091580D01*
X178800000Y-131104149D01*
X178672382Y-131091580D01*
X178581596Y-131064040D01*
X178549664Y-131054354D01*
X178436575Y-130993906D01*
X178337447Y-130912554D01*
X178256094Y-130813424D01*
X178195646Y-130700335D01*
X178185960Y-130668403D01*
X178158420Y-130577617D01*
X178149000Y-130481972D01*
X178149000Y-129718027D01*
X178158420Y-129622382D01*
X178195645Y-129499668D01*
X178220608Y-129452966D01*
X178256095Y-129386575D01*
X178337447Y-129287446D01*
X178436576Y-129206094D01*
X178549665Y-129145646D01*
X178581597Y-129135960D01*
X178672383Y-129108420D01*
X178800000Y-129095851D01*
X178927618Y-129108420D01*
X178927618Y-129108420D01*
G37*
G36*
X185927617Y-129108420D02*
G01*
X186018403Y-129135960D01*
X186050335Y-129145646D01*
X186163424Y-129206094D01*
X186262554Y-129287447D01*
X186343906Y-129386575D01*
X186404354Y-129499664D01*
X186414040Y-129531596D01*
X186441580Y-129622382D01*
X186451000Y-129718027D01*
X186451000Y-130481973D01*
X186441580Y-130577618D01*
X186414040Y-130668404D01*
X186404354Y-130700336D01*
X186343906Y-130813425D01*
X186262554Y-130912554D01*
X186163425Y-130993906D01*
X186050336Y-131054354D01*
X186018404Y-131064040D01*
X185927618Y-131091580D01*
X185800000Y-131104149D01*
X185672383Y-131091580D01*
X185581597Y-131064040D01*
X185549665Y-131054354D01*
X185436576Y-130993906D01*
X185337447Y-130912554D01*
X185256095Y-130813425D01*
X185195648Y-130700337D01*
X185195645Y-130700332D01*
X185158420Y-130577618D01*
X185149000Y-130481973D01*
X185149000Y-129718028D01*
X185158420Y-129622383D01*
X185195645Y-129499669D01*
X185195646Y-129499665D01*
X185256094Y-129386576D01*
X185337447Y-129287446D01*
X185436575Y-129206094D01*
X185549664Y-129145646D01*
X185581596Y-129135960D01*
X185672382Y-129108420D01*
X185800000Y-129095851D01*
X185927617Y-129108420D01*
X185927617Y-129108420D01*
G37*
G36*
X185026348Y-126653820D02*
G01*
X185026350Y-126653821D01*
X185026351Y-126653821D01*
X185167574Y-126712317D01*
X185167577Y-126712319D01*
X185294669Y-126797239D01*
X185402761Y-126905331D01*
X185487681Y-127032423D01*
X185487683Y-127032426D01*
X185546179Y-127173649D01*
X185576000Y-127323571D01*
X185576000Y-127476429D01*
X185546179Y-127626351D01*
X185487683Y-127767574D01*
X185487681Y-127767577D01*
X185402761Y-127894669D01*
X185294669Y-128002761D01*
X185167577Y-128087681D01*
X185167574Y-128087683D01*
X185026351Y-128146179D01*
X185026350Y-128146179D01*
X185026348Y-128146180D01*
X184876431Y-128176000D01*
X184723569Y-128176000D01*
X184573652Y-128146180D01*
X184573650Y-128146179D01*
X184573649Y-128146179D01*
X184432426Y-128087683D01*
X184432423Y-128087681D01*
X184305331Y-128002761D01*
X184197239Y-127894669D01*
X184112319Y-127767577D01*
X184112317Y-127767574D01*
X184053821Y-127626351D01*
X184024000Y-127476429D01*
X184024000Y-127323571D01*
X184053821Y-127173649D01*
X184112317Y-127032426D01*
X184112319Y-127032423D01*
X184197239Y-126905331D01*
X184305331Y-126797239D01*
X184432423Y-126712319D01*
X184432426Y-126712317D01*
X184573649Y-126653821D01*
X184573650Y-126653821D01*
X184573652Y-126653820D01*
X184723569Y-126624000D01*
X184876431Y-126624000D01*
X185026348Y-126653820D01*
X185026348Y-126653820D01*
G37*
G36*
X180026348Y-126653820D02*
G01*
X180026350Y-126653821D01*
X180026351Y-126653821D01*
X180167574Y-126712317D01*
X180167577Y-126712319D01*
X180294669Y-126797239D01*
X180402761Y-126905331D01*
X180487681Y-127032423D01*
X180487683Y-127032426D01*
X180546179Y-127173649D01*
X180576000Y-127323571D01*
X180576000Y-127476429D01*
X180546179Y-127626351D01*
X180487683Y-127767574D01*
X180487681Y-127767577D01*
X180402761Y-127894669D01*
X180294669Y-128002761D01*
X180167577Y-128087681D01*
X180167574Y-128087683D01*
X180026351Y-128146179D01*
X180026350Y-128146179D01*
X180026348Y-128146180D01*
X179876431Y-128176000D01*
X179723569Y-128176000D01*
X179573652Y-128146180D01*
X179573650Y-128146179D01*
X179573649Y-128146179D01*
X179432426Y-128087683D01*
X179432423Y-128087681D01*
X179305331Y-128002761D01*
X179197239Y-127894669D01*
X179112319Y-127767577D01*
X179112317Y-127767574D01*
X179053821Y-127626351D01*
X179024000Y-127476429D01*
X179024000Y-127323571D01*
X179053821Y-127173649D01*
X179112317Y-127032426D01*
X179112319Y-127032423D01*
X179197239Y-126905331D01*
X179305331Y-126797239D01*
X179432423Y-126712319D01*
X179432426Y-126712317D01*
X179573649Y-126653821D01*
X179573650Y-126653821D01*
X179573652Y-126653820D01*
X179723569Y-126624000D01*
X179876431Y-126624000D01*
X180026348Y-126653820D01*
X180026348Y-126653820D01*
G37*
G36*
X164906564Y-123489389D02*
G01*
X165097833Y-123568615D01*
X165097835Y-123568616D01*
X165122412Y-123585038D01*
X165269973Y-123683635D01*
X165416365Y-123830027D01*
X165531385Y-124002167D01*
X165610611Y-124193436D01*
X165651000Y-124396484D01*
X165651000Y-124603516D01*
X165610611Y-124806564D01*
X165531385Y-124997833D01*
X165531384Y-124997835D01*
X165416365Y-125169973D01*
X165269973Y-125316365D01*
X165097835Y-125431384D01*
X165097834Y-125431385D01*
X165097833Y-125431385D01*
X164906564Y-125510611D01*
X164703516Y-125551000D01*
X164496484Y-125551000D01*
X164293436Y-125510611D01*
X164102167Y-125431385D01*
X164102166Y-125431385D01*
X164102165Y-125431384D01*
X163930027Y-125316365D01*
X163783635Y-125169973D01*
X163668616Y-124997835D01*
X163668615Y-124997833D01*
X163589389Y-124806564D01*
X163549000Y-124603516D01*
X163549000Y-124396484D01*
X163589389Y-124193436D01*
X163668615Y-124002167D01*
X163783635Y-123830027D01*
X163930027Y-123683635D01*
X164077588Y-123585038D01*
X164102165Y-123568616D01*
X164102167Y-123568615D01*
X164293436Y-123489389D01*
X164496484Y-123449000D01*
X164703516Y-123449000D01*
X164906564Y-123489389D01*
X164906564Y-123489389D01*
G37*
G36*
X162406564Y-123489389D02*
G01*
X162597833Y-123568615D01*
X162597835Y-123568616D01*
X162622412Y-123585038D01*
X162769973Y-123683635D01*
X162916365Y-123830027D01*
X163031385Y-124002167D01*
X163110611Y-124193436D01*
X163151000Y-124396484D01*
X163151000Y-124603516D01*
X163110611Y-124806564D01*
X163031385Y-124997833D01*
X163031384Y-124997835D01*
X162916365Y-125169973D01*
X162769973Y-125316365D01*
X162597835Y-125431384D01*
X162597834Y-125431385D01*
X162597833Y-125431385D01*
X162406564Y-125510611D01*
X162203516Y-125551000D01*
X161996484Y-125551000D01*
X161793436Y-125510611D01*
X161602167Y-125431385D01*
X161602166Y-125431385D01*
X161602165Y-125431384D01*
X161430027Y-125316365D01*
X161283635Y-125169973D01*
X161168616Y-124997835D01*
X161168615Y-124997833D01*
X161089389Y-124806564D01*
X161049000Y-124603516D01*
X161049000Y-124396484D01*
X161089389Y-124193436D01*
X161168615Y-124002167D01*
X161283635Y-123830027D01*
X161430027Y-123683635D01*
X161577588Y-123585038D01*
X161602165Y-123568616D01*
X161602167Y-123568615D01*
X161793436Y-123489389D01*
X161996484Y-123449000D01*
X162203516Y-123449000D01*
X162406564Y-123489389D01*
X162406564Y-123489389D01*
G37*
G36*
X159906564Y-123489389D02*
G01*
X160097833Y-123568615D01*
X160097835Y-123568616D01*
X160122412Y-123585038D01*
X160269973Y-123683635D01*
X160416365Y-123830027D01*
X160531385Y-124002167D01*
X160610611Y-124193436D01*
X160651000Y-124396484D01*
X160651000Y-124603516D01*
X160610611Y-124806564D01*
X160531385Y-124997833D01*
X160531384Y-124997835D01*
X160416365Y-125169973D01*
X160269973Y-125316365D01*
X160097835Y-125431384D01*
X160097834Y-125431385D01*
X160097833Y-125431385D01*
X159906564Y-125510611D01*
X159703516Y-125551000D01*
X159496484Y-125551000D01*
X159293436Y-125510611D01*
X159102167Y-125431385D01*
X159102166Y-125431385D01*
X159102165Y-125431384D01*
X158930027Y-125316365D01*
X158783635Y-125169973D01*
X158668616Y-124997835D01*
X158668615Y-124997833D01*
X158589389Y-124806564D01*
X158549000Y-124603516D01*
X158549000Y-124396484D01*
X158589389Y-124193436D01*
X158668615Y-124002167D01*
X158783635Y-123830027D01*
X158930027Y-123683635D01*
X159077588Y-123585038D01*
X159102165Y-123568616D01*
X159102167Y-123568615D01*
X159293436Y-123489389D01*
X159496484Y-123449000D01*
X159703516Y-123449000D01*
X159906564Y-123489389D01*
X159906564Y-123489389D01*
G37*
G36*
X157778210Y-123458489D02*
G01*
X157864950Y-123484802D01*
X157944889Y-123527530D01*
X158014962Y-123585038D01*
X158072470Y-123655111D01*
X158115198Y-123735050D01*
X158141511Y-123821790D01*
X158151000Y-123918140D01*
X158151000Y-125081860D01*
X158141511Y-125178210D01*
X158115198Y-125264950D01*
X158072470Y-125344889D01*
X158014962Y-125414962D01*
X157944889Y-125472470D01*
X157864950Y-125515198D01*
X157778210Y-125541511D01*
X157681860Y-125551000D01*
X156518140Y-125551000D01*
X156421790Y-125541511D01*
X156335050Y-125515198D01*
X156255111Y-125472470D01*
X156185038Y-125414962D01*
X156127530Y-125344889D01*
X156084802Y-125264950D01*
X156058489Y-125178210D01*
X156049000Y-125081860D01*
X156049000Y-123918140D01*
X156058489Y-123821790D01*
X156084802Y-123735050D01*
X156127530Y-123655111D01*
X156185038Y-123585038D01*
X156255111Y-123527530D01*
X156335050Y-123484802D01*
X156421790Y-123458489D01*
X156518140Y-123449000D01*
X157681860Y-123449000D01*
X157778210Y-123458489D01*
X157778210Y-123458489D01*
G37*
G36*
X151106564Y-123489389D02*
G01*
X151297833Y-123568615D01*
X151297835Y-123568616D01*
X151322412Y-123585038D01*
X151469973Y-123683635D01*
X151616365Y-123830027D01*
X151731385Y-124002167D01*
X151810611Y-124193436D01*
X151851000Y-124396484D01*
X151851000Y-124603516D01*
X151810611Y-124806564D01*
X151731385Y-124997833D01*
X151731384Y-124997835D01*
X151616365Y-125169973D01*
X151469973Y-125316365D01*
X151297835Y-125431384D01*
X151297834Y-125431385D01*
X151297833Y-125431385D01*
X151106564Y-125510611D01*
X150903516Y-125551000D01*
X150696484Y-125551000D01*
X150493436Y-125510611D01*
X150302167Y-125431385D01*
X150302166Y-125431385D01*
X150302165Y-125431384D01*
X150130027Y-125316365D01*
X149983635Y-125169973D01*
X149868616Y-124997835D01*
X149868615Y-124997833D01*
X149789389Y-124806564D01*
X149749000Y-124603516D01*
X149749000Y-124396484D01*
X149789389Y-124193436D01*
X149868615Y-124002167D01*
X149983635Y-123830027D01*
X150130027Y-123683635D01*
X150277588Y-123585038D01*
X150302165Y-123568616D01*
X150302167Y-123568615D01*
X150493436Y-123489389D01*
X150696484Y-123449000D01*
X150903516Y-123449000D01*
X151106564Y-123489389D01*
X151106564Y-123489389D01*
G37*
G36*
X148606564Y-123489389D02*
G01*
X148797833Y-123568615D01*
X148797835Y-123568616D01*
X148822412Y-123585038D01*
X148969973Y-123683635D01*
X149116365Y-123830027D01*
X149231385Y-124002167D01*
X149310611Y-124193436D01*
X149351000Y-124396484D01*
X149351000Y-124603516D01*
X149310611Y-124806564D01*
X149231385Y-124997833D01*
X149231384Y-124997835D01*
X149116365Y-125169973D01*
X148969973Y-125316365D01*
X148797835Y-125431384D01*
X148797834Y-125431385D01*
X148797833Y-125431385D01*
X148606564Y-125510611D01*
X148403516Y-125551000D01*
X148196484Y-125551000D01*
X147993436Y-125510611D01*
X147802167Y-125431385D01*
X147802166Y-125431385D01*
X147802165Y-125431384D01*
X147630027Y-125316365D01*
X147483635Y-125169973D01*
X147368616Y-124997835D01*
X147368615Y-124997833D01*
X147289389Y-124806564D01*
X147249000Y-124603516D01*
X147249000Y-124396484D01*
X147289389Y-124193436D01*
X147368615Y-124002167D01*
X147483635Y-123830027D01*
X147630027Y-123683635D01*
X147777588Y-123585038D01*
X147802165Y-123568616D01*
X147802167Y-123568615D01*
X147993436Y-123489389D01*
X148196484Y-123449000D01*
X148403516Y-123449000D01*
X148606564Y-123489389D01*
X148606564Y-123489389D01*
G37*
G36*
X146478210Y-123458489D02*
G01*
X146564950Y-123484802D01*
X146644889Y-123527530D01*
X146714962Y-123585038D01*
X146772470Y-123655111D01*
X146815198Y-123735050D01*
X146841511Y-123821790D01*
X146851000Y-123918140D01*
X146851000Y-125081860D01*
X146841511Y-125178210D01*
X146815198Y-125264950D01*
X146772470Y-125344889D01*
X146714962Y-125414962D01*
X146644889Y-125472470D01*
X146564950Y-125515198D01*
X146478210Y-125541511D01*
X146381860Y-125551000D01*
X145218140Y-125551000D01*
X145121790Y-125541511D01*
X145035050Y-125515198D01*
X144955111Y-125472470D01*
X144885038Y-125414962D01*
X144827530Y-125344889D01*
X144784802Y-125264950D01*
X144758489Y-125178210D01*
X144749000Y-125081860D01*
X144749000Y-123918140D01*
X144758489Y-123821790D01*
X144784802Y-123735050D01*
X144827530Y-123655111D01*
X144885038Y-123585038D01*
X144955111Y-123527530D01*
X145035050Y-123484802D01*
X145121790Y-123458489D01*
X145218140Y-123449000D01*
X146381860Y-123449000D01*
X146478210Y-123458489D01*
X146478210Y-123458489D01*
G37*
G36*
X139806564Y-123489389D02*
G01*
X139997833Y-123568615D01*
X139997835Y-123568616D01*
X140022412Y-123585038D01*
X140169973Y-123683635D01*
X140316365Y-123830027D01*
X140431385Y-124002167D01*
X140510611Y-124193436D01*
X140551000Y-124396484D01*
X140551000Y-124603516D01*
X140510611Y-124806564D01*
X140431385Y-124997833D01*
X140431384Y-124997835D01*
X140316365Y-125169973D01*
X140169973Y-125316365D01*
X139997835Y-125431384D01*
X139997834Y-125431385D01*
X139997833Y-125431385D01*
X139806564Y-125510611D01*
X139603516Y-125551000D01*
X139396484Y-125551000D01*
X139193436Y-125510611D01*
X139002167Y-125431385D01*
X139002166Y-125431385D01*
X139002165Y-125431384D01*
X138830027Y-125316365D01*
X138683635Y-125169973D01*
X138568616Y-124997835D01*
X138568615Y-124997833D01*
X138489389Y-124806564D01*
X138449000Y-124603516D01*
X138449000Y-124396484D01*
X138489389Y-124193436D01*
X138568615Y-124002167D01*
X138683635Y-123830027D01*
X138830027Y-123683635D01*
X138977588Y-123585038D01*
X139002165Y-123568616D01*
X139002167Y-123568615D01*
X139193436Y-123489389D01*
X139396484Y-123449000D01*
X139603516Y-123449000D01*
X139806564Y-123489389D01*
X139806564Y-123489389D01*
G37*
G36*
X137678210Y-123458489D02*
G01*
X137764950Y-123484802D01*
X137844889Y-123527530D01*
X137914962Y-123585038D01*
X137972470Y-123655111D01*
X138015198Y-123735050D01*
X138041511Y-123821790D01*
X138051000Y-123918140D01*
X138051000Y-125081860D01*
X138041511Y-125178210D01*
X138015198Y-125264950D01*
X137972470Y-125344889D01*
X137914962Y-125414962D01*
X137844889Y-125472470D01*
X137764950Y-125515198D01*
X137678210Y-125541511D01*
X137581860Y-125551000D01*
X136418140Y-125551000D01*
X136321790Y-125541511D01*
X136235050Y-125515198D01*
X136155111Y-125472470D01*
X136085038Y-125414962D01*
X136027530Y-125344889D01*
X135984802Y-125264950D01*
X135958489Y-125178210D01*
X135949000Y-125081860D01*
X135949000Y-123918140D01*
X135958489Y-123821790D01*
X135984802Y-123735050D01*
X136027530Y-123655111D01*
X136085038Y-123585038D01*
X136155111Y-123527530D01*
X136235050Y-123484802D01*
X136321790Y-123458489D01*
X136418140Y-123449000D01*
X137581860Y-123449000D01*
X137678210Y-123458489D01*
X137678210Y-123458489D01*
G37*
G36*
X131006564Y-123489389D02*
G01*
X131197833Y-123568615D01*
X131197835Y-123568616D01*
X131222412Y-123585038D01*
X131369973Y-123683635D01*
X131516365Y-123830027D01*
X131631385Y-124002167D01*
X131710611Y-124193436D01*
X131751000Y-124396484D01*
X131751000Y-124603516D01*
X131710611Y-124806564D01*
X131631385Y-124997833D01*
X131631384Y-124997835D01*
X131516365Y-125169973D01*
X131369973Y-125316365D01*
X131197835Y-125431384D01*
X131197834Y-125431385D01*
X131197833Y-125431385D01*
X131006564Y-125510611D01*
X130803516Y-125551000D01*
X130596484Y-125551000D01*
X130393436Y-125510611D01*
X130202167Y-125431385D01*
X130202166Y-125431385D01*
X130202165Y-125431384D01*
X130030027Y-125316365D01*
X129883635Y-125169973D01*
X129768616Y-124997835D01*
X129768615Y-124997833D01*
X129689389Y-124806564D01*
X129649000Y-124603516D01*
X129649000Y-124396484D01*
X129689389Y-124193436D01*
X129768615Y-124002167D01*
X129883635Y-123830027D01*
X130030027Y-123683635D01*
X130177588Y-123585038D01*
X130202165Y-123568616D01*
X130202167Y-123568615D01*
X130393436Y-123489389D01*
X130596484Y-123449000D01*
X130803516Y-123449000D01*
X131006564Y-123489389D01*
X131006564Y-123489389D01*
G37*
G36*
X128506564Y-123489389D02*
G01*
X128697833Y-123568615D01*
X128697835Y-123568616D01*
X128722412Y-123585038D01*
X128869973Y-123683635D01*
X129016365Y-123830027D01*
X129131385Y-124002167D01*
X129210611Y-124193436D01*
X129251000Y-124396484D01*
X129251000Y-124603516D01*
X129210611Y-124806564D01*
X129131385Y-124997833D01*
X129131384Y-124997835D01*
X129016365Y-125169973D01*
X128869973Y-125316365D01*
X128697835Y-125431384D01*
X128697834Y-125431385D01*
X128697833Y-125431385D01*
X128506564Y-125510611D01*
X128303516Y-125551000D01*
X128096484Y-125551000D01*
X127893436Y-125510611D01*
X127702167Y-125431385D01*
X127702166Y-125431385D01*
X127702165Y-125431384D01*
X127530027Y-125316365D01*
X127383635Y-125169973D01*
X127268616Y-124997835D01*
X127268615Y-124997833D01*
X127189389Y-124806564D01*
X127149000Y-124603516D01*
X127149000Y-124396484D01*
X127189389Y-124193436D01*
X127268615Y-124002167D01*
X127383635Y-123830027D01*
X127530027Y-123683635D01*
X127677588Y-123585038D01*
X127702165Y-123568616D01*
X127702167Y-123568615D01*
X127893436Y-123489389D01*
X128096484Y-123449000D01*
X128303516Y-123449000D01*
X128506564Y-123489389D01*
X128506564Y-123489389D01*
G37*
G36*
X126006564Y-123489389D02*
G01*
X126197833Y-123568615D01*
X126197835Y-123568616D01*
X126222412Y-123585038D01*
X126369973Y-123683635D01*
X126516365Y-123830027D01*
X126631385Y-124002167D01*
X126710611Y-124193436D01*
X126751000Y-124396484D01*
X126751000Y-124603516D01*
X126710611Y-124806564D01*
X126631385Y-124997833D01*
X126631384Y-124997835D01*
X126516365Y-125169973D01*
X126369973Y-125316365D01*
X126197835Y-125431384D01*
X126197834Y-125431385D01*
X126197833Y-125431385D01*
X126006564Y-125510611D01*
X125803516Y-125551000D01*
X125596484Y-125551000D01*
X125393436Y-125510611D01*
X125202167Y-125431385D01*
X125202166Y-125431385D01*
X125202165Y-125431384D01*
X125030027Y-125316365D01*
X124883635Y-125169973D01*
X124768616Y-124997835D01*
X124768615Y-124997833D01*
X124689389Y-124806564D01*
X124649000Y-124603516D01*
X124649000Y-124396484D01*
X124689389Y-124193436D01*
X124768615Y-124002167D01*
X124883635Y-123830027D01*
X125030027Y-123683635D01*
X125177588Y-123585038D01*
X125202165Y-123568616D01*
X125202167Y-123568615D01*
X125393436Y-123489389D01*
X125596484Y-123449000D01*
X125803516Y-123449000D01*
X126006564Y-123489389D01*
X126006564Y-123489389D01*
G37*
G36*
X123506564Y-123489389D02*
G01*
X123697833Y-123568615D01*
X123697835Y-123568616D01*
X123722412Y-123585038D01*
X123869973Y-123683635D01*
X124016365Y-123830027D01*
X124131385Y-124002167D01*
X124210611Y-124193436D01*
X124251000Y-124396484D01*
X124251000Y-124603516D01*
X124210611Y-124806564D01*
X124131385Y-124997833D01*
X124131384Y-124997835D01*
X124016365Y-125169973D01*
X123869973Y-125316365D01*
X123697835Y-125431384D01*
X123697834Y-125431385D01*
X123697833Y-125431385D01*
X123506564Y-125510611D01*
X123303516Y-125551000D01*
X123096484Y-125551000D01*
X122893436Y-125510611D01*
X122702167Y-125431385D01*
X122702166Y-125431385D01*
X122702165Y-125431384D01*
X122530027Y-125316365D01*
X122383635Y-125169973D01*
X122268616Y-124997835D01*
X122268615Y-124997833D01*
X122189389Y-124806564D01*
X122149000Y-124603516D01*
X122149000Y-124396484D01*
X122189389Y-124193436D01*
X122268615Y-124002167D01*
X122383635Y-123830027D01*
X122530027Y-123683635D01*
X122677588Y-123585038D01*
X122702165Y-123568616D01*
X122702167Y-123568615D01*
X122893436Y-123489389D01*
X123096484Y-123449000D01*
X123303516Y-123449000D01*
X123506564Y-123489389D01*
X123506564Y-123489389D01*
G37*
G36*
X121006564Y-123489389D02*
G01*
X121197833Y-123568615D01*
X121197835Y-123568616D01*
X121222412Y-123585038D01*
X121369973Y-123683635D01*
X121516365Y-123830027D01*
X121631385Y-124002167D01*
X121710611Y-124193436D01*
X121751000Y-124396484D01*
X121751000Y-124603516D01*
X121710611Y-124806564D01*
X121631385Y-124997833D01*
X121631384Y-124997835D01*
X121516365Y-125169973D01*
X121369973Y-125316365D01*
X121197835Y-125431384D01*
X121197834Y-125431385D01*
X121197833Y-125431385D01*
X121006564Y-125510611D01*
X120803516Y-125551000D01*
X120596484Y-125551000D01*
X120393436Y-125510611D01*
X120202167Y-125431385D01*
X120202166Y-125431385D01*
X120202165Y-125431384D01*
X120030027Y-125316365D01*
X119883635Y-125169973D01*
X119768616Y-124997835D01*
X119768615Y-124997833D01*
X119689389Y-124806564D01*
X119649000Y-124603516D01*
X119649000Y-124396484D01*
X119689389Y-124193436D01*
X119768615Y-124002167D01*
X119883635Y-123830027D01*
X120030027Y-123683635D01*
X120177588Y-123585038D01*
X120202165Y-123568616D01*
X120202167Y-123568615D01*
X120393436Y-123489389D01*
X120596484Y-123449000D01*
X120803516Y-123449000D01*
X121006564Y-123489389D01*
X121006564Y-123489389D01*
G37*
G36*
X118506564Y-123489389D02*
G01*
X118697833Y-123568615D01*
X118697835Y-123568616D01*
X118722412Y-123585038D01*
X118869973Y-123683635D01*
X119016365Y-123830027D01*
X119131385Y-124002167D01*
X119210611Y-124193436D01*
X119251000Y-124396484D01*
X119251000Y-124603516D01*
X119210611Y-124806564D01*
X119131385Y-124997833D01*
X119131384Y-124997835D01*
X119016365Y-125169973D01*
X118869973Y-125316365D01*
X118697835Y-125431384D01*
X118697834Y-125431385D01*
X118697833Y-125431385D01*
X118506564Y-125510611D01*
X118303516Y-125551000D01*
X118096484Y-125551000D01*
X117893436Y-125510611D01*
X117702167Y-125431385D01*
X117702166Y-125431385D01*
X117702165Y-125431384D01*
X117530027Y-125316365D01*
X117383635Y-125169973D01*
X117268616Y-124997835D01*
X117268615Y-124997833D01*
X117189389Y-124806564D01*
X117149000Y-124603516D01*
X117149000Y-124396484D01*
X117189389Y-124193436D01*
X117268615Y-124002167D01*
X117383635Y-123830027D01*
X117530027Y-123683635D01*
X117677588Y-123585038D01*
X117702165Y-123568616D01*
X117702167Y-123568615D01*
X117893436Y-123489389D01*
X118096484Y-123449000D01*
X118303516Y-123449000D01*
X118506564Y-123489389D01*
X118506564Y-123489389D01*
G37*
G36*
X116006564Y-123489389D02*
G01*
X116197833Y-123568615D01*
X116197835Y-123568616D01*
X116222412Y-123585038D01*
X116369973Y-123683635D01*
X116516365Y-123830027D01*
X116631385Y-124002167D01*
X116710611Y-124193436D01*
X116751000Y-124396484D01*
X116751000Y-124603516D01*
X116710611Y-124806564D01*
X116631385Y-124997833D01*
X116631384Y-124997835D01*
X116516365Y-125169973D01*
X116369973Y-125316365D01*
X116197835Y-125431384D01*
X116197834Y-125431385D01*
X116197833Y-125431385D01*
X116006564Y-125510611D01*
X115803516Y-125551000D01*
X115596484Y-125551000D01*
X115393436Y-125510611D01*
X115202167Y-125431385D01*
X115202166Y-125431385D01*
X115202165Y-125431384D01*
X115030027Y-125316365D01*
X114883635Y-125169973D01*
X114768616Y-124997835D01*
X114768615Y-124997833D01*
X114689389Y-124806564D01*
X114649000Y-124603516D01*
X114649000Y-124396484D01*
X114689389Y-124193436D01*
X114768615Y-124002167D01*
X114883635Y-123830027D01*
X115030027Y-123683635D01*
X115177588Y-123585038D01*
X115202165Y-123568616D01*
X115202167Y-123568615D01*
X115393436Y-123489389D01*
X115596484Y-123449000D01*
X115803516Y-123449000D01*
X116006564Y-123489389D01*
X116006564Y-123489389D01*
G37*
G36*
X113878210Y-123458489D02*
G01*
X113964950Y-123484802D01*
X114044889Y-123527530D01*
X114114962Y-123585038D01*
X114172470Y-123655111D01*
X114215198Y-123735050D01*
X114241511Y-123821790D01*
X114251000Y-123918140D01*
X114251000Y-125081860D01*
X114241511Y-125178210D01*
X114215198Y-125264950D01*
X114172470Y-125344889D01*
X114114962Y-125414962D01*
X114044889Y-125472470D01*
X113964950Y-125515198D01*
X113878210Y-125541511D01*
X113781860Y-125551000D01*
X112618140Y-125551000D01*
X112521790Y-125541511D01*
X112435050Y-125515198D01*
X112355111Y-125472470D01*
X112285038Y-125414962D01*
X112227530Y-125344889D01*
X112184802Y-125264950D01*
X112158489Y-125178210D01*
X112149000Y-125081860D01*
X112149000Y-123918140D01*
X112158489Y-123821790D01*
X112184802Y-123735050D01*
X112227530Y-123655111D01*
X112285038Y-123585038D01*
X112355111Y-123527530D01*
X112435050Y-123484802D01*
X112521790Y-123458489D01*
X112618140Y-123449000D01*
X113781860Y-123449000D01*
X113878210Y-123458489D01*
X113878210Y-123458489D01*
G37*
G36*
X174906564Y-123489389D02*
G01*
X175097833Y-123568615D01*
X175097835Y-123568616D01*
X175122412Y-123585038D01*
X175269973Y-123683635D01*
X175416365Y-123830027D01*
X175531385Y-124002167D01*
X175610611Y-124193436D01*
X175651000Y-124396484D01*
X175651000Y-124603516D01*
X175610611Y-124806564D01*
X175531385Y-124997833D01*
X175531384Y-124997835D01*
X175416365Y-125169973D01*
X175269973Y-125316365D01*
X175097835Y-125431384D01*
X175097834Y-125431385D01*
X175097833Y-125431385D01*
X174906564Y-125510611D01*
X174703516Y-125551000D01*
X174496484Y-125551000D01*
X174293436Y-125510611D01*
X174102167Y-125431385D01*
X174102166Y-125431385D01*
X174102165Y-125431384D01*
X173930027Y-125316365D01*
X173783635Y-125169973D01*
X173668616Y-124997835D01*
X173668615Y-124997833D01*
X173589389Y-124806564D01*
X173549000Y-124603516D01*
X173549000Y-124396484D01*
X173589389Y-124193436D01*
X173668615Y-124002167D01*
X173783635Y-123830027D01*
X173930027Y-123683635D01*
X174077588Y-123585038D01*
X174102165Y-123568616D01*
X174102167Y-123568615D01*
X174293436Y-123489389D01*
X174496484Y-123449000D01*
X174703516Y-123449000D01*
X174906564Y-123489389D01*
X174906564Y-123489389D01*
G37*
G36*
X172406564Y-123489389D02*
G01*
X172597833Y-123568615D01*
X172597835Y-123568616D01*
X172622412Y-123585038D01*
X172769973Y-123683635D01*
X172916365Y-123830027D01*
X173031385Y-124002167D01*
X173110611Y-124193436D01*
X173151000Y-124396484D01*
X173151000Y-124603516D01*
X173110611Y-124806564D01*
X173031385Y-124997833D01*
X173031384Y-124997835D01*
X172916365Y-125169973D01*
X172769973Y-125316365D01*
X172597835Y-125431384D01*
X172597834Y-125431385D01*
X172597833Y-125431385D01*
X172406564Y-125510611D01*
X172203516Y-125551000D01*
X171996484Y-125551000D01*
X171793436Y-125510611D01*
X171602167Y-125431385D01*
X171602166Y-125431385D01*
X171602165Y-125431384D01*
X171430027Y-125316365D01*
X171283635Y-125169973D01*
X171168616Y-124997835D01*
X171168615Y-124997833D01*
X171089389Y-124806564D01*
X171049000Y-124603516D01*
X171049000Y-124396484D01*
X171089389Y-124193436D01*
X171168615Y-124002167D01*
X171283635Y-123830027D01*
X171430027Y-123683635D01*
X171577588Y-123585038D01*
X171602165Y-123568616D01*
X171602167Y-123568615D01*
X171793436Y-123489389D01*
X171996484Y-123449000D01*
X172203516Y-123449000D01*
X172406564Y-123489389D01*
X172406564Y-123489389D01*
G37*
G36*
X169906564Y-123489389D02*
G01*
X170097833Y-123568615D01*
X170097835Y-123568616D01*
X170122412Y-123585038D01*
X170269973Y-123683635D01*
X170416365Y-123830027D01*
X170531385Y-124002167D01*
X170610611Y-124193436D01*
X170651000Y-124396484D01*
X170651000Y-124603516D01*
X170610611Y-124806564D01*
X170531385Y-124997833D01*
X170531384Y-124997835D01*
X170416365Y-125169973D01*
X170269973Y-125316365D01*
X170097835Y-125431384D01*
X170097834Y-125431385D01*
X170097833Y-125431385D01*
X169906564Y-125510611D01*
X169703516Y-125551000D01*
X169496484Y-125551000D01*
X169293436Y-125510611D01*
X169102167Y-125431385D01*
X169102166Y-125431385D01*
X169102165Y-125431384D01*
X168930027Y-125316365D01*
X168783635Y-125169973D01*
X168668616Y-124997835D01*
X168668615Y-124997833D01*
X168589389Y-124806564D01*
X168549000Y-124603516D01*
X168549000Y-124396484D01*
X168589389Y-124193436D01*
X168668615Y-124002167D01*
X168783635Y-123830027D01*
X168930027Y-123683635D01*
X169077588Y-123585038D01*
X169102165Y-123568616D01*
X169102167Y-123568615D01*
X169293436Y-123489389D01*
X169496484Y-123449000D01*
X169703516Y-123449000D01*
X169906564Y-123489389D01*
X169906564Y-123489389D01*
G37*
G36*
X167406564Y-123489389D02*
G01*
X167597833Y-123568615D01*
X167597835Y-123568616D01*
X167622412Y-123585038D01*
X167769973Y-123683635D01*
X167916365Y-123830027D01*
X168031385Y-124002167D01*
X168110611Y-124193436D01*
X168151000Y-124396484D01*
X168151000Y-124603516D01*
X168110611Y-124806564D01*
X168031385Y-124997833D01*
X168031384Y-124997835D01*
X167916365Y-125169973D01*
X167769973Y-125316365D01*
X167597835Y-125431384D01*
X167597834Y-125431385D01*
X167597833Y-125431385D01*
X167406564Y-125510611D01*
X167203516Y-125551000D01*
X166996484Y-125551000D01*
X166793436Y-125510611D01*
X166602167Y-125431385D01*
X166602166Y-125431385D01*
X166602165Y-125431384D01*
X166430027Y-125316365D01*
X166283635Y-125169973D01*
X166168616Y-124997835D01*
X166168615Y-124997833D01*
X166089389Y-124806564D01*
X166049000Y-124603516D01*
X166049000Y-124396484D01*
X166089389Y-124193436D01*
X166168615Y-124002167D01*
X166283635Y-123830027D01*
X166430027Y-123683635D01*
X166577588Y-123585038D01*
X166602165Y-123568616D01*
X166602167Y-123568615D01*
X166793436Y-123489389D01*
X166996484Y-123449000D01*
X167203516Y-123449000D01*
X167406564Y-123489389D01*
X167406564Y-123489389D01*
G37*
G36*
X114688062Y-119278181D02*
G01*
X114722981Y-119288774D01*
X114755163Y-119305976D01*
X114783373Y-119329127D01*
X114806524Y-119357337D01*
X114823726Y-119389519D01*
X114834319Y-119424438D01*
X114838500Y-119466895D01*
X114838500Y-120933105D01*
X114834319Y-120975562D01*
X114823726Y-121010481D01*
X114806524Y-121042663D01*
X114783373Y-121070873D01*
X114755163Y-121094024D01*
X114722981Y-121111226D01*
X114688062Y-121121819D01*
X114645605Y-121126000D01*
X113504395Y-121126000D01*
X113461938Y-121121819D01*
X113427019Y-121111226D01*
X113394837Y-121094024D01*
X113366627Y-121070873D01*
X113343476Y-121042663D01*
X113326274Y-121010481D01*
X113315681Y-120975562D01*
X113311500Y-120933105D01*
X113311500Y-119466895D01*
X113315681Y-119424438D01*
X113326274Y-119389519D01*
X113343476Y-119357337D01*
X113366627Y-119329127D01*
X113394837Y-119305976D01*
X113427019Y-119288774D01*
X113461938Y-119278181D01*
X113504395Y-119274000D01*
X114645605Y-119274000D01*
X114688062Y-119278181D01*
X114688062Y-119278181D01*
G37*
G36*
X111713062Y-119278181D02*
G01*
X111747981Y-119288774D01*
X111780163Y-119305976D01*
X111808373Y-119329127D01*
X111831524Y-119357337D01*
X111848726Y-119389519D01*
X111859319Y-119424438D01*
X111863500Y-119466895D01*
X111863500Y-120933105D01*
X111859319Y-120975562D01*
X111848726Y-121010481D01*
X111831524Y-121042663D01*
X111808373Y-121070873D01*
X111780163Y-121094024D01*
X111747981Y-121111226D01*
X111713062Y-121121819D01*
X111670605Y-121126000D01*
X110529395Y-121126000D01*
X110486938Y-121121819D01*
X110452019Y-121111226D01*
X110419837Y-121094024D01*
X110391627Y-121070873D01*
X110368476Y-121042663D01*
X110351274Y-121010481D01*
X110340681Y-120975562D01*
X110336500Y-120933105D01*
X110336500Y-119466895D01*
X110340681Y-119424438D01*
X110351274Y-119389519D01*
X110368476Y-119357337D01*
X110391627Y-119329127D01*
X110419837Y-119305976D01*
X110452019Y-119288774D01*
X110486938Y-119278181D01*
X110529395Y-119274000D01*
X111670605Y-119274000D01*
X111713062Y-119278181D01*
X111713062Y-119278181D01*
G37*
G36*
X167713674Y-118703465D02*
G01*
X167751367Y-118714899D01*
X167786103Y-118733466D01*
X167816548Y-118758452D01*
X167841534Y-118788897D01*
X167860101Y-118823633D01*
X167871535Y-118861326D01*
X167876000Y-118906661D01*
X167876000Y-119743339D01*
X167871535Y-119788674D01*
X167860101Y-119826367D01*
X167841534Y-119861103D01*
X167816548Y-119891548D01*
X167786103Y-119916534D01*
X167751367Y-119935101D01*
X167713674Y-119946535D01*
X167668339Y-119951000D01*
X166581661Y-119951000D01*
X166536326Y-119946535D01*
X166498633Y-119935101D01*
X166463897Y-119916534D01*
X166433452Y-119891548D01*
X166408466Y-119861103D01*
X166389899Y-119826367D01*
X166378465Y-119788674D01*
X166374000Y-119743339D01*
X166374000Y-118906661D01*
X166378465Y-118861326D01*
X166389899Y-118823633D01*
X166408466Y-118788897D01*
X166433452Y-118758452D01*
X166463897Y-118733466D01*
X166498633Y-118714899D01*
X166536326Y-118703465D01*
X166581661Y-118699000D01*
X167668339Y-118699000D01*
X167713674Y-118703465D01*
X167713674Y-118703465D01*
G37*
G36*
X170163674Y-118678465D02*
G01*
X170201367Y-118689899D01*
X170236103Y-118708466D01*
X170266548Y-118733452D01*
X170291534Y-118763897D01*
X170310101Y-118798633D01*
X170321535Y-118836326D01*
X170326000Y-118881661D01*
X170326000Y-119718339D01*
X170321535Y-119763674D01*
X170310101Y-119801367D01*
X170291534Y-119836103D01*
X170266548Y-119866548D01*
X170236103Y-119891534D01*
X170201367Y-119910101D01*
X170163674Y-119921535D01*
X170118339Y-119926000D01*
X169031661Y-119926000D01*
X168986326Y-119921535D01*
X168948633Y-119910101D01*
X168913897Y-119891534D01*
X168883452Y-119866548D01*
X168858466Y-119836103D01*
X168839899Y-119801367D01*
X168828465Y-119763674D01*
X168824000Y-119718339D01*
X168824000Y-118881661D01*
X168828465Y-118836326D01*
X168839899Y-118798633D01*
X168858466Y-118763897D01*
X168883452Y-118733452D01*
X168913897Y-118708466D01*
X168948633Y-118689899D01*
X168986326Y-118678465D01*
X169031661Y-118674000D01*
X170118339Y-118674000D01*
X170163674Y-118678465D01*
X170163674Y-118678465D01*
G37*
G36*
X160188674Y-118678465D02*
G01*
X160226367Y-118689899D01*
X160261103Y-118708466D01*
X160291548Y-118733452D01*
X160316534Y-118763897D01*
X160335101Y-118798633D01*
X160346535Y-118836326D01*
X160351000Y-118881661D01*
X160351000Y-119718339D01*
X160346535Y-119763674D01*
X160335101Y-119801367D01*
X160316534Y-119836103D01*
X160291548Y-119866548D01*
X160261103Y-119891534D01*
X160226367Y-119910101D01*
X160188674Y-119921535D01*
X160143339Y-119926000D01*
X159056661Y-119926000D01*
X159011326Y-119921535D01*
X158973633Y-119910101D01*
X158938897Y-119891534D01*
X158908452Y-119866548D01*
X158883466Y-119836103D01*
X158864899Y-119801367D01*
X158853465Y-119763674D01*
X158849000Y-119718339D01*
X158849000Y-118881661D01*
X158853465Y-118836326D01*
X158864899Y-118798633D01*
X158883466Y-118763897D01*
X158908452Y-118733452D01*
X158938897Y-118708466D01*
X158973633Y-118689899D01*
X159011326Y-118678465D01*
X159056661Y-118674000D01*
X160143339Y-118674000D01*
X160188674Y-118678465D01*
X160188674Y-118678465D01*
G37*
G36*
X165188674Y-118678465D02*
G01*
X165226367Y-118689899D01*
X165261103Y-118708466D01*
X165291548Y-118733452D01*
X165316534Y-118763897D01*
X165335101Y-118798633D01*
X165346535Y-118836326D01*
X165351000Y-118881661D01*
X165351000Y-119718339D01*
X165346535Y-119763674D01*
X165335101Y-119801367D01*
X165316534Y-119836103D01*
X165291548Y-119866548D01*
X165261103Y-119891534D01*
X165226367Y-119910101D01*
X165188674Y-119921535D01*
X165143339Y-119926000D01*
X164056661Y-119926000D01*
X164011326Y-119921535D01*
X163973633Y-119910101D01*
X163938897Y-119891534D01*
X163908452Y-119866548D01*
X163883466Y-119836103D01*
X163864899Y-119801367D01*
X163853465Y-119763674D01*
X163849000Y-119718339D01*
X163849000Y-118881661D01*
X163853465Y-118836326D01*
X163864899Y-118798633D01*
X163883466Y-118763897D01*
X163908452Y-118733452D01*
X163938897Y-118708466D01*
X163973633Y-118689899D01*
X164011326Y-118678465D01*
X164056661Y-118674000D01*
X165143339Y-118674000D01*
X165188674Y-118678465D01*
X165188674Y-118678465D01*
G37*
G36*
X162713674Y-118678465D02*
G01*
X162751367Y-118689899D01*
X162786103Y-118708466D01*
X162816548Y-118733452D01*
X162841534Y-118763897D01*
X162860101Y-118798633D01*
X162871535Y-118836326D01*
X162876000Y-118881661D01*
X162876000Y-119718339D01*
X162871535Y-119763674D01*
X162860101Y-119801367D01*
X162841534Y-119836103D01*
X162816548Y-119866548D01*
X162786103Y-119891534D01*
X162751367Y-119910101D01*
X162713674Y-119921535D01*
X162668339Y-119926000D01*
X161581661Y-119926000D01*
X161536326Y-119921535D01*
X161498633Y-119910101D01*
X161463897Y-119891534D01*
X161433452Y-119866548D01*
X161408466Y-119836103D01*
X161389899Y-119801367D01*
X161378465Y-119763674D01*
X161374000Y-119718339D01*
X161374000Y-118881661D01*
X161378465Y-118836326D01*
X161389899Y-118798633D01*
X161408466Y-118763897D01*
X161433452Y-118733452D01*
X161463897Y-118708466D01*
X161498633Y-118689899D01*
X161536326Y-118678465D01*
X161581661Y-118674000D01*
X162668339Y-118674000D01*
X162713674Y-118678465D01*
X162713674Y-118678465D01*
G37*
G36*
X157713674Y-118653465D02*
G01*
X157751367Y-118664899D01*
X157786103Y-118683466D01*
X157816548Y-118708452D01*
X157841534Y-118738897D01*
X157860101Y-118773633D01*
X157871535Y-118811326D01*
X157876000Y-118856661D01*
X157876000Y-119693339D01*
X157871535Y-119738674D01*
X157860101Y-119776367D01*
X157841534Y-119811103D01*
X157816548Y-119841548D01*
X157786103Y-119866534D01*
X157751367Y-119885101D01*
X157713674Y-119896535D01*
X157668339Y-119901000D01*
X156581661Y-119901000D01*
X156536326Y-119896535D01*
X156498633Y-119885101D01*
X156463897Y-119866534D01*
X156433452Y-119841548D01*
X156408466Y-119811103D01*
X156389899Y-119776367D01*
X156378465Y-119738674D01*
X156374000Y-119693339D01*
X156374000Y-118856661D01*
X156378465Y-118811326D01*
X156389899Y-118773633D01*
X156408466Y-118738897D01*
X156433452Y-118708452D01*
X156463897Y-118683466D01*
X156498633Y-118664899D01*
X156536326Y-118653465D01*
X156581661Y-118649000D01*
X157668339Y-118649000D01*
X157713674Y-118653465D01*
X157713674Y-118653465D01*
G37*
G36*
X167713674Y-116653465D02*
G01*
X167751367Y-116664899D01*
X167786103Y-116683466D01*
X167816548Y-116708452D01*
X167841534Y-116738897D01*
X167860101Y-116773633D01*
X167871535Y-116811326D01*
X167876000Y-116856661D01*
X167876000Y-117693339D01*
X167871535Y-117738674D01*
X167860101Y-117776367D01*
X167841534Y-117811103D01*
X167816548Y-117841548D01*
X167786103Y-117866534D01*
X167751367Y-117885101D01*
X167713674Y-117896535D01*
X167668339Y-117901000D01*
X166581661Y-117901000D01*
X166536326Y-117896535D01*
X166498633Y-117885101D01*
X166463897Y-117866534D01*
X166433452Y-117841548D01*
X166408466Y-117811103D01*
X166389899Y-117776367D01*
X166378465Y-117738674D01*
X166374000Y-117693339D01*
X166374000Y-116856661D01*
X166378465Y-116811326D01*
X166389899Y-116773633D01*
X166408466Y-116738897D01*
X166433452Y-116708452D01*
X166463897Y-116683466D01*
X166498633Y-116664899D01*
X166536326Y-116653465D01*
X166581661Y-116649000D01*
X167668339Y-116649000D01*
X167713674Y-116653465D01*
X167713674Y-116653465D01*
G37*
G36*
X160188674Y-116628465D02*
G01*
X160226367Y-116639899D01*
X160261103Y-116658466D01*
X160291548Y-116683452D01*
X160316534Y-116713897D01*
X160335101Y-116748633D01*
X160346535Y-116786326D01*
X160351000Y-116831661D01*
X160351000Y-117668339D01*
X160346535Y-117713674D01*
X160335101Y-117751367D01*
X160316534Y-117786103D01*
X160291548Y-117816548D01*
X160261103Y-117841534D01*
X160226367Y-117860101D01*
X160188674Y-117871535D01*
X160143339Y-117876000D01*
X159056661Y-117876000D01*
X159011326Y-117871535D01*
X158973633Y-117860101D01*
X158938897Y-117841534D01*
X158908452Y-117816548D01*
X158883466Y-117786103D01*
X158864899Y-117751367D01*
X158853465Y-117713674D01*
X158849000Y-117668339D01*
X158849000Y-116831661D01*
X158853465Y-116786326D01*
X158864899Y-116748633D01*
X158883466Y-116713897D01*
X158908452Y-116683452D01*
X158938897Y-116658466D01*
X158973633Y-116639899D01*
X159011326Y-116628465D01*
X159056661Y-116624000D01*
X160143339Y-116624000D01*
X160188674Y-116628465D01*
X160188674Y-116628465D01*
G37*
G36*
X165188674Y-116628465D02*
G01*
X165226367Y-116639899D01*
X165261103Y-116658466D01*
X165291548Y-116683452D01*
X165316534Y-116713897D01*
X165335101Y-116748633D01*
X165346535Y-116786326D01*
X165351000Y-116831661D01*
X165351000Y-117668339D01*
X165346535Y-117713674D01*
X165335101Y-117751367D01*
X165316534Y-117786103D01*
X165291548Y-117816548D01*
X165261103Y-117841534D01*
X165226367Y-117860101D01*
X165188674Y-117871535D01*
X165143339Y-117876000D01*
X164056661Y-117876000D01*
X164011326Y-117871535D01*
X163973633Y-117860101D01*
X163938897Y-117841534D01*
X163908452Y-117816548D01*
X163883466Y-117786103D01*
X163864899Y-117751367D01*
X163853465Y-117713674D01*
X163849000Y-117668339D01*
X163849000Y-116831661D01*
X163853465Y-116786326D01*
X163864899Y-116748633D01*
X163883466Y-116713897D01*
X163908452Y-116683452D01*
X163938897Y-116658466D01*
X163973633Y-116639899D01*
X164011326Y-116628465D01*
X164056661Y-116624000D01*
X165143339Y-116624000D01*
X165188674Y-116628465D01*
X165188674Y-116628465D01*
G37*
G36*
X170163674Y-116628465D02*
G01*
X170201367Y-116639899D01*
X170236103Y-116658466D01*
X170266548Y-116683452D01*
X170291534Y-116713897D01*
X170310101Y-116748633D01*
X170321535Y-116786326D01*
X170326000Y-116831661D01*
X170326000Y-117668339D01*
X170321535Y-117713674D01*
X170310101Y-117751367D01*
X170291534Y-117786103D01*
X170266548Y-117816548D01*
X170236103Y-117841534D01*
X170201367Y-117860101D01*
X170163674Y-117871535D01*
X170118339Y-117876000D01*
X169031661Y-117876000D01*
X168986326Y-117871535D01*
X168948633Y-117860101D01*
X168913897Y-117841534D01*
X168883452Y-117816548D01*
X168858466Y-117786103D01*
X168839899Y-117751367D01*
X168828465Y-117713674D01*
X168824000Y-117668339D01*
X168824000Y-116831661D01*
X168828465Y-116786326D01*
X168839899Y-116748633D01*
X168858466Y-116713897D01*
X168883452Y-116683452D01*
X168913897Y-116658466D01*
X168948633Y-116639899D01*
X168986326Y-116628465D01*
X169031661Y-116624000D01*
X170118339Y-116624000D01*
X170163674Y-116628465D01*
X170163674Y-116628465D01*
G37*
G36*
X162713674Y-116628465D02*
G01*
X162751367Y-116639899D01*
X162786103Y-116658466D01*
X162816548Y-116683452D01*
X162841534Y-116713897D01*
X162860101Y-116748633D01*
X162871535Y-116786326D01*
X162876000Y-116831661D01*
X162876000Y-117668339D01*
X162871535Y-117713674D01*
X162860101Y-117751367D01*
X162841534Y-117786103D01*
X162816548Y-117816548D01*
X162786103Y-117841534D01*
X162751367Y-117860101D01*
X162713674Y-117871535D01*
X162668339Y-117876000D01*
X161581661Y-117876000D01*
X161536326Y-117871535D01*
X161498633Y-117860101D01*
X161463897Y-117841534D01*
X161433452Y-117816548D01*
X161408466Y-117786103D01*
X161389899Y-117751367D01*
X161378465Y-117713674D01*
X161374000Y-117668339D01*
X161374000Y-116831661D01*
X161378465Y-116786326D01*
X161389899Y-116748633D01*
X161408466Y-116713897D01*
X161433452Y-116683452D01*
X161463897Y-116658466D01*
X161498633Y-116639899D01*
X161536326Y-116628465D01*
X161581661Y-116624000D01*
X162668339Y-116624000D01*
X162713674Y-116628465D01*
X162713674Y-116628465D01*
G37*
G36*
X157713674Y-116603465D02*
G01*
X157751367Y-116614899D01*
X157786103Y-116633466D01*
X157816548Y-116658452D01*
X157841534Y-116688897D01*
X157860101Y-116723633D01*
X157871535Y-116761326D01*
X157876000Y-116806661D01*
X157876000Y-117643339D01*
X157871535Y-117688674D01*
X157860101Y-117726367D01*
X157841534Y-117761103D01*
X157816548Y-117791548D01*
X157786103Y-117816534D01*
X157751367Y-117835101D01*
X157713674Y-117846535D01*
X157668339Y-117851000D01*
X156581661Y-117851000D01*
X156536326Y-117846535D01*
X156498633Y-117835101D01*
X156463897Y-117816534D01*
X156433452Y-117791548D01*
X156408466Y-117761103D01*
X156389899Y-117726367D01*
X156378465Y-117688674D01*
X156374000Y-117643339D01*
X156374000Y-116806661D01*
X156378465Y-116761326D01*
X156389899Y-116723633D01*
X156408466Y-116688897D01*
X156433452Y-116658452D01*
X156463897Y-116633466D01*
X156498633Y-116614899D01*
X156536326Y-116603465D01*
X156581661Y-116599000D01*
X157668339Y-116599000D01*
X157713674Y-116603465D01*
X157713674Y-116603465D01*
G37*
G36*
X148788674Y-116478465D02*
G01*
X148826367Y-116489899D01*
X148861103Y-116508466D01*
X148891548Y-116533452D01*
X148916534Y-116563897D01*
X148935101Y-116598633D01*
X148946535Y-116636326D01*
X148951000Y-116681661D01*
X148951000Y-117518339D01*
X148946535Y-117563674D01*
X148935101Y-117601367D01*
X148916534Y-117636103D01*
X148891548Y-117666548D01*
X148861103Y-117691534D01*
X148826367Y-117710101D01*
X148788674Y-117721535D01*
X148743339Y-117726000D01*
X147656661Y-117726000D01*
X147611326Y-117721535D01*
X147573633Y-117710101D01*
X147538897Y-117691534D01*
X147508452Y-117666548D01*
X147483466Y-117636103D01*
X147464899Y-117601367D01*
X147453465Y-117563674D01*
X147449000Y-117518339D01*
X147449000Y-116681661D01*
X147453465Y-116636326D01*
X147464899Y-116598633D01*
X147483466Y-116563897D01*
X147508452Y-116533452D01*
X147538897Y-116508466D01*
X147573633Y-116489899D01*
X147611326Y-116478465D01*
X147656661Y-116474000D01*
X148743339Y-116474000D01*
X148788674Y-116478465D01*
X148788674Y-116478465D01*
G37*
G36*
X151288674Y-116378465D02*
G01*
X151326367Y-116389899D01*
X151361103Y-116408466D01*
X151391548Y-116433452D01*
X151416534Y-116463897D01*
X151435101Y-116498633D01*
X151446535Y-116536326D01*
X151451000Y-116581661D01*
X151451000Y-117418339D01*
X151446535Y-117463674D01*
X151435101Y-117501367D01*
X151416534Y-117536103D01*
X151391548Y-117566548D01*
X151361103Y-117591534D01*
X151326367Y-117610101D01*
X151288674Y-117621535D01*
X151243339Y-117626000D01*
X150156661Y-117626000D01*
X150111326Y-117621535D01*
X150073633Y-117610101D01*
X150038897Y-117591534D01*
X150008452Y-117566548D01*
X149983466Y-117536103D01*
X149964899Y-117501367D01*
X149953465Y-117463674D01*
X149949000Y-117418339D01*
X149949000Y-116581661D01*
X149953465Y-116536326D01*
X149964899Y-116498633D01*
X149983466Y-116463897D01*
X150008452Y-116433452D01*
X150038897Y-116408466D01*
X150073633Y-116389899D01*
X150111326Y-116378465D01*
X150156661Y-116374000D01*
X151243339Y-116374000D01*
X151288674Y-116378465D01*
X151288674Y-116378465D01*
G37*
G36*
X148788674Y-114428465D02*
G01*
X148826367Y-114439899D01*
X148861103Y-114458466D01*
X148891548Y-114483452D01*
X148916534Y-114513897D01*
X148935101Y-114548633D01*
X148946535Y-114586326D01*
X148951000Y-114631661D01*
X148951000Y-115468339D01*
X148946535Y-115513674D01*
X148935101Y-115551367D01*
X148916534Y-115586103D01*
X148891548Y-115616548D01*
X148861103Y-115641534D01*
X148826367Y-115660101D01*
X148788674Y-115671535D01*
X148743339Y-115676000D01*
X147656661Y-115676000D01*
X147611326Y-115671535D01*
X147573633Y-115660101D01*
X147538897Y-115641534D01*
X147508452Y-115616548D01*
X147483466Y-115586103D01*
X147464899Y-115551367D01*
X147453465Y-115513674D01*
X147449000Y-115468339D01*
X147449000Y-114631661D01*
X147453465Y-114586326D01*
X147464899Y-114548633D01*
X147483466Y-114513897D01*
X147508452Y-114483452D01*
X147538897Y-114458466D01*
X147573633Y-114439899D01*
X147611326Y-114428465D01*
X147656661Y-114424000D01*
X148743339Y-114424000D01*
X148788674Y-114428465D01*
X148788674Y-114428465D01*
G37*
G36*
X151288674Y-114328465D02*
G01*
X151326367Y-114339899D01*
X151361103Y-114358466D01*
X151391548Y-114383452D01*
X151416534Y-114413897D01*
X151435101Y-114448633D01*
X151446535Y-114486326D01*
X151451000Y-114531661D01*
X151451000Y-115368339D01*
X151446535Y-115413674D01*
X151435101Y-115451367D01*
X151416534Y-115486103D01*
X151391548Y-115516548D01*
X151361103Y-115541534D01*
X151326367Y-115560101D01*
X151288674Y-115571535D01*
X151243339Y-115576000D01*
X150156661Y-115576000D01*
X150111326Y-115571535D01*
X150073633Y-115560101D01*
X150038897Y-115541534D01*
X150008452Y-115516548D01*
X149983466Y-115486103D01*
X149964899Y-115451367D01*
X149953465Y-115413674D01*
X149949000Y-115368339D01*
X149949000Y-114531661D01*
X149953465Y-114486326D01*
X149964899Y-114448633D01*
X149983466Y-114413897D01*
X150008452Y-114383452D01*
X150038897Y-114358466D01*
X150073633Y-114339899D01*
X150111326Y-114328465D01*
X150156661Y-114324000D01*
X151243339Y-114324000D01*
X151288674Y-114328465D01*
X151288674Y-114328465D01*
G37*
G36*
X128788674Y-97903465D02*
G01*
X128826367Y-97914899D01*
X128861103Y-97933466D01*
X128891548Y-97958452D01*
X128916534Y-97988897D01*
X128935101Y-98023633D01*
X128946535Y-98061326D01*
X128951000Y-98106661D01*
X128951000Y-98943339D01*
X128946535Y-98988674D01*
X128935101Y-99026367D01*
X128916534Y-99061103D01*
X128891548Y-99091548D01*
X128861103Y-99116534D01*
X128826367Y-99135101D01*
X128788674Y-99146535D01*
X128743339Y-99151000D01*
X127656661Y-99151000D01*
X127611326Y-99146535D01*
X127573633Y-99135101D01*
X127538897Y-99116534D01*
X127508452Y-99091548D01*
X127483466Y-99061103D01*
X127464899Y-99026367D01*
X127453465Y-98988674D01*
X127449000Y-98943339D01*
X127449000Y-98106661D01*
X127453465Y-98061326D01*
X127464899Y-98023633D01*
X127483466Y-97988897D01*
X127508452Y-97958452D01*
X127538897Y-97933466D01*
X127573633Y-97914899D01*
X127611326Y-97903465D01*
X127656661Y-97899000D01*
X128743339Y-97899000D01*
X128788674Y-97903465D01*
X128788674Y-97903465D01*
G37*
G36*
X121288674Y-97903465D02*
G01*
X121326367Y-97914899D01*
X121361103Y-97933466D01*
X121391548Y-97958452D01*
X121416534Y-97988897D01*
X121435101Y-98023633D01*
X121446535Y-98061326D01*
X121451000Y-98106661D01*
X121451000Y-98943339D01*
X121446535Y-98988674D01*
X121435101Y-99026367D01*
X121416534Y-99061103D01*
X121391548Y-99091548D01*
X121361103Y-99116534D01*
X121326367Y-99135101D01*
X121288674Y-99146535D01*
X121243339Y-99151000D01*
X120156661Y-99151000D01*
X120111326Y-99146535D01*
X120073633Y-99135101D01*
X120038897Y-99116534D01*
X120008452Y-99091548D01*
X119983466Y-99061103D01*
X119964899Y-99026367D01*
X119953465Y-98988674D01*
X119949000Y-98943339D01*
X119949000Y-98106661D01*
X119953465Y-98061326D01*
X119964899Y-98023633D01*
X119983466Y-97988897D01*
X120008452Y-97958452D01*
X120038897Y-97933466D01*
X120073633Y-97914899D01*
X120111326Y-97903465D01*
X120156661Y-97899000D01*
X121243339Y-97899000D01*
X121288674Y-97903465D01*
X121288674Y-97903465D01*
G37*
G36*
X126288674Y-97903465D02*
G01*
X126326367Y-97914899D01*
X126361103Y-97933466D01*
X126391548Y-97958452D01*
X126416534Y-97988897D01*
X126435101Y-98023633D01*
X126446535Y-98061326D01*
X126451000Y-98106661D01*
X126451000Y-98943339D01*
X126446535Y-98988674D01*
X126435101Y-99026367D01*
X126416534Y-99061103D01*
X126391548Y-99091548D01*
X126361103Y-99116534D01*
X126326367Y-99135101D01*
X126288674Y-99146535D01*
X126243339Y-99151000D01*
X125156661Y-99151000D01*
X125111326Y-99146535D01*
X125073633Y-99135101D01*
X125038897Y-99116534D01*
X125008452Y-99091548D01*
X124983466Y-99061103D01*
X124964899Y-99026367D01*
X124953465Y-98988674D01*
X124949000Y-98943339D01*
X124949000Y-98106661D01*
X124953465Y-98061326D01*
X124964899Y-98023633D01*
X124983466Y-97988897D01*
X125008452Y-97958452D01*
X125038897Y-97933466D01*
X125073633Y-97914899D01*
X125111326Y-97903465D01*
X125156661Y-97899000D01*
X126243339Y-97899000D01*
X126288674Y-97903465D01*
X126288674Y-97903465D01*
G37*
G36*
X123788674Y-97903465D02*
G01*
X123826367Y-97914899D01*
X123861103Y-97933466D01*
X123891548Y-97958452D01*
X123916534Y-97988897D01*
X123935101Y-98023633D01*
X123946535Y-98061326D01*
X123951000Y-98106661D01*
X123951000Y-98943339D01*
X123946535Y-98988674D01*
X123935101Y-99026367D01*
X123916534Y-99061103D01*
X123891548Y-99091548D01*
X123861103Y-99116534D01*
X123826367Y-99135101D01*
X123788674Y-99146535D01*
X123743339Y-99151000D01*
X122656661Y-99151000D01*
X122611326Y-99146535D01*
X122573633Y-99135101D01*
X122538897Y-99116534D01*
X122508452Y-99091548D01*
X122483466Y-99061103D01*
X122464899Y-99026367D01*
X122453465Y-98988674D01*
X122449000Y-98943339D01*
X122449000Y-98106661D01*
X122453465Y-98061326D01*
X122464899Y-98023633D01*
X122483466Y-97988897D01*
X122508452Y-97958452D01*
X122538897Y-97933466D01*
X122573633Y-97914899D01*
X122611326Y-97903465D01*
X122656661Y-97899000D01*
X123743339Y-97899000D01*
X123788674Y-97903465D01*
X123788674Y-97903465D01*
G37*
G36*
X121288674Y-95853465D02*
G01*
X121326367Y-95864899D01*
X121361103Y-95883466D01*
X121391548Y-95908452D01*
X121416534Y-95938897D01*
X121435101Y-95973633D01*
X121446535Y-96011326D01*
X121451000Y-96056661D01*
X121451000Y-96893339D01*
X121446535Y-96938674D01*
X121435101Y-96976367D01*
X121416534Y-97011103D01*
X121391548Y-97041548D01*
X121361103Y-97066534D01*
X121326367Y-97085101D01*
X121288674Y-97096535D01*
X121243339Y-97101000D01*
X120156661Y-97101000D01*
X120111326Y-97096535D01*
X120073633Y-97085101D01*
X120038897Y-97066534D01*
X120008452Y-97041548D01*
X119983466Y-97011103D01*
X119964899Y-96976367D01*
X119953465Y-96938674D01*
X119949000Y-96893339D01*
X119949000Y-96056661D01*
X119953465Y-96011326D01*
X119964899Y-95973633D01*
X119983466Y-95938897D01*
X120008452Y-95908452D01*
X120038897Y-95883466D01*
X120073633Y-95864899D01*
X120111326Y-95853465D01*
X120156661Y-95849000D01*
X121243339Y-95849000D01*
X121288674Y-95853465D01*
X121288674Y-95853465D01*
G37*
G36*
X126288674Y-95853465D02*
G01*
X126326367Y-95864899D01*
X126361103Y-95883466D01*
X126391548Y-95908452D01*
X126416534Y-95938897D01*
X126435101Y-95973633D01*
X126446535Y-96011326D01*
X126451000Y-96056661D01*
X126451000Y-96893339D01*
X126446535Y-96938674D01*
X126435101Y-96976367D01*
X126416534Y-97011103D01*
X126391548Y-97041548D01*
X126361103Y-97066534D01*
X126326367Y-97085101D01*
X126288674Y-97096535D01*
X126243339Y-97101000D01*
X125156661Y-97101000D01*
X125111326Y-97096535D01*
X125073633Y-97085101D01*
X125038897Y-97066534D01*
X125008452Y-97041548D01*
X124983466Y-97011103D01*
X124964899Y-96976367D01*
X124953465Y-96938674D01*
X124949000Y-96893339D01*
X124949000Y-96056661D01*
X124953465Y-96011326D01*
X124964899Y-95973633D01*
X124983466Y-95938897D01*
X125008452Y-95908452D01*
X125038897Y-95883466D01*
X125073633Y-95864899D01*
X125111326Y-95853465D01*
X125156661Y-95849000D01*
X126243339Y-95849000D01*
X126288674Y-95853465D01*
X126288674Y-95853465D01*
G37*
G36*
X128788674Y-95853465D02*
G01*
X128826367Y-95864899D01*
X128861103Y-95883466D01*
X128891548Y-95908452D01*
X128916534Y-95938897D01*
X128935101Y-95973633D01*
X128946535Y-96011326D01*
X128951000Y-96056661D01*
X128951000Y-96893339D01*
X128946535Y-96938674D01*
X128935101Y-96976367D01*
X128916534Y-97011103D01*
X128891548Y-97041548D01*
X128861103Y-97066534D01*
X128826367Y-97085101D01*
X128788674Y-97096535D01*
X128743339Y-97101000D01*
X127656661Y-97101000D01*
X127611326Y-97096535D01*
X127573633Y-97085101D01*
X127538897Y-97066534D01*
X127508452Y-97041548D01*
X127483466Y-97011103D01*
X127464899Y-96976367D01*
X127453465Y-96938674D01*
X127449000Y-96893339D01*
X127449000Y-96056661D01*
X127453465Y-96011326D01*
X127464899Y-95973633D01*
X127483466Y-95938897D01*
X127508452Y-95908452D01*
X127538897Y-95883466D01*
X127573633Y-95864899D01*
X127611326Y-95853465D01*
X127656661Y-95849000D01*
X128743339Y-95849000D01*
X128788674Y-95853465D01*
X128788674Y-95853465D01*
G37*
G36*
X123788674Y-95853465D02*
G01*
X123826367Y-95864899D01*
X123861103Y-95883466D01*
X123891548Y-95908452D01*
X123916534Y-95938897D01*
X123935101Y-95973633D01*
X123946535Y-96011326D01*
X123951000Y-96056661D01*
X123951000Y-96893339D01*
X123946535Y-96938674D01*
X123935101Y-96976367D01*
X123916534Y-97011103D01*
X123891548Y-97041548D01*
X123861103Y-97066534D01*
X123826367Y-97085101D01*
X123788674Y-97096535D01*
X123743339Y-97101000D01*
X122656661Y-97101000D01*
X122611326Y-97096535D01*
X122573633Y-97085101D01*
X122538897Y-97066534D01*
X122508452Y-97041548D01*
X122483466Y-97011103D01*
X122464899Y-96976367D01*
X122453465Y-96938674D01*
X122449000Y-96893339D01*
X122449000Y-96056661D01*
X122453465Y-96011326D01*
X122464899Y-95973633D01*
X122483466Y-95938897D01*
X122508452Y-95908452D01*
X122538897Y-95883466D01*
X122573633Y-95864899D01*
X122611326Y-95853465D01*
X122656661Y-95849000D01*
X123743339Y-95849000D01*
X123788674Y-95853465D01*
X123788674Y-95853465D01*
G37*
G36*
X127538674Y-93553465D02*
G01*
X127576367Y-93564899D01*
X127611103Y-93583466D01*
X127641548Y-93608452D01*
X127666534Y-93638897D01*
X127685101Y-93673633D01*
X127696535Y-93711326D01*
X127701000Y-93756661D01*
X127701000Y-94593339D01*
X127696535Y-94638674D01*
X127685101Y-94676367D01*
X127666534Y-94711103D01*
X127641548Y-94741548D01*
X127611103Y-94766534D01*
X127576367Y-94785101D01*
X127538674Y-94796535D01*
X127493339Y-94801000D01*
X126406661Y-94801000D01*
X126361326Y-94796535D01*
X126323633Y-94785101D01*
X126288897Y-94766534D01*
X126258452Y-94741548D01*
X126233466Y-94711103D01*
X126214899Y-94676367D01*
X126203465Y-94638674D01*
X126199000Y-94593339D01*
X126199000Y-93756661D01*
X126203465Y-93711326D01*
X126214899Y-93673633D01*
X126233466Y-93638897D01*
X126258452Y-93608452D01*
X126288897Y-93583466D01*
X126323633Y-93564899D01*
X126361326Y-93553465D01*
X126406661Y-93549000D01*
X127493339Y-93549000D01*
X127538674Y-93553465D01*
X127538674Y-93553465D01*
G37*
G36*
X125038674Y-93528465D02*
G01*
X125076367Y-93539899D01*
X125111103Y-93558466D01*
X125141548Y-93583452D01*
X125166534Y-93613897D01*
X125185101Y-93648633D01*
X125196535Y-93686326D01*
X125201000Y-93731661D01*
X125201000Y-94568339D01*
X125196535Y-94613674D01*
X125185101Y-94651367D01*
X125166534Y-94686103D01*
X125141548Y-94716548D01*
X125111103Y-94741534D01*
X125076367Y-94760101D01*
X125038674Y-94771535D01*
X124993339Y-94776000D01*
X123906661Y-94776000D01*
X123861326Y-94771535D01*
X123823633Y-94760101D01*
X123788897Y-94741534D01*
X123758452Y-94716548D01*
X123733466Y-94686103D01*
X123714899Y-94651367D01*
X123703465Y-94613674D01*
X123699000Y-94568339D01*
X123699000Y-93731661D01*
X123703465Y-93686326D01*
X123714899Y-93648633D01*
X123733466Y-93613897D01*
X123758452Y-93583452D01*
X123788897Y-93558466D01*
X123823633Y-93539899D01*
X123861326Y-93528465D01*
X123906661Y-93524000D01*
X124993339Y-93524000D01*
X125038674Y-93528465D01*
X125038674Y-93528465D01*
G37*
G36*
X122538674Y-93528465D02*
G01*
X122576367Y-93539899D01*
X122611103Y-93558466D01*
X122641548Y-93583452D01*
X122666534Y-93613897D01*
X122685101Y-93648633D01*
X122696535Y-93686326D01*
X122701000Y-93731661D01*
X122701000Y-94568339D01*
X122696535Y-94613674D01*
X122685101Y-94651367D01*
X122666534Y-94686103D01*
X122641548Y-94716548D01*
X122611103Y-94741534D01*
X122576367Y-94760101D01*
X122538674Y-94771535D01*
X122493339Y-94776000D01*
X121406661Y-94776000D01*
X121361326Y-94771535D01*
X121323633Y-94760101D01*
X121288897Y-94741534D01*
X121258452Y-94716548D01*
X121233466Y-94686103D01*
X121214899Y-94651367D01*
X121203465Y-94613674D01*
X121199000Y-94568339D01*
X121199000Y-93731661D01*
X121203465Y-93686326D01*
X121214899Y-93648633D01*
X121233466Y-93613897D01*
X121258452Y-93583452D01*
X121288897Y-93558466D01*
X121323633Y-93539899D01*
X121361326Y-93528465D01*
X121406661Y-93524000D01*
X122493339Y-93524000D01*
X122538674Y-93528465D01*
X122538674Y-93528465D01*
G37*
G36*
X130038674Y-93503465D02*
G01*
X130076367Y-93514899D01*
X130111103Y-93533466D01*
X130141548Y-93558452D01*
X130166534Y-93588897D01*
X130185101Y-93623633D01*
X130196535Y-93661326D01*
X130201000Y-93706661D01*
X130201000Y-94543339D01*
X130196535Y-94588674D01*
X130185101Y-94626367D01*
X130166534Y-94661103D01*
X130141548Y-94691548D01*
X130111103Y-94716534D01*
X130076367Y-94735101D01*
X130038674Y-94746535D01*
X129993339Y-94751000D01*
X128906661Y-94751000D01*
X128861326Y-94746535D01*
X128823633Y-94735101D01*
X128788897Y-94716534D01*
X128758452Y-94691548D01*
X128733466Y-94661103D01*
X128714899Y-94626367D01*
X128703465Y-94588674D01*
X128699000Y-94543339D01*
X128699000Y-93706661D01*
X128703465Y-93661326D01*
X128714899Y-93623633D01*
X128733466Y-93588897D01*
X128758452Y-93558452D01*
X128788897Y-93533466D01*
X128823633Y-93514899D01*
X128861326Y-93503465D01*
X128906661Y-93499000D01*
X129993339Y-93499000D01*
X130038674Y-93503465D01*
X130038674Y-93503465D01*
G37*
G36*
X127538674Y-91503465D02*
G01*
X127576367Y-91514899D01*
X127611103Y-91533466D01*
X127641548Y-91558452D01*
X127666534Y-91588897D01*
X127685101Y-91623633D01*
X127696535Y-91661326D01*
X127701000Y-91706661D01*
X127701000Y-92543339D01*
X127696535Y-92588674D01*
X127685101Y-92626367D01*
X127666534Y-92661103D01*
X127641548Y-92691548D01*
X127611103Y-92716534D01*
X127576367Y-92735101D01*
X127538674Y-92746535D01*
X127493339Y-92751000D01*
X126406661Y-92751000D01*
X126361326Y-92746535D01*
X126323633Y-92735101D01*
X126288897Y-92716534D01*
X126258452Y-92691548D01*
X126233466Y-92661103D01*
X126214899Y-92626367D01*
X126203465Y-92588674D01*
X126199000Y-92543339D01*
X126199000Y-91706661D01*
X126203465Y-91661326D01*
X126214899Y-91623633D01*
X126233466Y-91588897D01*
X126258452Y-91558452D01*
X126288897Y-91533466D01*
X126323633Y-91514899D01*
X126361326Y-91503465D01*
X126406661Y-91499000D01*
X127493339Y-91499000D01*
X127538674Y-91503465D01*
X127538674Y-91503465D01*
G37*
G36*
X125038674Y-91478465D02*
G01*
X125076367Y-91489899D01*
X125111103Y-91508466D01*
X125141548Y-91533452D01*
X125166534Y-91563897D01*
X125185101Y-91598633D01*
X125196535Y-91636326D01*
X125201000Y-91681661D01*
X125201000Y-92518339D01*
X125196535Y-92563674D01*
X125185101Y-92601367D01*
X125166534Y-92636103D01*
X125141548Y-92666548D01*
X125111103Y-92691534D01*
X125076367Y-92710101D01*
X125038674Y-92721535D01*
X124993339Y-92726000D01*
X123906661Y-92726000D01*
X123861326Y-92721535D01*
X123823633Y-92710101D01*
X123788897Y-92691534D01*
X123758452Y-92666548D01*
X123733466Y-92636103D01*
X123714899Y-92601367D01*
X123703465Y-92563674D01*
X123699000Y-92518339D01*
X123699000Y-91681661D01*
X123703465Y-91636326D01*
X123714899Y-91598633D01*
X123733466Y-91563897D01*
X123758452Y-91533452D01*
X123788897Y-91508466D01*
X123823633Y-91489899D01*
X123861326Y-91478465D01*
X123906661Y-91474000D01*
X124993339Y-91474000D01*
X125038674Y-91478465D01*
X125038674Y-91478465D01*
G37*
G36*
X122538674Y-91478465D02*
G01*
X122576367Y-91489899D01*
X122611103Y-91508466D01*
X122641548Y-91533452D01*
X122666534Y-91563897D01*
X122685101Y-91598633D01*
X122696535Y-91636326D01*
X122701000Y-91681661D01*
X122701000Y-92518339D01*
X122696535Y-92563674D01*
X122685101Y-92601367D01*
X122666534Y-92636103D01*
X122641548Y-92666548D01*
X122611103Y-92691534D01*
X122576367Y-92710101D01*
X122538674Y-92721535D01*
X122493339Y-92726000D01*
X121406661Y-92726000D01*
X121361326Y-92721535D01*
X121323633Y-92710101D01*
X121288897Y-92691534D01*
X121258452Y-92666548D01*
X121233466Y-92636103D01*
X121214899Y-92601367D01*
X121203465Y-92563674D01*
X121199000Y-92518339D01*
X121199000Y-91681661D01*
X121203465Y-91636326D01*
X121214899Y-91598633D01*
X121233466Y-91563897D01*
X121258452Y-91533452D01*
X121288897Y-91508466D01*
X121323633Y-91489899D01*
X121361326Y-91478465D01*
X121406661Y-91474000D01*
X122493339Y-91474000D01*
X122538674Y-91478465D01*
X122538674Y-91478465D01*
G37*
G36*
X130038674Y-91453465D02*
G01*
X130076367Y-91464899D01*
X130111103Y-91483466D01*
X130141548Y-91508452D01*
X130166534Y-91538897D01*
X130185101Y-91573633D01*
X130196535Y-91611326D01*
X130201000Y-91656661D01*
X130201000Y-92493339D01*
X130196535Y-92538674D01*
X130185101Y-92576367D01*
X130166534Y-92611103D01*
X130141548Y-92641548D01*
X130111103Y-92666534D01*
X130076367Y-92685101D01*
X130038674Y-92696535D01*
X129993339Y-92701000D01*
X128906661Y-92701000D01*
X128861326Y-92696535D01*
X128823633Y-92685101D01*
X128788897Y-92666534D01*
X128758452Y-92641548D01*
X128733466Y-92611103D01*
X128714899Y-92576367D01*
X128703465Y-92538674D01*
X128699000Y-92493339D01*
X128699000Y-91656661D01*
X128703465Y-91611326D01*
X128714899Y-91573633D01*
X128733466Y-91538897D01*
X128758452Y-91508452D01*
X128788897Y-91483466D01*
X128823633Y-91464899D01*
X128861326Y-91453465D01*
X128906661Y-91449000D01*
X129993339Y-91449000D01*
X130038674Y-91453465D01*
X130038674Y-91453465D01*
G37*
G36*
X132688674Y-91453465D02*
G01*
X132726367Y-91464899D01*
X132761103Y-91483466D01*
X132791548Y-91508452D01*
X132816534Y-91538897D01*
X132835101Y-91573633D01*
X132846535Y-91611326D01*
X132851000Y-91656661D01*
X132851000Y-92493339D01*
X132846535Y-92538674D01*
X132835101Y-92576367D01*
X132816534Y-92611103D01*
X132791548Y-92641548D01*
X132761103Y-92666534D01*
X132726367Y-92685101D01*
X132688674Y-92696535D01*
X132643339Y-92701000D01*
X131556661Y-92701000D01*
X131511326Y-92696535D01*
X131473633Y-92685101D01*
X131438897Y-92666534D01*
X131408452Y-92641548D01*
X131383466Y-92611103D01*
X131364899Y-92576367D01*
X131353465Y-92538674D01*
X131349000Y-92493339D01*
X131349000Y-91656661D01*
X131353465Y-91611326D01*
X131364899Y-91573633D01*
X131383466Y-91538897D01*
X131408452Y-91508452D01*
X131438897Y-91483466D01*
X131473633Y-91464899D01*
X131511326Y-91453465D01*
X131556661Y-91449000D01*
X132643339Y-91449000D01*
X132688674Y-91453465D01*
X132688674Y-91453465D01*
G37*
G36*
X132688674Y-89403465D02*
G01*
X132726367Y-89414899D01*
X132761103Y-89433466D01*
X132791548Y-89458452D01*
X132816534Y-89488897D01*
X132835101Y-89523633D01*
X132846535Y-89561326D01*
X132851000Y-89606661D01*
X132851000Y-90443339D01*
X132846535Y-90488674D01*
X132835101Y-90526367D01*
X132816534Y-90561103D01*
X132791548Y-90591548D01*
X132761103Y-90616534D01*
X132726367Y-90635101D01*
X132688674Y-90646535D01*
X132643339Y-90651000D01*
X131556661Y-90651000D01*
X131511326Y-90646535D01*
X131473633Y-90635101D01*
X131438897Y-90616534D01*
X131408452Y-90591548D01*
X131383466Y-90561103D01*
X131364899Y-90526367D01*
X131353465Y-90488674D01*
X131349000Y-90443339D01*
X131349000Y-89606661D01*
X131353465Y-89561326D01*
X131364899Y-89523633D01*
X131383466Y-89488897D01*
X131408452Y-89458452D01*
X131438897Y-89433466D01*
X131473633Y-89414899D01*
X131511326Y-89403465D01*
X131556661Y-89399000D01*
X132643339Y-89399000D01*
X132688674Y-89403465D01*
X132688674Y-89403465D01*
G37*
G36*
X159126000Y-73226000D02*
G01*
X157324000Y-73226000D01*
X157324000Y-71424000D01*
X159126000Y-71424000D01*
X159126000Y-73226000D01*
X159126000Y-73226000D01*
G37*
G36*
X155795443Y-71430519D02*
G01*
X155861627Y-71437037D01*
X156031466Y-71488557D01*
X156187991Y-71572222D01*
X156223729Y-71601552D01*
X156325186Y-71684814D01*
X156408448Y-71786271D01*
X156437778Y-71822009D01*
X156521443Y-71978534D01*
X156572963Y-72148373D01*
X156590359Y-72325000D01*
X156572963Y-72501627D01*
X156521443Y-72671466D01*
X156437778Y-72827991D01*
X156408448Y-72863729D01*
X156325186Y-72965186D01*
X156223729Y-73048448D01*
X156187991Y-73077778D01*
X156031466Y-73161443D01*
X155861627Y-73212963D01*
X155795442Y-73219482D01*
X155729260Y-73226000D01*
X155640740Y-73226000D01*
X155574558Y-73219482D01*
X155508373Y-73212963D01*
X155338534Y-73161443D01*
X155182009Y-73077778D01*
X155146271Y-73048448D01*
X155044814Y-72965186D01*
X154961552Y-72863729D01*
X154932222Y-72827991D01*
X154848557Y-72671466D01*
X154797037Y-72501627D01*
X154779641Y-72325000D01*
X154797037Y-72148373D01*
X154848557Y-71978534D01*
X154932222Y-71822009D01*
X154961552Y-71786271D01*
X155044814Y-71684814D01*
X155146271Y-71601552D01*
X155182009Y-71572222D01*
X155338534Y-71488557D01*
X155508373Y-71437037D01*
X155574557Y-71430519D01*
X155640740Y-71424000D01*
X155729260Y-71424000D01*
X155795443Y-71430519D01*
X155795443Y-71430519D01*
G37*
G36*
X153255443Y-71430519D02*
G01*
X153321627Y-71437037D01*
X153491466Y-71488557D01*
X153647991Y-71572222D01*
X153683729Y-71601552D01*
X153785186Y-71684814D01*
X153868448Y-71786271D01*
X153897778Y-71822009D01*
X153981443Y-71978534D01*
X154032963Y-72148373D01*
X154050359Y-72325000D01*
X154032963Y-72501627D01*
X153981443Y-72671466D01*
X153897778Y-72827991D01*
X153868448Y-72863729D01*
X153785186Y-72965186D01*
X153683729Y-73048448D01*
X153647991Y-73077778D01*
X153491466Y-73161443D01*
X153321627Y-73212963D01*
X153255442Y-73219482D01*
X153189260Y-73226000D01*
X153100740Y-73226000D01*
X153034558Y-73219482D01*
X152968373Y-73212963D01*
X152798534Y-73161443D01*
X152642009Y-73077778D01*
X152606271Y-73048448D01*
X152504814Y-72965186D01*
X152421552Y-72863729D01*
X152392222Y-72827991D01*
X152308557Y-72671466D01*
X152257037Y-72501627D01*
X152239641Y-72325000D01*
X152257037Y-72148373D01*
X152308557Y-71978534D01*
X152392222Y-71822009D01*
X152421552Y-71786271D01*
X152504814Y-71684814D01*
X152606271Y-71601552D01*
X152642009Y-71572222D01*
X152798534Y-71488557D01*
X152968373Y-71437037D01*
X153034557Y-71430519D01*
X153100740Y-71424000D01*
X153189260Y-71424000D01*
X153255443Y-71430519D01*
X153255443Y-71430519D01*
G37*
G36*
X150715443Y-71430519D02*
G01*
X150781627Y-71437037D01*
X150951466Y-71488557D01*
X151107991Y-71572222D01*
X151143729Y-71601552D01*
X151245186Y-71684814D01*
X151328448Y-71786271D01*
X151357778Y-71822009D01*
X151441443Y-71978534D01*
X151492963Y-72148373D01*
X151510359Y-72325000D01*
X151492963Y-72501627D01*
X151441443Y-72671466D01*
X151357778Y-72827991D01*
X151328448Y-72863729D01*
X151245186Y-72965186D01*
X151143729Y-73048448D01*
X151107991Y-73077778D01*
X150951466Y-73161443D01*
X150781627Y-73212963D01*
X150715442Y-73219482D01*
X150649260Y-73226000D01*
X150560740Y-73226000D01*
X150494558Y-73219482D01*
X150428373Y-73212963D01*
X150258534Y-73161443D01*
X150102009Y-73077778D01*
X150066271Y-73048448D01*
X149964814Y-72965186D01*
X149881552Y-72863729D01*
X149852222Y-72827991D01*
X149768557Y-72671466D01*
X149717037Y-72501627D01*
X149699641Y-72325000D01*
X149717037Y-72148373D01*
X149768557Y-71978534D01*
X149852222Y-71822009D01*
X149881552Y-71786271D01*
X149964814Y-71684814D01*
X150066271Y-71601552D01*
X150102009Y-71572222D01*
X150258534Y-71488557D01*
X150428373Y-71437037D01*
X150494557Y-71430519D01*
X150560740Y-71424000D01*
X150649260Y-71424000D01*
X150715443Y-71430519D01*
X150715443Y-71430519D01*
G37*
G36*
X148175443Y-71430519D02*
G01*
X148241627Y-71437037D01*
X148411466Y-71488557D01*
X148567991Y-71572222D01*
X148603729Y-71601552D01*
X148705186Y-71684814D01*
X148788448Y-71786271D01*
X148817778Y-71822009D01*
X148901443Y-71978534D01*
X148952963Y-72148373D01*
X148970359Y-72325000D01*
X148952963Y-72501627D01*
X148901443Y-72671466D01*
X148817778Y-72827991D01*
X148788448Y-72863729D01*
X148705186Y-72965186D01*
X148603729Y-73048448D01*
X148567991Y-73077778D01*
X148411466Y-73161443D01*
X148241627Y-73212963D01*
X148175442Y-73219482D01*
X148109260Y-73226000D01*
X148020740Y-73226000D01*
X147954558Y-73219482D01*
X147888373Y-73212963D01*
X147718534Y-73161443D01*
X147562009Y-73077778D01*
X147526271Y-73048448D01*
X147424814Y-72965186D01*
X147341552Y-72863729D01*
X147312222Y-72827991D01*
X147228557Y-72671466D01*
X147177037Y-72501627D01*
X147159641Y-72325000D01*
X147177037Y-72148373D01*
X147228557Y-71978534D01*
X147312222Y-71822009D01*
X147341552Y-71786271D01*
X147424814Y-71684814D01*
X147526271Y-71601552D01*
X147562009Y-71572222D01*
X147718534Y-71488557D01*
X147888373Y-71437037D01*
X147954557Y-71430519D01*
X148020740Y-71424000D01*
X148109260Y-71424000D01*
X148175443Y-71430519D01*
X148175443Y-71430519D01*
G37*
G36*
X163188674Y-64828465D02*
G01*
X163226367Y-64839899D01*
X163261103Y-64858466D01*
X163291548Y-64883452D01*
X163316534Y-64913897D01*
X163335101Y-64948633D01*
X163346535Y-64986326D01*
X163351000Y-65031661D01*
X163351000Y-65868339D01*
X163346535Y-65913674D01*
X163335101Y-65951367D01*
X163316534Y-65986103D01*
X163291548Y-66016548D01*
X163261103Y-66041534D01*
X163226367Y-66060101D01*
X163188674Y-66071535D01*
X163143339Y-66076000D01*
X162056661Y-66076000D01*
X162011326Y-66071535D01*
X161973633Y-66060101D01*
X161938897Y-66041534D01*
X161908452Y-66016548D01*
X161883466Y-65986103D01*
X161864899Y-65951367D01*
X161853465Y-65913674D01*
X161849000Y-65868339D01*
X161849000Y-65031661D01*
X161853465Y-64986326D01*
X161864899Y-64948633D01*
X161883466Y-64913897D01*
X161908452Y-64883452D01*
X161938897Y-64858466D01*
X161973633Y-64839899D01*
X162011326Y-64828465D01*
X162056661Y-64824000D01*
X163143339Y-64824000D01*
X163188674Y-64828465D01*
X163188674Y-64828465D01*
G37*
G36*
X158188674Y-64828465D02*
G01*
X158226367Y-64839899D01*
X158261103Y-64858466D01*
X158291548Y-64883452D01*
X158316534Y-64913897D01*
X158335101Y-64948633D01*
X158346535Y-64986326D01*
X158351000Y-65031661D01*
X158351000Y-65868339D01*
X158346535Y-65913674D01*
X158335101Y-65951367D01*
X158316534Y-65986103D01*
X158291548Y-66016548D01*
X158261103Y-66041534D01*
X158226367Y-66060101D01*
X158188674Y-66071535D01*
X158143339Y-66076000D01*
X157056661Y-66076000D01*
X157011326Y-66071535D01*
X156973633Y-66060101D01*
X156938897Y-66041534D01*
X156908452Y-66016548D01*
X156883466Y-65986103D01*
X156864899Y-65951367D01*
X156853465Y-65913674D01*
X156849000Y-65868339D01*
X156849000Y-65031661D01*
X156853465Y-64986326D01*
X156864899Y-64948633D01*
X156883466Y-64913897D01*
X156908452Y-64883452D01*
X156938897Y-64858466D01*
X156973633Y-64839899D01*
X157011326Y-64828465D01*
X157056661Y-64824000D01*
X158143339Y-64824000D01*
X158188674Y-64828465D01*
X158188674Y-64828465D01*
G37*
G36*
X155638674Y-64828465D02*
G01*
X155676367Y-64839899D01*
X155711103Y-64858466D01*
X155741548Y-64883452D01*
X155766534Y-64913897D01*
X155785101Y-64948633D01*
X155796535Y-64986326D01*
X155801000Y-65031661D01*
X155801000Y-65868339D01*
X155796535Y-65913674D01*
X155785101Y-65951367D01*
X155766534Y-65986103D01*
X155741548Y-66016548D01*
X155711103Y-66041534D01*
X155676367Y-66060101D01*
X155638674Y-66071535D01*
X155593339Y-66076000D01*
X154506661Y-66076000D01*
X154461326Y-66071535D01*
X154423633Y-66060101D01*
X154388897Y-66041534D01*
X154358452Y-66016548D01*
X154333466Y-65986103D01*
X154314899Y-65951367D01*
X154303465Y-65913674D01*
X154299000Y-65868339D01*
X154299000Y-65031661D01*
X154303465Y-64986326D01*
X154314899Y-64948633D01*
X154333466Y-64913897D01*
X154358452Y-64883452D01*
X154388897Y-64858466D01*
X154423633Y-64839899D01*
X154461326Y-64828465D01*
X154506661Y-64824000D01*
X155593339Y-64824000D01*
X155638674Y-64828465D01*
X155638674Y-64828465D01*
G37*
G36*
X160688674Y-64828465D02*
G01*
X160726367Y-64839899D01*
X160761103Y-64858466D01*
X160791548Y-64883452D01*
X160816534Y-64913897D01*
X160835101Y-64948633D01*
X160846535Y-64986326D01*
X160851000Y-65031661D01*
X160851000Y-65868339D01*
X160846535Y-65913674D01*
X160835101Y-65951367D01*
X160816534Y-65986103D01*
X160791548Y-66016548D01*
X160761103Y-66041534D01*
X160726367Y-66060101D01*
X160688674Y-66071535D01*
X160643339Y-66076000D01*
X159556661Y-66076000D01*
X159511326Y-66071535D01*
X159473633Y-66060101D01*
X159438897Y-66041534D01*
X159408452Y-66016548D01*
X159383466Y-65986103D01*
X159364899Y-65951367D01*
X159353465Y-65913674D01*
X159349000Y-65868339D01*
X159349000Y-65031661D01*
X159353465Y-64986326D01*
X159364899Y-64948633D01*
X159383466Y-64913897D01*
X159408452Y-64883452D01*
X159438897Y-64858466D01*
X159473633Y-64839899D01*
X159511326Y-64828465D01*
X159556661Y-64824000D01*
X160643339Y-64824000D01*
X160688674Y-64828465D01*
X160688674Y-64828465D01*
G37*
G36*
X163188674Y-62778465D02*
G01*
X163226367Y-62789899D01*
X163261103Y-62808466D01*
X163291548Y-62833452D01*
X163316534Y-62863897D01*
X163335101Y-62898633D01*
X163346535Y-62936326D01*
X163351000Y-62981661D01*
X163351000Y-63818339D01*
X163346535Y-63863674D01*
X163335101Y-63901367D01*
X163316534Y-63936103D01*
X163291548Y-63966548D01*
X163261103Y-63991534D01*
X163226367Y-64010101D01*
X163188674Y-64021535D01*
X163143339Y-64026000D01*
X162056661Y-64026000D01*
X162011326Y-64021535D01*
X161973633Y-64010101D01*
X161938897Y-63991534D01*
X161908452Y-63966548D01*
X161883466Y-63936103D01*
X161864899Y-63901367D01*
X161853465Y-63863674D01*
X161849000Y-63818339D01*
X161849000Y-62981661D01*
X161853465Y-62936326D01*
X161864899Y-62898633D01*
X161883466Y-62863897D01*
X161908452Y-62833452D01*
X161938897Y-62808466D01*
X161973633Y-62789899D01*
X162011326Y-62778465D01*
X162056661Y-62774000D01*
X163143339Y-62774000D01*
X163188674Y-62778465D01*
X163188674Y-62778465D01*
G37*
G36*
X160688674Y-62778465D02*
G01*
X160726367Y-62789899D01*
X160761103Y-62808466D01*
X160791548Y-62833452D01*
X160816534Y-62863897D01*
X160835101Y-62898633D01*
X160846535Y-62936326D01*
X160851000Y-62981661D01*
X160851000Y-63818339D01*
X160846535Y-63863674D01*
X160835101Y-63901367D01*
X160816534Y-63936103D01*
X160791548Y-63966548D01*
X160761103Y-63991534D01*
X160726367Y-64010101D01*
X160688674Y-64021535D01*
X160643339Y-64026000D01*
X159556661Y-64026000D01*
X159511326Y-64021535D01*
X159473633Y-64010101D01*
X159438897Y-63991534D01*
X159408452Y-63966548D01*
X159383466Y-63936103D01*
X159364899Y-63901367D01*
X159353465Y-63863674D01*
X159349000Y-63818339D01*
X159349000Y-62981661D01*
X159353465Y-62936326D01*
X159364899Y-62898633D01*
X159383466Y-62863897D01*
X159408452Y-62833452D01*
X159438897Y-62808466D01*
X159473633Y-62789899D01*
X159511326Y-62778465D01*
X159556661Y-62774000D01*
X160643339Y-62774000D01*
X160688674Y-62778465D01*
X160688674Y-62778465D01*
G37*
G36*
X155638674Y-62778465D02*
G01*
X155676367Y-62789899D01*
X155711103Y-62808466D01*
X155741548Y-62833452D01*
X155766534Y-62863897D01*
X155785101Y-62898633D01*
X155796535Y-62936326D01*
X155801000Y-62981661D01*
X155801000Y-63818339D01*
X155796535Y-63863674D01*
X155785101Y-63901367D01*
X155766534Y-63936103D01*
X155741548Y-63966548D01*
X155711103Y-63991534D01*
X155676367Y-64010101D01*
X155638674Y-64021535D01*
X155593339Y-64026000D01*
X154506661Y-64026000D01*
X154461326Y-64021535D01*
X154423633Y-64010101D01*
X154388897Y-63991534D01*
X154358452Y-63966548D01*
X154333466Y-63936103D01*
X154314899Y-63901367D01*
X154303465Y-63863674D01*
X154299000Y-63818339D01*
X154299000Y-62981661D01*
X154303465Y-62936326D01*
X154314899Y-62898633D01*
X154333466Y-62863897D01*
X154358452Y-62833452D01*
X154388897Y-62808466D01*
X154423633Y-62789899D01*
X154461326Y-62778465D01*
X154506661Y-62774000D01*
X155593339Y-62774000D01*
X155638674Y-62778465D01*
X155638674Y-62778465D01*
G37*
G36*
X158188674Y-62778465D02*
G01*
X158226367Y-62789899D01*
X158261103Y-62808466D01*
X158291548Y-62833452D01*
X158316534Y-62863897D01*
X158335101Y-62898633D01*
X158346535Y-62936326D01*
X158351000Y-62981661D01*
X158351000Y-63818339D01*
X158346535Y-63863674D01*
X158335101Y-63901367D01*
X158316534Y-63936103D01*
X158291548Y-63966548D01*
X158261103Y-63991534D01*
X158226367Y-64010101D01*
X158188674Y-64021535D01*
X158143339Y-64026000D01*
X157056661Y-64026000D01*
X157011326Y-64021535D01*
X156973633Y-64010101D01*
X156938897Y-63991534D01*
X156908452Y-63966548D01*
X156883466Y-63936103D01*
X156864899Y-63901367D01*
X156853465Y-63863674D01*
X156849000Y-63818339D01*
X156849000Y-62981661D01*
X156853465Y-62936326D01*
X156864899Y-62898633D01*
X156883466Y-62863897D01*
X156908452Y-62833452D01*
X156938897Y-62808466D01*
X156973633Y-62789899D01*
X157011326Y-62778465D01*
X157056661Y-62774000D01*
X158143339Y-62774000D01*
X158188674Y-62778465D01*
X158188674Y-62778465D01*
G37*
G36*
X139950443Y-59245519D02*
G01*
X140016627Y-59252037D01*
X140186466Y-59303557D01*
X140342991Y-59387222D01*
X140378729Y-59416552D01*
X140480186Y-59499814D01*
X140563448Y-59601271D01*
X140592778Y-59637009D01*
X140676443Y-59793534D01*
X140727963Y-59963373D01*
X140745359Y-60140000D01*
X140727963Y-60316627D01*
X140676443Y-60486466D01*
X140592778Y-60642991D01*
X140563448Y-60678729D01*
X140480186Y-60780186D01*
X140378729Y-60863448D01*
X140342991Y-60892778D01*
X140186466Y-60976443D01*
X140016627Y-61027963D01*
X139950443Y-61034481D01*
X139884260Y-61041000D01*
X139795740Y-61041000D01*
X139729557Y-61034481D01*
X139663373Y-61027963D01*
X139493534Y-60976443D01*
X139337009Y-60892778D01*
X139301271Y-60863448D01*
X139199814Y-60780186D01*
X139116552Y-60678729D01*
X139087222Y-60642991D01*
X139003557Y-60486466D01*
X138952037Y-60316627D01*
X138934641Y-60140000D01*
X138952037Y-59963373D01*
X139003557Y-59793534D01*
X139087222Y-59637009D01*
X139116552Y-59601271D01*
X139199814Y-59499814D01*
X139301271Y-59416552D01*
X139337009Y-59387222D01*
X139493534Y-59303557D01*
X139663373Y-59252037D01*
X139729557Y-59245519D01*
X139795740Y-59239000D01*
X139884260Y-59239000D01*
X139950443Y-59245519D01*
X139950443Y-59245519D01*
G37*
G36*
X160270443Y-59245519D02*
G01*
X160336627Y-59252037D01*
X160506466Y-59303557D01*
X160662991Y-59387222D01*
X160698729Y-59416552D01*
X160800186Y-59499814D01*
X160883448Y-59601271D01*
X160912778Y-59637009D01*
X160996443Y-59793534D01*
X161047963Y-59963373D01*
X161065359Y-60140000D01*
X161047963Y-60316627D01*
X160996443Y-60486466D01*
X160912778Y-60642991D01*
X160883448Y-60678729D01*
X160800186Y-60780186D01*
X160698729Y-60863448D01*
X160662991Y-60892778D01*
X160506466Y-60976443D01*
X160336627Y-61027963D01*
X160270443Y-61034481D01*
X160204260Y-61041000D01*
X160115740Y-61041000D01*
X160049557Y-61034481D01*
X159983373Y-61027963D01*
X159813534Y-60976443D01*
X159657009Y-60892778D01*
X159621271Y-60863448D01*
X159519814Y-60780186D01*
X159436552Y-60678729D01*
X159407222Y-60642991D01*
X159323557Y-60486466D01*
X159272037Y-60316627D01*
X159254641Y-60140000D01*
X159272037Y-59963373D01*
X159323557Y-59793534D01*
X159407222Y-59637009D01*
X159436552Y-59601271D01*
X159519814Y-59499814D01*
X159621271Y-59416552D01*
X159657009Y-59387222D01*
X159813534Y-59303557D01*
X159983373Y-59252037D01*
X160049557Y-59245519D01*
X160115740Y-59239000D01*
X160204260Y-59239000D01*
X160270443Y-59245519D01*
X160270443Y-59245519D01*
G37*
G36*
X142490443Y-59245519D02*
G01*
X142556627Y-59252037D01*
X142726466Y-59303557D01*
X142882991Y-59387222D01*
X142918729Y-59416552D01*
X143020186Y-59499814D01*
X143103448Y-59601271D01*
X143132778Y-59637009D01*
X143216443Y-59793534D01*
X143267963Y-59963373D01*
X143285359Y-60140000D01*
X143267963Y-60316627D01*
X143216443Y-60486466D01*
X143132778Y-60642991D01*
X143103448Y-60678729D01*
X143020186Y-60780186D01*
X142918729Y-60863448D01*
X142882991Y-60892778D01*
X142726466Y-60976443D01*
X142556627Y-61027963D01*
X142490443Y-61034481D01*
X142424260Y-61041000D01*
X142335740Y-61041000D01*
X142269557Y-61034481D01*
X142203373Y-61027963D01*
X142033534Y-60976443D01*
X141877009Y-60892778D01*
X141841271Y-60863448D01*
X141739814Y-60780186D01*
X141656552Y-60678729D01*
X141627222Y-60642991D01*
X141543557Y-60486466D01*
X141492037Y-60316627D01*
X141474641Y-60140000D01*
X141492037Y-59963373D01*
X141543557Y-59793534D01*
X141627222Y-59637009D01*
X141656552Y-59601271D01*
X141739814Y-59499814D01*
X141841271Y-59416552D01*
X141877009Y-59387222D01*
X142033534Y-59303557D01*
X142203373Y-59252037D01*
X142269557Y-59245519D01*
X142335740Y-59239000D01*
X142424260Y-59239000D01*
X142490443Y-59245519D01*
X142490443Y-59245519D01*
G37*
G36*
X157730443Y-59245519D02*
G01*
X157796627Y-59252037D01*
X157966466Y-59303557D01*
X158122991Y-59387222D01*
X158158729Y-59416552D01*
X158260186Y-59499814D01*
X158343448Y-59601271D01*
X158372778Y-59637009D01*
X158456443Y-59793534D01*
X158507963Y-59963373D01*
X158525359Y-60140000D01*
X158507963Y-60316627D01*
X158456443Y-60486466D01*
X158372778Y-60642991D01*
X158343448Y-60678729D01*
X158260186Y-60780186D01*
X158158729Y-60863448D01*
X158122991Y-60892778D01*
X157966466Y-60976443D01*
X157796627Y-61027963D01*
X157730443Y-61034481D01*
X157664260Y-61041000D01*
X157575740Y-61041000D01*
X157509557Y-61034481D01*
X157443373Y-61027963D01*
X157273534Y-60976443D01*
X157117009Y-60892778D01*
X157081271Y-60863448D01*
X156979814Y-60780186D01*
X156896552Y-60678729D01*
X156867222Y-60642991D01*
X156783557Y-60486466D01*
X156732037Y-60316627D01*
X156714641Y-60140000D01*
X156732037Y-59963373D01*
X156783557Y-59793534D01*
X156867222Y-59637009D01*
X156896552Y-59601271D01*
X156979814Y-59499814D01*
X157081271Y-59416552D01*
X157117009Y-59387222D01*
X157273534Y-59303557D01*
X157443373Y-59252037D01*
X157509557Y-59245519D01*
X157575740Y-59239000D01*
X157664260Y-59239000D01*
X157730443Y-59245519D01*
X157730443Y-59245519D01*
G37*
G36*
X145030443Y-59245519D02*
G01*
X145096627Y-59252037D01*
X145266466Y-59303557D01*
X145422991Y-59387222D01*
X145458729Y-59416552D01*
X145560186Y-59499814D01*
X145643448Y-59601271D01*
X145672778Y-59637009D01*
X145756443Y-59793534D01*
X145807963Y-59963373D01*
X145825359Y-60140000D01*
X145807963Y-60316627D01*
X145756443Y-60486466D01*
X145672778Y-60642991D01*
X145643448Y-60678729D01*
X145560186Y-60780186D01*
X145458729Y-60863448D01*
X145422991Y-60892778D01*
X145266466Y-60976443D01*
X145096627Y-61027963D01*
X145030443Y-61034481D01*
X144964260Y-61041000D01*
X144875740Y-61041000D01*
X144809557Y-61034481D01*
X144743373Y-61027963D01*
X144573534Y-60976443D01*
X144417009Y-60892778D01*
X144381271Y-60863448D01*
X144279814Y-60780186D01*
X144196552Y-60678729D01*
X144167222Y-60642991D01*
X144083557Y-60486466D01*
X144032037Y-60316627D01*
X144014641Y-60140000D01*
X144032037Y-59963373D01*
X144083557Y-59793534D01*
X144167222Y-59637009D01*
X144196552Y-59601271D01*
X144279814Y-59499814D01*
X144381271Y-59416552D01*
X144417009Y-59387222D01*
X144573534Y-59303557D01*
X144743373Y-59252037D01*
X144809557Y-59245519D01*
X144875740Y-59239000D01*
X144964260Y-59239000D01*
X145030443Y-59245519D01*
X145030443Y-59245519D01*
G37*
G36*
X155190443Y-59245519D02*
G01*
X155256627Y-59252037D01*
X155426466Y-59303557D01*
X155582991Y-59387222D01*
X155618729Y-59416552D01*
X155720186Y-59499814D01*
X155803448Y-59601271D01*
X155832778Y-59637009D01*
X155916443Y-59793534D01*
X155967963Y-59963373D01*
X155985359Y-60140000D01*
X155967963Y-60316627D01*
X155916443Y-60486466D01*
X155832778Y-60642991D01*
X155803448Y-60678729D01*
X155720186Y-60780186D01*
X155618729Y-60863448D01*
X155582991Y-60892778D01*
X155426466Y-60976443D01*
X155256627Y-61027963D01*
X155190443Y-61034481D01*
X155124260Y-61041000D01*
X155035740Y-61041000D01*
X154969557Y-61034481D01*
X154903373Y-61027963D01*
X154733534Y-60976443D01*
X154577009Y-60892778D01*
X154541271Y-60863448D01*
X154439814Y-60780186D01*
X154356552Y-60678729D01*
X154327222Y-60642991D01*
X154243557Y-60486466D01*
X154192037Y-60316627D01*
X154174641Y-60140000D01*
X154192037Y-59963373D01*
X154243557Y-59793534D01*
X154327222Y-59637009D01*
X154356552Y-59601271D01*
X154439814Y-59499814D01*
X154541271Y-59416552D01*
X154577009Y-59387222D01*
X154733534Y-59303557D01*
X154903373Y-59252037D01*
X154969557Y-59245519D01*
X155035740Y-59239000D01*
X155124260Y-59239000D01*
X155190443Y-59245519D01*
X155190443Y-59245519D01*
G37*
G36*
X147570443Y-59245519D02*
G01*
X147636627Y-59252037D01*
X147806466Y-59303557D01*
X147962991Y-59387222D01*
X147998729Y-59416552D01*
X148100186Y-59499814D01*
X148183448Y-59601271D01*
X148212778Y-59637009D01*
X148296443Y-59793534D01*
X148347963Y-59963373D01*
X148365359Y-60140000D01*
X148347963Y-60316627D01*
X148296443Y-60486466D01*
X148212778Y-60642991D01*
X148183448Y-60678729D01*
X148100186Y-60780186D01*
X147998729Y-60863448D01*
X147962991Y-60892778D01*
X147806466Y-60976443D01*
X147636627Y-61027963D01*
X147570443Y-61034481D01*
X147504260Y-61041000D01*
X147415740Y-61041000D01*
X147349557Y-61034481D01*
X147283373Y-61027963D01*
X147113534Y-60976443D01*
X146957009Y-60892778D01*
X146921271Y-60863448D01*
X146819814Y-60780186D01*
X146736552Y-60678729D01*
X146707222Y-60642991D01*
X146623557Y-60486466D01*
X146572037Y-60316627D01*
X146554641Y-60140000D01*
X146572037Y-59963373D01*
X146623557Y-59793534D01*
X146707222Y-59637009D01*
X146736552Y-59601271D01*
X146819814Y-59499814D01*
X146921271Y-59416552D01*
X146957009Y-59387222D01*
X147113534Y-59303557D01*
X147283373Y-59252037D01*
X147349557Y-59245519D01*
X147415740Y-59239000D01*
X147504260Y-59239000D01*
X147570443Y-59245519D01*
X147570443Y-59245519D01*
G37*
G36*
X152650443Y-59245519D02*
G01*
X152716627Y-59252037D01*
X152886466Y-59303557D01*
X153042991Y-59387222D01*
X153078729Y-59416552D01*
X153180186Y-59499814D01*
X153263448Y-59601271D01*
X153292778Y-59637009D01*
X153376443Y-59793534D01*
X153427963Y-59963373D01*
X153445359Y-60140000D01*
X153427963Y-60316627D01*
X153376443Y-60486466D01*
X153292778Y-60642991D01*
X153263448Y-60678729D01*
X153180186Y-60780186D01*
X153078729Y-60863448D01*
X153042991Y-60892778D01*
X152886466Y-60976443D01*
X152716627Y-61027963D01*
X152650443Y-61034481D01*
X152584260Y-61041000D01*
X152495740Y-61041000D01*
X152429557Y-61034481D01*
X152363373Y-61027963D01*
X152193534Y-60976443D01*
X152037009Y-60892778D01*
X152001271Y-60863448D01*
X151899814Y-60780186D01*
X151816552Y-60678729D01*
X151787222Y-60642991D01*
X151703557Y-60486466D01*
X151652037Y-60316627D01*
X151634641Y-60140000D01*
X151652037Y-59963373D01*
X151703557Y-59793534D01*
X151787222Y-59637009D01*
X151816552Y-59601271D01*
X151899814Y-59499814D01*
X152001271Y-59416552D01*
X152037009Y-59387222D01*
X152193534Y-59303557D01*
X152363373Y-59252037D01*
X152429557Y-59245519D01*
X152495740Y-59239000D01*
X152584260Y-59239000D01*
X152650443Y-59245519D01*
X152650443Y-59245519D01*
G37*
G36*
X150110443Y-59245519D02*
G01*
X150176627Y-59252037D01*
X150346466Y-59303557D01*
X150502991Y-59387222D01*
X150538729Y-59416552D01*
X150640186Y-59499814D01*
X150723448Y-59601271D01*
X150752778Y-59637009D01*
X150836443Y-59793534D01*
X150887963Y-59963373D01*
X150905359Y-60140000D01*
X150887963Y-60316627D01*
X150836443Y-60486466D01*
X150752778Y-60642991D01*
X150723448Y-60678729D01*
X150640186Y-60780186D01*
X150538729Y-60863448D01*
X150502991Y-60892778D01*
X150346466Y-60976443D01*
X150176627Y-61027963D01*
X150110443Y-61034481D01*
X150044260Y-61041000D01*
X149955740Y-61041000D01*
X149889557Y-61034481D01*
X149823373Y-61027963D01*
X149653534Y-60976443D01*
X149497009Y-60892778D01*
X149461271Y-60863448D01*
X149359814Y-60780186D01*
X149276552Y-60678729D01*
X149247222Y-60642991D01*
X149163557Y-60486466D01*
X149112037Y-60316627D01*
X149094641Y-60140000D01*
X149112037Y-59963373D01*
X149163557Y-59793534D01*
X149247222Y-59637009D01*
X149276552Y-59601271D01*
X149359814Y-59499814D01*
X149461271Y-59416552D01*
X149497009Y-59387222D01*
X149653534Y-59303557D01*
X149823373Y-59252037D01*
X149889557Y-59245519D01*
X149955740Y-59239000D01*
X150044260Y-59239000D01*
X150110443Y-59245519D01*
X150110443Y-59245519D01*
G37*
G36*
X165350443Y-59245519D02*
G01*
X165416627Y-59252037D01*
X165586466Y-59303557D01*
X165742991Y-59387222D01*
X165778729Y-59416552D01*
X165880186Y-59499814D01*
X165963448Y-59601271D01*
X165992778Y-59637009D01*
X166076443Y-59793534D01*
X166127963Y-59963373D01*
X166145359Y-60140000D01*
X166127963Y-60316627D01*
X166076443Y-60486466D01*
X165992778Y-60642991D01*
X165963448Y-60678729D01*
X165880186Y-60780186D01*
X165778729Y-60863448D01*
X165742991Y-60892778D01*
X165586466Y-60976443D01*
X165416627Y-61027963D01*
X165350443Y-61034481D01*
X165284260Y-61041000D01*
X165195740Y-61041000D01*
X165129557Y-61034481D01*
X165063373Y-61027963D01*
X164893534Y-60976443D01*
X164737009Y-60892778D01*
X164701271Y-60863448D01*
X164599814Y-60780186D01*
X164516552Y-60678729D01*
X164487222Y-60642991D01*
X164403557Y-60486466D01*
X164352037Y-60316627D01*
X164334641Y-60140000D01*
X164352037Y-59963373D01*
X164403557Y-59793534D01*
X164487222Y-59637009D01*
X164516552Y-59601271D01*
X164599814Y-59499814D01*
X164701271Y-59416552D01*
X164737009Y-59387222D01*
X164893534Y-59303557D01*
X165063373Y-59252037D01*
X165129557Y-59245519D01*
X165195740Y-59239000D01*
X165284260Y-59239000D01*
X165350443Y-59245519D01*
X165350443Y-59245519D01*
G37*
G36*
X162810443Y-59245519D02*
G01*
X162876627Y-59252037D01*
X163046466Y-59303557D01*
X163202991Y-59387222D01*
X163238729Y-59416552D01*
X163340186Y-59499814D01*
X163423448Y-59601271D01*
X163452778Y-59637009D01*
X163536443Y-59793534D01*
X163587963Y-59963373D01*
X163605359Y-60140000D01*
X163587963Y-60316627D01*
X163536443Y-60486466D01*
X163452778Y-60642991D01*
X163423448Y-60678729D01*
X163340186Y-60780186D01*
X163238729Y-60863448D01*
X163202991Y-60892778D01*
X163046466Y-60976443D01*
X162876627Y-61027963D01*
X162810443Y-61034481D01*
X162744260Y-61041000D01*
X162655740Y-61041000D01*
X162589557Y-61034481D01*
X162523373Y-61027963D01*
X162353534Y-60976443D01*
X162197009Y-60892778D01*
X162161271Y-60863448D01*
X162059814Y-60780186D01*
X161976552Y-60678729D01*
X161947222Y-60642991D01*
X161863557Y-60486466D01*
X161812037Y-60316627D01*
X161794641Y-60140000D01*
X161812037Y-59963373D01*
X161863557Y-59793534D01*
X161947222Y-59637009D01*
X161976552Y-59601271D01*
X162059814Y-59499814D01*
X162161271Y-59416552D01*
X162197009Y-59387222D01*
X162353534Y-59303557D01*
X162523373Y-59252037D01*
X162589557Y-59245519D01*
X162655740Y-59239000D01*
X162744260Y-59239000D01*
X162810443Y-59245519D01*
X162810443Y-59245519D01*
G37*
G36*
X137410443Y-59245519D02*
G01*
X137476627Y-59252037D01*
X137646466Y-59303557D01*
X137802991Y-59387222D01*
X137838729Y-59416552D01*
X137940186Y-59499814D01*
X138023448Y-59601271D01*
X138052778Y-59637009D01*
X138136443Y-59793534D01*
X138187963Y-59963373D01*
X138205359Y-60140000D01*
X138187963Y-60316627D01*
X138136443Y-60486466D01*
X138052778Y-60642991D01*
X138023448Y-60678729D01*
X137940186Y-60780186D01*
X137838729Y-60863448D01*
X137802991Y-60892778D01*
X137646466Y-60976443D01*
X137476627Y-61027963D01*
X137410443Y-61034481D01*
X137344260Y-61041000D01*
X137255740Y-61041000D01*
X137189557Y-61034481D01*
X137123373Y-61027963D01*
X136953534Y-60976443D01*
X136797009Y-60892778D01*
X136761271Y-60863448D01*
X136659814Y-60780186D01*
X136576552Y-60678729D01*
X136547222Y-60642991D01*
X136463557Y-60486466D01*
X136412037Y-60316627D01*
X136394641Y-60140000D01*
X136412037Y-59963373D01*
X136463557Y-59793534D01*
X136547222Y-59637009D01*
X136576552Y-59601271D01*
X136659814Y-59499814D01*
X136761271Y-59416552D01*
X136797009Y-59387222D01*
X136953534Y-59303557D01*
X137123373Y-59252037D01*
X137189557Y-59245519D01*
X137255740Y-59239000D01*
X137344260Y-59239000D01*
X137410443Y-59245519D01*
X137410443Y-59245519D01*
G37*
G36*
X134870443Y-59245519D02*
G01*
X134936627Y-59252037D01*
X135106466Y-59303557D01*
X135262991Y-59387222D01*
X135298729Y-59416552D01*
X135400186Y-59499814D01*
X135483448Y-59601271D01*
X135512778Y-59637009D01*
X135596443Y-59793534D01*
X135647963Y-59963373D01*
X135665359Y-60140000D01*
X135647963Y-60316627D01*
X135596443Y-60486466D01*
X135512778Y-60642991D01*
X135483448Y-60678729D01*
X135400186Y-60780186D01*
X135298729Y-60863448D01*
X135262991Y-60892778D01*
X135106466Y-60976443D01*
X134936627Y-61027963D01*
X134870443Y-61034481D01*
X134804260Y-61041000D01*
X134715740Y-61041000D01*
X134649557Y-61034481D01*
X134583373Y-61027963D01*
X134413534Y-60976443D01*
X134257009Y-60892778D01*
X134221271Y-60863448D01*
X134119814Y-60780186D01*
X134036552Y-60678729D01*
X134007222Y-60642991D01*
X133923557Y-60486466D01*
X133872037Y-60316627D01*
X133854641Y-60140000D01*
X133872037Y-59963373D01*
X133923557Y-59793534D01*
X134007222Y-59637009D01*
X134036552Y-59601271D01*
X134119814Y-59499814D01*
X134221271Y-59416552D01*
X134257009Y-59387222D01*
X134413534Y-59303557D01*
X134583373Y-59252037D01*
X134649557Y-59245519D01*
X134715740Y-59239000D01*
X134804260Y-59239000D01*
X134870443Y-59245519D01*
X134870443Y-59245519D01*
G37*
G36*
X167890443Y-59245519D02*
G01*
X167956627Y-59252037D01*
X168126466Y-59303557D01*
X168282991Y-59387222D01*
X168318729Y-59416552D01*
X168420186Y-59499814D01*
X168503448Y-59601271D01*
X168532778Y-59637009D01*
X168616443Y-59793534D01*
X168667963Y-59963373D01*
X168685359Y-60140000D01*
X168667963Y-60316627D01*
X168616443Y-60486466D01*
X168532778Y-60642991D01*
X168503448Y-60678729D01*
X168420186Y-60780186D01*
X168318729Y-60863448D01*
X168282991Y-60892778D01*
X168126466Y-60976443D01*
X167956627Y-61027963D01*
X167890443Y-61034481D01*
X167824260Y-61041000D01*
X167735740Y-61041000D01*
X167669557Y-61034481D01*
X167603373Y-61027963D01*
X167433534Y-60976443D01*
X167277009Y-60892778D01*
X167241271Y-60863448D01*
X167139814Y-60780186D01*
X167056552Y-60678729D01*
X167027222Y-60642991D01*
X166943557Y-60486466D01*
X166892037Y-60316627D01*
X166874641Y-60140000D01*
X166892037Y-59963373D01*
X166943557Y-59793534D01*
X167027222Y-59637009D01*
X167056552Y-59601271D01*
X167139814Y-59499814D01*
X167241271Y-59416552D01*
X167277009Y-59387222D01*
X167433534Y-59303557D01*
X167603373Y-59252037D01*
X167669557Y-59245519D01*
X167735740Y-59239000D01*
X167824260Y-59239000D01*
X167890443Y-59245519D01*
X167890443Y-59245519D01*
G37*
G36*
X170430443Y-59245519D02*
G01*
X170496627Y-59252037D01*
X170666466Y-59303557D01*
X170822991Y-59387222D01*
X170858729Y-59416552D01*
X170960186Y-59499814D01*
X171043448Y-59601271D01*
X171072778Y-59637009D01*
X171156443Y-59793534D01*
X171207963Y-59963373D01*
X171225359Y-60140000D01*
X171207963Y-60316627D01*
X171156443Y-60486466D01*
X171072778Y-60642991D01*
X171043448Y-60678729D01*
X170960186Y-60780186D01*
X170858729Y-60863448D01*
X170822991Y-60892778D01*
X170666466Y-60976443D01*
X170496627Y-61027963D01*
X170430443Y-61034481D01*
X170364260Y-61041000D01*
X170275740Y-61041000D01*
X170209557Y-61034481D01*
X170143373Y-61027963D01*
X169973534Y-60976443D01*
X169817009Y-60892778D01*
X169781271Y-60863448D01*
X169679814Y-60780186D01*
X169596552Y-60678729D01*
X169567222Y-60642991D01*
X169483557Y-60486466D01*
X169432037Y-60316627D01*
X169414641Y-60140000D01*
X169432037Y-59963373D01*
X169483557Y-59793534D01*
X169567222Y-59637009D01*
X169596552Y-59601271D01*
X169679814Y-59499814D01*
X169781271Y-59416552D01*
X169817009Y-59387222D01*
X169973534Y-59303557D01*
X170143373Y-59252037D01*
X170209557Y-59245519D01*
X170275740Y-59239000D01*
X170364260Y-59239000D01*
X170430443Y-59245519D01*
X170430443Y-59245519D01*
G37*
G36*
X173761000Y-61041000D02*
G01*
X171959000Y-61041000D01*
X171959000Y-59239000D01*
X173761000Y-59239000D01*
X173761000Y-61041000D01*
X173761000Y-61041000D01*
G37*
G36*
X132330443Y-59245519D02*
G01*
X132396627Y-59252037D01*
X132566466Y-59303557D01*
X132722991Y-59387222D01*
X132758729Y-59416552D01*
X132860186Y-59499814D01*
X132943448Y-59601271D01*
X132972778Y-59637009D01*
X133056443Y-59793534D01*
X133107963Y-59963373D01*
X133125359Y-60140000D01*
X133107963Y-60316627D01*
X133056443Y-60486466D01*
X132972778Y-60642991D01*
X132943448Y-60678729D01*
X132860186Y-60780186D01*
X132758729Y-60863448D01*
X132722991Y-60892778D01*
X132566466Y-60976443D01*
X132396627Y-61027963D01*
X132330443Y-61034481D01*
X132264260Y-61041000D01*
X132175740Y-61041000D01*
X132109557Y-61034481D01*
X132043373Y-61027963D01*
X131873534Y-60976443D01*
X131717009Y-60892778D01*
X131681271Y-60863448D01*
X131579814Y-60780186D01*
X131496552Y-60678729D01*
X131467222Y-60642991D01*
X131383557Y-60486466D01*
X131332037Y-60316627D01*
X131314641Y-60140000D01*
X131332037Y-59963373D01*
X131383557Y-59793534D01*
X131467222Y-59637009D01*
X131496552Y-59601271D01*
X131579814Y-59499814D01*
X131681271Y-59416552D01*
X131717009Y-59387222D01*
X131873534Y-59303557D01*
X132043373Y-59252037D01*
X132109557Y-59245519D01*
X132175740Y-59239000D01*
X132264260Y-59239000D01*
X132330443Y-59245519D01*
X132330443Y-59245519D01*
G37*
G36*
X129790443Y-59245519D02*
G01*
X129856627Y-59252037D01*
X130026466Y-59303557D01*
X130182991Y-59387222D01*
X130218729Y-59416552D01*
X130320186Y-59499814D01*
X130403448Y-59601271D01*
X130432778Y-59637009D01*
X130516443Y-59793534D01*
X130567963Y-59963373D01*
X130585359Y-60140000D01*
X130567963Y-60316627D01*
X130516443Y-60486466D01*
X130432778Y-60642991D01*
X130403448Y-60678729D01*
X130320186Y-60780186D01*
X130218729Y-60863448D01*
X130182991Y-60892778D01*
X130026466Y-60976443D01*
X129856627Y-61027963D01*
X129790443Y-61034481D01*
X129724260Y-61041000D01*
X129635740Y-61041000D01*
X129569557Y-61034481D01*
X129503373Y-61027963D01*
X129333534Y-60976443D01*
X129177009Y-60892778D01*
X129141271Y-60863448D01*
X129039814Y-60780186D01*
X128956552Y-60678729D01*
X128927222Y-60642991D01*
X128843557Y-60486466D01*
X128792037Y-60316627D01*
X128774641Y-60140000D01*
X128792037Y-59963373D01*
X128843557Y-59793534D01*
X128927222Y-59637009D01*
X128956552Y-59601271D01*
X129039814Y-59499814D01*
X129141271Y-59416552D01*
X129177009Y-59387222D01*
X129333534Y-59303557D01*
X129503373Y-59252037D01*
X129569557Y-59245519D01*
X129635740Y-59239000D01*
X129724260Y-59239000D01*
X129790443Y-59245519D01*
X129790443Y-59245519D01*
G37*
G36*
X127250443Y-59245519D02*
G01*
X127316627Y-59252037D01*
X127486466Y-59303557D01*
X127642991Y-59387222D01*
X127678729Y-59416552D01*
X127780186Y-59499814D01*
X127863448Y-59601271D01*
X127892778Y-59637009D01*
X127976443Y-59793534D01*
X128027963Y-59963373D01*
X128045359Y-60140000D01*
X128027963Y-60316627D01*
X127976443Y-60486466D01*
X127892778Y-60642991D01*
X127863448Y-60678729D01*
X127780186Y-60780186D01*
X127678729Y-60863448D01*
X127642991Y-60892778D01*
X127486466Y-60976443D01*
X127316627Y-61027963D01*
X127250443Y-61034481D01*
X127184260Y-61041000D01*
X127095740Y-61041000D01*
X127029557Y-61034481D01*
X126963373Y-61027963D01*
X126793534Y-60976443D01*
X126637009Y-60892778D01*
X126601271Y-60863448D01*
X126499814Y-60780186D01*
X126416552Y-60678729D01*
X126387222Y-60642991D01*
X126303557Y-60486466D01*
X126252037Y-60316627D01*
X126234641Y-60140000D01*
X126252037Y-59963373D01*
X126303557Y-59793534D01*
X126387222Y-59637009D01*
X126416552Y-59601271D01*
X126499814Y-59499814D01*
X126601271Y-59416552D01*
X126637009Y-59387222D01*
X126793534Y-59303557D01*
X126963373Y-59252037D01*
X127029557Y-59245519D01*
X127095740Y-59239000D01*
X127184260Y-59239000D01*
X127250443Y-59245519D01*
X127250443Y-59245519D01*
G37*
G36*
X124710443Y-59245519D02*
G01*
X124776627Y-59252037D01*
X124946466Y-59303557D01*
X125102991Y-59387222D01*
X125138729Y-59416552D01*
X125240186Y-59499814D01*
X125323448Y-59601271D01*
X125352778Y-59637009D01*
X125436443Y-59793534D01*
X125487963Y-59963373D01*
X125505359Y-60140000D01*
X125487963Y-60316627D01*
X125436443Y-60486466D01*
X125352778Y-60642991D01*
X125323448Y-60678729D01*
X125240186Y-60780186D01*
X125138729Y-60863448D01*
X125102991Y-60892778D01*
X124946466Y-60976443D01*
X124776627Y-61027963D01*
X124710443Y-61034481D01*
X124644260Y-61041000D01*
X124555740Y-61041000D01*
X124489557Y-61034481D01*
X124423373Y-61027963D01*
X124253534Y-60976443D01*
X124097009Y-60892778D01*
X124061271Y-60863448D01*
X123959814Y-60780186D01*
X123876552Y-60678729D01*
X123847222Y-60642991D01*
X123763557Y-60486466D01*
X123712037Y-60316627D01*
X123694641Y-60140000D01*
X123712037Y-59963373D01*
X123763557Y-59793534D01*
X123847222Y-59637009D01*
X123876552Y-59601271D01*
X123959814Y-59499814D01*
X124061271Y-59416552D01*
X124097009Y-59387222D01*
X124253534Y-59303557D01*
X124423373Y-59252037D01*
X124489557Y-59245519D01*
X124555740Y-59239000D01*
X124644260Y-59239000D01*
X124710443Y-59245519D01*
X124710443Y-59245519D01*
G37*
G36*
X172970442Y-56705518D02*
G01*
X173036627Y-56712037D01*
X173206466Y-56763557D01*
X173362991Y-56847222D01*
X173398729Y-56876552D01*
X173500186Y-56959814D01*
X173583448Y-57061271D01*
X173612778Y-57097009D01*
X173696443Y-57253534D01*
X173747963Y-57423373D01*
X173765359Y-57600000D01*
X173747963Y-57776627D01*
X173696443Y-57946466D01*
X173612778Y-58102991D01*
X173583448Y-58138729D01*
X173500186Y-58240186D01*
X173398729Y-58323448D01*
X173362991Y-58352778D01*
X173206466Y-58436443D01*
X173036627Y-58487963D01*
X172970443Y-58494481D01*
X172904260Y-58501000D01*
X172815740Y-58501000D01*
X172749557Y-58494481D01*
X172683373Y-58487963D01*
X172513534Y-58436443D01*
X172357009Y-58352778D01*
X172321271Y-58323448D01*
X172219814Y-58240186D01*
X172136552Y-58138729D01*
X172107222Y-58102991D01*
X172023557Y-57946466D01*
X171972037Y-57776627D01*
X171954641Y-57600000D01*
X171972037Y-57423373D01*
X172023557Y-57253534D01*
X172107222Y-57097009D01*
X172136552Y-57061271D01*
X172219814Y-56959814D01*
X172321271Y-56876552D01*
X172357009Y-56847222D01*
X172513534Y-56763557D01*
X172683373Y-56712037D01*
X172749558Y-56705518D01*
X172815740Y-56699000D01*
X172904260Y-56699000D01*
X172970442Y-56705518D01*
X172970442Y-56705518D01*
G37*
G36*
X170430442Y-56705518D02*
G01*
X170496627Y-56712037D01*
X170666466Y-56763557D01*
X170822991Y-56847222D01*
X170858729Y-56876552D01*
X170960186Y-56959814D01*
X171043448Y-57061271D01*
X171072778Y-57097009D01*
X171156443Y-57253534D01*
X171207963Y-57423373D01*
X171225359Y-57600000D01*
X171207963Y-57776627D01*
X171156443Y-57946466D01*
X171072778Y-58102991D01*
X171043448Y-58138729D01*
X170960186Y-58240186D01*
X170858729Y-58323448D01*
X170822991Y-58352778D01*
X170666466Y-58436443D01*
X170496627Y-58487963D01*
X170430443Y-58494481D01*
X170364260Y-58501000D01*
X170275740Y-58501000D01*
X170209557Y-58494481D01*
X170143373Y-58487963D01*
X169973534Y-58436443D01*
X169817009Y-58352778D01*
X169781271Y-58323448D01*
X169679814Y-58240186D01*
X169596552Y-58138729D01*
X169567222Y-58102991D01*
X169483557Y-57946466D01*
X169432037Y-57776627D01*
X169414641Y-57600000D01*
X169432037Y-57423373D01*
X169483557Y-57253534D01*
X169567222Y-57097009D01*
X169596552Y-57061271D01*
X169679814Y-56959814D01*
X169781271Y-56876552D01*
X169817009Y-56847222D01*
X169973534Y-56763557D01*
X170143373Y-56712037D01*
X170209558Y-56705518D01*
X170275740Y-56699000D01*
X170364260Y-56699000D01*
X170430442Y-56705518D01*
X170430442Y-56705518D01*
G37*
G36*
X167890442Y-56705518D02*
G01*
X167956627Y-56712037D01*
X168126466Y-56763557D01*
X168282991Y-56847222D01*
X168318729Y-56876552D01*
X168420186Y-56959814D01*
X168503448Y-57061271D01*
X168532778Y-57097009D01*
X168616443Y-57253534D01*
X168667963Y-57423373D01*
X168685359Y-57600000D01*
X168667963Y-57776627D01*
X168616443Y-57946466D01*
X168532778Y-58102991D01*
X168503448Y-58138729D01*
X168420186Y-58240186D01*
X168318729Y-58323448D01*
X168282991Y-58352778D01*
X168126466Y-58436443D01*
X167956627Y-58487963D01*
X167890443Y-58494481D01*
X167824260Y-58501000D01*
X167735740Y-58501000D01*
X167669557Y-58494481D01*
X167603373Y-58487963D01*
X167433534Y-58436443D01*
X167277009Y-58352778D01*
X167241271Y-58323448D01*
X167139814Y-58240186D01*
X167056552Y-58138729D01*
X167027222Y-58102991D01*
X166943557Y-57946466D01*
X166892037Y-57776627D01*
X166874641Y-57600000D01*
X166892037Y-57423373D01*
X166943557Y-57253534D01*
X167027222Y-57097009D01*
X167056552Y-57061271D01*
X167139814Y-56959814D01*
X167241271Y-56876552D01*
X167277009Y-56847222D01*
X167433534Y-56763557D01*
X167603373Y-56712037D01*
X167669558Y-56705518D01*
X167735740Y-56699000D01*
X167824260Y-56699000D01*
X167890442Y-56705518D01*
X167890442Y-56705518D01*
G37*
G36*
X165350442Y-56705518D02*
G01*
X165416627Y-56712037D01*
X165586466Y-56763557D01*
X165742991Y-56847222D01*
X165778729Y-56876552D01*
X165880186Y-56959814D01*
X165963448Y-57061271D01*
X165992778Y-57097009D01*
X166076443Y-57253534D01*
X166127963Y-57423373D01*
X166145359Y-57600000D01*
X166127963Y-57776627D01*
X166076443Y-57946466D01*
X165992778Y-58102991D01*
X165963448Y-58138729D01*
X165880186Y-58240186D01*
X165778729Y-58323448D01*
X165742991Y-58352778D01*
X165586466Y-58436443D01*
X165416627Y-58487963D01*
X165350443Y-58494481D01*
X165284260Y-58501000D01*
X165195740Y-58501000D01*
X165129557Y-58494481D01*
X165063373Y-58487963D01*
X164893534Y-58436443D01*
X164737009Y-58352778D01*
X164701271Y-58323448D01*
X164599814Y-58240186D01*
X164516552Y-58138729D01*
X164487222Y-58102991D01*
X164403557Y-57946466D01*
X164352037Y-57776627D01*
X164334641Y-57600000D01*
X164352037Y-57423373D01*
X164403557Y-57253534D01*
X164487222Y-57097009D01*
X164516552Y-57061271D01*
X164599814Y-56959814D01*
X164701271Y-56876552D01*
X164737009Y-56847222D01*
X164893534Y-56763557D01*
X165063373Y-56712037D01*
X165129558Y-56705518D01*
X165195740Y-56699000D01*
X165284260Y-56699000D01*
X165350442Y-56705518D01*
X165350442Y-56705518D01*
G37*
G36*
X162810442Y-56705518D02*
G01*
X162876627Y-56712037D01*
X163046466Y-56763557D01*
X163202991Y-56847222D01*
X163238729Y-56876552D01*
X163340186Y-56959814D01*
X163423448Y-57061271D01*
X163452778Y-57097009D01*
X163536443Y-57253534D01*
X163587963Y-57423373D01*
X163605359Y-57600000D01*
X163587963Y-57776627D01*
X163536443Y-57946466D01*
X163452778Y-58102991D01*
X163423448Y-58138729D01*
X163340186Y-58240186D01*
X163238729Y-58323448D01*
X163202991Y-58352778D01*
X163046466Y-58436443D01*
X162876627Y-58487963D01*
X162810443Y-58494481D01*
X162744260Y-58501000D01*
X162655740Y-58501000D01*
X162589557Y-58494481D01*
X162523373Y-58487963D01*
X162353534Y-58436443D01*
X162197009Y-58352778D01*
X162161271Y-58323448D01*
X162059814Y-58240186D01*
X161976552Y-58138729D01*
X161947222Y-58102991D01*
X161863557Y-57946466D01*
X161812037Y-57776627D01*
X161794641Y-57600000D01*
X161812037Y-57423373D01*
X161863557Y-57253534D01*
X161947222Y-57097009D01*
X161976552Y-57061271D01*
X162059814Y-56959814D01*
X162161271Y-56876552D01*
X162197009Y-56847222D01*
X162353534Y-56763557D01*
X162523373Y-56712037D01*
X162589558Y-56705518D01*
X162655740Y-56699000D01*
X162744260Y-56699000D01*
X162810442Y-56705518D01*
X162810442Y-56705518D01*
G37*
G36*
X160270442Y-56705518D02*
G01*
X160336627Y-56712037D01*
X160506466Y-56763557D01*
X160662991Y-56847222D01*
X160698729Y-56876552D01*
X160800186Y-56959814D01*
X160883448Y-57061271D01*
X160912778Y-57097009D01*
X160996443Y-57253534D01*
X161047963Y-57423373D01*
X161065359Y-57600000D01*
X161047963Y-57776627D01*
X160996443Y-57946466D01*
X160912778Y-58102991D01*
X160883448Y-58138729D01*
X160800186Y-58240186D01*
X160698729Y-58323448D01*
X160662991Y-58352778D01*
X160506466Y-58436443D01*
X160336627Y-58487963D01*
X160270443Y-58494481D01*
X160204260Y-58501000D01*
X160115740Y-58501000D01*
X160049557Y-58494481D01*
X159983373Y-58487963D01*
X159813534Y-58436443D01*
X159657009Y-58352778D01*
X159621271Y-58323448D01*
X159519814Y-58240186D01*
X159436552Y-58138729D01*
X159407222Y-58102991D01*
X159323557Y-57946466D01*
X159272037Y-57776627D01*
X159254641Y-57600000D01*
X159272037Y-57423373D01*
X159323557Y-57253534D01*
X159407222Y-57097009D01*
X159436552Y-57061271D01*
X159519814Y-56959814D01*
X159621271Y-56876552D01*
X159657009Y-56847222D01*
X159813534Y-56763557D01*
X159983373Y-56712037D01*
X160049558Y-56705518D01*
X160115740Y-56699000D01*
X160204260Y-56699000D01*
X160270442Y-56705518D01*
X160270442Y-56705518D01*
G37*
G36*
X157730442Y-56705518D02*
G01*
X157796627Y-56712037D01*
X157966466Y-56763557D01*
X158122991Y-56847222D01*
X158158729Y-56876552D01*
X158260186Y-56959814D01*
X158343448Y-57061271D01*
X158372778Y-57097009D01*
X158456443Y-57253534D01*
X158507963Y-57423373D01*
X158525359Y-57600000D01*
X158507963Y-57776627D01*
X158456443Y-57946466D01*
X158372778Y-58102991D01*
X158343448Y-58138729D01*
X158260186Y-58240186D01*
X158158729Y-58323448D01*
X158122991Y-58352778D01*
X157966466Y-58436443D01*
X157796627Y-58487963D01*
X157730443Y-58494481D01*
X157664260Y-58501000D01*
X157575740Y-58501000D01*
X157509557Y-58494481D01*
X157443373Y-58487963D01*
X157273534Y-58436443D01*
X157117009Y-58352778D01*
X157081271Y-58323448D01*
X156979814Y-58240186D01*
X156896552Y-58138729D01*
X156867222Y-58102991D01*
X156783557Y-57946466D01*
X156732037Y-57776627D01*
X156714641Y-57600000D01*
X156732037Y-57423373D01*
X156783557Y-57253534D01*
X156867222Y-57097009D01*
X156896552Y-57061271D01*
X156979814Y-56959814D01*
X157081271Y-56876552D01*
X157117009Y-56847222D01*
X157273534Y-56763557D01*
X157443373Y-56712037D01*
X157509558Y-56705518D01*
X157575740Y-56699000D01*
X157664260Y-56699000D01*
X157730442Y-56705518D01*
X157730442Y-56705518D01*
G37*
G36*
X155190442Y-56705518D02*
G01*
X155256627Y-56712037D01*
X155426466Y-56763557D01*
X155582991Y-56847222D01*
X155618729Y-56876552D01*
X155720186Y-56959814D01*
X155803448Y-57061271D01*
X155832778Y-57097009D01*
X155916443Y-57253534D01*
X155967963Y-57423373D01*
X155985359Y-57600000D01*
X155967963Y-57776627D01*
X155916443Y-57946466D01*
X155832778Y-58102991D01*
X155803448Y-58138729D01*
X155720186Y-58240186D01*
X155618729Y-58323448D01*
X155582991Y-58352778D01*
X155426466Y-58436443D01*
X155256627Y-58487963D01*
X155190443Y-58494481D01*
X155124260Y-58501000D01*
X155035740Y-58501000D01*
X154969557Y-58494481D01*
X154903373Y-58487963D01*
X154733534Y-58436443D01*
X154577009Y-58352778D01*
X154541271Y-58323448D01*
X154439814Y-58240186D01*
X154356552Y-58138729D01*
X154327222Y-58102991D01*
X154243557Y-57946466D01*
X154192037Y-57776627D01*
X154174641Y-57600000D01*
X154192037Y-57423373D01*
X154243557Y-57253534D01*
X154327222Y-57097009D01*
X154356552Y-57061271D01*
X154439814Y-56959814D01*
X154541271Y-56876552D01*
X154577009Y-56847222D01*
X154733534Y-56763557D01*
X154903373Y-56712037D01*
X154969558Y-56705518D01*
X155035740Y-56699000D01*
X155124260Y-56699000D01*
X155190442Y-56705518D01*
X155190442Y-56705518D01*
G37*
G36*
X152650442Y-56705518D02*
G01*
X152716627Y-56712037D01*
X152886466Y-56763557D01*
X153042991Y-56847222D01*
X153078729Y-56876552D01*
X153180186Y-56959814D01*
X153263448Y-57061271D01*
X153292778Y-57097009D01*
X153376443Y-57253534D01*
X153427963Y-57423373D01*
X153445359Y-57600000D01*
X153427963Y-57776627D01*
X153376443Y-57946466D01*
X153292778Y-58102991D01*
X153263448Y-58138729D01*
X153180186Y-58240186D01*
X153078729Y-58323448D01*
X153042991Y-58352778D01*
X152886466Y-58436443D01*
X152716627Y-58487963D01*
X152650443Y-58494481D01*
X152584260Y-58501000D01*
X152495740Y-58501000D01*
X152429557Y-58494481D01*
X152363373Y-58487963D01*
X152193534Y-58436443D01*
X152037009Y-58352778D01*
X152001271Y-58323448D01*
X151899814Y-58240186D01*
X151816552Y-58138729D01*
X151787222Y-58102991D01*
X151703557Y-57946466D01*
X151652037Y-57776627D01*
X151634641Y-57600000D01*
X151652037Y-57423373D01*
X151703557Y-57253534D01*
X151787222Y-57097009D01*
X151816552Y-57061271D01*
X151899814Y-56959814D01*
X152001271Y-56876552D01*
X152037009Y-56847222D01*
X152193534Y-56763557D01*
X152363373Y-56712037D01*
X152429558Y-56705518D01*
X152495740Y-56699000D01*
X152584260Y-56699000D01*
X152650442Y-56705518D01*
X152650442Y-56705518D01*
G37*
G36*
X150110442Y-56705518D02*
G01*
X150176627Y-56712037D01*
X150346466Y-56763557D01*
X150502991Y-56847222D01*
X150538729Y-56876552D01*
X150640186Y-56959814D01*
X150723448Y-57061271D01*
X150752778Y-57097009D01*
X150836443Y-57253534D01*
X150887963Y-57423373D01*
X150905359Y-57600000D01*
X150887963Y-57776627D01*
X150836443Y-57946466D01*
X150752778Y-58102991D01*
X150723448Y-58138729D01*
X150640186Y-58240186D01*
X150538729Y-58323448D01*
X150502991Y-58352778D01*
X150346466Y-58436443D01*
X150176627Y-58487963D01*
X150110443Y-58494481D01*
X150044260Y-58501000D01*
X149955740Y-58501000D01*
X149889557Y-58494481D01*
X149823373Y-58487963D01*
X149653534Y-58436443D01*
X149497009Y-58352778D01*
X149461271Y-58323448D01*
X149359814Y-58240186D01*
X149276552Y-58138729D01*
X149247222Y-58102991D01*
X149163557Y-57946466D01*
X149112037Y-57776627D01*
X149094641Y-57600000D01*
X149112037Y-57423373D01*
X149163557Y-57253534D01*
X149247222Y-57097009D01*
X149276552Y-57061271D01*
X149359814Y-56959814D01*
X149461271Y-56876552D01*
X149497009Y-56847222D01*
X149653534Y-56763557D01*
X149823373Y-56712037D01*
X149889558Y-56705518D01*
X149955740Y-56699000D01*
X150044260Y-56699000D01*
X150110442Y-56705518D01*
X150110442Y-56705518D01*
G37*
G36*
X147570442Y-56705518D02*
G01*
X147636627Y-56712037D01*
X147806466Y-56763557D01*
X147962991Y-56847222D01*
X147998729Y-56876552D01*
X148100186Y-56959814D01*
X148183448Y-57061271D01*
X148212778Y-57097009D01*
X148296443Y-57253534D01*
X148347963Y-57423373D01*
X148365359Y-57600000D01*
X148347963Y-57776627D01*
X148296443Y-57946466D01*
X148212778Y-58102991D01*
X148183448Y-58138729D01*
X148100186Y-58240186D01*
X147998729Y-58323448D01*
X147962991Y-58352778D01*
X147806466Y-58436443D01*
X147636627Y-58487963D01*
X147570443Y-58494481D01*
X147504260Y-58501000D01*
X147415740Y-58501000D01*
X147349557Y-58494481D01*
X147283373Y-58487963D01*
X147113534Y-58436443D01*
X146957009Y-58352778D01*
X146921271Y-58323448D01*
X146819814Y-58240186D01*
X146736552Y-58138729D01*
X146707222Y-58102991D01*
X146623557Y-57946466D01*
X146572037Y-57776627D01*
X146554641Y-57600000D01*
X146572037Y-57423373D01*
X146623557Y-57253534D01*
X146707222Y-57097009D01*
X146736552Y-57061271D01*
X146819814Y-56959814D01*
X146921271Y-56876552D01*
X146957009Y-56847222D01*
X147113534Y-56763557D01*
X147283373Y-56712037D01*
X147349558Y-56705518D01*
X147415740Y-56699000D01*
X147504260Y-56699000D01*
X147570442Y-56705518D01*
X147570442Y-56705518D01*
G37*
G36*
X145030442Y-56705518D02*
G01*
X145096627Y-56712037D01*
X145266466Y-56763557D01*
X145422991Y-56847222D01*
X145458729Y-56876552D01*
X145560186Y-56959814D01*
X145643448Y-57061271D01*
X145672778Y-57097009D01*
X145756443Y-57253534D01*
X145807963Y-57423373D01*
X145825359Y-57600000D01*
X145807963Y-57776627D01*
X145756443Y-57946466D01*
X145672778Y-58102991D01*
X145643448Y-58138729D01*
X145560186Y-58240186D01*
X145458729Y-58323448D01*
X145422991Y-58352778D01*
X145266466Y-58436443D01*
X145096627Y-58487963D01*
X145030443Y-58494481D01*
X144964260Y-58501000D01*
X144875740Y-58501000D01*
X144809557Y-58494481D01*
X144743373Y-58487963D01*
X144573534Y-58436443D01*
X144417009Y-58352778D01*
X144381271Y-58323448D01*
X144279814Y-58240186D01*
X144196552Y-58138729D01*
X144167222Y-58102991D01*
X144083557Y-57946466D01*
X144032037Y-57776627D01*
X144014641Y-57600000D01*
X144032037Y-57423373D01*
X144083557Y-57253534D01*
X144167222Y-57097009D01*
X144196552Y-57061271D01*
X144279814Y-56959814D01*
X144381271Y-56876552D01*
X144417009Y-56847222D01*
X144573534Y-56763557D01*
X144743373Y-56712037D01*
X144809558Y-56705518D01*
X144875740Y-56699000D01*
X144964260Y-56699000D01*
X145030442Y-56705518D01*
X145030442Y-56705518D01*
G37*
G36*
X142490442Y-56705518D02*
G01*
X142556627Y-56712037D01*
X142726466Y-56763557D01*
X142882991Y-56847222D01*
X142918729Y-56876552D01*
X143020186Y-56959814D01*
X143103448Y-57061271D01*
X143132778Y-57097009D01*
X143216443Y-57253534D01*
X143267963Y-57423373D01*
X143285359Y-57600000D01*
X143267963Y-57776627D01*
X143216443Y-57946466D01*
X143132778Y-58102991D01*
X143103448Y-58138729D01*
X143020186Y-58240186D01*
X142918729Y-58323448D01*
X142882991Y-58352778D01*
X142726466Y-58436443D01*
X142556627Y-58487963D01*
X142490443Y-58494481D01*
X142424260Y-58501000D01*
X142335740Y-58501000D01*
X142269557Y-58494481D01*
X142203373Y-58487963D01*
X142033534Y-58436443D01*
X141877009Y-58352778D01*
X141841271Y-58323448D01*
X141739814Y-58240186D01*
X141656552Y-58138729D01*
X141627222Y-58102991D01*
X141543557Y-57946466D01*
X141492037Y-57776627D01*
X141474641Y-57600000D01*
X141492037Y-57423373D01*
X141543557Y-57253534D01*
X141627222Y-57097009D01*
X141656552Y-57061271D01*
X141739814Y-56959814D01*
X141841271Y-56876552D01*
X141877009Y-56847222D01*
X142033534Y-56763557D01*
X142203373Y-56712037D01*
X142269558Y-56705518D01*
X142335740Y-56699000D01*
X142424260Y-56699000D01*
X142490442Y-56705518D01*
X142490442Y-56705518D01*
G37*
G36*
X139950442Y-56705518D02*
G01*
X140016627Y-56712037D01*
X140186466Y-56763557D01*
X140342991Y-56847222D01*
X140378729Y-56876552D01*
X140480186Y-56959814D01*
X140563448Y-57061271D01*
X140592778Y-57097009D01*
X140676443Y-57253534D01*
X140727963Y-57423373D01*
X140745359Y-57600000D01*
X140727963Y-57776627D01*
X140676443Y-57946466D01*
X140592778Y-58102991D01*
X140563448Y-58138729D01*
X140480186Y-58240186D01*
X140378729Y-58323448D01*
X140342991Y-58352778D01*
X140186466Y-58436443D01*
X140016627Y-58487963D01*
X139950443Y-58494481D01*
X139884260Y-58501000D01*
X139795740Y-58501000D01*
X139729557Y-58494481D01*
X139663373Y-58487963D01*
X139493534Y-58436443D01*
X139337009Y-58352778D01*
X139301271Y-58323448D01*
X139199814Y-58240186D01*
X139116552Y-58138729D01*
X139087222Y-58102991D01*
X139003557Y-57946466D01*
X138952037Y-57776627D01*
X138934641Y-57600000D01*
X138952037Y-57423373D01*
X139003557Y-57253534D01*
X139087222Y-57097009D01*
X139116552Y-57061271D01*
X139199814Y-56959814D01*
X139301271Y-56876552D01*
X139337009Y-56847222D01*
X139493534Y-56763557D01*
X139663373Y-56712037D01*
X139729558Y-56705518D01*
X139795740Y-56699000D01*
X139884260Y-56699000D01*
X139950442Y-56705518D01*
X139950442Y-56705518D01*
G37*
G36*
X137410442Y-56705518D02*
G01*
X137476627Y-56712037D01*
X137646466Y-56763557D01*
X137802991Y-56847222D01*
X137838729Y-56876552D01*
X137940186Y-56959814D01*
X138023448Y-57061271D01*
X138052778Y-57097009D01*
X138136443Y-57253534D01*
X138187963Y-57423373D01*
X138205359Y-57600000D01*
X138187963Y-57776627D01*
X138136443Y-57946466D01*
X138052778Y-58102991D01*
X138023448Y-58138729D01*
X137940186Y-58240186D01*
X137838729Y-58323448D01*
X137802991Y-58352778D01*
X137646466Y-58436443D01*
X137476627Y-58487963D01*
X137410443Y-58494481D01*
X137344260Y-58501000D01*
X137255740Y-58501000D01*
X137189557Y-58494481D01*
X137123373Y-58487963D01*
X136953534Y-58436443D01*
X136797009Y-58352778D01*
X136761271Y-58323448D01*
X136659814Y-58240186D01*
X136576552Y-58138729D01*
X136547222Y-58102991D01*
X136463557Y-57946466D01*
X136412037Y-57776627D01*
X136394641Y-57600000D01*
X136412037Y-57423373D01*
X136463557Y-57253534D01*
X136547222Y-57097009D01*
X136576552Y-57061271D01*
X136659814Y-56959814D01*
X136761271Y-56876552D01*
X136797009Y-56847222D01*
X136953534Y-56763557D01*
X137123373Y-56712037D01*
X137189558Y-56705518D01*
X137255740Y-56699000D01*
X137344260Y-56699000D01*
X137410442Y-56705518D01*
X137410442Y-56705518D01*
G37*
G36*
X134870442Y-56705518D02*
G01*
X134936627Y-56712037D01*
X135106466Y-56763557D01*
X135262991Y-56847222D01*
X135298729Y-56876552D01*
X135400186Y-56959814D01*
X135483448Y-57061271D01*
X135512778Y-57097009D01*
X135596443Y-57253534D01*
X135647963Y-57423373D01*
X135665359Y-57600000D01*
X135647963Y-57776627D01*
X135596443Y-57946466D01*
X135512778Y-58102991D01*
X135483448Y-58138729D01*
X135400186Y-58240186D01*
X135298729Y-58323448D01*
X135262991Y-58352778D01*
X135106466Y-58436443D01*
X134936627Y-58487963D01*
X134870443Y-58494481D01*
X134804260Y-58501000D01*
X134715740Y-58501000D01*
X134649557Y-58494481D01*
X134583373Y-58487963D01*
X134413534Y-58436443D01*
X134257009Y-58352778D01*
X134221271Y-58323448D01*
X134119814Y-58240186D01*
X134036552Y-58138729D01*
X134007222Y-58102991D01*
X133923557Y-57946466D01*
X133872037Y-57776627D01*
X133854641Y-57600000D01*
X133872037Y-57423373D01*
X133923557Y-57253534D01*
X134007222Y-57097009D01*
X134036552Y-57061271D01*
X134119814Y-56959814D01*
X134221271Y-56876552D01*
X134257009Y-56847222D01*
X134413534Y-56763557D01*
X134583373Y-56712037D01*
X134649558Y-56705518D01*
X134715740Y-56699000D01*
X134804260Y-56699000D01*
X134870442Y-56705518D01*
X134870442Y-56705518D01*
G37*
G36*
X132330442Y-56705518D02*
G01*
X132396627Y-56712037D01*
X132566466Y-56763557D01*
X132722991Y-56847222D01*
X132758729Y-56876552D01*
X132860186Y-56959814D01*
X132943448Y-57061271D01*
X132972778Y-57097009D01*
X133056443Y-57253534D01*
X133107963Y-57423373D01*
X133125359Y-57600000D01*
X133107963Y-57776627D01*
X133056443Y-57946466D01*
X132972778Y-58102991D01*
X132943448Y-58138729D01*
X132860186Y-58240186D01*
X132758729Y-58323448D01*
X132722991Y-58352778D01*
X132566466Y-58436443D01*
X132396627Y-58487963D01*
X132330443Y-58494481D01*
X132264260Y-58501000D01*
X132175740Y-58501000D01*
X132109557Y-58494481D01*
X132043373Y-58487963D01*
X131873534Y-58436443D01*
X131717009Y-58352778D01*
X131681271Y-58323448D01*
X131579814Y-58240186D01*
X131496552Y-58138729D01*
X131467222Y-58102991D01*
X131383557Y-57946466D01*
X131332037Y-57776627D01*
X131314641Y-57600000D01*
X131332037Y-57423373D01*
X131383557Y-57253534D01*
X131467222Y-57097009D01*
X131496552Y-57061271D01*
X131579814Y-56959814D01*
X131681271Y-56876552D01*
X131717009Y-56847222D01*
X131873534Y-56763557D01*
X132043373Y-56712037D01*
X132109558Y-56705518D01*
X132175740Y-56699000D01*
X132264260Y-56699000D01*
X132330442Y-56705518D01*
X132330442Y-56705518D01*
G37*
G36*
X127250442Y-56705518D02*
G01*
X127316627Y-56712037D01*
X127486466Y-56763557D01*
X127642991Y-56847222D01*
X127678729Y-56876552D01*
X127780186Y-56959814D01*
X127863448Y-57061271D01*
X127892778Y-57097009D01*
X127976443Y-57253534D01*
X128027963Y-57423373D01*
X128045359Y-57600000D01*
X128027963Y-57776627D01*
X127976443Y-57946466D01*
X127892778Y-58102991D01*
X127863448Y-58138729D01*
X127780186Y-58240186D01*
X127678729Y-58323448D01*
X127642991Y-58352778D01*
X127486466Y-58436443D01*
X127316627Y-58487963D01*
X127250443Y-58494481D01*
X127184260Y-58501000D01*
X127095740Y-58501000D01*
X127029557Y-58494481D01*
X126963373Y-58487963D01*
X126793534Y-58436443D01*
X126637009Y-58352778D01*
X126601271Y-58323448D01*
X126499814Y-58240186D01*
X126416552Y-58138729D01*
X126387222Y-58102991D01*
X126303557Y-57946466D01*
X126252037Y-57776627D01*
X126234641Y-57600000D01*
X126252037Y-57423373D01*
X126303557Y-57253534D01*
X126387222Y-57097009D01*
X126416552Y-57061271D01*
X126499814Y-56959814D01*
X126601271Y-56876552D01*
X126637009Y-56847222D01*
X126793534Y-56763557D01*
X126963373Y-56712037D01*
X127029558Y-56705518D01*
X127095740Y-56699000D01*
X127184260Y-56699000D01*
X127250442Y-56705518D01*
X127250442Y-56705518D01*
G37*
G36*
X124710442Y-56705518D02*
G01*
X124776627Y-56712037D01*
X124946466Y-56763557D01*
X125102991Y-56847222D01*
X125138729Y-56876552D01*
X125240186Y-56959814D01*
X125323448Y-57061271D01*
X125352778Y-57097009D01*
X125436443Y-57253534D01*
X125487963Y-57423373D01*
X125505359Y-57600000D01*
X125487963Y-57776627D01*
X125436443Y-57946466D01*
X125352778Y-58102991D01*
X125323448Y-58138729D01*
X125240186Y-58240186D01*
X125138729Y-58323448D01*
X125102991Y-58352778D01*
X124946466Y-58436443D01*
X124776627Y-58487963D01*
X124710443Y-58494481D01*
X124644260Y-58501000D01*
X124555740Y-58501000D01*
X124489557Y-58494481D01*
X124423373Y-58487963D01*
X124253534Y-58436443D01*
X124097009Y-58352778D01*
X124061271Y-58323448D01*
X123959814Y-58240186D01*
X123876552Y-58138729D01*
X123847222Y-58102991D01*
X123763557Y-57946466D01*
X123712037Y-57776627D01*
X123694641Y-57600000D01*
X123712037Y-57423373D01*
X123763557Y-57253534D01*
X123847222Y-57097009D01*
X123876552Y-57061271D01*
X123959814Y-56959814D01*
X124061271Y-56876552D01*
X124097009Y-56847222D01*
X124253534Y-56763557D01*
X124423373Y-56712037D01*
X124489558Y-56705518D01*
X124555740Y-56699000D01*
X124644260Y-56699000D01*
X124710442Y-56705518D01*
X124710442Y-56705518D01*
G37*
G36*
X129790442Y-56705518D02*
G01*
X129856627Y-56712037D01*
X130026466Y-56763557D01*
X130182991Y-56847222D01*
X130218729Y-56876552D01*
X130320186Y-56959814D01*
X130403448Y-57061271D01*
X130432778Y-57097009D01*
X130516443Y-57253534D01*
X130567963Y-57423373D01*
X130585359Y-57600000D01*
X130567963Y-57776627D01*
X130516443Y-57946466D01*
X130432778Y-58102991D01*
X130403448Y-58138729D01*
X130320186Y-58240186D01*
X130218729Y-58323448D01*
X130182991Y-58352778D01*
X130026466Y-58436443D01*
X129856627Y-58487963D01*
X129790443Y-58494481D01*
X129724260Y-58501000D01*
X129635740Y-58501000D01*
X129569557Y-58494481D01*
X129503373Y-58487963D01*
X129333534Y-58436443D01*
X129177009Y-58352778D01*
X129141271Y-58323448D01*
X129039814Y-58240186D01*
X128956552Y-58138729D01*
X128927222Y-58102991D01*
X128843557Y-57946466D01*
X128792037Y-57776627D01*
X128774641Y-57600000D01*
X128792037Y-57423373D01*
X128843557Y-57253534D01*
X128927222Y-57097009D01*
X128956552Y-57061271D01*
X129039814Y-56959814D01*
X129141271Y-56876552D01*
X129177009Y-56847222D01*
X129333534Y-56763557D01*
X129503373Y-56712037D01*
X129569558Y-56705518D01*
X129635740Y-56699000D01*
X129724260Y-56699000D01*
X129790442Y-56705518D01*
X129790442Y-56705518D01*
G37*
M02*
