%TF.GenerationSoftware,KiCad,Pcbnew,(5.1.2-1)-1*%
%TF.CreationDate,2019-08-17T10:29:18+10:00*%
%TF.ProjectId,GreengrassEntryHardware,47726565-6e67-4726-9173-73456e747279,v1.0*%
%TF.SameCoordinates,Original*%
%TF.FileFunction,Paste,Top*%
%TF.FilePolarity,Positive*%
%FSLAX46Y46*%
G04 Gerber Fmt 4.6, Leading zero omitted, Abs format (unit mm)*
G04 Created by KiCad (PCBNEW (5.1.2-1)-1) date 2019-08-17 10:29:18*
%MOMM*%
%LPD*%
G04 APERTURE LIST*
%ADD10C,0.150000*%
%ADD11C,0.600000*%
%ADD12C,1.150000*%
%ADD13R,2.000000X7.875000*%
%ADD14R,1.500000X1.900000*%
%ADD15R,0.400000X1.350000*%
G04 APERTURE END LIST*
D10*
G36*
X163844703Y-84925722D02*
G01*
X163859264Y-84927882D01*
X163873543Y-84931459D01*
X163887403Y-84936418D01*
X163900710Y-84942712D01*
X163913336Y-84950280D01*
X163925159Y-84959048D01*
X163936066Y-84968934D01*
X163945952Y-84979841D01*
X163954720Y-84991664D01*
X163962288Y-85004290D01*
X163968582Y-85017597D01*
X163973541Y-85031457D01*
X163977118Y-85045736D01*
X163979278Y-85060297D01*
X163980000Y-85075000D01*
X163980000Y-86725000D01*
X163979278Y-86739703D01*
X163977118Y-86754264D01*
X163973541Y-86768543D01*
X163968582Y-86782403D01*
X163962288Y-86795710D01*
X163954720Y-86808336D01*
X163945952Y-86820159D01*
X163936066Y-86831066D01*
X163925159Y-86840952D01*
X163913336Y-86849720D01*
X163900710Y-86857288D01*
X163887403Y-86863582D01*
X163873543Y-86868541D01*
X163859264Y-86872118D01*
X163844703Y-86874278D01*
X163830000Y-86875000D01*
X163530000Y-86875000D01*
X163515297Y-86874278D01*
X163500736Y-86872118D01*
X163486457Y-86868541D01*
X163472597Y-86863582D01*
X163459290Y-86857288D01*
X163446664Y-86849720D01*
X163434841Y-86840952D01*
X163423934Y-86831066D01*
X163414048Y-86820159D01*
X163405280Y-86808336D01*
X163397712Y-86795710D01*
X163391418Y-86782403D01*
X163386459Y-86768543D01*
X163382882Y-86754264D01*
X163380722Y-86739703D01*
X163380000Y-86725000D01*
X163380000Y-85075000D01*
X163380722Y-85060297D01*
X163382882Y-85045736D01*
X163386459Y-85031457D01*
X163391418Y-85017597D01*
X163397712Y-85004290D01*
X163405280Y-84991664D01*
X163414048Y-84979841D01*
X163423934Y-84968934D01*
X163434841Y-84959048D01*
X163446664Y-84950280D01*
X163459290Y-84942712D01*
X163472597Y-84936418D01*
X163486457Y-84931459D01*
X163500736Y-84927882D01*
X163515297Y-84925722D01*
X163530000Y-84925000D01*
X163830000Y-84925000D01*
X163844703Y-84925722D01*
X163844703Y-84925722D01*
G37*
D11*
X163680000Y-85900000D03*
D10*
G36*
X165114703Y-84925722D02*
G01*
X165129264Y-84927882D01*
X165143543Y-84931459D01*
X165157403Y-84936418D01*
X165170710Y-84942712D01*
X165183336Y-84950280D01*
X165195159Y-84959048D01*
X165206066Y-84968934D01*
X165215952Y-84979841D01*
X165224720Y-84991664D01*
X165232288Y-85004290D01*
X165238582Y-85017597D01*
X165243541Y-85031457D01*
X165247118Y-85045736D01*
X165249278Y-85060297D01*
X165250000Y-85075000D01*
X165250000Y-86725000D01*
X165249278Y-86739703D01*
X165247118Y-86754264D01*
X165243541Y-86768543D01*
X165238582Y-86782403D01*
X165232288Y-86795710D01*
X165224720Y-86808336D01*
X165215952Y-86820159D01*
X165206066Y-86831066D01*
X165195159Y-86840952D01*
X165183336Y-86849720D01*
X165170710Y-86857288D01*
X165157403Y-86863582D01*
X165143543Y-86868541D01*
X165129264Y-86872118D01*
X165114703Y-86874278D01*
X165100000Y-86875000D01*
X164800000Y-86875000D01*
X164785297Y-86874278D01*
X164770736Y-86872118D01*
X164756457Y-86868541D01*
X164742597Y-86863582D01*
X164729290Y-86857288D01*
X164716664Y-86849720D01*
X164704841Y-86840952D01*
X164693934Y-86831066D01*
X164684048Y-86820159D01*
X164675280Y-86808336D01*
X164667712Y-86795710D01*
X164661418Y-86782403D01*
X164656459Y-86768543D01*
X164652882Y-86754264D01*
X164650722Y-86739703D01*
X164650000Y-86725000D01*
X164650000Y-85075000D01*
X164650722Y-85060297D01*
X164652882Y-85045736D01*
X164656459Y-85031457D01*
X164661418Y-85017597D01*
X164667712Y-85004290D01*
X164675280Y-84991664D01*
X164684048Y-84979841D01*
X164693934Y-84968934D01*
X164704841Y-84959048D01*
X164716664Y-84950280D01*
X164729290Y-84942712D01*
X164742597Y-84936418D01*
X164756457Y-84931459D01*
X164770736Y-84927882D01*
X164785297Y-84925722D01*
X164800000Y-84925000D01*
X165100000Y-84925000D01*
X165114703Y-84925722D01*
X165114703Y-84925722D01*
G37*
D11*
X164950000Y-85900000D03*
D10*
G36*
X166384703Y-84925722D02*
G01*
X166399264Y-84927882D01*
X166413543Y-84931459D01*
X166427403Y-84936418D01*
X166440710Y-84942712D01*
X166453336Y-84950280D01*
X166465159Y-84959048D01*
X166476066Y-84968934D01*
X166485952Y-84979841D01*
X166494720Y-84991664D01*
X166502288Y-85004290D01*
X166508582Y-85017597D01*
X166513541Y-85031457D01*
X166517118Y-85045736D01*
X166519278Y-85060297D01*
X166520000Y-85075000D01*
X166520000Y-86725000D01*
X166519278Y-86739703D01*
X166517118Y-86754264D01*
X166513541Y-86768543D01*
X166508582Y-86782403D01*
X166502288Y-86795710D01*
X166494720Y-86808336D01*
X166485952Y-86820159D01*
X166476066Y-86831066D01*
X166465159Y-86840952D01*
X166453336Y-86849720D01*
X166440710Y-86857288D01*
X166427403Y-86863582D01*
X166413543Y-86868541D01*
X166399264Y-86872118D01*
X166384703Y-86874278D01*
X166370000Y-86875000D01*
X166070000Y-86875000D01*
X166055297Y-86874278D01*
X166040736Y-86872118D01*
X166026457Y-86868541D01*
X166012597Y-86863582D01*
X165999290Y-86857288D01*
X165986664Y-86849720D01*
X165974841Y-86840952D01*
X165963934Y-86831066D01*
X165954048Y-86820159D01*
X165945280Y-86808336D01*
X165937712Y-86795710D01*
X165931418Y-86782403D01*
X165926459Y-86768543D01*
X165922882Y-86754264D01*
X165920722Y-86739703D01*
X165920000Y-86725000D01*
X165920000Y-85075000D01*
X165920722Y-85060297D01*
X165922882Y-85045736D01*
X165926459Y-85031457D01*
X165931418Y-85017597D01*
X165937712Y-85004290D01*
X165945280Y-84991664D01*
X165954048Y-84979841D01*
X165963934Y-84968934D01*
X165974841Y-84959048D01*
X165986664Y-84950280D01*
X165999290Y-84942712D01*
X166012597Y-84936418D01*
X166026457Y-84931459D01*
X166040736Y-84927882D01*
X166055297Y-84925722D01*
X166070000Y-84925000D01*
X166370000Y-84925000D01*
X166384703Y-84925722D01*
X166384703Y-84925722D01*
G37*
D11*
X166220000Y-85900000D03*
D10*
G36*
X167654703Y-84925722D02*
G01*
X167669264Y-84927882D01*
X167683543Y-84931459D01*
X167697403Y-84936418D01*
X167710710Y-84942712D01*
X167723336Y-84950280D01*
X167735159Y-84959048D01*
X167746066Y-84968934D01*
X167755952Y-84979841D01*
X167764720Y-84991664D01*
X167772288Y-85004290D01*
X167778582Y-85017597D01*
X167783541Y-85031457D01*
X167787118Y-85045736D01*
X167789278Y-85060297D01*
X167790000Y-85075000D01*
X167790000Y-86725000D01*
X167789278Y-86739703D01*
X167787118Y-86754264D01*
X167783541Y-86768543D01*
X167778582Y-86782403D01*
X167772288Y-86795710D01*
X167764720Y-86808336D01*
X167755952Y-86820159D01*
X167746066Y-86831066D01*
X167735159Y-86840952D01*
X167723336Y-86849720D01*
X167710710Y-86857288D01*
X167697403Y-86863582D01*
X167683543Y-86868541D01*
X167669264Y-86872118D01*
X167654703Y-86874278D01*
X167640000Y-86875000D01*
X167340000Y-86875000D01*
X167325297Y-86874278D01*
X167310736Y-86872118D01*
X167296457Y-86868541D01*
X167282597Y-86863582D01*
X167269290Y-86857288D01*
X167256664Y-86849720D01*
X167244841Y-86840952D01*
X167233934Y-86831066D01*
X167224048Y-86820159D01*
X167215280Y-86808336D01*
X167207712Y-86795710D01*
X167201418Y-86782403D01*
X167196459Y-86768543D01*
X167192882Y-86754264D01*
X167190722Y-86739703D01*
X167190000Y-86725000D01*
X167190000Y-85075000D01*
X167190722Y-85060297D01*
X167192882Y-85045736D01*
X167196459Y-85031457D01*
X167201418Y-85017597D01*
X167207712Y-85004290D01*
X167215280Y-84991664D01*
X167224048Y-84979841D01*
X167233934Y-84968934D01*
X167244841Y-84959048D01*
X167256664Y-84950280D01*
X167269290Y-84942712D01*
X167282597Y-84936418D01*
X167296457Y-84931459D01*
X167310736Y-84927882D01*
X167325297Y-84925722D01*
X167340000Y-84925000D01*
X167640000Y-84925000D01*
X167654703Y-84925722D01*
X167654703Y-84925722D01*
G37*
D11*
X167490000Y-85900000D03*
D10*
G36*
X168924703Y-84925722D02*
G01*
X168939264Y-84927882D01*
X168953543Y-84931459D01*
X168967403Y-84936418D01*
X168980710Y-84942712D01*
X168993336Y-84950280D01*
X169005159Y-84959048D01*
X169016066Y-84968934D01*
X169025952Y-84979841D01*
X169034720Y-84991664D01*
X169042288Y-85004290D01*
X169048582Y-85017597D01*
X169053541Y-85031457D01*
X169057118Y-85045736D01*
X169059278Y-85060297D01*
X169060000Y-85075000D01*
X169060000Y-86725000D01*
X169059278Y-86739703D01*
X169057118Y-86754264D01*
X169053541Y-86768543D01*
X169048582Y-86782403D01*
X169042288Y-86795710D01*
X169034720Y-86808336D01*
X169025952Y-86820159D01*
X169016066Y-86831066D01*
X169005159Y-86840952D01*
X168993336Y-86849720D01*
X168980710Y-86857288D01*
X168967403Y-86863582D01*
X168953543Y-86868541D01*
X168939264Y-86872118D01*
X168924703Y-86874278D01*
X168910000Y-86875000D01*
X168610000Y-86875000D01*
X168595297Y-86874278D01*
X168580736Y-86872118D01*
X168566457Y-86868541D01*
X168552597Y-86863582D01*
X168539290Y-86857288D01*
X168526664Y-86849720D01*
X168514841Y-86840952D01*
X168503934Y-86831066D01*
X168494048Y-86820159D01*
X168485280Y-86808336D01*
X168477712Y-86795710D01*
X168471418Y-86782403D01*
X168466459Y-86768543D01*
X168462882Y-86754264D01*
X168460722Y-86739703D01*
X168460000Y-86725000D01*
X168460000Y-85075000D01*
X168460722Y-85060297D01*
X168462882Y-85045736D01*
X168466459Y-85031457D01*
X168471418Y-85017597D01*
X168477712Y-85004290D01*
X168485280Y-84991664D01*
X168494048Y-84979841D01*
X168503934Y-84968934D01*
X168514841Y-84959048D01*
X168526664Y-84950280D01*
X168539290Y-84942712D01*
X168552597Y-84936418D01*
X168566457Y-84931459D01*
X168580736Y-84927882D01*
X168595297Y-84925722D01*
X168610000Y-84925000D01*
X168910000Y-84925000D01*
X168924703Y-84925722D01*
X168924703Y-84925722D01*
G37*
D11*
X168760000Y-85900000D03*
D10*
G36*
X170194703Y-84925722D02*
G01*
X170209264Y-84927882D01*
X170223543Y-84931459D01*
X170237403Y-84936418D01*
X170250710Y-84942712D01*
X170263336Y-84950280D01*
X170275159Y-84959048D01*
X170286066Y-84968934D01*
X170295952Y-84979841D01*
X170304720Y-84991664D01*
X170312288Y-85004290D01*
X170318582Y-85017597D01*
X170323541Y-85031457D01*
X170327118Y-85045736D01*
X170329278Y-85060297D01*
X170330000Y-85075000D01*
X170330000Y-86725000D01*
X170329278Y-86739703D01*
X170327118Y-86754264D01*
X170323541Y-86768543D01*
X170318582Y-86782403D01*
X170312288Y-86795710D01*
X170304720Y-86808336D01*
X170295952Y-86820159D01*
X170286066Y-86831066D01*
X170275159Y-86840952D01*
X170263336Y-86849720D01*
X170250710Y-86857288D01*
X170237403Y-86863582D01*
X170223543Y-86868541D01*
X170209264Y-86872118D01*
X170194703Y-86874278D01*
X170180000Y-86875000D01*
X169880000Y-86875000D01*
X169865297Y-86874278D01*
X169850736Y-86872118D01*
X169836457Y-86868541D01*
X169822597Y-86863582D01*
X169809290Y-86857288D01*
X169796664Y-86849720D01*
X169784841Y-86840952D01*
X169773934Y-86831066D01*
X169764048Y-86820159D01*
X169755280Y-86808336D01*
X169747712Y-86795710D01*
X169741418Y-86782403D01*
X169736459Y-86768543D01*
X169732882Y-86754264D01*
X169730722Y-86739703D01*
X169730000Y-86725000D01*
X169730000Y-85075000D01*
X169730722Y-85060297D01*
X169732882Y-85045736D01*
X169736459Y-85031457D01*
X169741418Y-85017597D01*
X169747712Y-85004290D01*
X169755280Y-84991664D01*
X169764048Y-84979841D01*
X169773934Y-84968934D01*
X169784841Y-84959048D01*
X169796664Y-84950280D01*
X169809290Y-84942712D01*
X169822597Y-84936418D01*
X169836457Y-84931459D01*
X169850736Y-84927882D01*
X169865297Y-84925722D01*
X169880000Y-84925000D01*
X170180000Y-84925000D01*
X170194703Y-84925722D01*
X170194703Y-84925722D01*
G37*
D11*
X170030000Y-85900000D03*
D10*
G36*
X171464703Y-84925722D02*
G01*
X171479264Y-84927882D01*
X171493543Y-84931459D01*
X171507403Y-84936418D01*
X171520710Y-84942712D01*
X171533336Y-84950280D01*
X171545159Y-84959048D01*
X171556066Y-84968934D01*
X171565952Y-84979841D01*
X171574720Y-84991664D01*
X171582288Y-85004290D01*
X171588582Y-85017597D01*
X171593541Y-85031457D01*
X171597118Y-85045736D01*
X171599278Y-85060297D01*
X171600000Y-85075000D01*
X171600000Y-86725000D01*
X171599278Y-86739703D01*
X171597118Y-86754264D01*
X171593541Y-86768543D01*
X171588582Y-86782403D01*
X171582288Y-86795710D01*
X171574720Y-86808336D01*
X171565952Y-86820159D01*
X171556066Y-86831066D01*
X171545159Y-86840952D01*
X171533336Y-86849720D01*
X171520710Y-86857288D01*
X171507403Y-86863582D01*
X171493543Y-86868541D01*
X171479264Y-86872118D01*
X171464703Y-86874278D01*
X171450000Y-86875000D01*
X171150000Y-86875000D01*
X171135297Y-86874278D01*
X171120736Y-86872118D01*
X171106457Y-86868541D01*
X171092597Y-86863582D01*
X171079290Y-86857288D01*
X171066664Y-86849720D01*
X171054841Y-86840952D01*
X171043934Y-86831066D01*
X171034048Y-86820159D01*
X171025280Y-86808336D01*
X171017712Y-86795710D01*
X171011418Y-86782403D01*
X171006459Y-86768543D01*
X171002882Y-86754264D01*
X171000722Y-86739703D01*
X171000000Y-86725000D01*
X171000000Y-85075000D01*
X171000722Y-85060297D01*
X171002882Y-85045736D01*
X171006459Y-85031457D01*
X171011418Y-85017597D01*
X171017712Y-85004290D01*
X171025280Y-84991664D01*
X171034048Y-84979841D01*
X171043934Y-84968934D01*
X171054841Y-84959048D01*
X171066664Y-84950280D01*
X171079290Y-84942712D01*
X171092597Y-84936418D01*
X171106457Y-84931459D01*
X171120736Y-84927882D01*
X171135297Y-84925722D01*
X171150000Y-84925000D01*
X171450000Y-84925000D01*
X171464703Y-84925722D01*
X171464703Y-84925722D01*
G37*
D11*
X171300000Y-85900000D03*
D10*
G36*
X172734703Y-84925722D02*
G01*
X172749264Y-84927882D01*
X172763543Y-84931459D01*
X172777403Y-84936418D01*
X172790710Y-84942712D01*
X172803336Y-84950280D01*
X172815159Y-84959048D01*
X172826066Y-84968934D01*
X172835952Y-84979841D01*
X172844720Y-84991664D01*
X172852288Y-85004290D01*
X172858582Y-85017597D01*
X172863541Y-85031457D01*
X172867118Y-85045736D01*
X172869278Y-85060297D01*
X172870000Y-85075000D01*
X172870000Y-86725000D01*
X172869278Y-86739703D01*
X172867118Y-86754264D01*
X172863541Y-86768543D01*
X172858582Y-86782403D01*
X172852288Y-86795710D01*
X172844720Y-86808336D01*
X172835952Y-86820159D01*
X172826066Y-86831066D01*
X172815159Y-86840952D01*
X172803336Y-86849720D01*
X172790710Y-86857288D01*
X172777403Y-86863582D01*
X172763543Y-86868541D01*
X172749264Y-86872118D01*
X172734703Y-86874278D01*
X172720000Y-86875000D01*
X172420000Y-86875000D01*
X172405297Y-86874278D01*
X172390736Y-86872118D01*
X172376457Y-86868541D01*
X172362597Y-86863582D01*
X172349290Y-86857288D01*
X172336664Y-86849720D01*
X172324841Y-86840952D01*
X172313934Y-86831066D01*
X172304048Y-86820159D01*
X172295280Y-86808336D01*
X172287712Y-86795710D01*
X172281418Y-86782403D01*
X172276459Y-86768543D01*
X172272882Y-86754264D01*
X172270722Y-86739703D01*
X172270000Y-86725000D01*
X172270000Y-85075000D01*
X172270722Y-85060297D01*
X172272882Y-85045736D01*
X172276459Y-85031457D01*
X172281418Y-85017597D01*
X172287712Y-85004290D01*
X172295280Y-84991664D01*
X172304048Y-84979841D01*
X172313934Y-84968934D01*
X172324841Y-84959048D01*
X172336664Y-84950280D01*
X172349290Y-84942712D01*
X172362597Y-84936418D01*
X172376457Y-84931459D01*
X172390736Y-84927882D01*
X172405297Y-84925722D01*
X172420000Y-84925000D01*
X172720000Y-84925000D01*
X172734703Y-84925722D01*
X172734703Y-84925722D01*
G37*
D11*
X172570000Y-85900000D03*
D10*
G36*
X172734703Y-89875722D02*
G01*
X172749264Y-89877882D01*
X172763543Y-89881459D01*
X172777403Y-89886418D01*
X172790710Y-89892712D01*
X172803336Y-89900280D01*
X172815159Y-89909048D01*
X172826066Y-89918934D01*
X172835952Y-89929841D01*
X172844720Y-89941664D01*
X172852288Y-89954290D01*
X172858582Y-89967597D01*
X172863541Y-89981457D01*
X172867118Y-89995736D01*
X172869278Y-90010297D01*
X172870000Y-90025000D01*
X172870000Y-91675000D01*
X172869278Y-91689703D01*
X172867118Y-91704264D01*
X172863541Y-91718543D01*
X172858582Y-91732403D01*
X172852288Y-91745710D01*
X172844720Y-91758336D01*
X172835952Y-91770159D01*
X172826066Y-91781066D01*
X172815159Y-91790952D01*
X172803336Y-91799720D01*
X172790710Y-91807288D01*
X172777403Y-91813582D01*
X172763543Y-91818541D01*
X172749264Y-91822118D01*
X172734703Y-91824278D01*
X172720000Y-91825000D01*
X172420000Y-91825000D01*
X172405297Y-91824278D01*
X172390736Y-91822118D01*
X172376457Y-91818541D01*
X172362597Y-91813582D01*
X172349290Y-91807288D01*
X172336664Y-91799720D01*
X172324841Y-91790952D01*
X172313934Y-91781066D01*
X172304048Y-91770159D01*
X172295280Y-91758336D01*
X172287712Y-91745710D01*
X172281418Y-91732403D01*
X172276459Y-91718543D01*
X172272882Y-91704264D01*
X172270722Y-91689703D01*
X172270000Y-91675000D01*
X172270000Y-90025000D01*
X172270722Y-90010297D01*
X172272882Y-89995736D01*
X172276459Y-89981457D01*
X172281418Y-89967597D01*
X172287712Y-89954290D01*
X172295280Y-89941664D01*
X172304048Y-89929841D01*
X172313934Y-89918934D01*
X172324841Y-89909048D01*
X172336664Y-89900280D01*
X172349290Y-89892712D01*
X172362597Y-89886418D01*
X172376457Y-89881459D01*
X172390736Y-89877882D01*
X172405297Y-89875722D01*
X172420000Y-89875000D01*
X172720000Y-89875000D01*
X172734703Y-89875722D01*
X172734703Y-89875722D01*
G37*
D11*
X172570000Y-90850000D03*
D10*
G36*
X171464703Y-89875722D02*
G01*
X171479264Y-89877882D01*
X171493543Y-89881459D01*
X171507403Y-89886418D01*
X171520710Y-89892712D01*
X171533336Y-89900280D01*
X171545159Y-89909048D01*
X171556066Y-89918934D01*
X171565952Y-89929841D01*
X171574720Y-89941664D01*
X171582288Y-89954290D01*
X171588582Y-89967597D01*
X171593541Y-89981457D01*
X171597118Y-89995736D01*
X171599278Y-90010297D01*
X171600000Y-90025000D01*
X171600000Y-91675000D01*
X171599278Y-91689703D01*
X171597118Y-91704264D01*
X171593541Y-91718543D01*
X171588582Y-91732403D01*
X171582288Y-91745710D01*
X171574720Y-91758336D01*
X171565952Y-91770159D01*
X171556066Y-91781066D01*
X171545159Y-91790952D01*
X171533336Y-91799720D01*
X171520710Y-91807288D01*
X171507403Y-91813582D01*
X171493543Y-91818541D01*
X171479264Y-91822118D01*
X171464703Y-91824278D01*
X171450000Y-91825000D01*
X171150000Y-91825000D01*
X171135297Y-91824278D01*
X171120736Y-91822118D01*
X171106457Y-91818541D01*
X171092597Y-91813582D01*
X171079290Y-91807288D01*
X171066664Y-91799720D01*
X171054841Y-91790952D01*
X171043934Y-91781066D01*
X171034048Y-91770159D01*
X171025280Y-91758336D01*
X171017712Y-91745710D01*
X171011418Y-91732403D01*
X171006459Y-91718543D01*
X171002882Y-91704264D01*
X171000722Y-91689703D01*
X171000000Y-91675000D01*
X171000000Y-90025000D01*
X171000722Y-90010297D01*
X171002882Y-89995736D01*
X171006459Y-89981457D01*
X171011418Y-89967597D01*
X171017712Y-89954290D01*
X171025280Y-89941664D01*
X171034048Y-89929841D01*
X171043934Y-89918934D01*
X171054841Y-89909048D01*
X171066664Y-89900280D01*
X171079290Y-89892712D01*
X171092597Y-89886418D01*
X171106457Y-89881459D01*
X171120736Y-89877882D01*
X171135297Y-89875722D01*
X171150000Y-89875000D01*
X171450000Y-89875000D01*
X171464703Y-89875722D01*
X171464703Y-89875722D01*
G37*
D11*
X171300000Y-90850000D03*
D10*
G36*
X170194703Y-89875722D02*
G01*
X170209264Y-89877882D01*
X170223543Y-89881459D01*
X170237403Y-89886418D01*
X170250710Y-89892712D01*
X170263336Y-89900280D01*
X170275159Y-89909048D01*
X170286066Y-89918934D01*
X170295952Y-89929841D01*
X170304720Y-89941664D01*
X170312288Y-89954290D01*
X170318582Y-89967597D01*
X170323541Y-89981457D01*
X170327118Y-89995736D01*
X170329278Y-90010297D01*
X170330000Y-90025000D01*
X170330000Y-91675000D01*
X170329278Y-91689703D01*
X170327118Y-91704264D01*
X170323541Y-91718543D01*
X170318582Y-91732403D01*
X170312288Y-91745710D01*
X170304720Y-91758336D01*
X170295952Y-91770159D01*
X170286066Y-91781066D01*
X170275159Y-91790952D01*
X170263336Y-91799720D01*
X170250710Y-91807288D01*
X170237403Y-91813582D01*
X170223543Y-91818541D01*
X170209264Y-91822118D01*
X170194703Y-91824278D01*
X170180000Y-91825000D01*
X169880000Y-91825000D01*
X169865297Y-91824278D01*
X169850736Y-91822118D01*
X169836457Y-91818541D01*
X169822597Y-91813582D01*
X169809290Y-91807288D01*
X169796664Y-91799720D01*
X169784841Y-91790952D01*
X169773934Y-91781066D01*
X169764048Y-91770159D01*
X169755280Y-91758336D01*
X169747712Y-91745710D01*
X169741418Y-91732403D01*
X169736459Y-91718543D01*
X169732882Y-91704264D01*
X169730722Y-91689703D01*
X169730000Y-91675000D01*
X169730000Y-90025000D01*
X169730722Y-90010297D01*
X169732882Y-89995736D01*
X169736459Y-89981457D01*
X169741418Y-89967597D01*
X169747712Y-89954290D01*
X169755280Y-89941664D01*
X169764048Y-89929841D01*
X169773934Y-89918934D01*
X169784841Y-89909048D01*
X169796664Y-89900280D01*
X169809290Y-89892712D01*
X169822597Y-89886418D01*
X169836457Y-89881459D01*
X169850736Y-89877882D01*
X169865297Y-89875722D01*
X169880000Y-89875000D01*
X170180000Y-89875000D01*
X170194703Y-89875722D01*
X170194703Y-89875722D01*
G37*
D11*
X170030000Y-90850000D03*
D10*
G36*
X168924703Y-89875722D02*
G01*
X168939264Y-89877882D01*
X168953543Y-89881459D01*
X168967403Y-89886418D01*
X168980710Y-89892712D01*
X168993336Y-89900280D01*
X169005159Y-89909048D01*
X169016066Y-89918934D01*
X169025952Y-89929841D01*
X169034720Y-89941664D01*
X169042288Y-89954290D01*
X169048582Y-89967597D01*
X169053541Y-89981457D01*
X169057118Y-89995736D01*
X169059278Y-90010297D01*
X169060000Y-90025000D01*
X169060000Y-91675000D01*
X169059278Y-91689703D01*
X169057118Y-91704264D01*
X169053541Y-91718543D01*
X169048582Y-91732403D01*
X169042288Y-91745710D01*
X169034720Y-91758336D01*
X169025952Y-91770159D01*
X169016066Y-91781066D01*
X169005159Y-91790952D01*
X168993336Y-91799720D01*
X168980710Y-91807288D01*
X168967403Y-91813582D01*
X168953543Y-91818541D01*
X168939264Y-91822118D01*
X168924703Y-91824278D01*
X168910000Y-91825000D01*
X168610000Y-91825000D01*
X168595297Y-91824278D01*
X168580736Y-91822118D01*
X168566457Y-91818541D01*
X168552597Y-91813582D01*
X168539290Y-91807288D01*
X168526664Y-91799720D01*
X168514841Y-91790952D01*
X168503934Y-91781066D01*
X168494048Y-91770159D01*
X168485280Y-91758336D01*
X168477712Y-91745710D01*
X168471418Y-91732403D01*
X168466459Y-91718543D01*
X168462882Y-91704264D01*
X168460722Y-91689703D01*
X168460000Y-91675000D01*
X168460000Y-90025000D01*
X168460722Y-90010297D01*
X168462882Y-89995736D01*
X168466459Y-89981457D01*
X168471418Y-89967597D01*
X168477712Y-89954290D01*
X168485280Y-89941664D01*
X168494048Y-89929841D01*
X168503934Y-89918934D01*
X168514841Y-89909048D01*
X168526664Y-89900280D01*
X168539290Y-89892712D01*
X168552597Y-89886418D01*
X168566457Y-89881459D01*
X168580736Y-89877882D01*
X168595297Y-89875722D01*
X168610000Y-89875000D01*
X168910000Y-89875000D01*
X168924703Y-89875722D01*
X168924703Y-89875722D01*
G37*
D11*
X168760000Y-90850000D03*
D10*
G36*
X167654703Y-89875722D02*
G01*
X167669264Y-89877882D01*
X167683543Y-89881459D01*
X167697403Y-89886418D01*
X167710710Y-89892712D01*
X167723336Y-89900280D01*
X167735159Y-89909048D01*
X167746066Y-89918934D01*
X167755952Y-89929841D01*
X167764720Y-89941664D01*
X167772288Y-89954290D01*
X167778582Y-89967597D01*
X167783541Y-89981457D01*
X167787118Y-89995736D01*
X167789278Y-90010297D01*
X167790000Y-90025000D01*
X167790000Y-91675000D01*
X167789278Y-91689703D01*
X167787118Y-91704264D01*
X167783541Y-91718543D01*
X167778582Y-91732403D01*
X167772288Y-91745710D01*
X167764720Y-91758336D01*
X167755952Y-91770159D01*
X167746066Y-91781066D01*
X167735159Y-91790952D01*
X167723336Y-91799720D01*
X167710710Y-91807288D01*
X167697403Y-91813582D01*
X167683543Y-91818541D01*
X167669264Y-91822118D01*
X167654703Y-91824278D01*
X167640000Y-91825000D01*
X167340000Y-91825000D01*
X167325297Y-91824278D01*
X167310736Y-91822118D01*
X167296457Y-91818541D01*
X167282597Y-91813582D01*
X167269290Y-91807288D01*
X167256664Y-91799720D01*
X167244841Y-91790952D01*
X167233934Y-91781066D01*
X167224048Y-91770159D01*
X167215280Y-91758336D01*
X167207712Y-91745710D01*
X167201418Y-91732403D01*
X167196459Y-91718543D01*
X167192882Y-91704264D01*
X167190722Y-91689703D01*
X167190000Y-91675000D01*
X167190000Y-90025000D01*
X167190722Y-90010297D01*
X167192882Y-89995736D01*
X167196459Y-89981457D01*
X167201418Y-89967597D01*
X167207712Y-89954290D01*
X167215280Y-89941664D01*
X167224048Y-89929841D01*
X167233934Y-89918934D01*
X167244841Y-89909048D01*
X167256664Y-89900280D01*
X167269290Y-89892712D01*
X167282597Y-89886418D01*
X167296457Y-89881459D01*
X167310736Y-89877882D01*
X167325297Y-89875722D01*
X167340000Y-89875000D01*
X167640000Y-89875000D01*
X167654703Y-89875722D01*
X167654703Y-89875722D01*
G37*
D11*
X167490000Y-90850000D03*
D10*
G36*
X166384703Y-89875722D02*
G01*
X166399264Y-89877882D01*
X166413543Y-89881459D01*
X166427403Y-89886418D01*
X166440710Y-89892712D01*
X166453336Y-89900280D01*
X166465159Y-89909048D01*
X166476066Y-89918934D01*
X166485952Y-89929841D01*
X166494720Y-89941664D01*
X166502288Y-89954290D01*
X166508582Y-89967597D01*
X166513541Y-89981457D01*
X166517118Y-89995736D01*
X166519278Y-90010297D01*
X166520000Y-90025000D01*
X166520000Y-91675000D01*
X166519278Y-91689703D01*
X166517118Y-91704264D01*
X166513541Y-91718543D01*
X166508582Y-91732403D01*
X166502288Y-91745710D01*
X166494720Y-91758336D01*
X166485952Y-91770159D01*
X166476066Y-91781066D01*
X166465159Y-91790952D01*
X166453336Y-91799720D01*
X166440710Y-91807288D01*
X166427403Y-91813582D01*
X166413543Y-91818541D01*
X166399264Y-91822118D01*
X166384703Y-91824278D01*
X166370000Y-91825000D01*
X166070000Y-91825000D01*
X166055297Y-91824278D01*
X166040736Y-91822118D01*
X166026457Y-91818541D01*
X166012597Y-91813582D01*
X165999290Y-91807288D01*
X165986664Y-91799720D01*
X165974841Y-91790952D01*
X165963934Y-91781066D01*
X165954048Y-91770159D01*
X165945280Y-91758336D01*
X165937712Y-91745710D01*
X165931418Y-91732403D01*
X165926459Y-91718543D01*
X165922882Y-91704264D01*
X165920722Y-91689703D01*
X165920000Y-91675000D01*
X165920000Y-90025000D01*
X165920722Y-90010297D01*
X165922882Y-89995736D01*
X165926459Y-89981457D01*
X165931418Y-89967597D01*
X165937712Y-89954290D01*
X165945280Y-89941664D01*
X165954048Y-89929841D01*
X165963934Y-89918934D01*
X165974841Y-89909048D01*
X165986664Y-89900280D01*
X165999290Y-89892712D01*
X166012597Y-89886418D01*
X166026457Y-89881459D01*
X166040736Y-89877882D01*
X166055297Y-89875722D01*
X166070000Y-89875000D01*
X166370000Y-89875000D01*
X166384703Y-89875722D01*
X166384703Y-89875722D01*
G37*
D11*
X166220000Y-90850000D03*
D10*
G36*
X165114703Y-89875722D02*
G01*
X165129264Y-89877882D01*
X165143543Y-89881459D01*
X165157403Y-89886418D01*
X165170710Y-89892712D01*
X165183336Y-89900280D01*
X165195159Y-89909048D01*
X165206066Y-89918934D01*
X165215952Y-89929841D01*
X165224720Y-89941664D01*
X165232288Y-89954290D01*
X165238582Y-89967597D01*
X165243541Y-89981457D01*
X165247118Y-89995736D01*
X165249278Y-90010297D01*
X165250000Y-90025000D01*
X165250000Y-91675000D01*
X165249278Y-91689703D01*
X165247118Y-91704264D01*
X165243541Y-91718543D01*
X165238582Y-91732403D01*
X165232288Y-91745710D01*
X165224720Y-91758336D01*
X165215952Y-91770159D01*
X165206066Y-91781066D01*
X165195159Y-91790952D01*
X165183336Y-91799720D01*
X165170710Y-91807288D01*
X165157403Y-91813582D01*
X165143543Y-91818541D01*
X165129264Y-91822118D01*
X165114703Y-91824278D01*
X165100000Y-91825000D01*
X164800000Y-91825000D01*
X164785297Y-91824278D01*
X164770736Y-91822118D01*
X164756457Y-91818541D01*
X164742597Y-91813582D01*
X164729290Y-91807288D01*
X164716664Y-91799720D01*
X164704841Y-91790952D01*
X164693934Y-91781066D01*
X164684048Y-91770159D01*
X164675280Y-91758336D01*
X164667712Y-91745710D01*
X164661418Y-91732403D01*
X164656459Y-91718543D01*
X164652882Y-91704264D01*
X164650722Y-91689703D01*
X164650000Y-91675000D01*
X164650000Y-90025000D01*
X164650722Y-90010297D01*
X164652882Y-89995736D01*
X164656459Y-89981457D01*
X164661418Y-89967597D01*
X164667712Y-89954290D01*
X164675280Y-89941664D01*
X164684048Y-89929841D01*
X164693934Y-89918934D01*
X164704841Y-89909048D01*
X164716664Y-89900280D01*
X164729290Y-89892712D01*
X164742597Y-89886418D01*
X164756457Y-89881459D01*
X164770736Y-89877882D01*
X164785297Y-89875722D01*
X164800000Y-89875000D01*
X165100000Y-89875000D01*
X165114703Y-89875722D01*
X165114703Y-89875722D01*
G37*
D11*
X164950000Y-90850000D03*
D10*
G36*
X163844703Y-89875722D02*
G01*
X163859264Y-89877882D01*
X163873543Y-89881459D01*
X163887403Y-89886418D01*
X163900710Y-89892712D01*
X163913336Y-89900280D01*
X163925159Y-89909048D01*
X163936066Y-89918934D01*
X163945952Y-89929841D01*
X163954720Y-89941664D01*
X163962288Y-89954290D01*
X163968582Y-89967597D01*
X163973541Y-89981457D01*
X163977118Y-89995736D01*
X163979278Y-90010297D01*
X163980000Y-90025000D01*
X163980000Y-91675000D01*
X163979278Y-91689703D01*
X163977118Y-91704264D01*
X163973541Y-91718543D01*
X163968582Y-91732403D01*
X163962288Y-91745710D01*
X163954720Y-91758336D01*
X163945952Y-91770159D01*
X163936066Y-91781066D01*
X163925159Y-91790952D01*
X163913336Y-91799720D01*
X163900710Y-91807288D01*
X163887403Y-91813582D01*
X163873543Y-91818541D01*
X163859264Y-91822118D01*
X163844703Y-91824278D01*
X163830000Y-91825000D01*
X163530000Y-91825000D01*
X163515297Y-91824278D01*
X163500736Y-91822118D01*
X163486457Y-91818541D01*
X163472597Y-91813582D01*
X163459290Y-91807288D01*
X163446664Y-91799720D01*
X163434841Y-91790952D01*
X163423934Y-91781066D01*
X163414048Y-91770159D01*
X163405280Y-91758336D01*
X163397712Y-91745710D01*
X163391418Y-91732403D01*
X163386459Y-91718543D01*
X163382882Y-91704264D01*
X163380722Y-91689703D01*
X163380000Y-91675000D01*
X163380000Y-90025000D01*
X163380722Y-90010297D01*
X163382882Y-89995736D01*
X163386459Y-89981457D01*
X163391418Y-89967597D01*
X163397712Y-89954290D01*
X163405280Y-89941664D01*
X163414048Y-89929841D01*
X163423934Y-89918934D01*
X163434841Y-89909048D01*
X163446664Y-89900280D01*
X163459290Y-89892712D01*
X163472597Y-89886418D01*
X163486457Y-89881459D01*
X163500736Y-89877882D01*
X163515297Y-89875722D01*
X163530000Y-89875000D01*
X163830000Y-89875000D01*
X163844703Y-89875722D01*
X163844703Y-89875722D01*
G37*
D11*
X163680000Y-90850000D03*
D10*
G36*
X171174505Y-99076204D02*
G01*
X171198773Y-99079804D01*
X171222572Y-99085765D01*
X171245671Y-99094030D01*
X171267850Y-99104520D01*
X171288893Y-99117132D01*
X171308599Y-99131747D01*
X171326777Y-99148223D01*
X171343253Y-99166401D01*
X171357868Y-99186107D01*
X171370480Y-99207150D01*
X171380970Y-99229329D01*
X171389235Y-99252428D01*
X171395196Y-99276227D01*
X171398796Y-99300495D01*
X171400000Y-99324999D01*
X171400000Y-99975001D01*
X171398796Y-99999505D01*
X171395196Y-100023773D01*
X171389235Y-100047572D01*
X171380970Y-100070671D01*
X171370480Y-100092850D01*
X171357868Y-100113893D01*
X171343253Y-100133599D01*
X171326777Y-100151777D01*
X171308599Y-100168253D01*
X171288893Y-100182868D01*
X171267850Y-100195480D01*
X171245671Y-100205970D01*
X171222572Y-100214235D01*
X171198773Y-100220196D01*
X171174505Y-100223796D01*
X171150001Y-100225000D01*
X170249999Y-100225000D01*
X170225495Y-100223796D01*
X170201227Y-100220196D01*
X170177428Y-100214235D01*
X170154329Y-100205970D01*
X170132150Y-100195480D01*
X170111107Y-100182868D01*
X170091401Y-100168253D01*
X170073223Y-100151777D01*
X170056747Y-100133599D01*
X170042132Y-100113893D01*
X170029520Y-100092850D01*
X170019030Y-100070671D01*
X170010765Y-100047572D01*
X170004804Y-100023773D01*
X170001204Y-99999505D01*
X170000000Y-99975001D01*
X170000000Y-99324999D01*
X170001204Y-99300495D01*
X170004804Y-99276227D01*
X170010765Y-99252428D01*
X170019030Y-99229329D01*
X170029520Y-99207150D01*
X170042132Y-99186107D01*
X170056747Y-99166401D01*
X170073223Y-99148223D01*
X170091401Y-99131747D01*
X170111107Y-99117132D01*
X170132150Y-99104520D01*
X170154329Y-99094030D01*
X170177428Y-99085765D01*
X170201227Y-99079804D01*
X170225495Y-99076204D01*
X170249999Y-99075000D01*
X171150001Y-99075000D01*
X171174505Y-99076204D01*
X171174505Y-99076204D01*
G37*
D12*
X170700000Y-99650000D03*
D10*
G36*
X171174505Y-101126204D02*
G01*
X171198773Y-101129804D01*
X171222572Y-101135765D01*
X171245671Y-101144030D01*
X171267850Y-101154520D01*
X171288893Y-101167132D01*
X171308599Y-101181747D01*
X171326777Y-101198223D01*
X171343253Y-101216401D01*
X171357868Y-101236107D01*
X171370480Y-101257150D01*
X171380970Y-101279329D01*
X171389235Y-101302428D01*
X171395196Y-101326227D01*
X171398796Y-101350495D01*
X171400000Y-101374999D01*
X171400000Y-102025001D01*
X171398796Y-102049505D01*
X171395196Y-102073773D01*
X171389235Y-102097572D01*
X171380970Y-102120671D01*
X171370480Y-102142850D01*
X171357868Y-102163893D01*
X171343253Y-102183599D01*
X171326777Y-102201777D01*
X171308599Y-102218253D01*
X171288893Y-102232868D01*
X171267850Y-102245480D01*
X171245671Y-102255970D01*
X171222572Y-102264235D01*
X171198773Y-102270196D01*
X171174505Y-102273796D01*
X171150001Y-102275000D01*
X170249999Y-102275000D01*
X170225495Y-102273796D01*
X170201227Y-102270196D01*
X170177428Y-102264235D01*
X170154329Y-102255970D01*
X170132150Y-102245480D01*
X170111107Y-102232868D01*
X170091401Y-102218253D01*
X170073223Y-102201777D01*
X170056747Y-102183599D01*
X170042132Y-102163893D01*
X170029520Y-102142850D01*
X170019030Y-102120671D01*
X170010765Y-102097572D01*
X170004804Y-102073773D01*
X170001204Y-102049505D01*
X170000000Y-102025001D01*
X170000000Y-101374999D01*
X170001204Y-101350495D01*
X170004804Y-101326227D01*
X170010765Y-101302428D01*
X170019030Y-101279329D01*
X170029520Y-101257150D01*
X170042132Y-101236107D01*
X170056747Y-101216401D01*
X170073223Y-101198223D01*
X170091401Y-101181747D01*
X170111107Y-101167132D01*
X170132150Y-101154520D01*
X170154329Y-101144030D01*
X170177428Y-101135765D01*
X170201227Y-101129804D01*
X170225495Y-101126204D01*
X170249999Y-101125000D01*
X171150001Y-101125000D01*
X171174505Y-101126204D01*
X171174505Y-101126204D01*
G37*
D12*
X170700000Y-101700000D03*
D10*
G36*
X173474505Y-101176204D02*
G01*
X173498773Y-101179804D01*
X173522572Y-101185765D01*
X173545671Y-101194030D01*
X173567850Y-101204520D01*
X173588893Y-101217132D01*
X173608599Y-101231747D01*
X173626777Y-101248223D01*
X173643253Y-101266401D01*
X173657868Y-101286107D01*
X173670480Y-101307150D01*
X173680970Y-101329329D01*
X173689235Y-101352428D01*
X173695196Y-101376227D01*
X173698796Y-101400495D01*
X173700000Y-101424999D01*
X173700000Y-102075001D01*
X173698796Y-102099505D01*
X173695196Y-102123773D01*
X173689235Y-102147572D01*
X173680970Y-102170671D01*
X173670480Y-102192850D01*
X173657868Y-102213893D01*
X173643253Y-102233599D01*
X173626777Y-102251777D01*
X173608599Y-102268253D01*
X173588893Y-102282868D01*
X173567850Y-102295480D01*
X173545671Y-102305970D01*
X173522572Y-102314235D01*
X173498773Y-102320196D01*
X173474505Y-102323796D01*
X173450001Y-102325000D01*
X172549999Y-102325000D01*
X172525495Y-102323796D01*
X172501227Y-102320196D01*
X172477428Y-102314235D01*
X172454329Y-102305970D01*
X172432150Y-102295480D01*
X172411107Y-102282868D01*
X172391401Y-102268253D01*
X172373223Y-102251777D01*
X172356747Y-102233599D01*
X172342132Y-102213893D01*
X172329520Y-102192850D01*
X172319030Y-102170671D01*
X172310765Y-102147572D01*
X172304804Y-102123773D01*
X172301204Y-102099505D01*
X172300000Y-102075001D01*
X172300000Y-101424999D01*
X172301204Y-101400495D01*
X172304804Y-101376227D01*
X172310765Y-101352428D01*
X172319030Y-101329329D01*
X172329520Y-101307150D01*
X172342132Y-101286107D01*
X172356747Y-101266401D01*
X172373223Y-101248223D01*
X172391401Y-101231747D01*
X172411107Y-101217132D01*
X172432150Y-101204520D01*
X172454329Y-101194030D01*
X172477428Y-101185765D01*
X172501227Y-101179804D01*
X172525495Y-101176204D01*
X172549999Y-101175000D01*
X173450001Y-101175000D01*
X173474505Y-101176204D01*
X173474505Y-101176204D01*
G37*
D12*
X173000000Y-101750000D03*
D10*
G36*
X173474505Y-99126204D02*
G01*
X173498773Y-99129804D01*
X173522572Y-99135765D01*
X173545671Y-99144030D01*
X173567850Y-99154520D01*
X173588893Y-99167132D01*
X173608599Y-99181747D01*
X173626777Y-99198223D01*
X173643253Y-99216401D01*
X173657868Y-99236107D01*
X173670480Y-99257150D01*
X173680970Y-99279329D01*
X173689235Y-99302428D01*
X173695196Y-99326227D01*
X173698796Y-99350495D01*
X173700000Y-99374999D01*
X173700000Y-100025001D01*
X173698796Y-100049505D01*
X173695196Y-100073773D01*
X173689235Y-100097572D01*
X173680970Y-100120671D01*
X173670480Y-100142850D01*
X173657868Y-100163893D01*
X173643253Y-100183599D01*
X173626777Y-100201777D01*
X173608599Y-100218253D01*
X173588893Y-100232868D01*
X173567850Y-100245480D01*
X173545671Y-100255970D01*
X173522572Y-100264235D01*
X173498773Y-100270196D01*
X173474505Y-100273796D01*
X173450001Y-100275000D01*
X172549999Y-100275000D01*
X172525495Y-100273796D01*
X172501227Y-100270196D01*
X172477428Y-100264235D01*
X172454329Y-100255970D01*
X172432150Y-100245480D01*
X172411107Y-100232868D01*
X172391401Y-100218253D01*
X172373223Y-100201777D01*
X172356747Y-100183599D01*
X172342132Y-100163893D01*
X172329520Y-100142850D01*
X172319030Y-100120671D01*
X172310765Y-100097572D01*
X172304804Y-100073773D01*
X172301204Y-100049505D01*
X172300000Y-100025001D01*
X172300000Y-99374999D01*
X172301204Y-99350495D01*
X172304804Y-99326227D01*
X172310765Y-99302428D01*
X172319030Y-99279329D01*
X172329520Y-99257150D01*
X172342132Y-99236107D01*
X172356747Y-99216401D01*
X172373223Y-99198223D01*
X172391401Y-99181747D01*
X172411107Y-99167132D01*
X172432150Y-99154520D01*
X172454329Y-99144030D01*
X172477428Y-99135765D01*
X172501227Y-99129804D01*
X172525495Y-99126204D01*
X172549999Y-99125000D01*
X173450001Y-99125000D01*
X173474505Y-99126204D01*
X173474505Y-99126204D01*
G37*
D12*
X173000000Y-99700000D03*
D10*
G36*
X168874505Y-101126204D02*
G01*
X168898773Y-101129804D01*
X168922572Y-101135765D01*
X168945671Y-101144030D01*
X168967850Y-101154520D01*
X168988893Y-101167132D01*
X169008599Y-101181747D01*
X169026777Y-101198223D01*
X169043253Y-101216401D01*
X169057868Y-101236107D01*
X169070480Y-101257150D01*
X169080970Y-101279329D01*
X169089235Y-101302428D01*
X169095196Y-101326227D01*
X169098796Y-101350495D01*
X169100000Y-101374999D01*
X169100000Y-102025001D01*
X169098796Y-102049505D01*
X169095196Y-102073773D01*
X169089235Y-102097572D01*
X169080970Y-102120671D01*
X169070480Y-102142850D01*
X169057868Y-102163893D01*
X169043253Y-102183599D01*
X169026777Y-102201777D01*
X169008599Y-102218253D01*
X168988893Y-102232868D01*
X168967850Y-102245480D01*
X168945671Y-102255970D01*
X168922572Y-102264235D01*
X168898773Y-102270196D01*
X168874505Y-102273796D01*
X168850001Y-102275000D01*
X167949999Y-102275000D01*
X167925495Y-102273796D01*
X167901227Y-102270196D01*
X167877428Y-102264235D01*
X167854329Y-102255970D01*
X167832150Y-102245480D01*
X167811107Y-102232868D01*
X167791401Y-102218253D01*
X167773223Y-102201777D01*
X167756747Y-102183599D01*
X167742132Y-102163893D01*
X167729520Y-102142850D01*
X167719030Y-102120671D01*
X167710765Y-102097572D01*
X167704804Y-102073773D01*
X167701204Y-102049505D01*
X167700000Y-102025001D01*
X167700000Y-101374999D01*
X167701204Y-101350495D01*
X167704804Y-101326227D01*
X167710765Y-101302428D01*
X167719030Y-101279329D01*
X167729520Y-101257150D01*
X167742132Y-101236107D01*
X167756747Y-101216401D01*
X167773223Y-101198223D01*
X167791401Y-101181747D01*
X167811107Y-101167132D01*
X167832150Y-101154520D01*
X167854329Y-101144030D01*
X167877428Y-101135765D01*
X167901227Y-101129804D01*
X167925495Y-101126204D01*
X167949999Y-101125000D01*
X168850001Y-101125000D01*
X168874505Y-101126204D01*
X168874505Y-101126204D01*
G37*
D12*
X168400000Y-101700000D03*
D10*
G36*
X168874505Y-99076204D02*
G01*
X168898773Y-99079804D01*
X168922572Y-99085765D01*
X168945671Y-99094030D01*
X168967850Y-99104520D01*
X168988893Y-99117132D01*
X169008599Y-99131747D01*
X169026777Y-99148223D01*
X169043253Y-99166401D01*
X169057868Y-99186107D01*
X169070480Y-99207150D01*
X169080970Y-99229329D01*
X169089235Y-99252428D01*
X169095196Y-99276227D01*
X169098796Y-99300495D01*
X169100000Y-99324999D01*
X169100000Y-99975001D01*
X169098796Y-99999505D01*
X169095196Y-100023773D01*
X169089235Y-100047572D01*
X169080970Y-100070671D01*
X169070480Y-100092850D01*
X169057868Y-100113893D01*
X169043253Y-100133599D01*
X169026777Y-100151777D01*
X169008599Y-100168253D01*
X168988893Y-100182868D01*
X168967850Y-100195480D01*
X168945671Y-100205970D01*
X168922572Y-100214235D01*
X168898773Y-100220196D01*
X168874505Y-100223796D01*
X168850001Y-100225000D01*
X167949999Y-100225000D01*
X167925495Y-100223796D01*
X167901227Y-100220196D01*
X167877428Y-100214235D01*
X167854329Y-100205970D01*
X167832150Y-100195480D01*
X167811107Y-100182868D01*
X167791401Y-100168253D01*
X167773223Y-100151777D01*
X167756747Y-100133599D01*
X167742132Y-100113893D01*
X167729520Y-100092850D01*
X167719030Y-100070671D01*
X167710765Y-100047572D01*
X167704804Y-100023773D01*
X167701204Y-99999505D01*
X167700000Y-99975001D01*
X167700000Y-99324999D01*
X167701204Y-99300495D01*
X167704804Y-99276227D01*
X167710765Y-99252428D01*
X167719030Y-99229329D01*
X167729520Y-99207150D01*
X167742132Y-99186107D01*
X167756747Y-99166401D01*
X167773223Y-99148223D01*
X167791401Y-99131747D01*
X167811107Y-99117132D01*
X167832150Y-99104520D01*
X167854329Y-99094030D01*
X167877428Y-99085765D01*
X167901227Y-99079804D01*
X167925495Y-99076204D01*
X167949999Y-99075000D01*
X168850001Y-99075000D01*
X168874505Y-99076204D01*
X168874505Y-99076204D01*
G37*
D12*
X168400000Y-99650000D03*
D10*
G36*
X177774505Y-103026204D02*
G01*
X177798773Y-103029804D01*
X177822572Y-103035765D01*
X177845671Y-103044030D01*
X177867850Y-103054520D01*
X177888893Y-103067132D01*
X177908599Y-103081747D01*
X177926777Y-103098223D01*
X177943253Y-103116401D01*
X177957868Y-103136107D01*
X177970480Y-103157150D01*
X177980970Y-103179329D01*
X177989235Y-103202428D01*
X177995196Y-103226227D01*
X177998796Y-103250495D01*
X178000000Y-103274999D01*
X178000000Y-103925001D01*
X177998796Y-103949505D01*
X177995196Y-103973773D01*
X177989235Y-103997572D01*
X177980970Y-104020671D01*
X177970480Y-104042850D01*
X177957868Y-104063893D01*
X177943253Y-104083599D01*
X177926777Y-104101777D01*
X177908599Y-104118253D01*
X177888893Y-104132868D01*
X177867850Y-104145480D01*
X177845671Y-104155970D01*
X177822572Y-104164235D01*
X177798773Y-104170196D01*
X177774505Y-104173796D01*
X177750001Y-104175000D01*
X176849999Y-104175000D01*
X176825495Y-104173796D01*
X176801227Y-104170196D01*
X176777428Y-104164235D01*
X176754329Y-104155970D01*
X176732150Y-104145480D01*
X176711107Y-104132868D01*
X176691401Y-104118253D01*
X176673223Y-104101777D01*
X176656747Y-104083599D01*
X176642132Y-104063893D01*
X176629520Y-104042850D01*
X176619030Y-104020671D01*
X176610765Y-103997572D01*
X176604804Y-103973773D01*
X176601204Y-103949505D01*
X176600000Y-103925001D01*
X176600000Y-103274999D01*
X176601204Y-103250495D01*
X176604804Y-103226227D01*
X176610765Y-103202428D01*
X176619030Y-103179329D01*
X176629520Y-103157150D01*
X176642132Y-103136107D01*
X176656747Y-103116401D01*
X176673223Y-103098223D01*
X176691401Y-103081747D01*
X176711107Y-103067132D01*
X176732150Y-103054520D01*
X176754329Y-103044030D01*
X176777428Y-103035765D01*
X176801227Y-103029804D01*
X176825495Y-103026204D01*
X176849999Y-103025000D01*
X177750001Y-103025000D01*
X177774505Y-103026204D01*
X177774505Y-103026204D01*
G37*
D12*
X177300000Y-103600000D03*
D10*
G36*
X177774505Y-100976204D02*
G01*
X177798773Y-100979804D01*
X177822572Y-100985765D01*
X177845671Y-100994030D01*
X177867850Y-101004520D01*
X177888893Y-101017132D01*
X177908599Y-101031747D01*
X177926777Y-101048223D01*
X177943253Y-101066401D01*
X177957868Y-101086107D01*
X177970480Y-101107150D01*
X177980970Y-101129329D01*
X177989235Y-101152428D01*
X177995196Y-101176227D01*
X177998796Y-101200495D01*
X178000000Y-101224999D01*
X178000000Y-101875001D01*
X177998796Y-101899505D01*
X177995196Y-101923773D01*
X177989235Y-101947572D01*
X177980970Y-101970671D01*
X177970480Y-101992850D01*
X177957868Y-102013893D01*
X177943253Y-102033599D01*
X177926777Y-102051777D01*
X177908599Y-102068253D01*
X177888893Y-102082868D01*
X177867850Y-102095480D01*
X177845671Y-102105970D01*
X177822572Y-102114235D01*
X177798773Y-102120196D01*
X177774505Y-102123796D01*
X177750001Y-102125000D01*
X176849999Y-102125000D01*
X176825495Y-102123796D01*
X176801227Y-102120196D01*
X176777428Y-102114235D01*
X176754329Y-102105970D01*
X176732150Y-102095480D01*
X176711107Y-102082868D01*
X176691401Y-102068253D01*
X176673223Y-102051777D01*
X176656747Y-102033599D01*
X176642132Y-102013893D01*
X176629520Y-101992850D01*
X176619030Y-101970671D01*
X176610765Y-101947572D01*
X176604804Y-101923773D01*
X176601204Y-101899505D01*
X176600000Y-101875001D01*
X176600000Y-101224999D01*
X176601204Y-101200495D01*
X176604804Y-101176227D01*
X176610765Y-101152428D01*
X176619030Y-101129329D01*
X176629520Y-101107150D01*
X176642132Y-101086107D01*
X176656747Y-101066401D01*
X176673223Y-101048223D01*
X176691401Y-101031747D01*
X176711107Y-101017132D01*
X176732150Y-101004520D01*
X176754329Y-100994030D01*
X176777428Y-100985765D01*
X176801227Y-100979804D01*
X176825495Y-100976204D01*
X176849999Y-100975000D01*
X177750001Y-100975000D01*
X177774505Y-100976204D01*
X177774505Y-100976204D01*
G37*
D12*
X177300000Y-101550000D03*
D10*
G36*
X177774505Y-77051204D02*
G01*
X177798773Y-77054804D01*
X177822572Y-77060765D01*
X177845671Y-77069030D01*
X177867850Y-77079520D01*
X177888893Y-77092132D01*
X177908599Y-77106747D01*
X177926777Y-77123223D01*
X177943253Y-77141401D01*
X177957868Y-77161107D01*
X177970480Y-77182150D01*
X177980970Y-77204329D01*
X177989235Y-77227428D01*
X177995196Y-77251227D01*
X177998796Y-77275495D01*
X178000000Y-77299999D01*
X178000000Y-77950001D01*
X177998796Y-77974505D01*
X177995196Y-77998773D01*
X177989235Y-78022572D01*
X177980970Y-78045671D01*
X177970480Y-78067850D01*
X177957868Y-78088893D01*
X177943253Y-78108599D01*
X177926777Y-78126777D01*
X177908599Y-78143253D01*
X177888893Y-78157868D01*
X177867850Y-78170480D01*
X177845671Y-78180970D01*
X177822572Y-78189235D01*
X177798773Y-78195196D01*
X177774505Y-78198796D01*
X177750001Y-78200000D01*
X176849999Y-78200000D01*
X176825495Y-78198796D01*
X176801227Y-78195196D01*
X176777428Y-78189235D01*
X176754329Y-78180970D01*
X176732150Y-78170480D01*
X176711107Y-78157868D01*
X176691401Y-78143253D01*
X176673223Y-78126777D01*
X176656747Y-78108599D01*
X176642132Y-78088893D01*
X176629520Y-78067850D01*
X176619030Y-78045671D01*
X176610765Y-78022572D01*
X176604804Y-77998773D01*
X176601204Y-77974505D01*
X176600000Y-77950001D01*
X176600000Y-77299999D01*
X176601204Y-77275495D01*
X176604804Y-77251227D01*
X176610765Y-77227428D01*
X176619030Y-77204329D01*
X176629520Y-77182150D01*
X176642132Y-77161107D01*
X176656747Y-77141401D01*
X176673223Y-77123223D01*
X176691401Y-77106747D01*
X176711107Y-77092132D01*
X176732150Y-77079520D01*
X176754329Y-77069030D01*
X176777428Y-77060765D01*
X176801227Y-77054804D01*
X176825495Y-77051204D01*
X176849999Y-77050000D01*
X177750001Y-77050000D01*
X177774505Y-77051204D01*
X177774505Y-77051204D01*
G37*
D12*
X177300000Y-77625000D03*
D10*
G36*
X177774505Y-75001204D02*
G01*
X177798773Y-75004804D01*
X177822572Y-75010765D01*
X177845671Y-75019030D01*
X177867850Y-75029520D01*
X177888893Y-75042132D01*
X177908599Y-75056747D01*
X177926777Y-75073223D01*
X177943253Y-75091401D01*
X177957868Y-75111107D01*
X177970480Y-75132150D01*
X177980970Y-75154329D01*
X177989235Y-75177428D01*
X177995196Y-75201227D01*
X177998796Y-75225495D01*
X178000000Y-75249999D01*
X178000000Y-75900001D01*
X177998796Y-75924505D01*
X177995196Y-75948773D01*
X177989235Y-75972572D01*
X177980970Y-75995671D01*
X177970480Y-76017850D01*
X177957868Y-76038893D01*
X177943253Y-76058599D01*
X177926777Y-76076777D01*
X177908599Y-76093253D01*
X177888893Y-76107868D01*
X177867850Y-76120480D01*
X177845671Y-76130970D01*
X177822572Y-76139235D01*
X177798773Y-76145196D01*
X177774505Y-76148796D01*
X177750001Y-76150000D01*
X176849999Y-76150000D01*
X176825495Y-76148796D01*
X176801227Y-76145196D01*
X176777428Y-76139235D01*
X176754329Y-76130970D01*
X176732150Y-76120480D01*
X176711107Y-76107868D01*
X176691401Y-76093253D01*
X176673223Y-76076777D01*
X176656747Y-76058599D01*
X176642132Y-76038893D01*
X176629520Y-76017850D01*
X176619030Y-75995671D01*
X176610765Y-75972572D01*
X176604804Y-75948773D01*
X176601204Y-75924505D01*
X176600000Y-75900001D01*
X176600000Y-75249999D01*
X176601204Y-75225495D01*
X176604804Y-75201227D01*
X176610765Y-75177428D01*
X176619030Y-75154329D01*
X176629520Y-75132150D01*
X176642132Y-75111107D01*
X176656747Y-75091401D01*
X176673223Y-75073223D01*
X176691401Y-75056747D01*
X176711107Y-75042132D01*
X176732150Y-75029520D01*
X176754329Y-75019030D01*
X176777428Y-75010765D01*
X176801227Y-75004804D01*
X176825495Y-75001204D01*
X176849999Y-75000000D01*
X177750001Y-75000000D01*
X177774505Y-75001204D01*
X177774505Y-75001204D01*
G37*
D12*
X177300000Y-75575000D03*
D10*
G36*
X162924505Y-79501204D02*
G01*
X162948773Y-79504804D01*
X162972572Y-79510765D01*
X162995671Y-79519030D01*
X163017850Y-79529520D01*
X163038893Y-79542132D01*
X163058599Y-79556747D01*
X163076777Y-79573223D01*
X163093253Y-79591401D01*
X163107868Y-79611107D01*
X163120480Y-79632150D01*
X163130970Y-79654329D01*
X163139235Y-79677428D01*
X163145196Y-79701227D01*
X163148796Y-79725495D01*
X163150000Y-79749999D01*
X163150000Y-80400001D01*
X163148796Y-80424505D01*
X163145196Y-80448773D01*
X163139235Y-80472572D01*
X163130970Y-80495671D01*
X163120480Y-80517850D01*
X163107868Y-80538893D01*
X163093253Y-80558599D01*
X163076777Y-80576777D01*
X163058599Y-80593253D01*
X163038893Y-80607868D01*
X163017850Y-80620480D01*
X162995671Y-80630970D01*
X162972572Y-80639235D01*
X162948773Y-80645196D01*
X162924505Y-80648796D01*
X162900001Y-80650000D01*
X161999999Y-80650000D01*
X161975495Y-80648796D01*
X161951227Y-80645196D01*
X161927428Y-80639235D01*
X161904329Y-80630970D01*
X161882150Y-80620480D01*
X161861107Y-80607868D01*
X161841401Y-80593253D01*
X161823223Y-80576777D01*
X161806747Y-80558599D01*
X161792132Y-80538893D01*
X161779520Y-80517850D01*
X161769030Y-80495671D01*
X161760765Y-80472572D01*
X161754804Y-80448773D01*
X161751204Y-80424505D01*
X161750000Y-80400001D01*
X161750000Y-79749999D01*
X161751204Y-79725495D01*
X161754804Y-79701227D01*
X161760765Y-79677428D01*
X161769030Y-79654329D01*
X161779520Y-79632150D01*
X161792132Y-79611107D01*
X161806747Y-79591401D01*
X161823223Y-79573223D01*
X161841401Y-79556747D01*
X161861107Y-79542132D01*
X161882150Y-79529520D01*
X161904329Y-79519030D01*
X161927428Y-79510765D01*
X161951227Y-79504804D01*
X161975495Y-79501204D01*
X161999999Y-79500000D01*
X162900001Y-79500000D01*
X162924505Y-79501204D01*
X162924505Y-79501204D01*
G37*
D12*
X162450000Y-80075000D03*
D10*
G36*
X162924505Y-81551204D02*
G01*
X162948773Y-81554804D01*
X162972572Y-81560765D01*
X162995671Y-81569030D01*
X163017850Y-81579520D01*
X163038893Y-81592132D01*
X163058599Y-81606747D01*
X163076777Y-81623223D01*
X163093253Y-81641401D01*
X163107868Y-81661107D01*
X163120480Y-81682150D01*
X163130970Y-81704329D01*
X163139235Y-81727428D01*
X163145196Y-81751227D01*
X163148796Y-81775495D01*
X163150000Y-81799999D01*
X163150000Y-82450001D01*
X163148796Y-82474505D01*
X163145196Y-82498773D01*
X163139235Y-82522572D01*
X163130970Y-82545671D01*
X163120480Y-82567850D01*
X163107868Y-82588893D01*
X163093253Y-82608599D01*
X163076777Y-82626777D01*
X163058599Y-82643253D01*
X163038893Y-82657868D01*
X163017850Y-82670480D01*
X162995671Y-82680970D01*
X162972572Y-82689235D01*
X162948773Y-82695196D01*
X162924505Y-82698796D01*
X162900001Y-82700000D01*
X161999999Y-82700000D01*
X161975495Y-82698796D01*
X161951227Y-82695196D01*
X161927428Y-82689235D01*
X161904329Y-82680970D01*
X161882150Y-82670480D01*
X161861107Y-82657868D01*
X161841401Y-82643253D01*
X161823223Y-82626777D01*
X161806747Y-82608599D01*
X161792132Y-82588893D01*
X161779520Y-82567850D01*
X161769030Y-82545671D01*
X161760765Y-82522572D01*
X161754804Y-82498773D01*
X161751204Y-82474505D01*
X161750000Y-82450001D01*
X161750000Y-81799999D01*
X161751204Y-81775495D01*
X161754804Y-81751227D01*
X161760765Y-81727428D01*
X161769030Y-81704329D01*
X161779520Y-81682150D01*
X161792132Y-81661107D01*
X161806747Y-81641401D01*
X161823223Y-81623223D01*
X161841401Y-81606747D01*
X161861107Y-81592132D01*
X161882150Y-81579520D01*
X161904329Y-81569030D01*
X161927428Y-81560765D01*
X161951227Y-81554804D01*
X161975495Y-81551204D01*
X161999999Y-81550000D01*
X162900001Y-81550000D01*
X162924505Y-81551204D01*
X162924505Y-81551204D01*
G37*
D12*
X162450000Y-82125000D03*
D13*
X177300000Y-95600000D03*
X177300000Y-83725000D03*
D14*
X183300000Y-130100000D03*
D15*
X181650000Y-127400000D03*
X181000000Y-127400000D03*
X183600000Y-127400000D03*
X182950000Y-127400000D03*
X182300000Y-127400000D03*
D14*
X181300000Y-130100000D03*
M02*
