%TF.GenerationSoftware,KiCad,Pcbnew,(5.1.2-1)-1*%
%TF.CreationDate,2019-08-17T10:29:18+10:00*%
%TF.ProjectId,GreengrassEntryHardware,47726565-6e67-4726-9173-73456e747279,v1.0*%
%TF.SameCoordinates,Original*%
%TF.FileFunction,Profile,NP*%
%FSLAX46Y46*%
G04 Gerber Fmt 4.6, Leading zero omitted, Abs format (unit mm)*
G04 Created by KiCad (PCBNEW (5.1.2-1)-1) date 2019-08-17 10:29:18*
%MOMM*%
%LPD*%
G04 APERTURE LIST*
%ADD10C,0.050000*%
G04 APERTURE END LIST*
D10*
X109800000Y-131600000D02*
X186800000Y-131600000D01*
X108300000Y-118100000D02*
X108300000Y-130100000D01*
X109800000Y-116600000D02*
X119300000Y-116600000D01*
X109800000Y-131600000D02*
G75*
G02X108300000Y-130100000I0J1500000D01*
G01*
X108300000Y-118100000D02*
G75*
G02X109800000Y-116600000I1500000J0D01*
G01*
X188300000Y-118100000D02*
X188300000Y-130100000D01*
X177300000Y-116600000D02*
X186800000Y-116600000D01*
X186800000Y-116600000D02*
G75*
G02X188300000Y-118100000I0J-1500000D01*
G01*
X188300000Y-130100000D02*
G75*
G02X186800000Y-131600000I-1500000J0D01*
G01*
X177300000Y-116600000D02*
G75*
G02X177300000Y-111600000I0J2500000D01*
G01*
X119300000Y-111600000D02*
G75*
G02X119300000Y-116600000I0J-2500000D01*
G01*
X119300000Y-54600000D02*
X177300000Y-54600000D01*
X115300000Y-107600000D02*
X115300000Y-58600000D01*
X181300000Y-58600000D02*
X181300000Y-107600000D01*
X119300000Y-111600000D02*
G75*
G02X115300000Y-107600000I0J4000000D01*
G01*
X181300000Y-107600000D02*
G75*
G02X177300000Y-111600000I-4000000J0D01*
G01*
X177300000Y-54600000D02*
G75*
G02X181300000Y-58600000I0J-4000000D01*
G01*
X115300000Y-58600000D02*
G75*
G02X119300000Y-54600000I4000000J0D01*
G01*
X120800000Y-107600000D02*
G75*
G03X120800000Y-107600000I-1500000J0D01*
G01*
X178800000Y-107600000D02*
G75*
G03X178800000Y-107600000I-1500000J0D01*
G01*
X178800000Y-58600000D02*
G75*
G03X178800000Y-58600000I-1500000J0D01*
G01*
X120800000Y-58600000D02*
G75*
G03X120800000Y-58600000I-1500000J0D01*
G01*
M02*
